<svg width="35" height="36" viewBox="0 0 35 36" fill="none" xmlns="http://www.w3.org/2000/svg">
<path d="M17.4863 3.2749C9.03369 3.27149 2.1875 10.1143 2.1875 18.5601C2.1875 25.2388 6.47021 30.916 12.4346 33.001C13.2378 33.2026 13.1147 32.6318 13.1147 32.2422V29.5933C8.47656 30.1367 8.28857 27.0674 7.97754 26.5547C7.34863 25.4815 5.86182 25.208 6.30615 24.6953C7.3623 24.1519 8.43896 24.832 9.68652 26.6743C10.5889 28.0107 12.3491 27.7852 13.2412 27.563C13.436 26.7598 13.853 26.042 14.4272 25.4849C9.62158 24.6235 7.61865 21.6909 7.61865 18.2046C7.61865 16.5127 8.17578 14.9575 9.26953 13.7031C8.57227 11.6353 9.33447 9.86475 9.43701 9.60156C11.4229 9.42383 13.4873 11.0234 13.6479 11.1499C14.7759 10.8457 16.0645 10.6851 17.5068 10.6851C18.9561 10.6851 20.248 10.8525 21.3862 11.1602C21.7725 10.8662 23.6865 9.49219 25.5322 9.65967C25.6313 9.92285 26.3765 11.6523 25.7202 13.6929C26.8276 14.9507 27.3916 16.5195 27.3916 18.2148C27.3916 21.708 25.375 24.644 20.5557 25.4917C20.9685 25.8977 21.2962 26.3818 21.5198 26.9158C21.7434 27.4499 21.8583 28.0231 21.8579 28.6021V32.4473C21.8853 32.7549 21.8579 33.0591 22.3706 33.0591C28.4238 31.0186 32.7817 25.3003 32.7817 18.5635C32.7817 10.1143 25.9321 3.2749 17.4863 3.2749Z" fill="black"/>
</svg>
