<svg width="30" height="31" viewBox="0 0 30 31" fill="none" xmlns="http://www.w3.org/2000/svg">
<path d="M27.2569 13.2189H26.25V13.167H15V18.167H22.0644C21.0338 21.0776 18.2644 23.167 15 23.167C10.8581 23.167 7.5 19.8089 7.5 15.667C7.5 11.5251 10.8581 8.16699 15 8.16699C16.9119 8.16699 18.6513 8.88824 19.9756 10.0664L23.5112 6.53074C21.2787 4.45012 18.2925 3.16699 15 3.16699C8.09688 3.16699 2.5 8.76387 2.5 15.667C2.5 22.5701 8.09688 28.167 15 28.167C21.9031 28.167 27.5 22.5701 27.5 15.667C27.5 14.8289 27.4137 14.0107 27.2569 13.2189Z" fill="#FFC107"/>
<path d="M3.94116 9.84887L8.04804 12.8607C9.15929 10.1095 11.8505 8.16699 14.9999 8.16699C16.9118 8.16699 18.6512 8.88824 19.9755 10.0664L23.5112 6.53074C21.2787 4.45012 18.2924 3.16699 14.9999 3.16699C10.1987 3.16699 6.03491 5.87762 3.94116 9.84887Z" fill="#FF3D00"/>
<path d="M15.0001 28.1669C18.2288 28.1669 21.1626 26.9313 23.3807 24.9219L19.5119 21.6482C18.2148 22.6347 16.6297 23.1682 15.0001 23.1669C11.7488 23.1669 8.9882 21.0938 7.9482 18.2007L3.87195 21.3413C5.9407 25.3894 10.1419 28.1669 15.0001 28.1669Z" fill="#4CAF50"/>
<path d="M27.2569 13.2189H26.25V13.167H15V18.167H22.0644C21.5714 19.5523 20.6833 20.7627 19.51 21.6489L19.5119 21.6476L23.3806 24.9214C23.1069 25.1701 27.5 21.917 27.5 15.667C27.5 14.8289 27.4137 14.0107 27.2569 13.2189Z" fill="#1976D2"/>
</svg>
