<svg width="35" height="36" viewBox="0 0 35 36" fill="none" xmlns="http://www.w3.org/2000/svg">
<g clip-path="url(#clip0_5266_10565)">
<path d="M9.04312 31.292H2.69391V10.8454H9.04312V31.292ZM5.86469 8.05637C3.83469 8.05637 2.1875 6.37418 2.1875 4.34418C2.1875 3.36893 2.57492 2.43362 3.26452 1.74402C3.95413 1.05441 4.88944 0.666992 5.86469 0.666992C6.83994 0.666992 7.77524 1.05441 8.46485 1.74402C9.15446 2.43362 9.54187 3.36893 9.54187 4.34418C9.54187 6.37418 7.89469 8.05637 5.86469 8.05637ZM32.8059 31.292H26.4709V21.3389C26.4709 18.9665 26.4228 15.9248 23.17 15.9248C19.8691 15.9248 19.3627 18.5017 19.3627 21.1682V31.292H13.02V10.8454H19.1089V13.6345H19.1975C20.0452 12.0278 22.1156 10.3325 25.2044 10.3325C31.6302 10.3325 32.8114 14.5642 32.8114 20.0603V31.292H32.8059Z" fill="#0E76A8"/>
</g>
<defs>
<clipPath id="clip0_5266_10565">
<rect width="35" height="35" fill="white" transform="translate(0 0.666992)"/>
</clipPath>
</defs>
</svg>
