<svg width="212" height="56" viewBox="0 0 212 56" fill="none" xmlns="http://www.w3.org/2000/svg">
<path d="M67.7783 15.0574H71.2852L72.5244 22.5808L72.7441 24.3826H72.9199L73.1572 22.5808L74.4668 15.0574H76.9717L74.5635 27.5642H70.6875L69.6328 20.7791L69.4482 18.907H69.2725L69.0703 20.7791L67.8311 27.5642H63.9551L61.5469 15.0574H64.6055L65.8447 22.5808L66.0645 24.3826H66.2402L66.4775 22.5808L67.7783 15.0574ZM86.9385 27.5642H78.7822V15.0574H86.9385V17.3425H81.6211V20.1462H86.3408V22.2732H81.6211V25.2791H86.9385V27.5642ZM89.3643 15.0574H96.5273L98.5049 17.0349V19.698L97.2305 20.9724L98.9355 22.6863V25.5867L96.958 27.5642H89.3643V15.0574ZM95.666 19.4783V17.9138L94.9277 17.1755H92.2031V20.1638H94.9805L95.666 19.4783ZM96.0967 24.699V22.9236L95.3584 22.1853H92.2031V25.4373H95.3584L96.0967 24.699ZM106.371 24.0574H100.377V21.7722H106.371V24.0574ZM116.048 27.6521H110.15L108.164 25.6746V16.947L110.15 14.9607H115.942L117.604 16.6746L115.582 18.5115L114.343 17.2722H111.75L111.012 18.0105V24.6111L111.75 25.3494H114.501L115.942 23.9255L117.902 25.7625L116.048 27.6521ZM121.392 17.5183H117.99V15.0574H127.632V17.5183H124.23V27.5642H121.392V17.5183ZM134.373 27.5642H130.11V25.3318H133.239L133.89 24.699L134.127 23.3894H129.987L128.273 15.0574H131.297L132.378 21.157H134.461L135.419 15.0574H138.17L136.359 25.5867L134.373 27.5642ZM141.009 29.7966H138.161V25.2615H139.022L139.638 24.6462L140.701 15.0574H148.567V25.2615H149.824V29.7966H146.985V27.5642H141.009V29.7966ZM143.127 17.3601L142.301 24.5935L141.475 25.2615H145.72V17.3601H143.127ZM158.104 20.5769L154.983 27.5642H151.802V15.0574H154.641V23.3542H154.737L155.115 22.0535L158.227 15.0574H161.408V27.5642H158.569V19.2673H158.481L158.104 20.5769ZM170.259 23.0818H168.817L166.515 27.5642H163.491L166.119 22.7742L164.115 20.8669V17.0349L166.102 15.0574H173.098V27.5642H170.259V23.0818ZM170.259 17.1755H167.701L166.963 17.9138V20.2166L167.701 20.9548H170.259V17.1755ZM181.57 27.6521L179.584 25.6746V16.947L181.57 14.9607H187.468L189.454 16.947V25.6746L187.468 27.6521H181.57ZM186.606 24.6111V18.0105L185.868 17.2722H183.17L182.432 18.0105V24.6111L183.17 25.3494H185.868L186.606 24.6111ZM193.963 27.6521L191.977 25.6746V16.947L193.963 14.9607H199.86L201.847 16.947V25.6746L199.86 27.6521H193.963ZM198.999 24.6111V18.0105L198.261 17.2722H195.562L194.824 18.0105V24.6111L195.562 25.3494H198.261L198.999 24.6111ZM207.683 27.5642H203.648V25.0945H206.048L206.821 24.321V17.3601H204.659V15.0574H209.66V25.5867L207.683 27.5642Z" fill="#151A2C"/>
<path d="M64.7222 31.4905H65.6943V34.4285L66.5376 33.6335H68.0576L69.0137 34.5896V38.1238L68.0576 39.0798H66.5376L65.6943 38.2903H65.646L65.4365 39.0798H64.7222V31.4905ZM67.4937 38.2419L68.0361 37.7048V35.0085L67.4937 34.4714H66.7686L65.6943 35.3953V37.3181L66.7686 38.2419H67.4937ZM74.8505 40.2776L73.8891 41.2336H71.4077L70.5913 40.4226L71.2627 39.762L71.9018 40.4011H73.3413L73.8784 39.8586V38.8059L73.5293 39.0798H71.6279L70.6665 38.1238V33.6335H71.6386V37.7048L72.1757 38.2419H73.8784V33.6335H74.8505V40.2776ZM83.9301 39.0798H82.8397L82.2596 37.2214H79.7191L79.1552 39.0798H78.1454L80.455 31.4905H81.5453L83.9301 39.0798ZM80.9384 32.8118L80.7987 33.6335L80.0038 36.2761H81.9642L81.1371 33.6335L80.9921 32.8118H80.9384ZM85.7923 34.4285H85.8407L86.6732 33.6335H87.785V34.5251H86.8827L85.8407 35.4167V39.0798H84.8685V33.6335H85.5829L85.7923 34.4285ZM88.949 34.4714H88.2776V33.6335H88.949V32.7312L89.8621 32.2048H89.9158V33.6335H91.0062V34.4714H89.9158V37.6511L90.4529 38.1882H91.4144V39.0798H89.9051L88.949 38.1238V34.4714ZM96.8054 40.2776L95.844 41.2336H93.3626L92.5462 40.4226L93.2175 39.762L93.8567 40.4011H95.2962L95.8333 39.8586V38.8059L95.4841 39.0798H93.5828L92.6213 38.1238V33.6335H93.5935V37.7048L94.1306 38.2419H95.8333V33.6335H96.8054V40.2776ZM101.88 33.6335L102.836 34.5896V38.1238L101.88 39.0798H99.4035L98.4475 38.1238V34.5896L99.4035 33.6335H101.88ZM99.9568 34.4714L99.4143 35.0085V37.7048L99.9568 38.2419H101.332L101.869 37.7048V35.0085L101.332 34.4714H99.9568ZM108.936 34.4714L108.393 35.0085V39.0798H107.426V35.0085L106.889 34.4714H105.998L105.461 35.0085V39.0798H104.488V33.6335H105.203L105.412 34.0847H105.461L105.912 33.6335H107.249L107.953 34.3372L108.662 33.6335H110.375L111.331 34.5896V39.0798H110.364V35.0085L109.827 34.4714H108.936ZM120.91 39.0798H119.723L118.021 36.1204H116.603V39.0798H115.566V31.4905H119.186L120.395 32.699V34.8474L119.175 36.0667L120.91 39.0798ZM119.363 33.1287L118.671 32.4358H116.603V35.175H118.671L119.363 34.4822V33.1287ZM125.286 33.6335L126.242 34.5896V39.0798H125.528L125.318 38.2903H125.275L124.427 39.0798H122.912L121.951 38.1238V36.7703L122.912 35.8142H125.275V35.0085L124.738 34.4714H123.428L122.789 35.0623L122.128 34.3694L122.912 33.6335H125.286ZM123.46 36.6467L122.923 37.1892V37.7048L123.46 38.2419H124.196L125.275 37.3181V36.6467H123.46ZM131.365 38.1667L132.213 39.0154V40.3796L131.365 41.2229H128.405L127.562 40.3796V39.0154L128.405 38.1667H129.41V37.2859H128.792L127.836 36.3298V34.5896L128.792 33.6335H130.983L131.488 34.1384L131.993 33.6335H132.444V34.8098H131.939V36.3298L130.983 37.2859H130.376V38.1667H131.365ZM129.34 34.4714L128.803 35.0085V35.9109L129.34 36.4534H130.43L130.973 35.9109V35.0085L130.43 34.4714H129.34ZM128.959 39.0046L128.529 39.4343V39.9607L128.959 40.3904H130.817L131.247 39.9607V39.4343L130.817 39.0046H128.959ZM137.191 33.6335L138.147 34.5896V38.1238L137.191 39.0798H134.715L133.759 38.1238V34.5896L134.715 33.6335H137.191ZM135.268 34.4714L134.726 35.0085V37.7048L135.268 38.2419H136.643L137.18 37.7048V35.0085L136.643 34.4714H135.268ZM139.66 39.0798L139.359 38.5964L142.158 34.4714H139.494V33.6335H143.232L143.533 34.1169L140.734 38.2419H143.543V39.0798H139.66ZM144.809 33.6335H145.782V39.0798H144.809V33.6335ZM145.782 32.4358H144.809V31.4905H145.782V32.4358ZM151.715 39.0798H150.748V35.0085L150.206 34.4714H149.524L148.45 35.3953V39.0798H147.477V33.6335H148.192L148.401 34.4285H148.45L149.293 33.6335H150.759L151.715 34.5896V39.0798ZM155.966 41.2229H155.021L158.453 30.8298H159.398L155.966 41.2229ZM164.333 31.4905H165.455L163.849 35.1643L165.772 39.0798H164.607L162.936 35.6692H161.54V39.0798H160.503V31.4905H161.54V34.7239H162.968L164.333 31.4905ZM170.078 33.6335L171.034 34.5896V38.1238L170.078 39.0798H167.602L166.646 38.1238V34.5896L167.602 33.6335H170.078ZM168.155 34.4714L167.613 35.0085V37.7048L168.155 38.2419H169.53L170.068 37.7048V35.0085L169.53 34.4714H168.155ZM174.954 39.0798H173.724L172.027 33.6335H173.063L174.352 38.0217H174.374L175.679 33.6335H176.651L174.954 39.0798ZM180.812 33.6335L181.768 34.5896V39.0798H181.054L180.844 38.2903H180.801L179.953 39.0798H178.438L177.477 38.1238V36.7703L178.438 35.8142H180.801V35.0085L180.264 34.4714H178.954L178.315 35.0623L177.654 34.3694L178.438 33.6335H180.812ZM178.986 36.6467L178.449 37.1892V37.7048L178.986 38.2419H179.722L180.801 37.3181V36.6467H178.986ZM183.469 31.4905H184.441V39.0798H183.469V31.4905ZM190.209 38.1238L189.252 39.0798H186.588L185.81 38.3118L186.449 37.6511L187.083 38.2419H188.705L189.242 37.7048V37.2537L188.705 36.7166H186.83L185.874 35.7605V34.5896L186.83 33.6335H189.21L189.988 34.3962L189.328 35.0623L188.715 34.4714H187.383L186.841 35.0085V35.3416L187.383 35.8787H189.252L190.209 36.8347V38.1238ZM194.536 33.6335H195.53L194.294 36.1848L195.836 39.0798H194.735L193.446 36.6038H192.56V39.0798H191.587V31.4905H192.56V35.7712H193.516L194.536 33.6335ZM196.876 33.6335H197.849V39.0798H196.876V33.6335ZM197.849 32.4358H196.876V31.4905H197.849V32.4358ZM203.728 40.2776L202.767 41.2336H200.286L199.469 40.4226L200.141 39.762L200.78 40.4011H202.219L202.756 39.8586V38.8059L202.407 39.0798H200.506L199.544 38.1238V33.6335H200.517V37.7048L201.054 38.2419H202.756V33.6335H203.728V40.2776ZM205.601 41.2229H204.656L208.088 30.8298H209.034L205.601 41.2229Z" fill="#1565D8"/>
<path d="M19.3612 33.2525C17.3042 29.7638 14.4324 26.7939 10.9751 24.5798C10.6258 24.3563 10.1987 24.2769 9.78747 24.3589C9.37625 24.4409 9.01456 24.6777 8.78179 25.0172C8.54903 25.3567 8.46422 25.7713 8.54599 26.1698C8.62776 26.5684 8.86942 26.9184 9.21792 27.143C12.2676 29.0966 14.8007 31.7169 16.6151 34.7948C17.6748 36.5889 19.1397 38.1256 20.9006 39.2902C22.6616 40.4549 24.673 41.2174 26.7848 41.521C27.1997 41.5817 27.6232 41.4799 27.9623 41.238C28.3014 40.9962 28.5283 40.6341 28.593 40.2314C28.6577 39.8287 28.5549 39.4184 28.3073 39.0907C28.0597 38.7631 27.6875 38.5449 27.2727 38.4842C25.6299 38.2483 24.0651 37.6552 22.6952 36.7493C21.3253 35.8434 20.1856 34.6481 19.3612 33.2525ZM29.7604 29.1822C29.3963 29.3867 28.964 29.443 28.5587 29.3386C28.1535 29.2342 27.8084 28.9777 27.5994 28.6256C24.5306 23.4523 20.1542 19.126 14.88 16.0518C14.7019 15.9485 14.5468 15.8121 14.4234 15.6503C14.3 15.4886 14.2108 15.3046 14.1608 15.1091C14.1109 14.9135 14.1013 14.7101 14.1325 14.5105C14.1637 14.3109 14.2351 14.119 14.3426 13.9458C14.4502 13.7726 14.5917 13.6215 14.7592 13.5011C14.9267 13.3807 15.1169 13.2933 15.3188 13.244C15.5208 13.1948 15.7305 13.1845 15.9361 13.2139C16.1418 13.2432 16.3392 13.3116 16.5171 13.4152C22.2509 16.7567 27.0089 21.4596 30.3454 27.0833C30.5544 27.4354 30.6102 27.8544 30.5005 28.248C30.3908 28.6416 30.1246 28.9777 29.7604 29.1822ZM32.9125 34.4933C31.0912 35.5135 28.9307 35.7935 26.9051 35.2717C24.8794 34.75 23.1539 33.4692 22.1072 31.7102C21.8982 31.3581 21.8424 30.9391 21.9522 30.5455C22.0619 30.1518 22.3281 29.8158 22.6922 29.6113C23.0564 29.4068 23.4886 29.3505 23.8939 29.4549C24.2992 29.5593 24.6443 29.8158 24.8533 30.1679C25.4803 31.2243 26.5156 31.9938 27.7314 32.3069C28.9472 32.6201 30.244 32.4513 31.3365 31.8377C32.4289 31.2242 33.2276 30.2161 33.5567 29.0352C33.8858 27.8543 33.7185 26.5974 33.0915 25.541C29.9723 20.2539 25.6742 15.7134 20.5094 12.2496C20.3389 12.135 20.1935 11.9889 20.0815 11.8196C19.9696 11.6503 19.8932 11.461 19.8568 11.2627C19.8203 11.0644 19.8246 10.8608 19.8692 10.6637C19.9139 10.4665 19.9981 10.2796 20.1171 10.1137C20.2361 9.94772 20.3875 9.80596 20.5626 9.69647C20.7378 9.58699 20.9333 9.51193 21.138 9.47558C21.3426 9.43922 21.5525 9.44229 21.7555 9.48461C21.9586 9.52692 22.1508 9.60765 22.3213 9.72219C27.8693 13.4427 32.4866 18.3197 35.8376 23.9987C36.8801 25.76 37.1576 27.854 36.6093 29.8214C36.0609 31.7889 34.7315 33.469 32.9125 34.4933ZM39.2169 45.1156C34.4815 47.7683 28.8642 48.4962 23.5974 47.1397C18.3306 45.7831 13.8444 42.4529 11.123 37.8796C10.1411 36.22 8.87336 34.7366 7.37439 33.4935C7.05639 33.2296 6.86012 32.8534 6.8287 32.4477C6.79728 32.042 6.93329 31.6399 7.20684 31.3299C7.48038 31.0199 7.86908 30.8273 8.28752 30.7943C8.70595 30.7614 9.11989 30.8909 9.43836 31.1544C11.2099 32.6234 12.7083 34.3762 13.8691 36.3373C16.1681 40.2109 19.9642 43.0322 24.4222 44.1804C28.8803 45.3286 33.6351 44.7098 37.6408 42.4601C41.6465 40.2103 44.5748 36.5139 45.7816 32.1841C46.9884 27.8542 46.3748 23.2455 44.0759 19.3719C42.2759 16.3377 40.1755 13.4817 37.8041 10.8442C37.6676 10.6927 37.5633 10.5165 37.4972 10.3256C37.4311 10.1347 37.4045 9.93278 37.4189 9.73149C37.4334 9.53019 37.4885 9.33342 37.5813 9.15242C37.674 8.97142 37.8026 8.80974 37.9595 8.67662C38.1165 8.5435 38.2988 8.44154 38.496 8.37658C38.6932 8.31161 38.9015 8.28491 39.109 8.298C39.3165 8.31109 39.519 8.36372 39.7051 8.45288C39.8912 8.54203 40.0571 8.66597 40.1935 8.8176C42.6998 11.6048 44.9197 14.623 46.8219 17.8296C49.5326 22.4089 50.2542 27.8535 48.8285 32.9688C47.4028 38.0842 43.9461 42.4526 39.2169 45.1156ZM20.8243 27.0845C20.5088 27.3545 20.0964 27.4926 19.6775 27.4686C19.2587 27.4446 18.8677 27.2604 18.5901 26.9564C16.4602 24.6172 13.9515 22.6304 11.1617 21.0734C10.9818 20.9731 10.8242 20.8392 10.698 20.6795C10.5718 20.5198 10.4794 20.3374 10.4261 20.1427C10.3728 19.948 10.3596 19.7448 10.3873 19.5447C10.415 19.3446 10.4831 19.1516 10.5876 18.9767C10.6921 18.8018 10.831 18.6484 10.9964 18.5252C11.1618 18.4021 11.3504 18.3116 11.5515 18.259C11.7525 18.2064 11.9621 18.1927 12.1682 18.2187C12.3743 18.2447 12.5729 18.3098 12.7527 18.4104C15.838 20.1323 18.6124 22.3297 20.9678 24.9169C21.2451 25.2213 21.3857 25.6207 21.3587 26.0272C21.3318 26.4337 21.1396 26.814 20.8243 27.0845ZM36.0646 39.8044C35.5488 40.0941 35.0151 40.3527 34.4667 40.5787C34.2749 40.6576 34.0692 40.6991 33.8613 40.701C33.6534 40.7029 33.4474 40.665 33.255 40.5896C33.0626 40.5141 32.8876 40.4026 32.74 40.2613C32.5924 40.1201 32.4751 39.9519 32.3947 39.7663C32.2324 39.3915 32.2306 38.9688 32.3897 38.5911C32.4685 38.4041 32.5844 38.2338 32.7308 38.0899C32.8772 37.946 33.0512 37.8314 33.243 37.7525C33.6705 37.5763 34.0865 37.3747 34.4886 37.1488C37.0351 35.7149 38.8964 33.3627 39.6641 30.6083C40.4318 27.8538 40.0433 24.9221 38.5836 22.4564C37.5626 20.7359 36.4325 19.0789 35.1998 17.4948C34.9473 17.1707 34.8385 16.7619 34.8972 16.3584C34.9559 15.9548 35.1773 15.5896 35.5128 15.3431C35.8483 15.0966 36.2703 14.9889 36.6861 15.0437C37.1018 15.0986 37.4772 15.3115 37.7297 15.6356C39.0411 17.3209 40.2434 19.0838 41.3297 20.9141C43.2063 24.0843 43.7059 27.8537 42.7189 31.3951C41.7318 34.9365 39.3388 37.9607 36.0646 39.8044ZM33.3738 12.9342C33.2251 13.0758 33.0492 13.1879 32.8561 13.2638C32.6631 13.3397 32.4567 13.378 32.2487 13.3765C32.0408 13.375 31.8355 13.3338 31.6444 13.2552C31.4533 13.1766 31.2803 13.0621 31.1352 12.9183C30.3235 12.1154 29.472 11.3318 28.6044 10.5892C28.449 10.4561 28.3222 10.2945 28.2313 10.1136C28.1405 9.93266 28.0874 9.73599 28.075 9.53477C28.0627 9.33355 28.0913 9.13174 28.1593 8.94086C28.2273 8.74997 28.3333 8.57375 28.4713 8.42226C28.6093 8.27076 28.7766 8.14697 28.9636 8.05793C29.1506 7.96889 29.3536 7.91636 29.5612 7.90333C29.7687 7.89031 29.9766 7.91704 30.1731 7.98201C30.3695 8.04697 30.5507 8.1489 30.7062 8.28197C31.6304 9.07295 32.5373 9.90753 33.4016 10.7628C33.5468 10.9064 33.6612 11.0765 33.7384 11.2634C33.8156 11.4502 33.854 11.6501 33.8514 11.8518C33.8488 12.0534 33.8053 12.2528 33.7234 12.4385C33.6414 12.6242 33.5226 12.7926 33.3738 12.9342Z" fill="#151A2C"/>
</svg>
