<svg width="35" height="30" viewBox="0 0 35 30" fill="none" xmlns="http://www.w3.org/2000/svg">
<g clip-path="url(#clip0_5266_10561)">
<path d="M35 4.14869C33.7121 4.72011 32.3282 5.1063 30.8757 5.28004C32.3585 4.39083 33.4969 2.98273 34.033 1.305C32.6235 2.14193 31.0814 2.7316 29.4733 3.04853C28.1634 1.6522 26.2973 0.779541 24.2319 0.779541C20.2662 0.779541 17.051 3.99657 17.051 7.96437C17.051 8.52758 17.1146 9.07588 17.237 9.60188C11.2692 9.30215 5.97816 6.44176 2.43646 2.09475C1.8185 3.15592 1.46439 4.39028 1.46439 5.70686C1.46439 8.19966 2.73219 10.3988 4.65883 11.6873C3.51852 11.6516 2.40331 11.3434 1.40629 10.7885C1.40588 10.8186 1.40588 10.8487 1.40588 10.8789C1.40588 14.3601 3.88104 17.2641 7.16584 17.9242C6.10844 18.212 4.9993 18.2541 3.92314 18.0473C4.83684 20.9018 7.48877 22.979 10.6308 23.0372C8.17332 24.9642 5.07705 26.1129 1.71295 26.1129C1.13326 26.1129 0.561777 26.0788 0 26.0125C3.17775 28.0511 6.95215 29.2406 11.0072 29.2406C24.2152 29.2406 31.4377 18.2922 31.4377 8.79762C31.4377 8.48599 31.4308 8.17613 31.4169 7.86806C32.8227 6.85119 34.036 5.5917 35 4.14869Z" fill="#55ACEE"/>
</g>
<defs>
<clipPath id="clip0_5266_10561">
<rect width="35" height="28.5915" fill="white" transform="translate(0 0.666992)"/>
</clipPath>
</defs>
</svg>
