<svg width="136" height="26" viewBox="0 0 136 26" fill="none" xmlns="http://www.w3.org/2000/svg">
<g id="&#208;&#155;&#208;&#190;&#208;&#179;&#208;&#190; Behance">
<path id="Vector" d="M11.2579 20.8066C11.7945 20.8066 12.3037 20.7592 12.7829 20.6534C13.269 20.5474 13.7003 20.3811 14.0642 20.134C14.4281 19.8971 14.7291 19.5719 14.9488 19.1574C15.1682 18.7474 15.2731 18.2153 15.2731 17.5711C15.2731 16.3103 14.915 15.4145 14.2029 14.8708C13.4892 14.3348 12.5374 14.0682 11.3668 14.0682H5.45401V20.8066H11.2579ZM10.9578 10.39C11.9209 10.39 12.7183 10.1634 13.3505 9.70317C13.9761 9.25186 14.2799 8.5037 14.2799 7.47791C14.2799 6.90949 14.1787 6.43817 13.9761 6.07291C13.767 5.70765 13.4892 5.4216 13.1385 5.22186C12.7906 5.0137 12.3974 4.86949 11.9406 4.79238C11.4933 4.70502 11.0234 4.6716 10.5423 4.6716H5.45401V10.39H10.9578ZM11.6611 0.503437C12.8421 0.503437 13.9083 0.604753 14.8832 0.813963C15.8519 1.01738 16.6791 1.35738 17.3779 1.82396C18.0664 2.28949 18.6048 2.90923 18.9903 3.68975C19.3664 4.45923 19.556 5.42186 19.556 6.56107C19.556 7.79317 19.2734 8.82186 18.7087 9.64423C18.1403 10.4655 17.3049 11.1392 16.1887 11.6626C17.7089 12.0955 18.8343 12.8584 19.581 13.9419C20.3314 15.0326 20.6982 16.3392 20.6982 17.8698C20.6982 19.1111 20.4581 20.1787 19.9797 21.0774C19.4957 21.9871 18.8375 22.7248 18.026 23.2934C17.2079 23.8676 16.2684 24.2887 15.216 24.5629C14.1625 24.8385 13.0772 24.9768 11.9876 24.9745H0.0158691V0.503174H11.6611V0.503437Z" fill="white"/>
<path id="Vector_2" d="M34.0955 11.4159C33.5111 10.7757 32.5227 10.4291 31.3165 10.4291C30.5314 10.4291 29.8814 10.5601 29.3618 10.8267C28.8534 11.0899 28.4361 11.4178 28.1181 11.8033C27.801 12.1954 27.5842 12.6088 27.4589 13.0512C27.333 13.4825 27.2581 13.8736 27.2347 14.2194H35.2276C35.1105 12.9778 34.6817 12.0607 34.0955 11.4159ZM28.451 20.7249C29.1865 21.4365 30.2501 21.7951 31.6279 21.7951C32.6184 21.7951 33.4747 21.547 34.193 21.0517C34.9049 20.5583 35.3384 20.0296 35.5062 19.4815H39.8319C39.1368 21.6141 38.0817 23.137 36.6418 24.0533C35.2202 24.9741 33.4848 25.433 31.4637 25.433C30.0548 25.433 28.787 25.2065 27.6493 24.762C26.5114 24.3115 25.5604 23.6796 24.7604 22.8565C23.9808 22.0294 23.3759 21.0517 22.9446 19.9044C22.5177 18.7623 22.3018 17.4975 22.3018 16.127C22.3018 14.802 22.5262 13.5641 22.9624 12.4204C23.4086 11.2728 24.0249 10.2823 24.8353 9.45146C25.6486 8.6162 26.6118 7.95725 27.7335 7.47594C28.8563 6.99541 30.0933 6.75488 31.4637 6.75488C32.9767 6.75488 34.3019 7.04304 35.4377 7.6312C36.5698 8.21015 37.4974 8.99515 38.227 9.97857C38.9559 10.9604 39.4747 12.083 39.799 13.3412C40.1199 14.5983 40.2333 15.9115 40.1406 17.2867H27.2344C27.2344 18.687 27.7125 20.013 28.451 20.7249Z" fill="white"/>
<path id="Vector_3" d="M47.1179 0.503193V9.73003H47.2305C47.8542 8.70346 48.6431 7.95714 49.6129 7.49451C50.5808 7.02793 51.5254 6.7974 52.4452 6.7974C53.7574 6.7974 54.8324 6.96846 55.6718 7.32056C56.5122 7.67925 57.1771 8.16451 57.664 8.7953C58.1413 9.42346 58.4789 10.19 58.6771 11.0932C58.871 11.9945 58.9714 12.989 58.9714 14.0853V24.9742H54.035V14.969C54.035 13.5103 53.8052 12.4137 53.3476 11.6964C52.8891 10.9779 52.075 10.6174 50.9006 10.6174C49.5725 10.6174 48.612 11.0161 48.0173 11.8032C47.4116 12.59 47.1179 13.8856 47.1179 15.6882V24.9742H42.1833V0.50293H47.1179" fill="white"/>
<path id="Vector_4" d="M72.1476 16.7431C71.8421 16.8433 71.5031 16.9281 71.1541 17.0015C70.7806 17.0703 70.405 17.1273 70.0279 17.1725C69.6365 17.2176 69.2465 17.2737 68.8583 17.3407C68.4907 17.412 68.1231 17.5012 67.773 17.6175C67.4168 17.7328 67.1044 17.886 66.8473 18.0794C66.582 18.2752 66.3633 18.5264 66.2069 18.8152C66.0491 19.1107 65.9649 19.4944 65.9649 19.9481C65.9649 20.381 66.0491 20.7462 66.2066 21.0462C66.3692 21.3436 66.5811 21.576 66.8595 21.7478C67.1371 21.9196 67.4625 22.0404 67.8248 22.1075C68.1924 22.1799 68.5722 22.207 68.9616 22.207C69.9275 22.207 70.6723 22.0481 71.203 21.7294C71.7311 21.4086 72.129 21.026 72.3773 20.5799C72.6307 20.1339 72.7837 19.6841 72.8331 19.2307C72.8979 18.7744 72.9272 18.4065 72.9272 18.1304V16.3102C72.7141 16.497 72.4636 16.641 72.1476 16.7431ZM62.4785 9.84833C62.9701 9.10147 63.6303 8.47818 64.407 8.02781C65.1911 7.56728 66.0671 7.24281 67.0518 7.0486C68.0253 6.85132 69.0165 6.75291 70.0101 6.75491C70.9058 6.75491 71.8118 6.81623 72.7452 6.94254C73.6632 7.06807 74.5028 7.31439 75.2644 7.68123C76.0251 8.05018 76.6451 8.55491 77.1251 9.2136C77.612 9.8557 77.8587 10.7254 77.8587 11.8033V21.0378C77.8587 21.8407 77.9074 22.6036 77.9937 23.3341C78.0912 24.071 78.3435 24.6236 78.5818 24.9862L73.5641 24.9741C73.4167 24.7623 73.2948 24.4304 73.2374 24.1415C73.1786 23.8538 73.1382 23.5627 73.1166 23.2699C72.3351 24.071 71.4189 24.6341 70.3514 24.9554C69.2987 25.2724 68.2046 25.4333 67.1044 25.4331C66.2544 25.4331 65.4628 25.3262 64.722 25.1199C63.9923 24.9136 63.3442 24.5941 62.7917 24.162C62.2366 23.7215 61.8097 23.1752 61.4981 22.5136C61.1889 21.8483 61.0293 21.0565 61.0293 20.1423C61.0293 19.1331 61.2123 18.3023 61.5733 17.6518C61.925 17.0015 62.3819 16.4781 62.9532 16.0907C63.515 15.7004 64.1602 15.4068 64.8909 15.2154C65.6113 15.0213 66.3418 14.8659 67.0792 14.7499C67.8192 14.6375 68.5393 14.5465 69.2589 14.4757C69.9801 14.406 70.6048 14.3068 71.1629 14.1673C71.7133 14.0315 72.1542 13.8252 72.4777 13.5641C72.7957 13.3023 72.9487 12.9212 72.9272 12.4139C72.9272 11.8896 72.8331 11.4718 72.6634 11.1594C72.5029 10.865 72.2671 10.6176 71.9797 10.442C71.6901 10.2691 71.3634 10.156 70.9873 10.0954C70.5831 10.0379 70.1753 10.0094 69.767 10.0099C68.8057 10.0099 68.045 10.2218 67.5058 10.6289C66.9514 11.0478 66.6327 11.7373 66.5341 12.6999H61.6062C61.6774 11.5507 61.9627 10.6018 62.4785 9.84833Z" fill="white"/>
<path id="Vector_5" d="M85.2261 7.26026V9.73H85.3358C85.9577 8.70342 86.7596 7.9571 87.7557 7.49447C88.7433 7.02789 89.7665 6.79736 90.804 6.79736C92.1218 6.79736 93.2031 6.96842 94.039 7.32052C94.8896 7.67921 95.551 8.16447 96.0302 8.79526C96.5216 9.42342 96.8592 10.19 97.0563 11.0932C97.255 11.9945 97.3538 12.9889 97.3538 14.0853V24.9742H92.4153V14.9689C92.4153 13.5103 92.1836 12.4137 91.723 11.6963C91.2561 10.9779 90.4504 10.5174 89.2676 10.5174C87.931 10.5174 86.9575 11.016 86.359 11.8032C85.7571 12.59 85.4586 13.8855 85.4586 15.6882V24.9742H80.574V7.26026H85.2261Z" fill="white"/>
<path id="Vector_6" d="M108.284 10.4291C107.494 10.4291 106.842 10.6017 106.318 10.9607C105.783 11.3146 105.336 11.7841 105.011 12.3338C104.677 12.8923 104.445 13.5101 104.301 14.1867C104.167 14.8623 104.092 15.5315 104.092 16.1967C104.092 16.8396 104.167 17.4912 104.301 18.1565C104.445 18.818 104.665 19.4154 104.977 19.9599C105.29 20.491 105.724 20.9425 106.244 21.2786C106.772 21.6233 107.414 21.7951 108.177 21.7951C109.36 21.7951 110.266 21.468 110.901 20.8204C111.533 20.1691 111.924 19.2938 112.089 18.1973H116.833C116.508 20.5473 115.585 22.3425 114.066 23.5802C112.542 24.8096 110.59 25.433 108.213 25.433C106.87 25.433 105.65 25.2065 104.525 24.762C103.401 24.3115 102.447 23.6909 101.661 22.8899C100.875 22.087 100.265 21.1328 99.8189 20.0233C99.3827 18.9117 99.1633 17.6917 99.1633 16.3678C99.1633 14.9962 99.3668 13.7186 99.7711 12.5375C100.174 11.3612 100.768 10.3417 101.561 9.48672C102.346 8.6262 103.306 7.95725 104.442 7.47594C105.573 6.99541 106.866 6.75488 108.317 6.75488C109.378 6.75488 110.398 6.89699 111.383 7.16278C112.36 7.43409 113.239 7.8533 114.01 8.41541C114.781 8.97086 115.425 9.68102 115.901 10.4996C116.38 11.3294 116.654 12.3236 116.73 13.4601H111.913C111.594 11.438 110.384 10.4291 108.284 10.4291Z" fill="white"/>
<path id="Vector_7" d="M26.2302 2.14502H36.2427V4.56028H26.2302V2.14502Z" fill="white"/>
<path id="Vector_8" d="M129.925 11.4159C129.333 10.7757 128.337 10.4291 127.146 10.4291C126.362 10.4291 125.71 10.5601 125.181 10.8267C124.672 11.0899 124.206 11.4178 123.894 11.8033C123.582 12.1954 123.358 12.6088 123.227 13.0512C123.111 13.4825 123.029 13.8736 123.008 14.2194H131.061C130.93 12.9778 130.511 12.0607 129.925 11.4159H129.925ZM124.22 20.7249C124.958 21.4365 126.072 21.7951 127.46 21.7951C128.449 21.7951 129.303 21.547 130.017 21.0517C130.731 20.5583 131.173 20.0296 131.331 19.4815H135.657C134.965 21.6141 133.904 23.137 132.473 24.0533C131.046 24.9741 129.318 25.433 127.289 25.433C125.877 25.433 124.604 25.2065 123.475 24.762C122.339 24.3115 121.387 23.6796 120.591 22.8565C119.803 22.0294 119.199 21.0517 118.769 19.9044C118.343 18.7623 118.131 17.4975 118.131 16.127C118.131 14.802 118.35 13.5641 118.787 12.4204C119.23 11.2728 119.859 10.2823 120.665 9.45146C121.482 8.6162 122.437 7.95725 123.555 7.47594C124.679 6.99541 125.927 6.75488 127.289 6.75488C128.801 6.75488 130.132 7.04304 131.256 7.6312C132.391 8.21015 133.323 8.99515 134.047 9.97857C134.776 10.9604 135.3 12.083 135.622 13.3412C135.939 14.5983 136.061 15.9115 135.97 17.2867H123.008C123.008 18.687 123.48 20.013 124.22 20.7249Z" fill="white"/>
</g>
</svg>
