<?xml version="1.0" encoding="utf-8"?>
<!-- Generator: Adobe Illustrator 26.3.1, SVG Export Plug-In . SVG Version: 6.00 Build 0)  -->
<svg version="1.1" id="Layer_1" xmlns="http://www.w3.org/2000/svg" xmlns:xlink="http://www.w3.org/1999/xlink" x="0px" y="0px"
	 viewBox="0 0 112 129" style="enable-background:new 0 0 112 129;" xml:space="preserve">
<style type="text/css">
	.st0{opacity:0.99;fill:#FFFFFF;enable-background:new    ;}
	.st1{opacity:0.7;}
	.st2{fill:none;stroke:#1BDC77;stroke-width:3;}
	.st3{opacity:0.4;}
	.st4{fill:none;stroke:#1BDC77;stroke-width:2;}
	.st5{opacity:0.2;}
</style>
<g>
	<path class="st0" d="M50.4,75.8c-0.3,0-0.6-0.1-0.9-0.2c-0.3-0.1-0.6-0.3-0.8-0.5l-6.8-6.8c-0.4-0.5-0.7-1.1-0.7-1.7
		c0-0.6,0.3-1.2,0.7-1.7c0.4-0.4,1.1-0.7,1.7-0.7c0.6,0,1.2,0.2,1.7,0.7l5.1,5.1l13.2-13.2c0.5-0.4,1.1-0.7,1.7-0.7
		c0.6,0,1.2,0.3,1.7,0.7c0.4,0.4,0.7,1,0.7,1.7c0,0.6-0.2,1.2-0.7,1.7L52.1,75.1c-0.2,0.2-0.5,0.4-0.8,0.5
		C51,75.8,50.7,75.8,50.4,75.8L50.4,75.8z"/>
	<g class="st1">
		<circle class="st2" cx="56" cy="65" r="38"/>
	</g>
	<g class="st3">
		<circle class="st4" cx="56" cy="65" r="47.2"/>
	</g>
	<g class="st5">
		<circle class="st4" cx="56" cy="65" r="56"/>
	</g>
</g>
</svg>
