<svg width="30" height="31" viewBox="0 0 30 31" fill="none" xmlns="http://www.w3.org/2000/svg">
<g opacity="0.6">
<path d="M17.2324 15.0564L24.0407 21.8553C24.3389 22.1537 24.5064 22.5585 24.5064 22.9805C24.5064 23.4026 24.3389 23.8073 24.0407 24.1058C23.7426 24.4042 23.3382 24.5718 22.9166 24.5718C22.4949 24.5718 22.0906 24.4042 21.7924 24.1058L14.9999 17.291L8.2074 24.1058C7.90926 24.4042 7.50488 24.5718 7.08324 24.5718C6.66159 24.5718 6.25722 24.4042 5.95907 24.1058C5.66092 23.8073 5.49342 23.4026 5.49342 22.9805C5.49342 22.5585 5.66092 22.1537 5.95907 21.8553L12.7674 15.0564L5.95907 8.2575C5.81067 8.11017 5.69288 7.93489 5.61249 7.74176C5.53211 7.54863 5.49072 7.34149 5.49072 7.13227C5.49072 6.92306 5.53211 6.71591 5.61249 6.52279C5.69288 6.32966 5.81067 6.15438 5.95907 6.00705C6.10626 5.85851 6.28138 5.7406 6.47432 5.66014C6.66727 5.57968 6.87422 5.53826 7.08324 5.53826C7.29226 5.53826 7.49921 5.57968 7.69215 5.66014C7.88509 5.7406 8.06021 5.85851 8.2074 6.00705L14.9999 12.8218L21.7924 6.00705C21.9396 5.85851 22.1147 5.7406 22.3077 5.66014C22.5006 5.57968 22.7076 5.53826 22.9166 5.53826C23.1256 5.53826 23.3325 5.57968 23.5255 5.66014C23.7184 5.7406 23.8935 5.85851 24.0407 6.00705C24.1891 6.15438 24.3069 6.32966 24.3873 6.52279C24.4677 6.71591 24.5091 6.92306 24.5091 7.13227C24.5091 7.34149 24.4677 7.54863 24.3873 7.74176C24.3069 7.93489 24.1891 8.11017 24.0407 8.2575L17.2324 15.0564Z" fill="#808594"/>
</g>
</svg>
