<svg width="246" height="55" viewBox="0 0 246 55" fill="none" xmlns="http://www.w3.org/2000/svg">
<g clip-path="url(#clip0_221_178)">
<path d="M19.8612 32.5855C17.8042 29.0968 14.9325 26.1269 11.4751 23.9128C11.1259 23.6893 10.6987 23.6099 10.2875 23.6919C9.87634 23.7739 9.51465 24.0107 9.28188 24.3502C9.04912 24.6897 8.96431 25.1043 9.04608 25.5028C9.12785 25.9014 9.36951 26.2514 9.71801 26.476C12.7677 28.4296 15.3008 31.05 17.1151 34.1278C18.1748 35.9219 19.6398 37.4586 21.4007 38.6232C23.1616 39.7879 25.173 40.5504 27.2849 40.854C27.6997 40.9147 28.1233 40.8129 28.4624 40.571C28.8015 40.3292 29.0284 39.9671 29.0931 39.5644C29.1577 39.1617 29.055 38.7514 28.8074 38.4237C28.5598 38.0961 28.1876 37.8779 27.7727 37.8172C26.1299 37.5813 24.5652 36.9882 23.1952 36.0823C21.8253 35.1764 20.6856 33.9811 19.8612 32.5855ZM30.2605 28.5152C29.8963 28.7197 29.4641 28.776 29.0588 28.6716C28.6535 28.5672 28.3084 28.3107 28.0994 27.9586C25.0306 22.7854 20.6542 18.459 15.3801 15.3848C15.202 15.2815 15.0468 15.1451 14.9234 14.9833C14.8 14.8216 14.7108 14.6376 14.6609 14.4421C14.611 14.2465 14.6014 14.0431 14.6326 13.8435C14.6638 13.6439 14.7352 13.452 14.8427 13.2788C14.9502 13.1056 15.0918 12.9545 15.2593 12.8341C15.4268 12.7137 15.617 12.6263 15.8189 12.577C16.0208 12.5278 16.2306 12.5175 16.4362 12.5469C16.6418 12.5762 16.8392 12.6446 17.0172 12.7482C22.751 16.0897 27.509 20.7926 30.8455 26.4163C31.0545 26.7684 31.1102 27.1874 31.0005 27.581C30.8908 27.9746 30.6246 28.3107 30.2605 28.5152ZM33.4126 33.8263C31.5913 34.8465 29.4308 35.1265 27.4051 34.6047C25.3794 34.083 23.654 32.8022 22.6073 31.0432C22.3983 30.6911 22.3425 30.2721 22.4522 29.8785C22.5619 29.4849 22.8281 29.1488 23.1923 28.9443C23.5564 28.7398 23.9887 28.6835 24.394 28.7879C24.7993 28.8923 25.1444 29.1488 25.3534 29.5009C25.9803 30.5573 27.0156 31.3268 28.2315 31.6399C29.4473 31.9531 30.7441 31.7843 31.8365 31.1708C32.929 30.5572 33.7276 29.5491 34.0568 28.3682C34.3859 27.1873 34.2185 25.9304 33.5916 24.874C30.4724 19.5869 26.1742 15.0464 21.0095 11.5826C20.839 11.468 20.6936 11.3219 20.5816 11.1526C20.4696 10.9833 20.3932 10.794 20.3568 10.5957C20.3204 10.3974 20.3246 10.1938 20.3693 9.99669C20.414 9.79954 20.4982 9.61265 20.6172 9.4467C20.7361 9.28075 20.8875 9.13899 21.0627 9.0295C21.2378 8.92002 21.4333 8.84496 21.638 8.8086C21.8427 8.77225 22.0526 8.77532 22.2556 8.81764C22.4586 8.85995 22.6509 8.94068 22.8214 9.05522C28.3694 12.7757 32.9867 17.6527 36.3376 23.3317C37.3802 25.093 37.6577 27.187 37.1093 29.1545C36.561 31.1219 35.2315 32.802 33.4126 33.8263ZM39.7169 44.4486C34.9815 47.1013 29.3643 47.8292 24.0975 46.4727C18.8307 45.1161 14.3445 41.7859 11.6231 37.2126C10.6412 35.553 9.37345 34.0697 7.87448 32.8266C7.55648 32.5626 7.36021 32.1864 7.32879 31.7807C7.29737 31.375 7.43338 30.9729 7.70693 30.6629C7.98047 30.3529 8.36917 30.1603 8.78761 30.1274C9.20604 30.0944 9.61998 30.2239 9.93845 30.4874C11.71 31.9564 13.2084 33.7092 14.3692 35.6703C16.6682 39.5439 20.4642 42.3652 24.9223 43.5134C29.3803 44.6616 34.1352 44.0428 38.1409 41.7931C42.1465 39.5433 45.0749 35.8469 46.2817 31.5171C47.4885 27.1872 46.8749 22.5785 44.5759 18.7049C42.776 15.6707 40.6756 12.8147 38.3042 10.1772C38.1676 10.0257 38.0633 9.84954 37.9972 9.65861C37.9311 9.46769 37.9046 9.26581 37.919 9.06451C37.9334 8.86322 37.9886 8.66645 38.0813 8.48545C38.1741 8.30445 38.3026 8.14277 38.4596 8.00965C38.6165 7.87652 38.7988 7.77457 38.9961 7.70961C39.1933 7.64464 39.4016 7.61793 39.6091 7.63103C39.8165 7.64412 40.0191 7.69675 40.2052 7.78591C40.3912 7.87506 40.5572 7.999 40.6935 8.15063C43.1998 10.9378 45.4198 13.956 47.322 17.1626C50.0327 21.7419 50.7543 27.1865 49.3286 32.3018C47.9028 37.4172 44.4462 41.7856 39.7169 44.4486ZM21.3243 26.4175C21.0088 26.6875 20.5964 26.8256 20.1776 26.8016C19.7588 26.7776 19.3677 26.5934 19.0902 26.2894C16.9603 23.9502 14.4515 21.9634 11.6617 20.4065C11.4818 20.3061 11.3243 20.1722 11.1981 20.0125C11.0719 19.8528 10.9795 19.6704 10.9262 19.4757C10.8729 19.281 10.8597 19.0778 10.8874 18.8777C10.9151 18.6777 10.9831 18.4847 11.0877 18.3097C11.1922 18.1348 11.3311 17.9814 11.4965 17.8582C11.6618 17.7351 11.8505 17.6446 12.0515 17.592C12.2526 17.5395 12.4622 17.5257 12.6683 17.5517C12.8744 17.5777 13.073 17.6428 13.2528 17.7434C16.3381 19.4654 19.1125 21.6627 21.4679 24.2499C21.7451 24.5543 21.8857 24.9537 21.8588 25.3602C21.8319 25.7667 21.6396 26.147 21.3243 26.4175ZM36.5647 39.1374C36.0488 39.4271 35.5152 39.6857 34.9667 39.9117C34.775 39.9906 34.5693 40.0321 34.3614 40.034C34.1535 40.0359 33.9475 39.998 33.7551 39.9226C33.5627 39.8471 33.3877 39.7356 33.2401 39.5943C33.0924 39.4531 32.9751 39.2849 32.8948 39.0993C32.7325 38.7245 32.7307 38.3018 32.8898 37.9241C32.9685 37.7371 33.0844 37.5668 33.2308 37.4229C33.3772 37.279 33.5513 37.1644 33.743 37.0855C34.1706 36.9093 34.5866 36.7077 34.9887 36.4818C37.5352 35.0479 39.3965 32.6957 40.1642 29.9413C40.9319 27.1868 40.5433 24.2552 39.0837 21.7894C38.0626 20.0689 36.9325 18.4119 35.6999 16.8278C35.4474 16.5037 35.3385 16.0949 35.3972 15.6914C35.4559 15.2878 35.6774 14.9226 36.0129 14.6761C36.3484 14.4296 36.7704 14.3219 37.1861 14.3767C37.6019 14.4316 37.9773 14.6445 38.2297 14.9686C39.5411 16.6539 40.7434 18.4168 41.8298 20.2471C43.7064 23.4174 44.206 27.1867 43.219 30.7281C42.2319 34.2695 39.8388 37.2937 36.5647 39.1374ZM33.8739 12.2672C33.7251 12.4089 33.5492 12.5209 33.3562 12.5968C33.1631 12.6727 32.9567 12.711 32.7488 12.7095C32.5409 12.708 32.3355 12.6668 32.1444 12.5882C31.9534 12.5096 31.7804 12.3951 31.6353 12.2513C30.8236 11.4484 29.9721 10.6648 29.1045 9.9222C28.949 9.78913 28.8222 9.62752 28.7314 9.44661C28.6406 9.26569 28.5874 9.06901 28.5751 8.8678C28.5627 8.66658 28.5913 8.46477 28.6593 8.27388C28.7273 8.083 28.8334 7.90678 28.9714 7.75528C29.1094 7.60379 29.2766 7.47999 29.4636 7.39096C29.6506 7.30192 29.8537 7.24939 30.0612 7.23636C30.2687 7.22333 30.4767 7.25007 30.6731 7.31503C30.8696 7.38 31.0507 7.48193 31.2062 7.615C32.1304 8.40597 33.0374 9.24056 33.9017 10.0959C34.0469 10.2395 34.1613 10.4095 34.2385 10.5964C34.3157 10.7832 34.354 10.9832 34.3515 11.1848C34.3489 11.3864 34.3054 11.5858 34.2234 11.7715C34.1415 11.9572 34.0227 12.1256 33.8739 12.2672Z" fill="#151A2C"/>
<path d="M65.996 24.23L62.207 11.27H64.484L67.067 20.63L69.641 11.288L71.918 11.27L74.501 20.63L77.075 11.27H79.352L75.572 24.23H73.43L70.775 15.014L68.138 24.23H65.996ZM80.8205 24.23V11.27H89.1905V13.304H82.9895V16.499H88.1105V18.533H82.9895V22.196H89.1905V24.23H80.8205ZM91.3498 24.23V11.27H96.4888C97.3648 11.27 98.0818 11.447 98.6398 11.801C99.2038 12.149 99.6208 12.596 99.8908 13.142C100.167 13.688 100.305 14.252 100.305 14.834C100.305 15.548 100.134 16.154 99.7918 16.652C99.4558 17.15 98.9968 17.486 98.4148 17.66V17.21C99.2308 17.396 99.8488 17.783 100.269 18.371C100.695 18.959 100.908 19.628 100.908 20.378C100.908 21.146 100.761 21.818 100.467 22.394C100.173 22.97 99.7348 23.42 99.1528 23.744C98.5768 24.068 97.8628 24.23 97.0108 24.23H91.3498ZM93.5458 22.187H96.7408C97.1188 22.187 97.4578 22.112 97.7578 21.962C98.0578 21.806 98.2918 21.59 98.4598 21.314C98.6338 21.032 98.7208 20.699 98.7208 20.315C98.7208 19.967 98.6458 19.655 98.4958 19.379C98.3458 19.103 98.1268 18.884 97.8388 18.722C97.5508 18.554 97.2058 18.47 96.8038 18.47H93.5458V22.187ZM93.5458 16.445H96.4618C96.7738 16.445 97.0528 16.385 97.2988 16.265C97.5448 16.145 97.7398 15.968 97.8838 15.734C98.0278 15.5 98.0998 15.212 98.0998 14.87C98.0998 14.42 97.9558 14.045 97.6678 13.745C97.3798 13.445 96.9778 13.295 96.4618 13.295H93.5458V16.445ZM102.525 18.596V16.895H107.925V18.596H102.525ZM115.061 24.5C114.113 24.5 113.258 24.335 112.496 24.005C111.74 23.675 111.116 23.204 110.624 22.592C110.138 21.974 109.829 21.242 109.697 20.396L111.947 20.054C112.139 20.822 112.532 21.416 113.126 21.836C113.726 22.256 114.416 22.466 115.196 22.466C115.658 22.466 116.093 22.394 116.501 22.25C116.909 22.106 117.239 21.896 117.491 21.62C117.749 21.344 117.878 21.005 117.878 20.603C117.878 20.423 117.848 20.258 117.788 20.108C117.728 19.952 117.638 19.814 117.518 19.694C117.404 19.574 117.254 19.466 117.068 19.37C116.888 19.268 116.678 19.181 116.438 19.109L113.09 18.119C112.802 18.035 112.49 17.924 112.154 17.786C111.824 17.642 111.509 17.447 111.209 17.201C110.915 16.949 110.672 16.631 110.48 16.247C110.294 15.857 110.201 15.377 110.201 14.807C110.201 13.973 110.411 13.274 110.831 12.71C111.257 12.14 111.827 11.714 112.541 11.432C113.261 11.15 114.059 11.012 114.935 11.018C115.823 11.024 116.615 11.177 117.311 11.477C118.007 11.771 118.589 12.2 119.057 12.764C119.525 13.328 119.855 14.009 120.047 14.807L117.716 15.212C117.62 14.756 117.434 14.369 117.158 14.051C116.888 13.727 116.555 13.481 116.159 13.313C115.769 13.145 115.352 13.055 114.908 13.043C114.476 13.037 114.074 13.103 113.702 13.241C113.336 13.373 113.039 13.565 112.811 13.817C112.589 14.069 112.478 14.363 112.478 14.699C112.478 15.017 112.574 15.278 112.766 15.482C112.958 15.68 113.195 15.839 113.477 15.959C113.765 16.073 114.056 16.169 114.35 16.247L116.672 16.895C116.99 16.979 117.347 17.093 117.743 17.237C118.139 17.381 118.52 17.582 118.886 17.84C119.252 18.098 119.552 18.437 119.786 18.857C120.026 19.277 120.146 19.811 120.146 20.459C120.146 21.131 120.005 21.722 119.723 22.232C119.447 22.736 119.072 23.156 118.598 23.492C118.124 23.828 117.581 24.08 116.969 24.248C116.363 24.416 115.727 24.5 115.061 24.5ZM125.208 24.23V13.304H121.014V11.27H131.571V13.304H127.377V24.23H125.208ZM138.23 24.5C137.198 24.5 136.289 24.29 135.503 23.87C134.723 23.45 134.111 22.859 133.667 22.097C133.229 21.335 133.01 20.441 133.01 19.415V11.288L135.206 11.27V19.361C135.206 19.847 135.287 20.282 135.449 20.666C135.617 21.05 135.842 21.377 136.124 21.647C136.406 21.911 136.73 22.112 137.096 22.25C137.462 22.388 137.84 22.457 138.23 22.457C138.632 22.457 139.013 22.388 139.373 22.25C139.739 22.106 140.063 21.902 140.345 21.638C140.627 21.368 140.849 21.041 141.011 20.657C141.173 20.273 141.254 19.841 141.254 19.361V11.27H143.45V19.415C143.45 20.441 143.228 21.335 142.784 22.097C142.346 22.859 141.734 23.45 140.948 23.87C140.168 24.29 139.262 24.5 138.23 24.5ZM145.965 24.23V11.27H150.096C150.204 11.27 150.417 11.273 150.735 11.279C151.059 11.285 151.371 11.306 151.671 11.342C152.697 11.474 153.564 11.84 154.272 12.44C154.986 13.034 155.526 13.793 155.892 14.717C156.258 15.641 156.441 16.652 156.441 17.75C156.441 18.848 156.258 19.859 155.892 20.783C155.526 21.707 154.986 22.469 154.272 23.069C153.564 23.663 152.697 24.026 151.671 24.158C151.377 24.194 151.068 24.215 150.744 24.221C150.42 24.227 150.204 24.23 150.096 24.23H145.965ZM148.17 22.187H150.096C150.276 22.187 150.504 22.181 150.78 22.169C151.062 22.157 151.311 22.13 151.527 22.088C152.139 21.974 152.637 21.701 153.021 21.269C153.405 20.837 153.687 20.312 153.867 19.694C154.053 19.076 154.146 18.428 154.146 17.75C154.146 17.048 154.053 16.388 153.867 15.77C153.681 15.152 153.393 14.633 153.003 14.213C152.619 13.793 152.127 13.526 151.527 13.412C151.311 13.364 151.062 13.337 150.78 13.331C150.504 13.319 150.276 13.313 150.096 13.313H148.17V22.187ZM158.749 24.23V11.27H160.918V24.23H158.749ZM169.095 24.5C167.799 24.5 166.689 24.218 165.765 23.654C164.841 23.084 164.13 22.292 163.632 21.278C163.14 20.264 162.894 19.088 162.894 17.75C162.894 16.412 163.14 15.236 163.632 14.222C164.13 13.208 164.841 12.419 165.765 11.855C166.689 11.285 167.799 11 169.095 11C170.391 11 171.501 11.285 172.425 11.855C173.355 12.419 174.066 13.208 174.558 14.222C175.056 15.236 175.305 16.412 175.305 17.75C175.305 19.088 175.056 20.264 174.558 21.278C174.066 22.292 173.355 23.084 172.425 23.654C171.501 24.218 170.391 24.5 169.095 24.5ZM169.095 22.457C169.965 22.463 170.688 22.271 171.264 21.881C171.846 21.491 172.281 20.942 172.569 20.234C172.863 19.526 173.01 18.698 173.01 17.75C173.01 16.802 172.863 15.98 172.569 15.284C172.281 14.582 171.846 14.036 171.264 13.646C170.688 13.256 169.965 13.055 169.095 13.043C168.225 13.037 167.502 13.229 166.926 13.619C166.35 14.009 165.915 14.558 165.621 15.266C165.333 15.974 165.189 16.802 165.189 17.75C165.189 18.698 165.333 19.523 165.621 20.225C165.909 20.921 166.341 21.464 166.917 21.854C167.499 22.244 168.225 22.445 169.095 22.457Z" fill="#151A2C"/>
<path d="M180.699 24.23V11.27H185.838C186.714 11.27 187.431 11.447 187.989 11.801C188.553 12.149 188.97 12.596 189.24 13.142C189.516 13.688 189.654 14.252 189.654 14.834C189.654 15.548 189.483 16.154 189.141 16.652C188.805 17.15 188.346 17.486 187.764 17.66V17.21C188.58 17.396 189.198 17.783 189.618 18.371C190.044 18.959 190.257 19.628 190.257 20.378C190.257 21.146 190.11 21.818 189.816 22.394C189.522 22.97 189.084 23.42 188.502 23.744C187.926 24.068 187.212 24.23 186.36 24.23H180.699ZM182.895 22.187H186.09C186.468 22.187 186.807 22.112 187.107 21.962C187.407 21.806 187.641 21.59 187.809 21.314C187.983 21.032 188.07 20.699 188.07 20.315C188.07 19.967 187.995 19.655 187.845 19.379C187.695 19.103 187.476 18.884 187.188 18.722C186.9 18.554 186.555 18.47 186.153 18.47H182.895V22.187ZM182.895 16.445H185.811C186.123 16.445 186.402 16.385 186.648 16.265C186.894 16.145 187.089 15.968 187.233 15.734C187.377 15.5 187.449 15.212 187.449 14.87C187.449 14.42 187.305 14.045 187.017 13.745C186.729 13.445 186.327 13.295 185.811 13.295H182.895V16.445ZM192.235 24.23V11.27H194.404V22.196H200.128V24.23H192.235ZM200.753 24.23L204.839 11.27H208.016L212.102 24.23H209.87L206.162 12.602H206.648L202.985 24.23H200.753ZM203.03 21.422V19.397H209.834V21.422H203.03ZM213.369 24.23V23.933L219.759 13.304H213.819V11.27H223.512V11.576L217.158 22.187H223.359V24.23H213.369ZM225.664 24.23V11.27H234.034V13.304H227.833V16.499H232.954V18.533H227.833V22.196H234.034V24.23H225.664ZM236.194 24.23V11.27H241.549C241.675 11.27 241.837 11.276 242.035 11.288C242.233 11.294 242.416 11.312 242.584 11.342C243.334 11.456 243.952 11.705 244.438 12.089C244.93 12.473 245.293 12.959 245.527 13.547C245.767 14.129 245.887 14.777 245.887 15.491C245.887 16.547 245.62 17.456 245.086 18.218C244.552 18.974 243.733 19.442 242.629 19.622L241.702 19.703H238.363V24.23H236.194ZM243.637 24.23L241.081 18.956L243.286 18.47L246.094 24.23H243.637ZM238.363 17.678H241.459C241.579 17.678 241.714 17.672 241.864 17.66C242.014 17.648 242.152 17.624 242.278 17.588C242.638 17.498 242.92 17.339 243.124 17.111C243.334 16.883 243.481 16.625 243.565 16.337C243.655 16.049 243.7 15.767 243.7 15.491C243.7 15.215 243.655 14.933 243.565 14.645C243.481 14.351 243.334 14.09 243.124 13.862C242.92 13.634 242.638 13.475 242.278 13.385C242.152 13.349 242.014 13.328 241.864 13.322C241.714 13.31 241.579 13.304 241.459 13.304H238.363V17.678Z" fill="#151A2C"/>
<path d="M65.647 40.73C64.9097 40.73 64.2913 40.555 63.792 40.205C63.2927 39.855 62.917 39.379 62.665 38.777C62.413 38.1703 62.287 37.4913 62.287 36.74C62.287 35.9793 62.413 35.298 62.665 34.696C62.917 34.094 63.2857 33.6203 63.771 33.275C64.261 32.925 64.8653 32.75 65.584 32.75C66.298 32.75 66.9163 32.925 67.439 33.275C67.9663 33.6203 68.3747 34.094 68.664 34.696C68.9533 35.2933 69.098 35.9747 69.098 36.74C69.098 37.496 68.9557 38.175 68.671 38.777C68.3863 39.379 67.985 39.855 67.467 40.205C66.949 40.555 66.3423 40.73 65.647 40.73ZM62 40.52V30.44H63.701V35.214H63.491V40.52H62ZM65.388 39.218C65.8267 39.218 66.1883 39.1083 66.473 38.889C66.7577 38.6697 66.9677 38.3733 67.103 38C67.243 37.622 67.313 37.202 67.313 36.74C67.313 36.2827 67.243 35.8673 67.103 35.494C66.963 35.116 66.746 34.8173 66.452 34.598C66.158 34.374 65.7847 34.262 65.332 34.262C64.9027 34.262 64.5527 34.367 64.282 34.577C64.0113 34.7823 63.8107 35.0717 63.68 35.445C63.554 35.8137 63.491 36.2453 63.491 36.74C63.491 37.23 63.554 37.6617 63.68 38.035C63.8107 38.4083 64.0137 38.7 64.289 38.91C64.569 39.1153 64.9353 39.218 65.388 39.218ZM71.1291 43.88L72.5851 39.883L72.6131 41.059L69.3161 32.96H71.0731L73.4111 38.952H72.9631L75.2381 32.96H76.9251L72.7111 43.88H71.1291ZM80.7718 40.52V30.44H84.7688C85.4501 30.44 86.0078 30.5777 86.4418 30.853C86.8805 31.1237 87.2048 31.4713 87.4148 31.896C87.6295 32.3207 87.7368 32.7593 87.7368 33.212C87.7368 33.7673 87.6038 34.2387 87.3378 34.626C87.0765 35.0133 86.7195 35.2747 86.2668 35.41V35.06C86.9015 35.2047 87.3821 35.5057 87.7088 35.963C88.0401 36.4203 88.2058 36.9407 88.2058 37.524C88.2058 38.1213 88.0915 38.644 87.8628 39.092C87.6341 39.54 87.2935 39.89 86.8408 40.142C86.3928 40.394 85.8375 40.52 85.1748 40.52H80.7718ZM82.4798 38.931H84.9648C85.2588 38.931 85.5225 38.8727 85.7558 38.756C85.9891 38.6347 86.1711 38.4667 86.3018 38.252C86.4371 38.0327 86.5048 37.7737 86.5048 37.475C86.5048 37.2043 86.4465 36.9617 86.3298 36.747C86.2131 36.5323 86.0428 36.362 85.8188 36.236C85.5948 36.1053 85.3265 36.04 85.0138 36.04H82.4798V38.931ZM82.4798 34.465H84.7478C84.9905 34.465 85.2075 34.4183 85.3988 34.325C85.5901 34.2317 85.7418 34.094 85.8538 33.912C85.9658 33.73 86.0218 33.506 86.0218 33.24C86.0218 32.89 85.9098 32.5983 85.6858 32.365C85.4618 32.1317 85.1491 32.015 84.7478 32.015H82.4798V34.465ZM89.7438 40.52V30.23H91.4308V40.52H89.7438ZM95.6417 40.73C95.0957 40.73 94.6337 40.6273 94.2557 40.422C93.8777 40.212 93.5907 39.9343 93.3947 39.589C93.2033 39.2437 93.1077 38.8633 93.1077 38.448C93.1077 38.084 93.1683 37.7573 93.2897 37.468C93.411 37.174 93.5977 36.922 93.8497 36.712C94.1017 36.4973 94.4283 36.3223 94.8297 36.187C95.133 36.089 95.4877 36.0003 95.8937 35.921C96.3043 35.8417 96.7477 35.7693 97.2237 35.704C97.7043 35.634 98.206 35.5593 98.7287 35.48L98.1267 35.823C98.1313 35.3003 98.0147 34.9153 97.7767 34.668C97.5387 34.4207 97.1373 34.297 96.5727 34.297C96.232 34.297 95.903 34.3763 95.5857 34.535C95.2683 34.6937 95.0467 34.9667 94.9207 35.354L93.3807 34.871C93.5673 34.2317 93.922 33.7183 94.4447 33.331C94.972 32.9437 95.6813 32.75 96.5727 32.75C97.2447 32.75 97.835 32.8597 98.3437 33.079C98.857 33.2983 99.2373 33.6577 99.4847 34.157C99.62 34.423 99.7017 34.696 99.7297 34.976C99.7577 35.2513 99.7717 35.5523 99.7717 35.879V40.52H98.2947V38.882L98.5397 39.148C98.199 39.694 97.8 40.0953 97.3427 40.352C96.89 40.604 96.323 40.73 95.6417 40.73ZM95.9777 39.386C96.3603 39.386 96.687 39.3183 96.9577 39.183C97.2283 39.0477 97.443 38.882 97.6017 38.686C97.765 38.49 97.8747 38.3057 97.9307 38.133C98.0193 37.9183 98.0683 37.6733 98.0777 37.398C98.0917 37.118 98.0987 36.8917 98.0987 36.719L98.6167 36.873C98.108 36.9523 97.6717 37.0223 97.3077 37.083C96.9437 37.1437 96.631 37.202 96.3697 37.258C96.1083 37.3093 95.8773 37.3677 95.6767 37.433C95.4807 37.503 95.315 37.5847 95.1797 37.678C95.0443 37.7713 94.9393 37.8787 94.8647 38C94.7947 38.1213 94.7597 38.2637 94.7597 38.427C94.7597 38.6137 94.8063 38.7793 94.8997 38.924C94.993 39.064 95.1283 39.176 95.3057 39.26C95.4877 39.344 95.7117 39.386 95.9777 39.386ZM100.894 40.52V40.289L104.898 34.437H101.3V32.96H107.523V33.198L103.533 39.043H107.355V40.52H100.894ZM111.935 40.73C111.17 40.73 110.498 40.5643 109.919 40.233C109.341 39.9017 108.888 39.442 108.561 38.854C108.239 38.266 108.078 37.5893 108.078 36.824C108.078 35.998 108.237 35.2817 108.554 34.675C108.872 34.0637 109.313 33.59 109.877 33.254C110.442 32.918 111.095 32.75 111.837 32.75C112.621 32.75 113.286 32.9343 113.832 33.303C114.383 33.667 114.791 34.1827 115.057 34.85C115.323 35.5173 115.424 36.3037 115.358 37.209H113.685V36.593C113.681 35.7717 113.536 35.172 113.251 34.794C112.967 34.416 112.519 34.227 111.907 34.227C111.217 34.227 110.703 34.4417 110.367 34.871C110.031 35.2957 109.863 35.9187 109.863 36.74C109.863 37.5053 110.031 38.098 110.367 38.518C110.703 38.938 111.193 39.148 111.837 39.148C112.253 39.148 112.61 39.057 112.908 38.875C113.212 38.6883 113.445 38.42 113.608 38.07L115.274 38.574C114.985 39.2553 114.537 39.785 113.93 40.163C113.328 40.541 112.663 40.73 111.935 40.73ZM109.331 37.209V35.935H114.532V37.209H109.331ZM116.92 40.52V32.96H118.411V34.801L118.229 34.563C118.323 34.311 118.446 34.0823 118.6 33.877C118.759 33.667 118.948 33.4943 119.167 33.359C119.354 33.233 119.559 33.135 119.783 33.065C120.012 32.9903 120.245 32.946 120.483 32.932C120.721 32.9133 120.952 32.9227 121.176 32.96V34.535C120.952 34.4697 120.693 34.4487 120.399 34.472C120.11 34.4953 119.849 34.577 119.615 34.717C119.382 34.843 119.191 35.004 119.041 35.2C118.897 35.396 118.789 35.62 118.719 35.872C118.649 36.1193 118.614 36.3877 118.614 36.677V40.52H116.92ZM121.672 40.52L125.088 35.424L121.77 30.44H123.835L126.131 33.989L128.406 30.44H130.485L127.167 35.424L130.569 40.52H128.504L126.131 36.859L123.751 40.52H121.672ZM130.846 40.52L134.262 35.424L130.944 30.44H133.009L135.305 33.989L137.58 30.44H139.659L136.341 35.424L139.743 40.52H137.678L135.305 36.859L132.925 40.52H130.846ZM141 40.52V30.44H142.687V40.52H141Z" fill="#151A2C"/>
</g>
<defs>
<clipPath id="clip0_221_178">
<rect width="246" height="55" fill="white"/>
</clipPath>
</defs>
</svg>
