<svg width="213" height="55" viewBox="0 0 213 55" fill="none" xmlns="http://www.w3.org/2000/svg">
<path d="M68.2784 14.3903H71.7852L73.0245 21.9138L73.2442 23.7155H73.42L73.6573 21.9138L74.9669 14.3903H77.4717L75.0635 26.8972H71.1876L70.1329 20.112L69.9483 18.2399H69.7725L69.5704 20.112L68.3311 26.8972H64.4551L62.0469 14.3903H65.1055L66.3448 21.9138L66.5645 23.7155H66.7403L66.9776 21.9138L68.2784 14.3903ZM87.4385 26.8972H79.2823V14.3903H87.4385V16.6755H82.1212V19.4792H86.8409V21.6061H82.1212V24.612H87.4385V26.8972ZM89.8643 14.3903H97.0274L99.0049 16.3679V19.0309L97.7305 20.3054L99.4356 22.0192V24.9196L97.4581 26.8972H89.8643V14.3903ZM96.1661 18.8112V17.2468L95.4278 16.5085H92.7032V19.4968H95.4805L96.1661 18.8112ZM96.5967 24.0319V22.2565L95.8585 21.5182H92.7032V24.7702H95.8585L96.5967 24.0319ZM106.871 23.3903H100.877V21.1052H106.871V23.3903ZM116.548 26.985H110.65L108.664 25.0075V16.28L110.65 14.2936H116.442L118.104 16.0075L116.082 17.8444L114.843 16.6052H112.25L111.512 17.3434V23.944L112.25 24.6823H115.001L116.442 23.2585L118.402 25.0954L116.548 26.985ZM121.892 16.8513H118.49V14.3903H128.132V16.8513H124.731V26.8972H121.892V16.8513ZM134.873 26.8972H130.61V24.6647H133.739L134.39 24.0319L134.627 22.7224H130.487L128.773 14.3903H131.797L132.878 20.4899H134.961L135.919 14.3903H138.67L136.859 24.9196L134.873 26.8972ZM141.509 29.1296H138.661V24.5944H139.523L140.138 23.9792L141.201 14.3903H149.067V24.5944H150.324V29.1296H147.485V26.8972H141.509V29.1296ZM143.627 16.6931L142.801 23.9265L141.975 24.5944H146.22V16.6931H143.627ZM158.604 19.9099L155.483 26.8972H152.302V14.3903H155.141V22.6872H155.237L155.615 21.3864L158.727 14.3903H161.908V26.8972H159.069V18.6003H158.982L158.604 19.9099ZM170.759 22.4147H169.317L167.015 26.8972H163.991L166.619 22.1071L164.615 20.1999V16.3679L166.602 14.3903H173.598V26.8972H170.759V22.4147ZM170.759 16.5085H168.201L167.463 17.2468V19.5495L168.201 20.2878H170.759V16.5085ZM182.07 26.985L180.084 25.0075V16.28L182.07 14.2936H187.968L189.954 16.28V25.0075L187.968 26.985H182.07ZM187.107 23.944V17.3434L186.368 16.6052H183.67L182.932 17.3434V23.944L183.67 24.6823H186.368L187.107 23.944ZM194.463 26.985L192.477 25.0075V16.28L194.463 14.2936H200.36L202.347 16.28V25.0075L200.36 26.985H194.463ZM199.499 23.944V17.3434L198.761 16.6052H196.063L195.324 17.3434V23.944L196.063 24.6823H198.761L199.499 23.944ZM208.183 26.8972H204.148V24.4274H206.548L207.321 23.654V16.6931H205.159V14.3903H210.16V24.9196L208.183 26.8972Z" fill="#151A2C"/>
<path d="M65.2222 30.8235H66.1944V33.7615L67.0377 32.9666H68.5577L69.5137 33.9226V37.4568L68.5577 38.4128H67.0377L66.1944 37.6233H66.1461L65.9366 38.4128H65.2222V30.8235ZM67.9937 37.575L68.5362 37.0378V34.3416L67.9937 33.8044H67.2686L66.1944 34.7283V36.6511L67.2686 37.575H67.9937ZM75.3506 39.6106L74.3892 40.5667H71.9077L71.0913 39.7556L71.7627 39.095L72.4019 39.7341H73.8413L74.3784 39.1917V38.1389L74.0293 38.4128H72.128L71.1665 37.4568V32.9666H72.1387V37.0378L72.6758 37.575H74.3784V32.9666H75.3506V39.6106ZM84.4301 38.4128H83.3398L82.7597 36.5544H80.2192L79.6552 38.4128H78.6455L80.955 30.8235H82.0454L84.4301 38.4128ZM81.4384 32.1448L81.2988 32.9666L80.5038 35.6091H82.4643L81.6372 32.9666L81.4921 32.1448H81.4384ZM86.2924 33.7615H86.3407L87.1732 32.9666H88.2851V33.8582H87.3827L86.3407 34.7498V38.4128H85.3686V32.9666H86.0829L86.2924 33.7615ZM89.4491 33.8044H88.7777V32.9666H89.4491V32.0642L90.3622 31.5378H90.4159V32.9666H91.5062V33.8044H90.4159V36.9841L90.953 37.5212H91.9144V38.4128H90.4051L89.4491 37.4568V33.8044ZM97.3055 39.6106L96.3441 40.5667H93.8626L93.0462 39.7556L93.7176 39.095L94.3568 39.7341H95.7962L96.3333 39.1917V38.1389L95.9842 38.4128H94.0828L93.1214 37.4568V32.9666H94.0936V37.0378L94.6307 37.575H96.3333V32.9666H97.3055V39.6106ZM102.38 32.9666L103.336 33.9226V37.4568L102.38 38.4128H99.9036L98.9475 37.4568V33.9226L99.9036 32.9666H102.38ZM100.457 33.8044L99.9143 34.3416V37.0378L100.457 37.575H101.832L102.369 37.0378V34.3416L101.832 33.8044H100.457ZM109.436 33.8044L108.893 34.3416V38.4128H107.927V34.3416L107.389 33.8044H106.498L105.961 34.3416V38.4128H104.989V32.9666H105.703L105.912 33.4177H105.961L106.412 32.9666H107.749L108.453 33.6702L109.162 32.9666H110.875L111.831 33.9226V38.4128H110.864V34.3416L110.327 33.8044H109.436ZM121.41 38.4128H120.223L118.521 35.4534H117.103V38.4128H116.066V30.8235H119.686L120.895 32.032V34.1804L119.675 35.3997L121.41 38.4128ZM119.863 32.4617L119.171 31.7688H117.103V34.5081H119.171L119.863 33.8152V32.4617ZM125.786 32.9666L126.742 33.9226V38.4128H126.028L125.818 37.6233H125.776L124.927 38.4128H123.412L122.451 37.4568V36.1033L123.412 35.1472H125.776V34.3416L125.238 33.8044H123.928L123.289 34.3953L122.628 33.7024L123.412 32.9666H125.786ZM123.96 35.9797L123.423 36.5222V37.0378L123.96 37.575H124.696L125.776 36.6511V35.9797H123.96ZM131.865 37.4998L132.713 38.3484V39.7126L131.865 40.5559H128.905L128.062 39.7126V38.3484L128.905 37.4998H129.91V36.6189H129.292L128.336 35.6628V33.9226L129.292 32.9666H131.483L131.988 33.4714L132.493 32.9666H132.944V34.1428H132.44V35.6628L131.483 36.6189H130.877V37.4998H131.865ZM129.84 33.8044L129.303 34.3416V35.2439L129.84 35.7864H130.93L131.473 35.2439V34.3416L130.93 33.8044H129.84ZM129.459 38.3376L129.029 38.7673V39.2937L129.459 39.7234H131.317L131.747 39.2937V38.7673L131.317 38.3376H129.459ZM137.691 32.9666L138.647 33.9226V37.4568L137.691 38.4128H135.215L134.259 37.4568V33.9226L135.215 32.9666H137.691ZM135.768 33.8044L135.226 34.3416V37.0378L135.768 37.575H137.143L137.68 37.0378V34.3416L137.143 33.8044H135.768ZM140.16 38.4128L139.859 37.9294L142.658 33.8044H139.994V32.9666H143.732L144.033 33.45L141.234 37.575H144.043V38.4128H140.16ZM145.31 32.9666H146.282V38.4128H145.31V32.9666ZM146.282 31.7688H145.31V30.8235H146.282V31.7688ZM152.215 38.4128H151.248V34.3416L150.706 33.8044H150.024L148.95 34.7283V38.4128H147.977V32.9666H148.692L148.901 33.7615H148.95L149.793 32.9666H151.259L152.215 33.9226V38.4128ZM156.466 40.5559H155.521L158.953 30.1628H159.898L156.466 40.5559ZM164.833 30.8235H165.955L164.349 34.4973L166.272 38.4128H165.107L163.436 35.0022H162.04V38.4128H161.003V30.8235H162.04V34.0569H163.469L164.833 30.8235ZM170.578 32.9666L171.534 33.9226V37.4568L170.578 38.4128H168.102L167.146 37.4568V33.9226L168.102 32.9666H170.578ZM168.656 33.8044L168.113 34.3416V37.0378L168.656 37.575H170.031L170.568 37.0378V34.3416L170.031 33.8044H168.656ZM175.454 38.4128H174.224L172.527 32.9666H173.563L174.852 37.3547H174.874L176.179 32.9666H177.151L175.454 38.4128ZM181.312 32.9666L182.268 33.9226V38.4128H181.554L181.344 37.6233H181.301L180.453 38.4128H178.938L177.977 37.4568V36.1033L178.938 35.1472H181.301V34.3416L180.764 33.8044H179.454L178.815 34.3953L178.154 33.7024L178.938 32.9666H181.312ZM179.486 35.9797L178.949 36.5222V37.0378L179.486 37.575H180.222L181.301 36.6511V35.9797H179.486ZM183.969 30.8235H184.942V38.4128H183.969V30.8235ZM190.709 37.4568L189.753 38.4128H187.088L186.31 37.6448L186.949 36.9841L187.583 37.575H189.205L189.742 37.0378V36.5867L189.205 36.0496H187.33L186.374 35.0935V33.9226L187.33 32.9666H189.71L190.488 33.7292L189.828 34.3953L189.215 33.8044H187.883L187.341 34.3416V34.6746L187.883 35.2117H189.753L190.709 36.1677V37.4568ZM195.036 32.9666H196.03L194.794 35.5178L196.336 38.4128H195.235L193.946 35.9368H193.06V38.4128H192.087V30.8235H193.06V35.1042H194.016L195.036 32.9666ZM197.376 32.9666H198.349V38.4128H197.376V32.9666ZM198.349 31.7688H197.376V30.8235H198.349V31.7688ZM204.229 39.6106L203.267 40.5667H200.786L199.969 39.7556L200.641 39.095L201.28 39.7341H202.719L203.256 39.1917V38.1389L202.907 38.4128H201.006L200.044 37.4568V32.9666H201.017V37.0378L201.554 37.575H203.256V32.9666H204.229V39.6106ZM206.102 40.5559H205.156L208.588 30.1628H209.534L206.102 40.5559Z" fill="#1565D8"/>
<path d="M19.8612 32.5855C17.8042 29.0968 14.9325 26.1269 11.4751 23.9128C11.1259 23.6893 10.6987 23.6099 10.2875 23.6919C9.87631 23.7739 9.51462 24.0107 9.28185 24.3502C9.04909 24.6897 8.96428 25.1043 9.04605 25.5028C9.12782 25.9014 9.36948 26.2514 9.71798 26.476C12.7677 28.4296 15.3008 31.05 17.1151 34.1278C18.1748 35.9219 19.6398 37.4586 21.4007 38.6232C23.1616 39.7879 25.173 40.5504 27.2849 40.854C27.6997 40.9147 28.1233 40.8129 28.4624 40.571C28.8015 40.3292 29.0284 39.9671 29.0931 39.5644C29.1577 39.1617 29.055 38.7514 28.8074 38.4237C28.5598 38.0961 28.1876 37.8779 27.7727 37.8172C26.1299 37.5813 24.5652 36.9882 23.1952 36.0823C21.8253 35.1764 20.6856 33.9811 19.8612 32.5855ZM30.2605 28.5152C29.8963 28.7197 29.4641 28.776 29.0588 28.6716C28.6535 28.5672 28.3084 28.3107 28.0994 27.9586C25.0306 22.7854 20.6542 18.459 15.3801 15.3848C15.202 15.2815 15.0468 15.1451 14.9234 14.9833C14.8 14.8216 14.7108 14.6376 14.6609 14.4421C14.611 14.2465 14.6014 14.0431 14.6326 13.8435C14.6638 13.6439 14.7352 13.452 14.8427 13.2788C14.9502 13.1056 15.0918 12.9545 15.2593 12.8341C15.4268 12.7137 15.617 12.6263 15.8189 12.577C16.0208 12.5278 16.2306 12.5175 16.4362 12.5469C16.6418 12.5762 16.8392 12.6446 17.0172 12.7482C22.751 16.0897 27.509 20.7926 30.8455 26.4163C31.0545 26.7684 31.1102 27.1874 31.0005 27.581C30.8908 27.9746 30.6246 28.3107 30.2605 28.5152ZM33.4126 33.8263C31.5913 34.8465 29.4308 35.1265 27.4051 34.6047C25.3794 34.083 23.654 32.8022 22.6073 31.0432C22.3983 30.6911 22.3425 30.2721 22.4522 29.8785C22.5619 29.4849 22.8281 29.1488 23.1923 28.9443C23.5564 28.7398 23.9887 28.6835 24.394 28.7879C24.7993 28.8923 25.1444 29.1488 25.3534 29.5009C25.9803 30.5573 27.0156 31.3268 28.2315 31.6399C29.4473 31.9531 30.7441 31.7843 31.8365 31.1708C32.929 30.5572 33.7276 29.5491 34.0568 28.3682C34.3859 27.1873 34.2185 25.9304 33.5916 24.874C30.4724 19.5869 26.1742 15.0464 21.0095 11.5826C20.839 11.468 20.6936 11.3219 20.5816 11.1526C20.4696 10.9833 20.3932 10.794 20.3568 10.5957C20.3204 10.3974 20.3246 10.1938 20.3693 9.99667C20.414 9.79952 20.4982 9.61263 20.6172 9.44668C20.7361 9.28073 20.8875 9.13897 21.0627 9.02948C21.2378 8.92 21.4333 8.84494 21.638 8.80858C21.8427 8.77223 22.0526 8.7753 22.2556 8.81762C22.4586 8.85993 22.6509 8.94066 22.8214 9.0552C28.3694 12.7757 32.9867 17.6527 36.3376 23.3317C37.3802 25.093 37.6577 27.187 37.1093 29.1545C36.561 31.1219 35.2315 32.802 33.4126 33.8263ZM39.7169 44.4486C34.9815 47.1013 29.3643 47.8292 24.0975 46.4727C18.8307 45.1161 14.3445 41.7859 11.6231 37.2126C10.6412 35.553 9.37342 34.0697 7.87445 32.8266C7.55645 32.5626 7.36018 32.1864 7.32876 31.7807C7.29734 31.375 7.43335 30.9729 7.7069 30.6629C7.98044 30.3529 8.36914 30.1603 8.78758 30.1274C9.20601 30.0944 9.61995 30.2239 9.93842 30.4874C11.71 31.9564 13.2084 33.7092 14.3692 35.6703C16.6682 39.5439 20.4642 42.3652 24.9223 43.5134C29.3803 44.6616 34.1352 44.0428 38.1409 41.7931C42.1465 39.5433 45.0749 35.8469 46.2817 31.5171C47.4885 27.1872 46.8749 22.5785 44.5759 18.7049C42.776 15.6707 40.6756 12.8147 38.3042 10.1772C38.1676 10.0257 38.0633 9.84952 37.9972 9.65859C37.9311 9.46767 37.9046 9.26579 37.919 9.06449C37.9334 8.8632 37.9886 8.66643 38.0813 8.48543C38.1741 8.30443 38.3026 8.14275 38.4596 8.00963C38.6165 7.8765 38.7988 7.77455 38.9961 7.70959C39.1933 7.64462 39.4016 7.61791 39.6091 7.63101C39.8165 7.6441 40.0191 7.69673 40.2052 7.78589C40.3912 7.87504 40.5572 7.99898 40.6935 8.15061C43.1998 10.9378 45.4198 13.956 47.322 17.1626C50.0327 21.7419 50.7543 27.1865 49.3286 32.3018C47.9028 37.4172 44.4462 41.7856 39.7169 44.4486ZM21.3243 26.4175C21.0088 26.6875 20.5964 26.8256 20.1776 26.8016C19.7588 26.7776 19.3677 26.5934 19.0902 26.2894C16.9603 23.9502 14.4515 21.9634 11.6617 20.4065C11.4818 20.3061 11.3243 20.1722 11.1981 20.0125C11.0719 19.8528 10.9795 19.6704 10.9262 19.4757C10.8729 19.281 10.8597 19.0778 10.8874 18.8777C10.9151 18.6777 10.9831 18.4847 11.0877 18.3097C11.1922 18.1348 11.3311 17.9814 11.4965 17.8582C11.6618 17.7351 11.8505 17.6446 12.0515 17.592C12.2526 17.5395 12.4622 17.5257 12.6683 17.5517C12.8744 17.5777 13.073 17.6428 13.2528 17.7434C16.3381 19.4654 19.1125 21.6627 21.4679 24.2499C21.7451 24.5543 21.8857 24.9537 21.8588 25.3602C21.8319 25.7667 21.6396 26.147 21.3243 26.4175ZM36.5647 39.1374C36.0488 39.4271 35.5152 39.6857 34.9667 39.9117C34.775 39.9906 34.5693 40.0321 34.3614 40.034C34.1535 40.0359 33.9475 39.998 33.7551 39.9226C33.5627 39.8471 33.3877 39.7356 33.2401 39.5943C33.0924 39.4531 32.9751 39.2849 32.8948 39.0993C32.7325 38.7245 32.7307 38.3018 32.8898 37.9241C32.9685 37.7371 33.0844 37.5668 33.2308 37.4229C33.3772 37.279 33.5513 37.1644 33.743 37.0855C34.1706 36.9093 34.5866 36.7077 34.9887 36.4818C37.5352 35.0479 39.3965 32.6957 40.1642 29.9413C40.9319 27.1868 40.5433 24.2552 39.0837 21.7894C38.0626 20.0689 36.9325 18.4119 35.6999 16.8278C35.4474 16.5037 35.3385 16.0949 35.3972 15.6914C35.4559 15.2878 35.6774 14.9226 36.0129 14.6761C36.3484 14.4296 36.7704 14.3219 37.1861 14.3767C37.6019 14.4316 37.9773 14.6445 38.2297 14.9686C39.5411 16.6539 40.7434 18.4168 41.8298 20.2471C43.7064 23.4174 44.206 27.1867 43.219 30.7281C42.2319 34.2695 39.8388 37.2937 36.5647 39.1374ZM33.8739 12.2672C33.7251 12.4089 33.5492 12.5209 33.3562 12.5968C33.1631 12.6727 32.9567 12.711 32.7488 12.7095C32.5409 12.708 32.3355 12.6668 32.1444 12.5882C31.9534 12.5096 31.7804 12.3951 31.6353 12.2513C30.8236 11.4484 29.9721 10.6648 29.1045 9.92218C28.949 9.78911 28.8222 9.6275 28.7314 9.44659C28.6406 9.26567 28.5874 9.06899 28.5751 8.86778C28.5627 8.66656 28.5913 8.46475 28.6593 8.27386C28.7273 8.08298 28.8334 7.90676 28.9714 7.75526C29.1094 7.60377 29.2766 7.47997 29.4636 7.39094C29.6506 7.3019 29.8537 7.24937 30.0612 7.23634C30.2687 7.22331 30.4767 7.25005 30.6731 7.31501C30.8696 7.37998 31.0507 7.48191 31.2062 7.61498C32.1304 8.40595 33.0374 9.24054 33.9017 10.0959C34.0469 10.2395 34.1613 10.4095 34.2385 10.5964C34.3157 10.7832 34.354 10.9832 34.3515 11.1848C34.3489 11.3864 34.3054 11.5858 34.2234 11.7715C34.1415 11.9572 34.0227 12.1256 33.8739 12.2672Z" fill="#151A2C"/>
</svg>
