<svg width="16" height="12" viewBox="0 0 16 12" fill="none" xmlns="http://www.w3.org/2000/svg">
<path d="M14.9412 6.79442C15.3039 6.31993 15.3039 5.67937 14.9412 5.20565C13.7986 3.71407 11.0572 0.642893 7.85674 0.642893C4.65623 0.642893 1.9149 3.71407 0.772299 5.20565C0.595807 5.43284 0.5 5.71234 0.5 6.00004C0.5 6.28773 0.595807 6.56723 0.772299 6.79442C1.9149 8.286 4.65623 11.3572 7.85674 11.3572C11.0572 11.3572 13.7986 8.286 14.9412 6.79442V6.79442Z" stroke="#808594" stroke-linecap="round" stroke-linejoin="round"/>
<path d="M7.85695 3.70406C9.12495 3.70406 10.1529 4.73198 10.1529 5.99998C10.1529 7.26798 9.12495 8.2959 7.85695 8.2959C6.58895 8.2959 5.56104 7.26798 5.56104 5.99998C5.56104 4.73198 6.58895 3.70406 7.85695 3.70406Z" stroke="#808594" stroke-linecap="round" stroke-linejoin="round"/>
</svg>
