<svg width="420" height="421" viewBox="0 0 420 421" fill="none" xmlns="http://www.w3.org/2000/svg">
<g opacity="0.3" filter="url(#filter0_f_740_52700)">
<circle cx="210" cy="210.5" r="120" fill="url(#paint0_radial_740_52700)"/>
</g>
<g clip-path="url(#clip0_740_52700)">
<path d="M210 165.5C201.1 165.5 192.4 168.139 184.999 173.084C177.599 178.029 171.831 185.057 168.425 193.279C165.019 201.502 164.128 210.55 165.865 219.279C167.601 228.008 171.887 236.026 178.18 242.32C184.474 248.613 192.492 252.899 201.221 254.635C209.95 256.372 218.998 255.48 227.221 252.075C235.443 248.669 242.471 242.901 247.416 235.501C252.361 228.1 255 219.4 255 210.5C254.987 198.569 250.242 187.131 241.805 178.695C233.369 170.258 221.931 165.513 210 165.5Z" fill="#181F35"/>
<path d="M210.72 208.021C210.19 208.021 209.672 208.178 209.231 208.473C208.79 208.768 208.446 209.186 208.243 209.676C208.04 210.166 207.987 210.705 208.091 211.225C208.194 211.746 208.45 212.223 208.825 212.598C209.2 212.973 209.677 213.229 210.197 213.332C210.718 213.436 211.257 213.382 211.747 213.18C212.236 212.977 212.655 212.633 212.95 212.192C213.244 211.751 213.402 211.233 213.402 210.702C213.402 209.991 213.119 209.309 212.616 208.807C212.114 208.304 211.432 208.021 210.72 208.021ZM231.151 210.702L231.446 210.327C235.066 205.34 235.924 200.755 233.94 197.296C231.956 193.838 227.505 192.309 221.445 192.926H220.963C218.523 187.376 214.903 183.89 210.72 183.89C206.538 183.89 202.918 187.376 200.505 193.006L199.996 192.926C193.936 192.309 189.485 193.838 187.501 197.296C185.517 200.755 186.375 205.34 189.995 210.327L190.29 210.702L189.995 211.078C186.375 216.065 185.517 220.65 187.501 224.108C189.271 227.058 192.676 228.613 197.314 228.613C198.146 228.613 199.004 228.613 199.996 228.479H200.478C202.918 234.029 206.538 237.514 210.72 237.514C214.903 237.514 218.523 234.029 220.936 228.398H221.418C222.33 228.398 223.188 228.532 224.1 228.532C228.845 228.532 232.331 226.977 234.02 224.028C236.004 220.569 235.146 215.984 231.527 210.997L231.151 210.702ZM192.14 199.978C192.81 198.798 194.821 198.154 197.502 198.154H198.816C198.396 199.804 198.082 201.479 197.878 203.168C196.512 204.201 195.213 205.321 193.99 206.52C191.952 203.839 191.362 201.318 192.14 199.978ZM192.14 221.427C191.362 220.087 192.14 217.566 193.936 214.805C195.159 216.003 196.458 217.123 197.824 218.156C198.029 219.855 198.342 221.538 198.762 223.197C195.438 223.411 192.917 222.768 192.14 221.427ZM210.72 189.253C212.222 189.253 214.018 191.022 215.547 194.159C213.909 194.635 212.297 195.199 210.72 195.849C209.143 195.199 207.532 194.635 205.894 194.159C207.423 191.022 209.219 189.253 210.72 189.253ZM210.72 232.152C209.219 232.152 207.423 230.382 205.894 227.245C207.532 226.77 209.143 226.206 210.72 225.556C212.297 226.206 213.909 226.77 215.547 227.245C214.018 230.382 212.222 232.152 210.72 232.152ZM218.576 215.234C217.343 216.092 216.083 216.896 214.742 217.674C213.402 218.451 212.061 219.148 210.72 219.765C209.38 219.139 208.039 218.442 206.699 217.674C205.358 216.896 204.017 216.092 202.865 215.234C202.677 213.786 202.677 212.284 202.677 210.702C202.677 209.12 202.677 207.619 202.865 206.171C204.098 205.313 205.358 204.509 206.699 203.731C208.039 202.954 209.38 202.257 210.72 201.64C212.061 202.266 213.402 202.963 214.742 203.731C216.083 204.509 217.423 205.313 218.576 206.171C218.576 207.619 218.764 209.12 218.764 210.702C218.764 212.284 218.764 213.786 218.576 215.234ZM229.301 221.427C228.524 222.768 226.003 223.438 222.679 223.197C223.099 221.538 223.412 219.855 223.617 218.156C224.983 217.123 226.282 216.003 227.505 214.805C229.489 217.566 230.079 220.087 229.301 221.427ZM227.505 206.6C226.282 205.401 224.983 204.282 223.617 203.249C223.412 201.559 223.099 199.884 222.679 198.235H223.992C226.674 198.235 228.631 198.878 229.355 200.058C230.079 201.238 229.489 203.839 227.505 206.6Z" fill="white"/>
</g>
<g opacity="0.7" filter="url(#filter1_f_740_52700)">
<circle cx="65" cy="65" r="61.5" transform="matrix(-1 0 0 1 275 145.5)" stroke="#1BDC77" stroke-width="7"/>
</g>
<g opacity="0.4" filter="url(#filter2_f_740_52700)">
<circle cx="85" cy="85" r="82.5" transform="matrix(-1 0 0 1 295 125.5)" stroke="#1BDC77" stroke-width="5"/>
</g>
<g opacity="0.2" filter="url(#filter3_f_740_52700)">
<circle cx="100" cy="100" r="98.5" transform="matrix(-1 0 0 1 310 110.5)" stroke="#1BDC77" stroke-width="3"/>
</g>
<defs>
<filter id="filter0_f_740_52700" x="0" y="0.5" width="420" height="420" filterUnits="userSpaceOnUse" color-interpolation-filters="sRGB">
<feFlood flood-opacity="0" result="BackgroundImageFix"/>
<feBlend mode="normal" in="SourceGraphic" in2="BackgroundImageFix" result="shape"/>
<feGaussianBlur stdDeviation="45" result="effect1_foregroundBlur_740_52700"/>
</filter>
<filter id="filter1_f_740_52700" x="140" y="140.5" width="140" height="140" filterUnits="userSpaceOnUse" color-interpolation-filters="sRGB">
<feFlood flood-opacity="0" result="BackgroundImageFix"/>
<feBlend mode="normal" in="SourceGraphic" in2="BackgroundImageFix" result="shape"/>
<feGaussianBlur stdDeviation="2.5" result="effect1_foregroundBlur_740_52700"/>
</filter>
<filter id="filter2_f_740_52700" x="121" y="121.5" width="178" height="178" filterUnits="userSpaceOnUse" color-interpolation-filters="sRGB">
<feFlood flood-opacity="0" result="BackgroundImageFix"/>
<feBlend mode="normal" in="SourceGraphic" in2="BackgroundImageFix" result="shape"/>
<feGaussianBlur stdDeviation="2" result="effect1_foregroundBlur_740_52700"/>
</filter>
<filter id="filter3_f_740_52700" x="104" y="104.5" width="212" height="212" filterUnits="userSpaceOnUse" color-interpolation-filters="sRGB">
<feFlood flood-opacity="0" result="BackgroundImageFix"/>
<feBlend mode="normal" in="SourceGraphic" in2="BackgroundImageFix" result="shape"/>
<feGaussianBlur stdDeviation="3" result="effect1_foregroundBlur_740_52700"/>
</filter>
<radialGradient id="paint0_radial_740_52700" cx="0" cy="0" r="1" gradientUnits="userSpaceOnUse" gradientTransform="translate(210 210.5) rotate(90) scale(120)">
<stop stop-color="#1BDC77"/>
<stop offset="1" stop-color="#008C93"/>
</radialGradient>
<clipPath id="clip0_740_52700">
<rect width="90" height="90" fill="white" transform="translate(165 165.5)"/>
</clipPath>
</defs>
</svg>
