<svg width="342" height="454" viewBox="0 0 342 454" fill="none" xmlns="http://www.w3.org/2000/svg">
<g filter="url(#filter0_b_609_28583)">
<rect x="74.3518" y="81" width="245.815" height="372.646" rx="50" fill="#0E121E"/>
</g>
<g opacity="0.5" filter="url(#filter1_f_609_28583)">
<circle cx="196.815" cy="197.181" r="106.49" fill="url(#paint0_radial_609_28583)"/>
</g>
<g opacity="0.3" filter="url(#filter2_b_609_28583)">
<rect x="74" y="81" width="245.815" height="372.646" rx="50" fill="black"/>
</g>
<g opacity="0.7" filter="url(#filter3_f_609_28583)">
<circle cx="57.5" cy="57.5" r="54" transform="matrix(-1 0 0 1 255 134)" stroke="#1BDC77" stroke-width="7"/>
</g>
<g opacity="0.4" filter="url(#filter4_f_609_28583)">
<circle cx="75" cy="75" r="72.5" transform="matrix(-1 0 0 1 272 117)" stroke="#1BDC77" stroke-width="5"/>
</g>
<g opacity="0.2" filter="url(#filter5_f_609_28583)">
<circle cx="90" cy="90" r="88.5" transform="matrix(-1 0 0 1 287 102)" stroke="#1BDC77" stroke-width="3"/>
</g>
<g clip-path="url(#clip0_609_28583)">
<path d="M197.5 232C219.868 232 238 213.868 238 191.5C238 169.132 219.868 151 197.5 151C175.132 151 157 169.132 157 191.5C157 213.868 175.132 232 197.5 232Z" fill="#181F35"/>
<path d="M196.989 176.201L198.053 174.366C198.21 174.094 198.419 173.856 198.667 173.665C198.916 173.473 199.2 173.333 199.503 173.252C199.806 173.17 200.122 173.149 200.433 173.19C200.744 173.231 201.044 173.332 201.316 173.489C201.588 173.645 201.826 173.854 202.018 174.103C202.209 174.351 202.349 174.635 202.431 174.938C202.512 175.241 202.533 175.557 202.493 175.869C202.452 176.18 202.35 176.48 202.194 176.752L191.961 194.468H199.363C201.76 194.468 203.105 197.285 202.065 199.239H180.373C179.052 199.239 177.987 198.174 177.987 196.853C177.987 195.532 179.052 194.468 180.373 194.468H186.453L194.24 180.972L191.808 176.752C191.521 176.204 191.457 175.567 191.629 174.974C191.801 174.381 192.196 173.877 192.732 173.569C193.267 173.26 193.901 173.171 194.501 173.32C195.1 173.468 195.619 173.843 195.948 174.366L196.989 176.201ZM187.785 201.694L185.494 205.669C185.337 205.941 185.128 206.18 184.879 206.371C184.631 206.562 184.347 206.702 184.044 206.784C183.741 206.865 183.425 206.886 183.114 206.846C182.802 206.805 182.502 206.703 182.231 206.547C181.959 206.39 181.72 206.181 181.529 205.933C181.338 205.684 181.197 205.4 181.116 205.097C181.034 204.794 181.014 204.478 181.054 204.167C181.095 203.856 181.196 203.556 181.353 203.284L183.061 200.337C184.979 199.74 186.547 200.197 187.785 201.694ZM207.535 194.479H213.745C215.066 194.479 216.131 195.544 216.131 196.864C216.131 198.185 215.066 199.25 213.745 199.25H210.295L212.622 203.284C212.91 203.831 212.974 204.468 212.802 205.061C212.629 205.655 212.234 206.158 211.699 206.467C211.164 206.775 210.53 206.864 209.93 206.716C209.33 206.567 208.811 206.192 208.482 205.669C204.564 198.876 201.618 193.789 199.666 190.398C197.666 186.948 199.094 183.487 200.508 182.318C202.074 185.008 204.413 189.064 207.535 194.479ZM197 163C180.979 163 168 175.981 168 192C168 208.019 180.981 221 197 221C213.021 221 226 208.019 226 192C226 175.981 213.019 163 197 163ZM222.258 192C222.258 205.881 211.021 217.258 197 217.258C183.119 217.258 171.742 206.021 171.742 192C171.742 178.119 182.979 166.742 197 166.742C210.881 166.742 222.258 177.979 222.258 192Z" fill="white"/>
</g>
<path d="M120.52 387.392V389.492H119.865V388H114.06L114.051 389.492H113.395L113.405 387.392H113.737C114.174 387.367 114.478 387.021 114.649 386.356C114.82 385.685 114.925 384.735 114.963 383.506L115.039 381.35H119.523V387.392H120.52ZM115.59 383.573C115.558 384.586 115.479 385.422 115.352 386.081C115.232 386.733 115.026 387.17 114.735 387.392H118.829V381.958H115.647L115.59 383.573ZM125.878 383.003V388H125.203V383.601H122.809L122.743 384.836C122.692 385.875 122.572 386.673 122.382 387.23C122.192 387.788 121.853 388.067 121.365 388.067C121.232 388.067 121.071 388.041 120.881 387.99L120.928 387.411C121.042 387.436 121.121 387.449 121.166 387.449C121.425 387.449 121.622 387.329 121.755 387.088C121.888 386.847 121.976 386.55 122.021 386.195C122.065 385.84 122.103 385.372 122.135 384.789L122.22 383.003H125.878ZM131.633 383.003V388H131.015V386.347H129.448H129.258L128.099 388H127.367L128.612 386.252C128.226 386.144 127.928 385.961 127.719 385.701C127.51 385.441 127.405 385.112 127.405 384.713C127.405 384.156 127.595 383.731 127.975 383.44C128.355 383.149 128.875 383.003 129.533 383.003H131.633ZM128.089 384.732C128.089 385.473 128.561 385.843 129.505 385.843H131.015V383.601H129.552C128.577 383.601 128.089 383.978 128.089 384.732ZM138.465 383.126C138.927 383.126 139.339 383.231 139.7 383.44C140.067 383.643 140.352 383.931 140.555 384.304C140.758 384.672 140.859 385.093 140.859 385.568C140.859 386.056 140.751 386.489 140.536 386.869C140.327 387.243 140.033 387.534 139.653 387.743C139.273 387.952 138.836 388.057 138.342 388.057C137.512 388.057 136.869 387.766 136.413 387.183C135.957 386.6 135.729 385.796 135.729 384.77C135.729 383.7 135.932 382.879 136.337 382.309C136.749 381.739 137.388 381.353 138.256 381.15L140.498 380.637L140.612 381.255L138.503 381.739C137.787 381.898 137.262 382.18 136.926 382.585C136.59 382.984 136.407 383.576 136.375 384.361C136.578 383.975 136.86 383.674 137.221 383.459C137.582 383.237 137.996 383.126 138.465 383.126ZM138.361 387.496C138.709 387.496 139.019 387.417 139.292 387.259C139.57 387.094 139.786 386.866 139.938 386.575C140.096 386.284 140.175 385.954 140.175 385.587C140.175 385.22 140.099 384.897 139.947 384.618C139.795 384.339 139.58 384.124 139.301 383.972C139.029 383.814 138.715 383.734 138.361 383.734C138.006 383.734 137.689 383.814 137.411 383.972C137.138 384.124 136.923 384.339 136.765 384.618C136.613 384.897 136.537 385.22 136.537 385.587C136.537 385.954 136.613 386.284 136.765 386.575C136.923 386.866 137.141 387.094 137.42 387.259C137.699 387.417 138.012 387.496 138.361 387.496ZM142.305 383.003H142.979V386.974L146.314 383.003H146.912V388H146.238V384.029L142.913 388H142.305V383.003ZM151.175 385.397C151.53 385.479 151.802 385.622 151.992 385.824C152.189 386.027 152.287 386.274 152.287 386.565C152.287 386.857 152.185 387.116 151.983 387.344C151.786 387.572 151.517 387.75 151.175 387.876C150.833 387.997 150.456 388.057 150.045 388.057C149.684 388.057 149.329 388.006 148.981 387.905C148.632 387.797 148.328 387.642 148.069 387.439L148.297 386.936C148.525 387.107 148.791 387.24 149.095 387.335C149.399 387.43 149.706 387.477 150.016 387.477C150.479 387.477 150.855 387.392 151.147 387.221C151.444 387.044 151.593 386.806 151.593 386.508C151.593 386.242 151.473 386.037 151.232 385.891C150.992 385.739 150.662 385.663 150.244 385.663H149.389V385.169H150.206C150.58 385.169 150.881 385.099 151.109 384.96C151.337 384.814 151.451 384.621 151.451 384.38C151.451 384.114 151.321 383.905 151.061 383.753C150.808 383.601 150.475 383.525 150.064 383.525C149.525 383.525 148.993 383.662 148.468 383.934L148.278 383.411C148.873 383.101 149.491 382.946 150.13 382.946C150.51 382.946 150.852 383.003 151.156 383.117C151.467 383.225 151.707 383.38 151.878 383.582C152.056 383.785 152.144 384.019 152.144 384.285C152.144 384.539 152.056 384.764 151.878 384.96C151.707 385.156 151.473 385.302 151.175 385.397ZM153.818 383.003H154.492V385.216H157.637V383.003H158.311V388H157.637V385.796H154.492V388H153.818V383.003ZM164.599 385.71H160.419C160.457 386.23 160.656 386.651 161.017 386.974C161.378 387.291 161.834 387.449 162.385 387.449C162.695 387.449 162.98 387.395 163.24 387.287C163.5 387.173 163.725 387.009 163.915 386.793L164.295 387.23C164.073 387.496 163.794 387.699 163.459 387.838C163.129 387.978 162.765 388.048 162.366 388.048C161.853 388.048 161.397 387.94 160.998 387.724C160.605 387.503 160.298 387.199 160.077 386.812C159.855 386.426 159.744 385.989 159.744 385.501C159.744 385.014 159.849 384.577 160.058 384.19C160.273 383.804 160.564 383.503 160.932 383.288C161.305 383.073 161.723 382.965 162.186 382.965C162.648 382.965 163.063 383.073 163.43 383.288C163.797 383.503 164.086 383.804 164.295 384.19C164.504 384.57 164.608 385.007 164.608 385.501L164.599 385.71ZM162.186 383.544C161.704 383.544 161.299 383.7 160.97 384.01C160.647 384.314 160.463 384.713 160.419 385.207H163.962C163.918 384.713 163.731 384.314 163.402 384.01C163.079 383.7 162.673 383.544 162.186 383.544ZM168.191 388.048C167.697 388.048 167.254 387.94 166.861 387.724C166.475 387.509 166.171 387.208 165.949 386.822C165.727 386.429 165.617 385.989 165.617 385.501C165.617 385.014 165.727 384.577 165.949 384.19C166.171 383.804 166.475 383.503 166.861 383.288C167.254 383.073 167.697 382.965 168.191 382.965C168.622 382.965 169.005 383.05 169.341 383.221C169.683 383.386 169.952 383.63 170.148 383.953L169.645 384.295C169.48 384.048 169.271 383.864 169.018 383.744C168.764 383.617 168.489 383.554 168.191 383.554C167.83 383.554 167.504 383.636 167.213 383.801C166.928 383.959 166.703 384.187 166.538 384.485C166.38 384.783 166.301 385.121 166.301 385.501C166.301 385.888 166.38 386.23 166.538 386.527C166.703 386.819 166.928 387.047 167.213 387.211C167.504 387.37 167.83 387.449 168.191 387.449C168.489 387.449 168.764 387.389 169.018 387.268C169.271 387.148 169.48 386.964 169.645 386.717L170.148 387.059C169.952 387.382 169.683 387.629 169.341 387.8C168.999 387.965 168.615 388.048 168.191 388.048ZM173.174 382.965C173.826 382.965 174.326 383.13 174.675 383.459C175.023 383.782 175.197 384.263 175.197 384.903V388H174.551V387.221C174.399 387.481 174.174 387.683 173.877 387.829C173.585 387.975 173.237 388.048 172.832 388.048C172.274 388.048 171.831 387.915 171.502 387.648C171.172 387.382 171.008 387.031 171.008 386.594C171.008 386.17 171.16 385.828 171.464 385.568C171.774 385.308 172.265 385.178 172.936 385.178H174.523V384.874C174.523 384.444 174.402 384.118 174.162 383.896C173.921 383.668 173.569 383.554 173.107 383.554C172.79 383.554 172.486 383.608 172.195 383.715C171.904 383.817 171.654 383.959 171.445 384.143L171.141 383.639C171.394 383.424 171.698 383.259 172.053 383.145C172.407 383.025 172.781 382.965 173.174 382.965ZM172.936 387.515C173.316 387.515 173.642 387.43 173.915 387.259C174.187 387.082 174.39 386.828 174.523 386.499V385.682H172.955C172.1 385.682 171.673 385.98 171.673 386.575C171.673 386.866 171.783 387.097 172.005 387.268C172.227 387.433 172.537 387.515 172.936 387.515ZM179.479 383.003H180.154V386.974L183.488 383.003H184.087V388H183.412V384.029L180.087 388H179.479V383.003ZM193.379 387.411V389.207H192.743V388H188.268V389.207H187.632V387.411H187.917C188.253 387.392 188.481 387.145 188.601 386.67C188.721 386.195 188.804 385.53 188.848 384.675L188.914 383.003H192.6V387.411H193.379ZM189.465 384.713C189.434 385.422 189.374 386.008 189.285 386.47C189.196 386.926 189.038 387.24 188.81 387.411H191.926V383.601H189.522L189.465 384.713ZM196.755 388.048C196.274 388.048 195.84 387.94 195.454 387.724C195.068 387.503 194.764 387.199 194.542 386.812C194.32 386.426 194.209 385.989 194.209 385.501C194.209 385.014 194.32 384.577 194.542 384.19C194.764 383.804 195.068 383.503 195.454 383.288C195.84 383.073 196.274 382.965 196.755 382.965C197.237 382.965 197.671 383.073 198.057 383.288C198.443 383.503 198.744 383.804 198.959 384.19C199.181 384.577 199.292 385.014 199.292 385.501C199.292 385.989 199.181 386.426 198.959 386.812C198.744 387.199 198.443 387.503 198.057 387.724C197.671 387.94 197.237 388.048 196.755 388.048ZM196.755 387.449C197.11 387.449 197.427 387.37 197.705 387.211C197.99 387.047 198.212 386.816 198.37 386.518C198.529 386.22 198.608 385.881 198.608 385.501C198.608 385.121 198.529 384.783 198.37 384.485C198.212 384.187 197.99 383.959 197.705 383.801C197.427 383.636 197.11 383.554 196.755 383.554C196.401 383.554 196.081 383.636 195.796 383.801C195.517 383.959 195.296 384.187 195.131 384.485C194.973 384.783 194.893 385.121 194.893 385.501C194.893 385.881 194.973 386.22 195.131 386.518C195.296 386.816 195.517 387.047 195.796 387.211C196.081 387.37 196.401 387.449 196.755 387.449ZM202.823 388.048C202.329 388.048 201.886 387.94 201.493 387.724C201.107 387.509 200.803 387.208 200.581 386.822C200.36 386.429 200.249 385.989 200.249 385.501C200.249 385.014 200.36 384.577 200.581 384.19C200.803 383.804 201.107 383.503 201.493 383.288C201.886 383.073 202.329 382.965 202.823 382.965C203.254 382.965 203.637 383.05 203.973 383.221C204.315 383.386 204.584 383.63 204.78 383.953L204.277 384.295C204.112 384.048 203.903 383.864 203.65 383.744C203.397 383.617 203.121 383.554 202.823 383.554C202.462 383.554 202.136 383.636 201.845 383.801C201.56 383.959 201.335 384.187 201.17 384.485C201.012 384.783 200.933 385.121 200.933 385.501C200.933 385.888 201.012 386.23 201.17 386.527C201.335 386.819 201.56 387.047 201.845 387.211C202.136 387.37 202.462 387.449 202.823 387.449C203.121 387.449 203.397 387.389 203.65 387.268C203.903 387.148 204.112 386.964 204.277 386.717L204.78 387.059C204.584 387.382 204.315 387.629 203.973 387.8C203.631 387.965 203.248 388.048 202.823 388.048ZM210.259 383.003L207.76 388.599C207.558 389.067 207.323 389.4 207.057 389.596C206.791 389.792 206.471 389.891 206.098 389.891C205.857 389.891 205.632 389.853 205.423 389.777C205.214 389.701 205.034 389.587 204.882 389.435L205.195 388.931C205.449 389.184 205.753 389.311 206.107 389.311C206.335 389.311 206.528 389.248 206.687 389.121C206.851 388.994 207.003 388.779 207.143 388.475L207.361 387.99L205.129 383.003H205.832L207.713 387.249L209.594 383.003H210.259ZM214.844 383.601H211.984V388H211.31V383.003H214.844V383.601ZM217.538 382.965C218.19 382.965 218.691 383.13 219.039 383.459C219.387 383.782 219.561 384.263 219.561 384.903V388H218.915V387.221C218.763 387.481 218.539 387.683 218.241 387.829C217.95 387.975 217.601 388.048 217.196 388.048C216.639 388.048 216.195 387.915 215.866 387.648C215.537 387.382 215.372 387.031 215.372 386.594C215.372 386.17 215.524 385.828 215.828 385.568C216.138 385.308 216.629 385.178 217.3 385.178H218.887V384.874C218.887 384.444 218.767 384.118 218.526 383.896C218.285 383.668 217.934 383.554 217.471 383.554C217.155 383.554 216.851 383.608 216.559 383.715C216.268 383.817 216.018 383.959 215.809 384.143L215.505 383.639C215.758 383.424 216.062 383.259 216.417 383.145C216.772 383.025 217.145 382.965 217.538 382.965ZM217.3 387.515C217.68 387.515 218.007 387.43 218.279 387.259C218.551 387.082 218.754 386.828 218.887 386.499V385.682H217.319C216.464 385.682 216.037 385.98 216.037 386.575C216.037 386.866 216.148 387.097 216.369 387.268C216.591 387.433 216.901 387.515 217.3 387.515ZM228.327 383.003V388H227.653V383.601H224.518V388H223.843V383.003H228.327ZM232.306 388.048C231.825 388.048 231.391 387.94 231.005 387.724C230.618 387.503 230.314 387.199 230.093 386.812C229.871 386.426 229.76 385.989 229.76 385.501C229.76 385.014 229.871 384.577 230.093 384.19C230.314 383.804 230.618 383.503 231.005 383.288C231.391 383.073 231.825 382.965 232.306 382.965C232.787 382.965 233.221 383.073 233.608 383.288C233.994 383.503 234.295 383.804 234.51 384.19C234.732 384.577 234.843 385.014 234.843 385.501C234.843 385.989 234.732 386.426 234.51 386.812C234.295 387.199 233.994 387.503 233.608 387.724C233.221 387.94 232.787 388.048 232.306 388.048ZM232.306 387.449C232.661 387.449 232.977 387.37 233.256 387.211C233.541 387.047 233.763 386.816 233.921 386.518C234.079 386.22 234.159 385.881 234.159 385.501C234.159 385.121 234.079 384.783 233.921 384.485C233.763 384.187 233.541 383.959 233.256 383.801C232.977 383.636 232.661 383.554 232.306 383.554C231.951 383.554 231.632 383.636 231.347 383.801C231.068 383.959 230.846 384.187 230.682 384.485C230.523 384.783 230.444 385.121 230.444 385.501C230.444 385.881 230.523 386.22 230.682 386.518C230.846 386.816 231.068 387.047 231.347 387.211C231.632 387.37 231.951 387.449 232.306 387.449ZM241.13 387.411V389.207H240.493V388H236.019V389.207H235.382V387.411H235.667C236.003 387.392 236.231 387.145 236.351 386.67C236.472 386.195 236.554 385.53 236.598 384.675L236.665 383.003H240.351V387.411H241.13ZM237.216 384.713C237.184 385.422 237.124 386.008 237.035 386.47C236.947 386.926 236.788 387.24 236.56 387.411H239.676V383.601H237.273L237.216 384.713ZM247.505 382.965C247.974 382.965 248.398 383.073 248.778 383.288C249.158 383.497 249.456 383.795 249.671 384.181C249.887 384.567 249.994 385.007 249.994 385.501C249.994 386.002 249.887 386.445 249.671 386.831C249.456 387.218 249.158 387.519 248.778 387.734C248.405 387.943 247.98 388.048 247.505 388.048C247.1 388.048 246.733 387.965 246.403 387.8C246.08 387.629 245.814 387.382 245.605 387.059V389.843H244.931V383.003H245.577V383.991C245.779 383.662 246.045 383.408 246.375 383.231C246.71 383.054 247.087 382.965 247.505 382.965ZM247.458 387.449C247.806 387.449 248.123 387.37 248.408 387.211C248.693 387.047 248.914 386.816 249.073 386.518C249.237 386.22 249.32 385.881 249.32 385.501C249.32 385.121 249.237 384.786 249.073 384.494C248.914 384.197 248.693 383.966 248.408 383.801C248.123 383.636 247.806 383.554 247.458 383.554C247.103 383.554 246.783 383.636 246.498 383.801C246.22 383.966 245.998 384.197 245.833 384.494C245.675 384.786 245.596 385.121 245.596 385.501C245.596 385.881 245.675 386.22 245.833 386.518C245.998 386.816 246.22 387.047 246.498 387.211C246.783 387.37 247.103 387.449 247.458 387.449ZM253.135 382.965C253.787 382.965 254.288 383.13 254.636 383.459C254.984 383.782 255.159 384.263 255.159 384.903V388H254.513V387.221C254.361 387.481 254.136 387.683 253.838 387.829C253.547 387.975 253.198 388.048 252.793 388.048C252.236 388.048 251.792 387.915 251.463 387.648C251.134 387.382 250.969 387.031 250.969 386.594C250.969 386.17 251.121 385.828 251.425 385.568C251.735 385.308 252.226 385.178 252.898 385.178H254.484V384.874C254.484 384.444 254.364 384.118 254.123 383.896C253.882 383.668 253.531 383.554 253.069 383.554C252.752 383.554 252.448 383.608 252.157 383.715C251.865 383.817 251.615 383.959 251.406 384.143L251.102 383.639C251.355 383.424 251.659 383.259 252.014 383.145C252.369 383.025 252.742 382.965 253.135 382.965ZM252.898 387.515C253.278 387.515 253.604 387.43 253.876 387.259C254.148 387.082 254.351 386.828 254.484 386.499V385.682H252.917C252.062 385.682 251.634 385.98 251.634 386.575C251.634 386.866 251.745 387.097 251.967 387.268C252.188 387.433 252.499 387.515 252.898 387.515ZM259.284 385.397C259.639 385.479 259.911 385.622 260.101 385.824C260.297 386.027 260.396 386.274 260.396 386.565C260.396 386.857 260.294 387.116 260.092 387.344C259.895 387.572 259.626 387.75 259.284 387.876C258.942 387.997 258.565 388.057 258.154 388.057C257.793 388.057 257.438 388.006 257.09 387.905C256.741 387.797 256.437 387.642 256.178 387.439L256.406 386.936C256.634 387.107 256.9 387.24 257.204 387.335C257.508 387.43 257.815 387.477 258.125 387.477C258.587 387.477 258.964 387.392 259.256 387.221C259.553 387.044 259.702 386.806 259.702 386.508C259.702 386.242 259.582 386.037 259.341 385.891C259.1 385.739 258.771 385.663 258.353 385.663H257.498V385.169H258.315C258.689 385.169 258.99 385.099 259.218 384.96C259.446 384.814 259.56 384.621 259.56 384.38C259.56 384.114 259.43 383.905 259.17 383.753C258.917 383.601 258.584 383.525 258.173 383.525C257.634 383.525 257.102 383.662 256.577 383.934L256.387 383.411C256.982 383.101 257.599 382.946 258.239 382.946C258.619 382.946 258.961 383.003 259.265 383.117C259.575 383.225 259.816 383.38 259.987 383.582C260.164 383.785 260.253 384.019 260.253 384.285C260.253 384.539 260.164 384.764 259.987 384.96C259.816 385.156 259.582 385.302 259.284 385.397ZM261.927 383.003H262.601V385.216H265.746V383.003H266.42V388H265.746V385.796H262.601V388H261.927V383.003ZM270.437 384.77C271.064 384.776 271.542 384.916 271.871 385.188C272.201 385.46 272.365 385.853 272.365 386.366C272.365 386.898 272.188 387.306 271.833 387.591C271.479 387.876 270.972 388.016 270.313 388.01L268.337 388V383.003H269.012V384.751L270.437 384.77ZM273.201 383.003H273.876V388H273.201V383.003ZM270.275 387.496C270.738 387.503 271.086 387.411 271.32 387.221C271.561 387.025 271.681 386.74 271.681 386.366C271.681 385.999 271.564 385.726 271.33 385.549C271.096 385.372 270.744 385.28 270.275 385.273L269.012 385.254V387.477L270.275 387.496ZM280.166 385.71H275.986C276.024 386.23 276.224 386.651 276.585 386.974C276.946 387.291 277.402 387.449 277.953 387.449C278.263 387.449 278.548 387.395 278.808 387.287C279.068 387.173 279.292 387.009 279.482 386.793L279.862 387.23C279.641 387.496 279.362 387.699 279.026 387.838C278.697 387.978 278.333 388.048 277.934 388.048C277.421 388.048 276.965 387.94 276.566 387.724C276.173 387.503 275.866 387.199 275.644 386.812C275.423 386.426 275.312 385.989 275.312 385.501C275.312 385.014 275.416 384.577 275.625 384.19C275.841 383.804 276.132 383.503 276.499 383.288C276.873 383.073 277.291 382.965 277.753 382.965C278.216 382.965 278.631 383.073 278.998 383.288C279.365 383.503 279.653 383.804 279.862 384.19C280.071 384.57 280.176 385.007 280.176 385.501L280.166 385.71ZM277.753 383.544C277.272 383.544 276.867 383.7 276.537 384.01C276.214 384.314 276.031 384.713 275.986 385.207H279.53C279.486 384.713 279.299 384.314 278.969 384.01C278.646 383.7 278.241 383.544 277.753 383.544ZM117.37 395.003V400H116.696V395.601H113.561V400H112.886V395.003H117.37ZM123.373 395.003V400H122.698V395.601H120.304L120.238 396.836C120.187 397.875 120.067 398.673 119.877 399.23C119.687 399.788 119.348 400.067 118.86 400.067C118.727 400.067 118.566 400.041 118.376 399.99L118.423 399.411C118.537 399.436 118.616 399.449 118.661 399.449C118.92 399.449 119.117 399.329 119.25 399.088C119.383 398.847 119.471 398.55 119.516 398.195C119.56 397.84 119.598 397.372 119.63 396.789L119.715 395.003H123.373ZM127.01 394.965C127.662 394.965 128.162 395.13 128.511 395.459C128.859 395.782 129.033 396.263 129.033 396.903V400H128.387V399.221C128.235 399.481 128.01 399.683 127.713 399.829C127.421 399.975 127.073 400.048 126.668 400.048C126.11 400.048 125.667 399.915 125.338 399.648C125.008 399.382 124.844 399.031 124.844 398.594C124.844 398.17 124.996 397.828 125.3 397.568C125.61 397.308 126.101 397.178 126.772 397.178H128.359V396.874C128.359 396.444 128.238 396.118 127.998 395.896C127.757 395.668 127.405 395.554 126.943 395.554C126.626 395.554 126.322 395.608 126.031 395.715C125.74 395.817 125.49 395.959 125.281 396.143L124.977 395.639C125.23 395.424 125.534 395.259 125.889 395.145C126.243 395.025 126.617 394.965 127.01 394.965ZM126.772 399.515C127.152 399.515 127.478 399.43 127.751 399.259C128.023 399.082 128.226 398.828 128.359 398.499V397.682H126.791C125.936 397.682 125.509 397.98 125.509 398.575C125.509 398.866 125.619 399.097 125.841 399.268C126.063 399.433 126.373 399.515 126.772 399.515ZM134.344 395.601H132.453V400H131.779V395.601H129.888V395.003H134.344V395.601ZM141.119 397.492C141.119 398.271 140.863 398.882 140.35 399.325C139.837 399.769 139.112 400.01 138.174 400.048V401.843H137.519V400.057C136.588 400.019 135.866 399.778 135.353 399.335C134.846 398.885 134.593 398.271 134.593 397.492C134.593 396.719 134.846 396.114 135.353 395.677C135.866 395.24 136.588 395.003 137.519 394.965V392.951H138.174V394.965C139.112 395.009 139.837 395.25 140.35 395.687C140.863 396.124 141.119 396.726 141.119 397.492ZM135.258 397.492C135.258 398.087 135.448 398.553 135.828 398.888C136.214 399.224 136.778 399.414 137.519 399.458V395.563C136.784 395.601 136.224 395.788 135.837 396.124C135.451 396.453 135.258 396.909 135.258 397.492ZM138.174 399.458C138.915 399.42 139.479 399.234 139.865 398.898C140.258 398.562 140.454 398.094 140.454 397.492C140.454 396.903 140.258 396.444 139.865 396.114C139.479 395.785 138.915 395.601 138.174 395.563V399.458ZM144.607 400.048C144.126 400.048 143.692 399.94 143.306 399.724C142.92 399.503 142.616 399.199 142.394 398.812C142.172 398.426 142.061 397.989 142.061 397.501C142.061 397.014 142.172 396.577 142.394 396.19C142.616 395.804 142.92 395.503 143.306 395.288C143.692 395.073 144.126 394.965 144.607 394.965C145.089 394.965 145.523 395.073 145.909 395.288C146.295 395.503 146.596 395.804 146.811 396.19C147.033 396.577 147.144 397.014 147.144 397.501C147.144 397.989 147.033 398.426 146.811 398.812C146.596 399.199 146.295 399.503 145.909 399.724C145.523 399.94 145.089 400.048 144.607 400.048ZM144.607 399.449C144.962 399.449 145.279 399.37 145.557 399.211C145.842 399.047 146.064 398.816 146.222 398.518C146.381 398.22 146.46 397.881 146.46 397.501C146.46 397.121 146.381 396.783 146.222 396.485C146.064 396.187 145.842 395.959 145.557 395.801C145.279 395.636 144.962 395.554 144.607 395.554C144.253 395.554 143.933 395.636 143.648 395.801C143.369 395.959 143.148 396.187 142.983 396.485C142.825 396.783 142.745 397.121 142.745 397.501C142.745 397.881 142.825 398.22 142.983 398.518C143.148 398.816 143.369 399.047 143.648 399.211C143.933 399.37 144.253 399.449 144.607 399.449ZM151.16 394.965C151.629 394.965 152.053 395.073 152.433 395.288C152.813 395.497 153.111 395.795 153.326 396.181C153.541 396.567 153.649 397.007 153.649 397.501C153.649 398.002 153.541 398.445 153.326 398.831C153.111 399.218 152.813 399.519 152.433 399.734C152.059 399.943 151.635 400.048 151.16 400.048C150.755 400.048 150.387 399.965 150.058 399.8C149.735 399.629 149.469 399.382 149.26 399.059V401.843H148.585V395.003H149.231V395.991C149.434 395.662 149.7 395.408 150.029 395.231C150.365 395.054 150.742 394.965 151.16 394.965ZM151.112 399.449C151.461 399.449 151.777 399.37 152.062 399.211C152.347 399.047 152.569 398.816 152.727 398.518C152.892 398.22 152.974 397.881 152.974 397.501C152.974 397.121 152.892 396.786 152.727 396.494C152.569 396.197 152.347 395.966 152.062 395.801C151.777 395.636 151.461 395.554 151.112 395.554C150.758 395.554 150.438 395.636 150.153 395.801C149.874 395.966 149.653 396.197 149.488 396.494C149.33 396.786 149.25 397.121 149.25 397.501C149.25 397.881 149.33 398.22 149.488 398.518C149.653 398.816 149.874 399.047 150.153 399.211C150.438 399.37 150.758 399.449 151.112 399.449ZM160.684 395.003V400H160.067V396.048L158.043 399.392H157.739L155.716 396.038V400H155.098V395.003H155.782L157.901 398.604L160.057 395.003H160.684ZM164.703 396.77C165.33 396.776 165.808 396.916 166.138 397.188C166.467 397.46 166.632 397.853 166.632 398.366C166.632 398.898 166.454 399.306 166.1 399.591C165.745 399.876 165.238 400.016 164.58 400.01L162.604 400V395.003H163.278V396.751L164.703 396.77ZM167.468 395.003H168.142V400H167.468V395.003ZM164.542 399.496C165.004 399.503 165.352 399.411 165.587 399.221C165.827 399.025 165.948 398.74 165.948 398.366C165.948 397.999 165.83 397.726 165.596 397.549C165.362 397.372 165.01 397.28 164.542 397.273L163.278 397.254V399.477L164.542 399.496ZM170.11 396C169.971 396 169.85 395.95 169.749 395.848C169.654 395.747 169.607 395.624 169.607 395.478C169.607 395.332 169.654 395.212 169.749 395.117C169.85 395.016 169.971 394.965 170.11 394.965C170.249 394.965 170.37 395.016 170.471 395.117C170.572 395.212 170.623 395.332 170.623 395.478C170.623 395.624 170.572 395.747 170.471 395.848C170.37 395.95 170.249 396 170.11 396ZM170.11 400.048C169.971 400.048 169.85 399.997 169.749 399.895C169.654 399.794 169.607 399.671 169.607 399.525C169.607 399.379 169.654 399.259 169.749 399.164C169.85 399.063 169.971 399.012 170.11 399.012C170.249 399.012 170.37 399.063 170.471 399.164C170.572 399.259 170.623 399.379 170.623 399.525C170.623 399.671 170.572 399.794 170.471 399.895C170.37 399.997 170.249 400.048 170.11 400.048ZM174.543 395.003H175.218V400H174.543V395.003ZM174.885 393.91C174.746 393.91 174.629 393.863 174.534 393.768C174.439 393.673 174.391 393.559 174.391 393.426C174.391 393.299 174.439 393.188 174.534 393.093C174.629 392.998 174.746 392.951 174.885 392.951C175.024 392.951 175.142 392.998 175.237 393.093C175.332 393.182 175.379 393.29 175.379 393.416C175.379 393.556 175.332 393.673 175.237 393.768C175.142 393.863 175.024 393.91 174.885 393.91ZM180.144 400.057C179.485 400.057 178.887 399.911 178.348 399.62C177.816 399.322 177.398 398.917 177.094 398.404C176.797 397.891 176.648 397.315 176.648 396.675C176.648 396.035 176.797 395.459 177.094 394.946C177.398 394.433 177.816 394.031 178.348 393.739C178.887 393.442 179.485 393.293 180.144 393.293C180.802 393.293 181.395 393.439 181.92 393.73C182.452 394.021 182.87 394.427 183.174 394.946C183.478 395.459 183.63 396.035 183.63 396.675C183.63 397.315 183.478 397.894 183.174 398.413C182.87 398.926 182.452 399.329 181.92 399.62C181.395 399.911 180.802 400.057 180.144 400.057ZM180.144 399.43C180.669 399.43 181.144 399.313 181.569 399.078C181.993 398.838 182.326 398.508 182.566 398.09C182.807 397.666 182.927 397.194 182.927 396.675C182.927 396.156 182.807 395.687 182.566 395.269C182.326 394.845 181.993 394.515 181.569 394.281C181.144 394.04 180.669 393.92 180.144 393.92C179.618 393.92 179.14 394.04 178.709 394.281C178.285 394.515 177.949 394.845 177.702 395.269C177.462 395.687 177.341 396.156 177.341 396.675C177.341 397.194 177.462 397.666 177.702 398.09C177.949 398.508 178.285 398.838 178.709 399.078C179.14 399.313 179.618 399.43 180.144 399.43ZM187.04 400.057C186.546 400.057 186.071 399.978 185.615 399.819C185.165 399.661 184.817 399.452 184.57 399.192L184.845 398.651C185.086 398.892 185.406 399.088 185.805 399.24C186.204 399.386 186.615 399.458 187.04 399.458C187.635 399.458 188.081 399.351 188.379 399.135C188.677 398.914 188.826 398.629 188.826 398.28C188.826 398.014 188.743 397.802 188.579 397.644C188.42 397.486 188.224 397.365 187.99 397.283C187.755 397.194 187.429 397.099 187.011 396.998C186.511 396.871 186.112 396.751 185.814 396.637C185.516 396.517 185.26 396.336 185.045 396.095C184.836 395.855 184.731 395.529 184.731 395.117C184.731 394.781 184.82 394.477 184.997 394.205C185.174 393.926 185.447 393.705 185.814 393.54C186.181 393.375 186.637 393.293 187.182 393.293C187.562 393.293 187.933 393.347 188.294 393.454C188.661 393.556 188.978 393.698 189.244 393.882L189.006 394.442C188.727 394.259 188.43 394.123 188.113 394.034C187.796 393.939 187.486 393.891 187.182 393.891C186.599 393.891 186.159 394.005 185.862 394.233C185.57 394.455 185.425 394.743 185.425 395.098C185.425 395.364 185.504 395.579 185.662 395.744C185.827 395.902 186.029 396.026 186.27 396.114C186.517 396.197 186.846 396.289 187.258 396.39C187.746 396.51 188.138 396.631 188.436 396.751C188.74 396.865 188.997 397.042 189.206 397.283C189.415 397.517 189.519 397.837 189.519 398.242C189.519 398.578 189.427 398.885 189.244 399.164C189.066 399.436 188.791 399.655 188.417 399.819C188.043 399.978 187.584 400.057 187.04 400.057ZM191.17 399.012C191.315 399.012 191.436 399.063 191.531 399.164C191.626 399.259 191.673 399.379 191.673 399.525C191.673 399.601 191.661 399.683 191.635 399.772C191.616 399.861 191.585 399.962 191.54 400.076L191.141 401.387H190.685L191.008 400.01C190.907 399.978 190.825 399.921 190.761 399.838C190.698 399.75 190.666 399.645 190.666 399.525C190.666 399.379 190.714 399.259 190.809 399.164C190.904 399.063 191.024 399.012 191.17 399.012ZM199.906 398.223H196.201L195.403 400H194.672L197.712 393.35H198.405L201.445 400H200.704L199.906 398.223ZM199.65 397.653L198.054 394.081L196.458 397.653H199.65ZM204.949 394.965C205.576 394.965 206.073 395.149 206.44 395.516C206.814 395.877 207.001 396.406 207.001 397.102V400H206.326V397.169C206.326 396.65 206.197 396.254 205.937 395.981C205.677 395.709 205.307 395.573 204.825 395.573C204.287 395.573 203.86 395.734 203.543 396.057C203.233 396.374 203.077 396.814 203.077 397.378V400H202.403V395.003H203.049V395.924C203.233 395.62 203.486 395.386 203.809 395.221C204.138 395.05 204.518 394.965 204.949 394.965ZM213.411 392.951V400H212.765V399.012C212.562 399.348 212.293 399.604 211.957 399.781C211.628 399.959 211.254 400.048 210.836 400.048C210.367 400.048 209.943 399.94 209.563 399.724C209.183 399.509 208.885 399.208 208.67 398.822C208.455 398.436 208.347 397.995 208.347 397.501C208.347 397.007 208.455 396.567 208.67 396.181C208.885 395.795 209.183 395.497 209.563 395.288C209.943 395.073 210.367 394.965 210.836 394.965C211.241 394.965 211.606 395.05 211.929 395.221C212.258 395.386 212.527 395.63 212.736 395.953V392.951H213.411ZM210.893 399.449C211.241 399.449 211.555 399.37 211.834 399.211C212.119 399.047 212.34 398.816 212.499 398.518C212.663 398.22 212.746 397.881 212.746 397.501C212.746 397.121 212.663 396.783 212.499 396.485C212.34 396.187 212.119 395.959 211.834 395.801C211.555 395.636 211.241 395.554 210.893 395.554C210.538 395.554 210.219 395.636 209.934 395.801C209.655 395.959 209.433 396.187 209.269 396.485C209.11 396.783 209.031 397.121 209.031 397.501C209.031 397.881 209.11 398.22 209.269 398.518C209.433 398.816 209.655 399.047 209.934 399.211C210.219 399.37 210.538 399.449 210.893 399.449ZM215.935 395.981C216.093 395.646 216.328 395.392 216.638 395.221C216.955 395.05 217.344 394.965 217.807 394.965V395.62L217.645 395.611C217.119 395.611 216.708 395.772 216.41 396.095C216.112 396.418 215.964 396.871 215.964 397.454V400H215.289V395.003H215.935V395.981ZM221.024 400.048C220.543 400.048 220.109 399.94 219.723 399.724C219.336 399.503 219.032 399.199 218.811 398.812C218.589 398.426 218.478 397.989 218.478 397.501C218.478 397.014 218.589 396.577 218.811 396.19C219.032 395.804 219.336 395.503 219.723 395.288C220.109 395.073 220.543 394.965 221.024 394.965C221.505 394.965 221.939 395.073 222.326 395.288C222.712 395.503 223.013 395.804 223.228 396.19C223.45 396.577 223.561 397.014 223.561 397.501C223.561 397.989 223.45 398.426 223.228 398.812C223.013 399.199 222.712 399.503 222.326 399.724C221.939 399.94 221.505 400.048 221.024 400.048ZM221.024 399.449C221.379 399.449 221.695 399.37 221.974 399.211C222.259 399.047 222.481 398.816 222.639 398.518C222.797 398.22 222.877 397.881 222.877 397.501C222.877 397.121 222.797 396.783 222.639 396.485C222.481 396.187 222.259 395.959 221.974 395.801C221.695 395.636 221.379 395.554 221.024 395.554C220.669 395.554 220.35 395.636 220.065 395.801C219.786 395.959 219.564 396.187 219.4 396.485C219.241 396.783 219.162 397.121 219.162 397.501C219.162 397.881 219.241 398.22 219.4 398.518C219.564 398.816 219.786 399.047 220.065 399.211C220.35 399.37 220.669 399.449 221.024 399.449ZM224.938 395.003H225.612V400H224.938V395.003ZM225.28 393.91C225.14 393.91 225.023 393.863 224.928 393.768C224.833 393.673 224.786 393.559 224.786 393.426C224.786 393.299 224.833 393.188 224.928 393.093C225.023 392.998 225.14 392.951 225.28 392.951C225.419 392.951 225.536 392.998 225.631 393.093C225.726 393.182 225.774 393.29 225.774 393.416C225.774 393.556 225.726 393.673 225.631 393.768C225.536 393.863 225.419 393.91 225.28 393.91ZM232.049 392.951V400H231.403V399.012C231.2 399.348 230.931 399.604 230.595 399.781C230.266 399.959 229.892 400.048 229.474 400.048C229.006 400.048 228.581 399.94 228.201 399.724C227.821 399.509 227.524 399.208 227.308 398.822C227.093 398.436 226.985 397.995 226.985 397.501C226.985 397.007 227.093 396.567 227.308 396.181C227.524 395.795 227.821 395.497 228.201 395.288C228.581 395.073 229.006 394.965 229.474 394.965C229.88 394.965 230.244 395.05 230.567 395.221C230.896 395.386 231.165 395.63 231.374 395.953V392.951H232.049ZM229.531 399.449C229.88 399.449 230.193 399.37 230.472 399.211C230.757 399.047 230.979 398.816 231.137 398.518C231.302 398.22 231.384 397.881 231.384 397.501C231.384 397.121 231.302 396.783 231.137 396.485C230.979 396.187 230.757 395.959 230.472 395.801C230.193 395.636 229.88 395.554 229.531 395.554C229.177 395.554 228.857 395.636 228.572 395.801C228.293 395.959 228.072 396.187 227.907 396.485C227.749 396.783 227.669 397.121 227.669 397.501C227.669 397.881 227.749 398.22 227.907 398.518C228.072 398.816 228.293 399.047 228.572 399.211C228.857 399.37 229.177 399.449 229.531 399.449ZM234.003 399.012C234.149 399.012 234.269 399.063 234.364 399.164C234.459 399.259 234.507 399.379 234.507 399.525C234.507 399.601 234.494 399.683 234.469 399.772C234.45 399.861 234.418 399.962 234.374 400.076L233.975 401.387H233.519L233.842 400.01C233.74 399.978 233.658 399.921 233.595 399.838C233.531 399.75 233.5 399.645 233.5 399.525C233.5 399.379 233.547 399.259 233.642 399.164C233.737 399.063 233.858 399.012 234.003 399.012ZM247.699 393.35L245.457 400H244.716L242.768 394.328L240.811 400H240.08L237.838 393.35H238.56L240.479 399.069L242.464 393.35H243.12L245.077 399.097L247.024 393.35H247.699ZM248.817 395.003H249.492V400H248.817V395.003ZM249.159 393.91C249.02 393.91 248.903 393.863 248.808 393.768C248.713 393.673 248.665 393.559 248.665 393.426C248.665 393.299 248.713 393.188 248.808 393.093C248.903 392.998 249.02 392.951 249.159 392.951C249.299 392.951 249.416 392.998 249.511 393.093C249.606 393.182 249.653 393.29 249.653 393.416C249.653 393.556 249.606 393.673 249.511 393.768C249.416 393.863 249.299 393.91 249.159 393.91ZM253.915 394.965C254.542 394.965 255.039 395.149 255.406 395.516C255.78 395.877 255.967 396.406 255.967 397.102V400H255.292V397.169C255.292 396.65 255.162 396.254 254.903 395.981C254.643 395.709 254.273 395.573 253.791 395.573C253.253 395.573 252.825 395.734 252.509 396.057C252.198 396.374 252.043 396.814 252.043 397.378V400H251.369V395.003H252.015V395.924C252.198 395.62 252.452 395.386 252.775 395.221C253.104 395.05 253.484 394.965 253.915 394.965ZM262.376 392.951V400H261.73V399.012C261.528 399.348 261.259 399.604 260.923 399.781C260.594 399.959 260.22 400.048 259.802 400.048C259.333 400.048 258.909 399.94 258.529 399.724C258.149 399.509 257.851 399.208 257.636 398.822C257.421 398.436 257.313 397.995 257.313 397.501C257.313 397.007 257.421 396.567 257.636 396.181C257.851 395.795 258.149 395.497 258.529 395.288C258.909 395.073 259.333 394.965 259.802 394.965C260.207 394.965 260.571 395.05 260.894 395.221C261.224 395.386 261.493 395.63 261.702 395.953V392.951H262.376ZM259.859 399.449C260.207 399.449 260.521 399.37 260.799 399.211C261.084 399.047 261.306 398.816 261.464 398.518C261.629 398.22 261.711 397.881 261.711 397.501C261.711 397.121 261.629 396.783 261.464 396.485C261.306 396.187 261.084 395.959 260.799 395.801C260.521 395.636 260.207 395.554 259.859 395.554C259.504 395.554 259.184 395.636 258.899 395.801C258.621 395.959 258.399 396.187 258.234 396.485C258.076 396.783 257.997 397.121 257.997 397.501C257.997 397.881 258.076 398.22 258.234 398.518C258.399 398.816 258.621 399.047 258.899 399.211C259.184 399.37 259.504 399.449 259.859 399.449ZM266.297 400.048C265.816 400.048 265.382 399.94 264.996 399.724C264.61 399.503 264.306 399.199 264.084 398.812C263.862 398.426 263.751 397.989 263.751 397.501C263.751 397.014 263.862 396.577 264.084 396.19C264.306 395.804 264.61 395.503 264.996 395.288C265.382 395.073 265.816 394.965 266.297 394.965C266.779 394.965 267.213 395.073 267.599 395.288C267.985 395.503 268.286 395.804 268.501 396.19C268.723 396.577 268.834 397.014 268.834 397.501C268.834 397.989 268.723 398.426 268.501 398.812C268.286 399.199 267.985 399.503 267.599 399.724C267.213 399.94 266.779 400.048 266.297 400.048ZM266.297 399.449C266.652 399.449 266.969 399.37 267.247 399.211C267.532 399.047 267.754 398.816 267.912 398.518C268.071 398.22 268.15 397.881 268.15 397.501C268.15 397.121 268.071 396.783 267.912 396.485C267.754 396.187 267.532 395.959 267.247 395.801C266.969 395.636 266.652 395.554 266.297 395.554C265.943 395.554 265.623 395.636 265.338 395.801C265.059 395.959 264.838 396.187 264.673 396.485C264.515 396.783 264.435 397.121 264.435 397.501C264.435 397.881 264.515 398.22 264.673 398.518C264.838 398.816 265.059 399.047 265.338 399.211C265.623 399.37 265.943 399.449 266.297 399.449ZM277.406 395.003L275.515 400H274.879L273.302 395.905L271.725 400H271.088L269.207 395.003H269.853L271.421 399.249L273.026 395.003H273.606L275.202 399.249L276.788 395.003H277.406ZM279.705 400.048C279.3 400.048 278.91 399.991 278.537 399.876C278.169 399.756 277.881 399.607 277.672 399.43L277.976 398.898C278.185 399.063 278.448 399.199 278.765 399.306C279.081 399.408 279.411 399.458 279.753 399.458C280.209 399.458 280.544 399.389 280.76 399.249C280.981 399.104 281.092 398.901 281.092 398.641C281.092 398.458 281.032 398.315 280.912 398.214C280.791 398.106 280.639 398.027 280.456 397.976C280.272 397.919 280.028 397.866 279.724 397.815C279.319 397.739 278.993 397.663 278.746 397.587C278.499 397.505 278.287 397.368 278.109 397.178C277.938 396.988 277.853 396.726 277.853 396.39C277.853 395.972 278.027 395.63 278.375 395.364C278.724 395.098 279.208 394.965 279.829 394.965C280.152 394.965 280.475 395.009 280.798 395.098C281.121 395.18 281.387 395.291 281.596 395.43L281.301 395.972C280.89 395.687 280.399 395.544 279.829 395.544C279.398 395.544 279.072 395.62 278.85 395.772C278.635 395.924 278.527 396.124 278.527 396.371C278.527 396.561 278.587 396.713 278.708 396.827C278.834 396.941 278.99 397.026 279.173 397.083C279.357 397.134 279.61 397.188 279.933 397.245C280.332 397.321 280.652 397.397 280.893 397.473C281.133 397.549 281.339 397.679 281.51 397.862C281.681 398.046 281.767 398.299 281.767 398.622C281.767 399.059 281.583 399.408 281.216 399.667C280.855 399.921 280.351 400.048 279.705 400.048ZM160.717 405.35C161.565 405.35 162.23 405.553 162.712 405.958C163.193 406.363 163.434 406.921 163.434 407.63C163.434 408.339 163.193 408.897 162.712 409.302C162.23 409.701 161.565 409.9 160.717 409.9H158.931V412H158.228V405.35H160.717ZM160.698 409.283C161.356 409.283 161.86 409.14 162.208 408.855C162.556 408.564 162.731 408.156 162.731 407.63C162.731 407.092 162.556 406.68 162.208 406.395C161.86 406.104 161.356 405.958 160.698 405.958H158.931V409.283H160.698ZM167.45 406.965C168.077 406.965 168.574 407.149 168.941 407.516C169.315 407.877 169.502 408.406 169.502 409.102V412H168.827V409.169C168.827 408.65 168.698 408.254 168.438 407.981C168.178 407.709 167.808 407.573 167.326 407.573C166.788 407.573 166.361 407.734 166.044 408.057C165.734 408.374 165.578 408.814 165.578 409.378V412H164.904V404.951H165.578V407.877C165.762 407.586 166.015 407.361 166.338 407.203C166.661 407.044 167.032 406.965 167.45 406.965ZM173.394 412.048C172.913 412.048 172.479 411.94 172.093 411.724C171.706 411.503 171.402 411.199 171.181 410.812C170.959 410.426 170.848 409.989 170.848 409.501C170.848 409.014 170.959 408.577 171.181 408.19C171.402 407.804 171.706 407.503 172.093 407.288C172.479 407.073 172.913 406.965 173.394 406.965C173.875 406.965 174.309 407.073 174.696 407.288C175.082 407.503 175.383 407.804 175.598 408.19C175.82 408.577 175.931 409.014 175.931 409.501C175.931 409.989 175.82 410.426 175.598 410.812C175.383 411.199 175.082 411.503 174.696 411.724C174.309 411.94 173.875 412.048 173.394 412.048ZM173.394 411.449C173.749 411.449 174.065 411.37 174.344 411.211C174.629 411.047 174.851 410.816 175.009 410.518C175.167 410.22 175.247 409.881 175.247 409.501C175.247 409.121 175.167 408.783 175.009 408.485C174.851 408.187 174.629 407.959 174.344 407.801C174.065 407.636 173.749 407.554 173.394 407.554C173.039 407.554 172.72 407.636 172.435 407.801C172.156 407.959 171.934 408.187 171.77 408.485C171.611 408.783 171.532 409.121 171.532 409.501C171.532 409.881 171.611 410.22 171.77 410.518C171.934 410.816 172.156 411.047 172.435 411.211C172.72 411.37 173.039 411.449 173.394 411.449ZM179.854 406.965C180.481 406.965 180.978 407.149 181.345 407.516C181.719 407.877 181.906 408.406 181.906 409.102V412H181.231V409.169C181.231 408.65 181.101 408.254 180.842 407.981C180.582 407.709 180.212 407.573 179.73 407.573C179.192 407.573 178.764 407.734 178.448 408.057C178.137 408.374 177.982 408.814 177.982 409.378V412H177.308V407.003H177.954V407.924C178.137 407.62 178.391 407.386 178.714 407.221C179.043 407.05 179.423 406.965 179.854 406.965ZM188.106 409.71H183.926C183.964 410.23 184.164 410.651 184.525 410.974C184.886 411.291 185.342 411.449 185.893 411.449C186.203 411.449 186.488 411.395 186.748 411.287C187.008 411.173 187.232 411.009 187.422 410.793L187.802 411.23C187.581 411.496 187.302 411.699 186.966 411.838C186.637 411.978 186.273 412.048 185.874 412.048C185.361 412.048 184.905 411.94 184.506 411.724C184.113 411.503 183.806 411.199 183.584 410.812C183.363 410.426 183.252 409.989 183.252 409.501C183.252 409.014 183.356 408.577 183.565 408.19C183.781 407.804 184.072 407.503 184.439 407.288C184.813 407.073 185.231 406.965 185.693 406.965C186.156 406.965 186.571 407.073 186.938 407.288C187.305 407.503 187.593 407.804 187.802 408.19C188.011 408.57 188.116 409.007 188.116 409.501L188.106 409.71ZM185.693 407.544C185.212 407.544 184.807 407.7 184.477 408.01C184.154 408.314 183.971 408.713 183.926 409.207H187.47C187.426 408.713 187.239 408.314 186.909 408.01C186.586 407.7 186.181 407.544 185.693 407.544ZM191.994 407.003H192.669V410.974L196.003 407.003H196.602V412H195.927V408.029L192.602 412H191.994V407.003ZM205.895 411.411V413.207H205.258V412H200.784V413.207H200.147V411.411H200.432C200.768 411.392 200.996 411.145 201.116 410.67C201.236 410.195 201.319 409.53 201.363 408.675L201.43 407.003H205.116V411.411H205.895ZM201.981 408.713C201.949 409.422 201.889 410.008 201.8 410.47C201.711 410.926 201.553 411.24 201.325 411.411H204.441V407.601H202.038L201.981 408.713ZM209.784 406.965C210.252 406.965 210.677 407.073 211.057 407.288C211.437 407.497 211.734 407.795 211.95 408.181C212.165 408.567 212.273 409.007 212.273 409.501C212.273 410.002 212.165 410.445 211.95 410.831C211.734 411.218 211.437 411.519 211.057 411.734C210.683 411.943 210.259 412.048 209.784 412.048C209.378 412.048 209.011 411.965 208.682 411.8C208.359 411.629 208.093 411.382 207.884 411.059V413.843H207.209V407.003H207.855V407.991C208.058 407.662 208.324 407.408 208.653 407.231C208.989 407.054 209.366 406.965 209.784 406.965ZM209.736 411.449C210.084 411.449 210.401 411.37 210.686 411.211C210.971 411.047 211.193 410.816 211.351 410.518C211.516 410.22 211.598 409.881 211.598 409.501C211.598 409.121 211.516 408.786 211.351 408.494C211.193 408.197 210.971 407.966 210.686 407.801C210.401 407.636 210.084 407.554 209.736 407.554C209.381 407.554 209.062 407.636 208.777 407.801C208.498 407.966 208.276 408.197 208.112 408.494C207.953 408.786 207.874 409.121 207.874 409.501C207.874 409.881 207.953 410.22 208.112 410.518C208.276 410.816 208.498 411.047 208.777 411.211C209.062 411.37 209.381 411.449 209.736 411.449ZM217.829 407.003L215.331 412.599C215.128 413.067 214.894 413.4 214.628 413.596C214.362 413.792 214.042 413.891 213.668 413.891C213.427 413.891 213.203 413.853 212.994 413.777C212.785 413.701 212.604 413.587 212.452 413.435L212.766 412.931C213.019 413.184 213.323 413.311 213.678 413.311C213.906 413.311 214.099 413.248 214.257 413.121C214.422 412.994 214.574 412.779 214.713 412.475L214.932 411.99L212.699 407.003H213.402L215.283 411.249L217.164 407.003H217.829ZM222.414 407.601H219.554V412H218.88V407.003H222.414V407.601ZM223.389 407.003H224.063V410.974L227.398 407.003H227.996V412H227.322V408.029L223.997 412H223.389V407.003ZM234.299 409.71H230.119C230.157 410.23 230.357 410.651 230.718 410.974C231.079 411.291 231.535 411.449 232.086 411.449C232.396 411.449 232.681 411.395 232.941 411.287C233.2 411.173 233.425 411.009 233.615 410.793L233.995 411.23C233.774 411.496 233.495 411.699 233.159 411.838C232.83 411.978 232.466 412.048 232.067 412.048C231.554 412.048 231.098 411.94 230.699 411.724C230.306 411.503 229.999 411.199 229.777 410.812C229.556 410.426 229.445 409.989 229.445 409.501C229.445 409.014 229.549 408.577 229.758 408.19C229.974 407.804 230.265 407.503 230.632 407.288C231.006 407.073 231.424 406.965 231.886 406.965C232.349 406.965 232.763 407.073 233.131 407.288C233.498 407.503 233.786 407.804 233.995 408.19C234.204 408.57 234.309 409.007 234.309 409.501L234.299 409.71ZM231.886 407.544C231.405 407.544 231 407.7 230.67 408.01C230.347 408.314 230.164 408.713 230.119 409.207H233.663C233.618 408.713 233.432 408.314 233.102 408.01C232.779 407.7 232.374 407.544 231.886 407.544ZM235.849 412.048C235.71 412.048 235.59 411.997 235.488 411.895C235.393 411.794 235.346 411.671 235.346 411.525C235.346 411.379 235.393 411.259 235.488 411.164C235.59 411.063 235.71 411.012 235.849 411.012C235.989 411.012 236.109 411.063 236.21 411.164C236.312 411.259 236.362 411.379 236.362 411.525C236.362 411.671 236.312 411.794 236.21 411.895C236.109 411.997 235.989 412.048 235.849 412.048Z" fill="#808594"/>
<path d="M129.352 321V305.714H134.164L136.721 314.619L137.204 316.8H137.333L137.773 314.619L140.352 305.714H145.121V321H141.651V310.505H141.49L141.093 312.771L138.59 321H135.593L132.939 312.771L132.542 310.505H132.381V321H129.352ZM150.847 321.107L148.419 318.69V308.023L150.847 305.596H158.055L160.482 308.023V318.69L158.055 321.107H150.847ZM157.002 317.391V309.323L156.1 308.421H152.802L151.899 309.323V317.391L152.802 318.293H156.1L157.002 317.391ZM175.231 313.588V318.583L172.814 321H163.791V305.714H174.125V308.442H167.261V311.826L168.142 311.171H172.814L175.231 313.588ZM167.261 318.271H170.956L171.751 317.477V314.684L170.956 313.889H167.261V318.271ZM185.909 312.46L182.096 321H178.207V305.714H181.677V315.854H181.795L182.257 314.265L186.06 305.714H189.948V321H186.479V310.859H186.371L185.909 312.46ZM192.999 317.638L193.547 317.079L194.739 305.714H204.59V321H201.109V308.722H197.747L196.63 319.109L194.621 321.107H191.936V317.638H192.999ZM208.113 321V305.714H211.583V311.472L212.464 310.816H216.471L218.888 313.233V318.583L216.471 321H208.113ZM211.583 318.4H214.516L215.418 317.498V314.308L214.516 313.405H211.583V318.4ZM233.39 321H229.92V314.598H225.118V321H221.648V305.714H225.118V311.579H229.92V305.714H233.39V321ZM252.715 321H249.245V305.714H252.715V321ZM236.924 321V305.714H240.394V311.472L241.274 310.816H245.023L247.44 313.233V318.583L245.023 321H236.924ZM240.394 318.4H243.058L243.96 317.498V314.308L243.058 313.405H240.394V318.4ZM266.207 321H256.238V305.714H266.207V308.507H259.708V311.934H265.477V314.533H259.708V318.207H266.207V321ZM131.199 348H127.021V336.162H123.368V348H119.189V332.639H131.199V348ZM134.508 332.639H143.896L146.313 335.066V341.007L143.896 343.424H139.567L138.687 342.769V348H134.508V332.639ZM142.135 339.9V336.162L141.479 335.507H138.687V340.566H141.479L142.135 339.9ZM156.68 340.362L153.543 348H148.967V332.639H153.146V341.823H153.274L153.693 340.276L156.841 332.639H161.417V348H157.238V338.826H157.099L156.68 340.362ZM164.317 343.821L164.822 343.316L165.875 332.639H176.413V348H172.234V336.162H169.441L168.453 345.884L166.229 348.107H163.275V343.821H164.317ZM181.902 348.107L179.485 345.69V334.959L181.902 332.531H189.712L192.14 334.959V345.69L189.712 348.107H181.902ZM187.961 344.262V336.388L187.295 335.722H184.33L183.664 336.388V344.262L184.33 344.917H187.295L187.961 344.262ZM201.324 341.888H200.443L197.887 348H193.117L196.963 339.793L193.729 332.639H197.887L200.314 338.697H201.324V332.639H205.503V338.697H206.513L208.94 332.639H213.098L209.864 339.793L213.71 348H208.94L206.384 341.888H205.503V348H201.324V341.888ZM225.73 348H215.354V332.639H225.73V335.829H219.532V338.74H225.011V341.684H219.532V344.81H225.73V348ZM240.974 348H236.795V341.845H232.767V348H228.588V332.639H232.767V338.321H236.795V332.639H240.974V348ZM251.984 340.362L248.848 348H244.271V332.639H248.45V341.823H248.579L248.998 340.276L252.146 332.639H256.722V348H252.543V338.826H252.403L251.984 340.362ZM267.013 342.564H265.691L263.092 348H258.698L261.953 342.06L259.558 339.836V335.066L261.975 332.639H271.191V348H267.013V342.564ZM267.013 335.507H264.392L263.736 336.162V339.041L264.392 339.707H267.013V335.507ZM155.637 355.272H161.208L162.746 356.811V360.434L161.208 361.979H158.405L157.845 361.555V365H155.637V355.272ZM160.538 359.75V357.494L159.964 356.92H157.845V360.324H159.964L160.538 359.75ZM171.373 365H168.953L168.406 362.983H165.747L165.2 365H163.088L165.863 355.272H168.42L171.373 365ZM167.039 357.453L166.827 358.602L166.096 361.247H168.071L167.347 358.602L167.148 357.453H167.039ZM171.51 363.599L172.986 362.225L174.101 363.332H176.37L176.876 362.833V361.541L176.274 360.939H174.395V359.203H176.104L176.609 358.697V357.439L176.104 356.934H174.217L173.246 357.904L171.735 356.53L173.027 355.197H177.279L178.824 356.742V358.964L177.826 359.962L179.084 361.22V363.53L177.546 365.068H172.952L171.51 363.599ZM180.984 355.272H186.556L188.094 356.811V360.434L186.556 361.979H183.753L183.192 361.555V365H180.984V355.272ZM185.886 359.75V357.494L185.312 356.92H183.192V360.324H185.312L185.886 359.75ZM196.721 365H194.301L193.754 362.983H191.095L190.548 365H188.436L191.211 355.272H193.768L196.721 365ZM192.387 357.453L192.175 358.602L191.443 361.247H193.419L192.694 358.602L192.496 357.453H192.387ZM205.122 360.283V363.462L203.584 365H197.842V355.272H204.418V357.009H200.05V359.162L200.61 358.745H203.584L205.122 360.283ZM200.05 363.264H202.401L202.907 362.758V360.98L202.401 360.475H200.05V363.264ZM208.417 365.068L206.872 363.53V356.742L208.417 355.197H213.004L214.549 356.742V363.53L213.004 365.068H208.417ZM212.334 362.703V357.569L211.76 356.995H209.661L209.087 357.569V362.703L209.661 363.277H211.76L212.334 362.703ZM218.104 357.187H215.458V355.272H222.957V357.187H220.312V365H218.104V357.187ZM232.062 365H229.547L227.701 360.98H226.505V365H224.297V355.272H226.505V359.189H227.77L229.417 355.272H231.659L229.588 359.859L232.062 365ZM240.484 365H238.064L237.518 362.983H234.858L234.312 365H232.199L234.975 355.272H237.531L240.484 365ZM236.15 357.453L235.938 358.602L235.207 361.247H237.183L236.458 358.602L236.26 357.453H236.15Z" fill="white"/>
<defs>
<filter id="filter0_b_609_28583" x="66.3518" y="73" width="261.815" height="388.646" filterUnits="userSpaceOnUse" color-interpolation-filters="sRGB">
<feFlood flood-opacity="0" result="BackgroundImageFix"/>
<feGaussianBlur in="BackgroundImageFix" stdDeviation="4"/>
<feComposite in2="SourceAlpha" operator="in" result="effect1_backgroundBlur_609_28583"/>
<feBlend mode="normal" in="SourceGraphic" in2="effect1_backgroundBlur_609_28583" result="shape"/>
</filter>
<filter id="filter1_f_609_28583" x="0.324219" y="0.69043" width="392.981" height="392.981" filterUnits="userSpaceOnUse" color-interpolation-filters="sRGB">
<feFlood flood-opacity="0" result="BackgroundImageFix"/>
<feBlend mode="normal" in="SourceGraphic" in2="BackgroundImageFix" result="shape"/>
<feGaussianBlur stdDeviation="45" result="effect1_foregroundBlur_609_28583"/>
</filter>
<filter id="filter2_b_609_28583" x="66" y="73" width="261.815" height="388.646" filterUnits="userSpaceOnUse" color-interpolation-filters="sRGB">
<feFlood flood-opacity="0" result="BackgroundImageFix"/>
<feGaussianBlur in="BackgroundImageFix" stdDeviation="4"/>
<feComposite in2="SourceAlpha" operator="in" result="effect1_backgroundBlur_609_28583"/>
<feBlend mode="normal" in="SourceGraphic" in2="effect1_backgroundBlur_609_28583" result="shape"/>
</filter>
<filter id="filter3_f_609_28583" x="135" y="129" width="125" height="125" filterUnits="userSpaceOnUse" color-interpolation-filters="sRGB">
<feFlood flood-opacity="0" result="BackgroundImageFix"/>
<feBlend mode="normal" in="SourceGraphic" in2="BackgroundImageFix" result="shape"/>
<feGaussianBlur stdDeviation="2.5" result="effect1_foregroundBlur_609_28583"/>
</filter>
<filter id="filter4_f_609_28583" x="118" y="113" width="158" height="158" filterUnits="userSpaceOnUse" color-interpolation-filters="sRGB">
<feFlood flood-opacity="0" result="BackgroundImageFix"/>
<feBlend mode="normal" in="SourceGraphic" in2="BackgroundImageFix" result="shape"/>
<feGaussianBlur stdDeviation="2" result="effect1_foregroundBlur_609_28583"/>
</filter>
<filter id="filter5_f_609_28583" x="101" y="96" width="192" height="192" filterUnits="userSpaceOnUse" color-interpolation-filters="sRGB">
<feFlood flood-opacity="0" result="BackgroundImageFix"/>
<feBlend mode="normal" in="SourceGraphic" in2="BackgroundImageFix" result="shape"/>
<feGaussianBlur stdDeviation="3" result="effect1_foregroundBlur_609_28583"/>
</filter>
<radialGradient id="paint0_radial_609_28583" cx="0" cy="0" r="1" gradientUnits="userSpaceOnUse" gradientTransform="translate(196.815 197.181) rotate(90) scale(106.49)">
<stop stop-color="#1BDC77"/>
<stop offset="1" stop-color="#008C93"/>
</radialGradient>
<clipPath id="clip0_609_28583">
<rect width="81" height="81" fill="white" transform="translate(157 151)"/>
</clipPath>
</defs>
</svg>
