<svg width="457" height="565" viewBox="0 0 457 565" fill="none" xmlns="http://www.w3.org/2000/svg">
<g filter="url(#filter0_b_609_28532)">
<rect x="69.457" y="78" width="319.27" height="484" rx="50" fill="#0E121E"/>
</g>
<g opacity="0.5" filter="url(#filter1_f_609_28532)">
<circle cx="228.312" cy="228.898" r="138.312" fill="url(#paint0_radial_609_28532)"/>
</g>
<g opacity="0.3" filter="url(#filter2_b_609_28532)">
<rect x="69" y="78" width="319.27" height="484" rx="50" fill="black"/>
</g>
<rect x="67.5" y="76.5" width="322.27" height="487" rx="51.5" stroke="url(#paint1_linear_609_28532)" stroke-width="3"/>
<g opacity="0.7" filter="url(#filter3_f_609_28532)">
<circle cx="75" cy="75" r="71.5" transform="matrix(-1 0 0 1 304.43 146.569)" stroke="#1BDC77" stroke-width="7"/>
</g>
<g opacity="0.4" filter="url(#filter4_f_609_28532)">
<circle cx="97.5" cy="97.5" r="95" transform="matrix(-1 0 0 1 326.699 124.3)" stroke="#1BDC77" stroke-width="5"/>
</g>
<g opacity="0.2" filter="url(#filter5_f_609_28532)">
<circle cx="117.5" cy="117.5" r="116" transform="matrix(-1 0 0 1 346 105)" stroke="#1BDC77" stroke-width="3"/>
</g>
<circle cx="228.5" cy="222.5" r="52.5" fill="#181F35"/>
<path d="M222.074 195.933L200.24 208.214V234.414M205.48 242.603L228.188 255.375L242.161 247.515L250.895 242.601L205.48 242.603ZM256.135 234.414V208.214L234.301 195.933L256.135 234.414Z" stroke="white" stroke-width="4" stroke-linecap="round" stroke-linejoin="round"/>
<path d="M222.947 214.764L217.707 217.821V230.047L222.947 233.104L228.188 236.161L233.428 233.104L238.668 230.047V217.821L233.428 214.764L228.188 211.707L222.947 214.764Z" stroke="white" stroke-width="4" stroke-linecap="round" stroke-linejoin="round"/>
<path d="M217.707 229.175L205.48 236.161M228.187 211.707V199.48V211.707ZM238.668 229.175L250.895 236.161L238.668 229.175Z" stroke="white" stroke-width="4" stroke-linecap="round" stroke-linejoin="round"/>
<path d="M228.187 199.48C231.081 199.48 233.428 197.134 233.428 194.24C233.428 191.346 231.081 189 228.187 189C225.293 189 222.947 191.346 222.947 194.24C222.947 197.134 225.293 199.48 228.187 199.48Z" stroke="white" stroke-width="4" stroke-linecap="round" stroke-linejoin="round"/>
<path d="M200.24 244.895C203.134 244.895 205.48 242.549 205.48 239.655C205.48 236.761 203.134 234.415 200.24 234.415C197.346 234.415 195 236.761 195 239.655C195 242.549 197.346 244.895 200.24 244.895Z" stroke="white" stroke-width="4" stroke-linecap="round" stroke-linejoin="round"/>
<path d="M256.135 244.895C259.029 244.895 261.375 242.549 261.375 239.655C261.375 236.761 259.029 234.415 256.135 234.415C253.241 234.415 250.895 236.761 250.895 239.655C250.895 242.549 253.241 244.895 256.135 244.895Z" stroke="white" stroke-width="4" stroke-linecap="round" stroke-linejoin="round"/>
<path d="M115.168 480V471.6H122.236V480H121.36V472.128L121.588 472.368H115.816L116.044 472.128V480H115.168ZM128.118 480.06C127.574 480.06 127.082 479.936 126.642 479.688C126.202 479.432 125.85 479.068 125.586 478.596C125.33 478.116 125.202 477.532 125.202 476.844C125.202 476.156 125.33 475.576 125.586 475.104C125.842 474.624 126.19 474.26 126.63 474.012C127.07 473.764 127.566 473.64 128.118 473.64C128.718 473.64 129.254 473.776 129.726 474.048C130.206 474.312 130.582 474.688 130.854 475.176C131.126 475.656 131.262 476.212 131.262 476.844C131.262 477.484 131.126 478.044 130.854 478.524C130.582 479.004 130.206 479.38 129.726 479.652C129.254 479.924 128.718 480.06 128.118 480.06ZM124.866 482.328V473.7H125.682V475.596L125.598 476.856L125.718 478.128V482.328H124.866ZM128.058 479.304C128.506 479.304 128.906 479.204 129.258 479.004C129.61 478.796 129.89 478.508 130.098 478.14C130.306 477.764 130.41 477.332 130.41 476.844C130.41 476.356 130.306 475.928 130.098 475.56C129.89 475.192 129.61 474.904 129.258 474.696C128.906 474.488 128.506 474.384 128.058 474.384C127.61 474.384 127.206 474.488 126.846 474.696C126.494 474.904 126.214 475.192 126.006 475.56C125.806 475.928 125.706 476.356 125.706 476.844C125.706 477.332 125.806 477.764 126.006 478.14C126.214 478.508 126.494 478.796 126.846 479.004C127.206 479.204 127.61 479.304 128.058 479.304ZM135.793 480.06C135.137 480.06 134.561 479.924 134.065 479.652C133.569 479.372 133.181 478.992 132.901 478.512C132.621 478.024 132.481 477.468 132.481 476.844C132.481 476.22 132.613 475.668 132.877 475.188C133.149 474.708 133.517 474.332 133.981 474.06C134.453 473.78 134.981 473.64 135.565 473.64C136.157 473.64 136.681 473.776 137.137 474.048C137.601 474.312 137.965 474.688 138.229 475.176C138.493 475.656 138.625 476.212 138.625 476.844C138.625 476.884 138.621 476.928 138.613 476.976C138.613 477.016 138.613 477.06 138.613 477.108H133.129V476.472H138.157L137.821 476.724C137.821 476.268 137.721 475.864 137.521 475.512C137.329 475.152 137.065 474.872 136.729 474.672C136.393 474.472 136.005 474.372 135.565 474.372C135.133 474.372 134.745 474.472 134.401 474.672C134.057 474.872 133.789 475.152 133.597 475.512C133.405 475.872 133.309 476.284 133.309 476.748V476.88C133.309 477.36 133.413 477.784 133.621 478.152C133.837 478.512 134.133 478.796 134.509 479.004C134.893 479.204 135.329 479.304 135.817 479.304C136.201 479.304 136.557 479.236 136.885 479.1C137.221 478.964 137.509 478.756 137.749 478.476L138.229 479.028C137.949 479.364 137.597 479.62 137.173 479.796C136.757 479.972 136.297 480.06 135.793 480.06ZM140.511 480V473.7H141.363V478.704L145.575 473.7H146.331V480H145.479V474.984L141.279 480H140.511ZM148.773 480V473.7H149.637L152.493 478.536H152.133L155.037 473.7H155.829V480H155.049V474.672L155.205 474.744L152.493 479.232H152.109L149.373 474.696L149.553 474.66V480H148.773ZM158.361 482.388C158.065 482.388 157.781 482.34 157.509 482.244C157.245 482.148 157.017 482.004 156.825 481.812L157.221 481.176C157.381 481.328 157.553 481.444 157.737 481.524C157.929 481.612 158.141 481.656 158.373 481.656C158.653 481.656 158.893 481.576 159.093 481.416C159.301 481.264 159.497 480.992 159.681 480.6L160.089 479.676L160.185 479.544L162.777 473.7H163.617L160.461 480.756C160.285 481.164 160.089 481.488 159.873 481.728C159.665 481.968 159.437 482.136 159.189 482.232C158.941 482.336 158.665 482.388 158.361 482.388ZM160.041 480.18L157.137 473.7H158.025L160.593 479.484L160.041 480.18ZM169.084 479.256L168.892 479.484V473.7H169.744V479.484L169.516 479.256H173.032L172.804 479.484V473.7H173.656V480H164.944V473.7H165.796V479.484L165.58 479.256H169.084ZM173.824 481.38V479.772L174.04 480H172.756V479.256H174.628V481.38H173.824ZM178.777 480.06C178.121 480.06 177.545 479.924 177.049 479.652C176.553 479.372 176.165 478.992 175.885 478.512C175.605 478.024 175.465 477.468 175.465 476.844C175.465 476.22 175.597 475.668 175.861 475.188C176.133 474.708 176.501 474.332 176.965 474.06C177.437 473.78 177.965 473.64 178.549 473.64C179.141 473.64 179.665 473.776 180.121 474.048C180.585 474.312 180.949 474.688 181.213 475.176C181.477 475.656 181.609 476.212 181.609 476.844C181.609 476.884 181.605 476.928 181.597 476.976C181.597 477.016 181.597 477.06 181.597 477.108H176.113V476.472H181.141L180.805 476.724C180.805 476.268 180.705 475.864 180.505 475.512C180.313 475.152 180.049 474.872 179.713 474.672C179.377 474.472 178.989 474.372 178.549 474.372C178.117 474.372 177.729 474.472 177.385 474.672C177.041 474.872 176.773 475.152 176.581 475.512C176.389 475.872 176.293 476.284 176.293 476.748V476.88C176.293 477.36 176.397 477.784 176.605 478.152C176.821 478.512 177.117 478.796 177.493 479.004C177.877 479.204 178.313 479.304 178.801 479.304C179.185 479.304 179.541 479.236 179.869 479.1C180.205 478.964 180.493 478.756 180.733 478.476L181.213 479.028C180.933 479.364 180.581 479.62 180.157 479.796C179.741 479.972 179.281 480.06 178.777 480.06ZM186.135 480.06C185.511 480.06 184.951 479.924 184.455 479.652C183.967 479.372 183.583 478.992 183.303 478.512C183.023 478.024 182.883 477.468 182.883 476.844C182.883 476.212 183.023 475.656 183.303 475.176C183.583 474.696 183.967 474.32 184.455 474.048C184.951 473.776 185.511 473.64 186.135 473.64C186.671 473.64 187.155 473.744 187.587 473.952C188.019 474.16 188.359 474.472 188.607 474.888L187.971 475.32C187.755 475 187.487 474.764 187.167 474.612C186.847 474.46 186.499 474.384 186.123 474.384C185.675 474.384 185.271 474.488 184.911 474.696C184.551 474.896 184.267 475.18 184.059 475.548C183.851 475.916 183.747 476.348 183.747 476.844C183.747 477.34 183.851 477.772 184.059 478.14C184.267 478.508 184.551 478.796 184.911 479.004C185.271 479.204 185.675 479.304 186.123 479.304C186.499 479.304 186.847 479.228 187.167 479.076C187.487 478.924 187.755 478.692 187.971 478.38L188.607 478.812C188.359 479.22 188.019 479.532 187.587 479.748C187.155 479.956 186.671 480.06 186.135 480.06ZM191.34 480V474.216L191.556 474.444H188.952V473.7H194.58V474.444H191.976L192.192 474.216V480H191.34ZM195.812 480V473.7H198.596C199.308 473.7 199.868 473.836 200.276 474.108C200.692 474.38 200.9 474.78 200.9 475.308C200.9 475.82 200.704 476.216 200.312 476.496C199.92 476.768 199.404 476.904 198.764 476.904L198.932 476.652C199.684 476.652 200.236 476.792 200.588 477.072C200.94 477.352 201.116 477.756 201.116 478.284C201.116 478.828 200.916 479.252 200.516 479.556C200.124 479.852 199.512 480 198.68 480H195.812ZM196.64 479.328H198.644C199.18 479.328 199.584 479.244 199.856 479.076C200.136 478.9 200.276 478.62 200.276 478.236C200.276 477.852 200.152 477.572 199.904 477.396C199.656 477.22 199.264 477.132 198.728 477.132H196.64V479.328ZM196.64 476.496H198.536C199.024 476.496 199.396 476.404 199.652 476.22C199.916 476.036 200.048 475.768 200.048 475.416C200.048 475.064 199.916 474.8 199.652 474.624C199.396 474.448 199.024 474.36 198.536 474.36H196.64V476.496ZM207.024 480V478.608L206.988 478.38V476.052C206.988 475.516 206.836 475.104 206.532 474.816C206.236 474.528 205.792 474.384 205.2 474.384C204.792 474.384 204.404 474.452 204.036 474.588C203.668 474.724 203.356 474.904 203.1 475.128L202.716 474.492C203.036 474.22 203.42 474.012 203.868 473.868C204.316 473.716 204.788 473.64 205.284 473.64C206.1 473.64 206.728 473.844 207.168 474.252C207.616 474.652 207.84 475.264 207.84 476.088V480H207.024ZM204.852 480.06C204.38 480.06 203.968 479.984 203.616 479.832C203.272 479.672 203.008 479.456 202.824 479.184C202.64 478.904 202.548 478.584 202.548 478.224C202.548 477.896 202.624 477.6 202.776 477.336C202.936 477.064 203.192 476.848 203.544 476.688C203.904 476.52 204.384 476.436 204.984 476.436H207.156V477.072H205.008C204.4 477.072 203.976 477.18 203.736 477.396C203.504 477.612 203.388 477.88 203.388 478.2C203.388 478.56 203.528 478.848 203.808 479.064C204.088 479.28 204.48 479.388 204.984 479.388C205.464 479.388 205.876 479.28 206.22 479.064C206.572 478.84 206.828 478.52 206.988 478.104L207.18 478.692C207.02 479.108 206.74 479.44 206.34 479.688C205.948 479.936 205.452 480.06 204.852 480.06ZM213.249 480V473.7H216.033C216.745 473.7 217.305 473.836 217.713 474.108C218.129 474.38 218.337 474.78 218.337 475.308C218.337 475.82 218.141 476.216 217.749 476.496C217.357 476.768 216.841 476.904 216.201 476.904L216.369 476.652C217.121 476.652 217.673 476.792 218.025 477.072C218.377 477.352 218.553 477.756 218.553 478.284C218.553 478.828 218.353 479.252 217.953 479.556C217.561 479.852 216.949 480 216.117 480H213.249ZM214.077 479.328H216.081C216.617 479.328 217.021 479.244 217.293 479.076C217.573 478.9 217.713 478.62 217.713 478.236C217.713 477.852 217.589 477.572 217.341 477.396C217.093 477.22 216.701 477.132 216.165 477.132H214.077V479.328ZM214.077 476.496H215.973C216.461 476.496 216.833 476.404 217.089 476.22C217.353 476.036 217.485 475.768 217.485 475.416C217.485 475.064 217.353 474.8 217.089 474.624C216.833 474.448 216.461 474.36 215.973 474.36H214.077V476.496ZM222.539 479.988L222.599 479.256C222.655 479.264 222.707 479.276 222.755 479.292C222.811 479.3 222.859 479.304 222.899 479.304C223.155 479.304 223.359 479.208 223.511 479.016C223.671 478.824 223.791 478.568 223.871 478.248C223.951 477.928 224.007 477.568 224.039 477.168C224.071 476.76 224.099 476.352 224.123 475.944L224.231 473.7H228.851V480H227.999V474.192L228.215 474.444H224.783L224.987 474.18L224.891 476.004C224.867 476.548 224.823 477.068 224.759 477.564C224.703 478.06 224.611 478.496 224.483 478.872C224.363 479.248 224.195 479.544 223.979 479.76C223.763 479.968 223.487 480.072 223.151 480.072C223.055 480.072 222.955 480.064 222.851 480.048C222.755 480.032 222.651 480.012 222.539 479.988ZM231.273 480V473.7H232.125V476.412H234.045V477.192H232.125V480H231.273ZM236.697 480.06C236.097 480.06 235.557 479.924 235.077 479.652C234.605 479.372 234.233 478.992 233.961 478.512C233.689 478.024 233.553 477.468 233.553 476.844C233.553 476.212 233.689 475.656 233.961 475.176C234.233 474.696 234.605 474.32 235.077 474.048C235.557 473.776 236.097 473.64 236.697 473.64C237.297 473.64 237.833 473.776 238.305 474.048C238.777 474.32 239.149 474.696 239.421 475.176C239.693 475.656 239.829 476.212 239.829 476.844C239.829 477.468 239.693 478.024 239.421 478.512C239.149 478.992 238.777 479.372 238.305 479.652C237.833 479.924 237.297 480.06 236.697 480.06ZM236.697 479.316C237.137 479.316 237.529 479.212 237.873 479.004C238.217 478.796 238.489 478.508 238.689 478.14C238.889 477.764 238.989 477.332 238.989 476.844C238.989 476.348 238.889 475.916 238.689 475.548C238.489 475.18 238.217 474.896 237.873 474.696C237.529 474.488 237.137 474.384 236.697 474.384C236.265 474.384 235.873 474.488 235.521 474.696C235.177 474.896 234.905 475.18 234.705 475.548C234.505 475.916 234.405 476.348 234.405 476.844C234.405 477.332 234.505 477.764 234.705 478.14C234.905 478.508 235.177 478.796 235.521 479.004C235.873 479.212 236.265 479.316 236.697 479.316ZM244.487 480.072C243.975 480.072 243.519 479.988 243.119 479.82C242.727 479.652 242.391 479.396 242.111 479.052C241.831 478.708 241.619 478.284 241.475 477.78C241.331 477.268 241.259 476.676 241.259 476.004C241.259 475.404 241.315 474.88 241.427 474.432C241.539 473.976 241.695 473.584 241.895 473.256C242.095 472.928 242.327 472.652 242.591 472.428C242.863 472.196 243.155 472.012 243.467 471.876C243.787 471.732 244.115 471.624 244.451 471.552L247.283 470.892L247.427 471.684L244.763 472.284C244.595 472.324 244.391 472.38 244.151 472.452C243.919 472.524 243.679 472.632 243.431 472.776C243.191 472.92 242.967 473.12 242.759 473.376C242.551 473.632 242.383 473.964 242.255 474.372C242.135 474.772 242.075 475.272 242.075 475.872C242.075 476 242.079 476.104 242.087 476.184C242.095 476.256 242.103 476.336 242.111 476.424C242.127 476.504 242.139 476.624 242.147 476.784L241.775 476.472C241.863 475.984 242.043 475.56 242.315 475.2C242.587 474.832 242.927 474.548 243.335 474.348C243.751 474.14 244.211 474.036 244.715 474.036C245.299 474.036 245.819 474.164 246.275 474.42C246.731 474.668 247.087 475.016 247.343 475.464C247.607 475.912 247.739 476.432 247.739 477.024C247.739 477.608 247.603 478.132 247.331 478.596C247.067 479.06 246.691 479.424 246.203 479.688C245.715 479.944 245.143 480.072 244.487 480.072ZM244.583 479.364C245.031 479.364 245.427 479.264 245.771 479.064C246.115 478.856 246.383 478.576 246.575 478.224C246.775 477.872 246.875 477.476 246.875 477.036C246.875 476.604 246.775 476.22 246.575 475.884C246.383 475.548 246.115 475.284 245.771 475.092C245.427 474.892 245.027 474.792 244.571 474.792C244.123 474.792 243.727 474.888 243.383 475.08C243.039 475.264 242.767 475.524 242.567 475.86C242.375 476.196 242.279 476.584 242.279 477.024C242.279 477.464 242.375 477.86 242.567 478.212C242.767 478.564 243.039 478.844 243.383 479.052C243.735 479.26 244.135 479.364 244.583 479.364ZM252.158 480.06C251.55 480.06 251.002 479.924 250.514 479.652C250.034 479.372 249.654 478.992 249.374 478.512C249.094 478.024 248.954 477.468 248.954 476.844C248.954 476.212 249.094 475.656 249.374 475.176C249.654 474.696 250.034 474.32 250.514 474.048C250.994 473.776 251.542 473.64 252.158 473.64C252.782 473.64 253.334 473.776 253.814 474.048C254.302 474.32 254.682 474.696 254.954 475.176C255.234 475.656 255.374 476.212 255.374 476.844C255.374 477.468 255.234 478.024 254.954 478.512C254.682 478.992 254.302 479.372 253.814 479.652C253.326 479.924 252.774 480.06 252.158 480.06ZM252.158 479.304C252.614 479.304 253.018 479.204 253.37 479.004C253.722 478.796 253.998 478.508 254.198 478.14C254.406 477.764 254.51 477.332 254.51 476.844C254.51 476.348 254.406 475.916 254.198 475.548C253.998 475.18 253.722 474.896 253.37 474.696C253.018 474.488 252.618 474.384 252.17 474.384C251.722 474.384 251.322 474.488 250.97 474.696C250.618 474.896 250.338 475.18 250.13 475.548C249.922 475.916 249.818 476.348 249.818 476.844C249.818 477.332 249.922 477.764 250.13 478.14C250.338 478.508 250.618 478.796 250.97 479.004C251.322 479.204 251.718 479.304 252.158 479.304ZM257.194 480V473.7H258.046V478.704L262.258 473.7H263.014V480H262.162V474.984L257.962 480H257.194ZM260.05 472.788C259.522 472.788 259.094 472.656 258.766 472.392C258.446 472.12 258.278 471.732 258.262 471.228H258.874C258.882 471.548 258.994 471.8 259.21 471.984C259.426 472.168 259.706 472.26 260.05 472.26C260.394 472.26 260.674 472.168 260.89 471.984C261.114 471.8 261.23 471.548 261.238 471.228H261.85C261.842 471.732 261.674 472.12 261.346 472.392C261.018 472.656 260.586 472.788 260.05 472.788ZM271.189 480.06C270.581 480.06 270.033 479.924 269.545 479.652C269.065 479.372 268.685 478.992 268.405 478.512C268.125 478.024 267.985 477.468 267.985 476.844C267.985 476.212 268.125 475.656 268.405 475.176C268.685 474.696 269.065 474.32 269.545 474.048C270.025 473.776 270.573 473.64 271.189 473.64C271.813 473.64 272.365 473.776 272.845 474.048C273.333 474.32 273.713 474.696 273.985 475.176C274.265 475.656 274.405 476.212 274.405 476.844C274.405 477.468 274.265 478.024 273.985 478.512C273.713 478.992 273.333 479.372 272.845 479.652C272.357 479.924 271.805 480.06 271.189 480.06ZM271.189 479.304C271.645 479.304 272.049 479.204 272.401 479.004C272.753 478.796 273.029 478.508 273.229 478.14C273.437 477.764 273.541 477.332 273.541 476.844C273.541 476.348 273.437 475.916 273.229 475.548C273.029 475.18 272.753 474.896 272.401 474.696C272.049 474.488 271.649 474.384 271.201 474.384C270.753 474.384 270.353 474.488 270.001 474.696C269.649 474.896 269.369 475.18 269.161 475.548C268.953 475.916 268.849 476.348 268.849 476.844C268.849 477.332 268.953 477.764 269.161 478.14C269.369 478.508 269.649 478.796 270.001 479.004C270.353 479.204 270.749 479.304 271.189 479.304ZM277.191 480V474.216L277.407 474.444H274.803V473.7H280.431V474.444H277.827L278.043 474.216V480H277.191ZM284.915 480.06C284.371 480.06 283.879 479.936 283.439 479.688C282.999 479.432 282.647 479.068 282.383 478.596C282.127 478.116 281.999 477.532 281.999 476.844C281.999 476.156 282.127 475.576 282.383 475.104C282.639 474.624 282.987 474.26 283.427 474.012C283.867 473.764 284.363 473.64 284.915 473.64C285.515 473.64 286.051 473.776 286.523 474.048C287.003 474.312 287.379 474.688 287.651 475.176C287.923 475.656 288.059 476.212 288.059 476.844C288.059 477.484 287.923 478.044 287.651 478.524C287.379 479.004 287.003 479.38 286.523 479.652C286.051 479.924 285.515 480.06 284.915 480.06ZM281.663 482.328V473.7H282.479V475.596L282.395 476.856L282.515 478.128V482.328H281.663ZM284.855 479.304C285.303 479.304 285.703 479.204 286.055 479.004C286.407 478.796 286.687 478.508 286.895 478.14C287.103 477.764 287.207 477.332 287.207 476.844C287.207 476.356 287.103 475.928 286.895 475.56C286.687 475.192 286.407 474.904 286.055 474.696C285.703 474.488 285.303 474.384 284.855 474.384C284.407 474.384 284.003 474.488 283.643 474.696C283.291 474.904 283.011 475.192 282.803 475.56C282.603 475.928 282.503 476.356 282.503 476.844C282.503 477.332 282.603 477.764 282.803 478.14C283.011 478.508 283.291 478.796 283.643 479.004C284.003 479.204 284.407 479.304 284.855 479.304ZM293.767 480V478.608L293.731 478.38V476.052C293.731 475.516 293.579 475.104 293.275 474.816C292.979 474.528 292.535 474.384 291.943 474.384C291.535 474.384 291.147 474.452 290.779 474.588C290.411 474.724 290.099 474.904 289.843 475.128L289.459 474.492C289.779 474.22 290.163 474.012 290.611 473.868C291.059 473.716 291.531 473.64 292.027 473.64C292.843 473.64 293.471 473.844 293.911 474.252C294.359 474.652 294.583 475.264 294.583 476.088V480H293.767ZM291.595 480.06C291.123 480.06 290.711 479.984 290.359 479.832C290.015 479.672 289.751 479.456 289.567 479.184C289.383 478.904 289.291 478.584 289.291 478.224C289.291 477.896 289.367 477.6 289.519 477.336C289.679 477.064 289.935 476.848 290.287 476.688C290.647 476.52 291.127 476.436 291.727 476.436H293.899V477.072H291.751C291.143 477.072 290.719 477.18 290.479 477.396C290.247 477.612 290.131 477.88 290.131 478.2C290.131 478.56 290.271 478.848 290.551 479.064C290.831 479.28 291.223 479.388 291.727 479.388C292.207 479.388 292.619 479.28 292.963 479.064C293.315 478.84 293.571 478.52 293.731 478.104L293.923 478.692C293.763 479.108 293.483 479.44 293.083 479.688C292.691 479.936 292.195 480.06 291.595 480.06ZM299.491 480.06C298.867 480.06 298.307 479.924 297.811 479.652C297.323 479.372 296.939 478.992 296.659 478.512C296.379 478.024 296.239 477.468 296.239 476.844C296.239 476.212 296.379 475.656 296.659 475.176C296.939 474.696 297.323 474.32 297.811 474.048C298.307 473.776 298.867 473.64 299.491 473.64C300.027 473.64 300.511 473.744 300.943 473.952C301.375 474.16 301.715 474.472 301.963 474.888L301.327 475.32C301.111 475 300.843 474.764 300.523 474.612C300.203 474.46 299.855 474.384 299.479 474.384C299.031 474.384 298.627 474.488 298.267 474.696C297.907 474.896 297.623 475.18 297.415 475.548C297.207 475.916 297.103 476.348 297.103 476.844C297.103 477.34 297.207 477.772 297.415 478.14C297.623 478.508 297.907 478.796 298.267 479.004C298.627 479.204 299.031 479.304 299.479 479.304C299.855 479.304 300.203 479.228 300.523 479.076C300.843 478.924 301.111 478.692 301.327 478.38L301.963 478.812C301.715 479.22 301.375 479.532 300.943 479.748C300.511 479.956 300.027 480.06 299.491 480.06ZM302.238 479.988L302.298 479.256C302.354 479.264 302.406 479.276 302.454 479.292C302.51 479.3 302.558 479.304 302.598 479.304C302.854 479.304 303.058 479.208 303.21 479.016C303.37 478.824 303.49 478.568 303.57 478.248C303.65 477.928 303.706 477.568 303.738 477.168C303.77 476.76 303.798 476.352 303.822 475.944L303.93 473.7H308.55V480H307.698V474.192L307.914 474.444H304.482L304.686 474.18L304.59 476.004C304.566 476.548 304.522 477.068 304.458 477.564C304.402 478.06 304.31 478.496 304.182 478.872C304.062 479.248 303.894 479.544 303.678 479.76C303.462 479.968 303.186 480.072 302.85 480.072C302.754 480.072 302.654 480.064 302.55 480.048C302.454 480.032 302.35 480.012 302.238 479.988ZM310.972 480V473.7H311.824V478.704L316.036 473.7H316.792V480H315.94V474.984L311.74 480H310.972ZM318.693 481.752L319.221 479.532L319.317 480.048C319.133 480.048 318.977 479.988 318.849 479.868C318.729 479.748 318.669 479.592 318.669 479.4C318.669 479.208 318.729 479.052 318.849 478.932C318.977 478.812 319.129 478.752 319.305 478.752C319.489 478.752 319.637 478.816 319.749 478.944C319.869 479.072 319.929 479.224 319.929 479.4C319.929 479.464 319.925 479.528 319.917 479.592C319.909 479.656 319.893 479.728 319.869 479.808C319.845 479.888 319.813 479.984 319.773 480.096L319.269 481.752H318.693ZM324.917 480V473.7H329.381V474.444H325.553L325.769 474.228V480H324.917ZM334.546 479.592V474.444H331.51L331.438 475.848C331.422 476.272 331.394 476.688 331.354 477.096C331.322 477.504 331.262 477.88 331.174 478.224C331.094 478.56 330.978 478.836 330.826 479.052C330.674 479.26 330.478 479.38 330.238 479.412L329.386 479.256C329.634 479.264 329.838 479.176 329.998 478.992C330.158 478.8 330.282 478.54 330.37 478.212C330.458 477.884 330.522 477.512 330.562 477.096C330.602 476.672 330.634 476.24 330.658 475.8L330.742 473.7H335.398V479.592H334.546ZM329.122 481.524V479.256H336.382V481.524H335.578V480H329.926V481.524H329.122ZM340.742 480.06C340.086 480.06 339.51 479.924 339.014 479.652C338.518 479.372 338.13 478.992 337.85 478.512C337.57 478.024 337.43 477.468 337.43 476.844C337.43 476.22 337.562 475.668 337.826 475.188C338.098 474.708 338.466 474.332 338.93 474.06C339.402 473.78 339.93 473.64 340.514 473.64C341.106 473.64 341.63 473.776 342.086 474.048C342.55 474.312 342.914 474.688 343.178 475.176C343.442 475.656 343.574 476.212 343.574 476.844C343.574 476.884 343.57 476.928 343.562 476.976C343.562 477.016 343.562 477.06 343.562 477.108H338.078V476.472H343.106L342.77 476.724C342.77 476.268 342.67 475.864 342.47 475.512C342.278 475.152 342.014 474.872 341.678 474.672C341.342 474.472 340.954 474.372 340.514 474.372C340.082 474.372 339.694 474.472 339.35 474.672C339.006 474.872 338.738 475.152 338.546 475.512C338.354 475.872 338.258 476.284 338.258 476.748V476.88C338.258 477.36 338.362 477.784 338.57 478.152C338.786 478.512 339.082 478.796 339.458 479.004C339.842 479.204 340.278 479.304 340.766 479.304C341.15 479.304 341.506 479.236 341.834 479.1C342.17 478.964 342.458 478.756 342.698 478.476L343.178 479.028C342.898 479.364 342.546 479.62 342.122 479.796C341.706 479.972 341.246 480.06 340.742 480.06ZM115.96 496V489.7H116.812V492.484H120.784V489.7H121.636V496H120.784V493.216H116.812V496H115.96ZM126.758 496.06C126.102 496.06 125.526 495.924 125.03 495.652C124.534 495.372 124.146 494.992 123.866 494.512C123.586 494.024 123.446 493.468 123.446 492.844C123.446 492.22 123.578 491.668 123.842 491.188C124.114 490.708 124.482 490.332 124.946 490.06C125.418 489.78 125.946 489.64 126.53 489.64C127.122 489.64 127.646 489.776 128.102 490.048C128.566 490.312 128.93 490.688 129.194 491.176C129.458 491.656 129.59 492.212 129.59 492.844C129.59 492.884 129.586 492.928 129.578 492.976C129.578 493.016 129.578 493.06 129.578 493.108H124.094V492.472H129.122L128.786 492.724C128.786 492.268 128.686 491.864 128.486 491.512C128.294 491.152 128.03 490.872 127.694 490.672C127.358 490.472 126.97 490.372 126.53 490.372C126.098 490.372 125.71 490.472 125.366 490.672C125.022 490.872 124.754 491.152 124.562 491.512C124.37 491.872 124.274 492.284 124.274 492.748V492.88C124.274 493.36 124.378 493.784 124.586 494.152C124.802 494.512 125.098 494.796 125.474 495.004C125.858 495.204 126.294 495.304 126.782 495.304C127.166 495.304 127.522 495.236 127.85 495.1C128.186 494.964 128.474 494.756 128.714 494.476L129.194 495.028C128.914 495.364 128.562 495.62 128.138 495.796C127.722 495.972 127.262 496.06 126.758 496.06ZM134.068 496.06C133.46 496.06 132.912 495.924 132.424 495.652C131.944 495.372 131.564 494.992 131.284 494.512C131.004 494.024 130.864 493.468 130.864 492.844C130.864 492.212 131.004 491.656 131.284 491.176C131.564 490.696 131.944 490.32 132.424 490.048C132.904 489.776 133.452 489.64 134.068 489.64C134.692 489.64 135.244 489.776 135.724 490.048C136.212 490.32 136.592 490.696 136.864 491.176C137.144 491.656 137.284 492.212 137.284 492.844C137.284 493.468 137.144 494.024 136.864 494.512C136.592 494.992 136.212 495.372 135.724 495.652C135.236 495.924 134.684 496.06 134.068 496.06ZM134.068 495.304C134.524 495.304 134.928 495.204 135.28 495.004C135.632 494.796 135.908 494.508 136.108 494.14C136.316 493.764 136.42 493.332 136.42 492.844C136.42 492.348 136.316 491.916 136.108 491.548C135.908 491.18 135.632 490.896 135.28 490.696C134.928 490.488 134.528 490.384 134.08 490.384C133.632 490.384 133.232 490.488 132.88 490.696C132.528 490.896 132.248 491.18 132.04 491.548C131.832 491.916 131.728 492.348 131.728 492.844C131.728 493.332 131.832 493.764 132.04 494.14C132.248 494.508 132.528 494.796 132.88 495.004C133.232 495.204 133.628 495.304 134.068 495.304ZM141.937 496.072C141.425 496.072 140.969 495.988 140.569 495.82C140.177 495.652 139.841 495.396 139.561 495.052C139.281 494.708 139.069 494.284 138.925 493.78C138.781 493.268 138.709 492.676 138.709 492.004C138.709 491.404 138.765 490.88 138.877 490.432C138.989 489.976 139.145 489.584 139.345 489.256C139.545 488.928 139.777 488.652 140.041 488.428C140.313 488.196 140.605 488.012 140.917 487.876C141.237 487.732 141.565 487.624 141.901 487.552L144.733 486.892L144.877 487.684L142.213 488.284C142.045 488.324 141.841 488.38 141.601 488.452C141.369 488.524 141.129 488.632 140.881 488.776C140.641 488.92 140.417 489.12 140.209 489.376C140.001 489.632 139.833 489.964 139.705 490.372C139.585 490.772 139.525 491.272 139.525 491.872C139.525 492 139.529 492.104 139.537 492.184C139.545 492.256 139.553 492.336 139.561 492.424C139.577 492.504 139.589 492.624 139.597 492.784L139.225 492.472C139.313 491.984 139.493 491.56 139.765 491.2C140.037 490.832 140.377 490.548 140.785 490.348C141.201 490.14 141.661 490.036 142.165 490.036C142.749 490.036 143.269 490.164 143.725 490.42C144.181 490.668 144.537 491.016 144.793 491.464C145.057 491.912 145.189 492.432 145.189 493.024C145.189 493.608 145.053 494.132 144.781 494.596C144.517 495.06 144.141 495.424 143.653 495.688C143.165 495.944 142.593 496.072 141.937 496.072ZM142.033 495.364C142.481 495.364 142.877 495.264 143.221 495.064C143.565 494.856 143.833 494.576 144.025 494.224C144.225 493.872 144.325 493.476 144.325 493.036C144.325 492.604 144.225 492.22 144.025 491.884C143.833 491.548 143.565 491.284 143.221 491.092C142.877 490.892 142.477 490.792 142.021 490.792C141.573 490.792 141.177 490.888 140.833 491.08C140.489 491.264 140.217 491.524 140.017 491.86C139.825 492.196 139.729 492.584 139.729 493.024C139.729 493.464 139.825 493.86 140.017 494.212C140.217 494.564 140.489 494.844 140.833 495.052C141.185 495.26 141.585 495.364 142.033 495.364ZM145.76 496L148.424 492.544L148.412 492.964L145.88 489.7H146.84L148.916 492.4L148.556 492.388L150.632 489.7H151.568L149.012 493L149.024 492.544L151.712 496H150.74L148.544 493.12L148.88 493.168L146.72 496H145.76ZM155.478 496.06C154.87 496.06 154.322 495.924 153.834 495.652C153.354 495.372 152.974 494.992 152.694 494.512C152.414 494.024 152.274 493.468 152.274 492.844C152.274 492.212 152.414 491.656 152.694 491.176C152.974 490.696 153.354 490.32 153.834 490.048C154.314 489.776 154.862 489.64 155.478 489.64C156.102 489.64 156.654 489.776 157.134 490.048C157.622 490.32 158.002 490.696 158.274 491.176C158.554 491.656 158.694 492.212 158.694 492.844C158.694 493.468 158.554 494.024 158.274 494.512C158.002 494.992 157.622 495.372 157.134 495.652C156.646 495.924 156.094 496.06 155.478 496.06ZM155.478 495.304C155.934 495.304 156.338 495.204 156.69 495.004C157.042 494.796 157.318 494.508 157.518 494.14C157.726 493.764 157.83 493.332 157.83 492.844C157.83 492.348 157.726 491.916 157.518 491.548C157.318 491.18 157.042 490.896 156.69 490.696C156.338 490.488 155.938 490.384 155.49 490.384C155.042 490.384 154.642 490.488 154.29 490.696C153.938 490.896 153.658 491.18 153.45 491.548C153.242 491.916 153.138 492.348 153.138 492.844C153.138 493.332 153.242 493.764 153.45 494.14C153.658 494.508 153.938 494.796 154.29 495.004C154.642 495.204 155.038 495.304 155.478 495.304ZM164.8 495.592V490.444H161.764L161.692 491.848C161.676 492.272 161.648 492.688 161.608 493.096C161.576 493.504 161.516 493.88 161.428 494.224C161.348 494.56 161.232 494.836 161.08 495.052C160.928 495.26 160.732 495.38 160.492 495.412L159.64 495.256C159.888 495.264 160.092 495.176 160.252 494.992C160.412 494.8 160.536 494.54 160.624 494.212C160.712 493.884 160.776 493.512 160.816 493.096C160.856 492.672 160.888 492.24 160.912 491.8L160.996 489.7H165.652V495.592H164.8ZM159.376 497.524V495.256H166.636V497.524H165.832V496H160.18V497.524H159.376ZM168.296 496V489.7H169.148V494.704L173.36 489.7H174.116V496H173.264V490.984L169.064 496H168.296ZM176.558 496V489.7H177.422L180.278 494.536H179.918L182.822 489.7H183.614V496H182.834V490.672L182.99 490.744L180.278 495.232H179.894L177.158 490.696L177.338 490.66V496H176.558ZM188.63 496.06C188.022 496.06 187.474 495.924 186.986 495.652C186.506 495.372 186.126 494.992 185.846 494.512C185.566 494.024 185.426 493.468 185.426 492.844C185.426 492.212 185.566 491.656 185.846 491.176C186.126 490.696 186.506 490.32 186.986 490.048C187.466 489.776 188.014 489.64 188.63 489.64C189.254 489.64 189.806 489.776 190.286 490.048C190.774 490.32 191.154 490.696 191.426 491.176C191.706 491.656 191.846 492.212 191.846 492.844C191.846 493.468 191.706 494.024 191.426 494.512C191.154 494.992 190.774 495.372 190.286 495.652C189.798 495.924 189.246 496.06 188.63 496.06ZM188.63 495.304C189.086 495.304 189.49 495.204 189.842 495.004C190.194 494.796 190.47 494.508 190.67 494.14C190.878 493.764 190.982 493.332 190.982 492.844C190.982 492.348 190.878 491.916 190.67 491.548C190.47 491.18 190.194 490.896 189.842 490.696C189.49 490.488 189.09 490.384 188.642 490.384C188.194 490.384 187.794 490.488 187.442 490.696C187.09 490.896 186.81 491.18 186.602 491.548C186.394 491.916 186.29 492.348 186.29 492.844C186.29 493.332 186.394 493.764 186.602 494.14C186.81 494.508 187.09 494.796 187.442 495.004C187.794 495.204 188.19 495.304 188.63 495.304ZM201.128 495.592V490.444H198.092L198.02 491.848C198.004 492.272 197.976 492.688 197.936 493.096C197.904 493.504 197.844 493.88 197.756 494.224C197.676 494.56 197.56 494.836 197.408 495.052C197.256 495.26 197.06 495.38 196.82 495.412L195.968 495.256C196.216 495.264 196.42 495.176 196.58 494.992C196.74 494.8 196.864 494.54 196.952 494.212C197.04 493.884 197.104 493.512 197.144 493.096C197.184 492.672 197.216 492.24 197.24 491.8L197.324 489.7H201.98V495.592H201.128ZM195.704 497.524V495.256H202.964V497.524H202.16V496H196.508V497.524H195.704ZM207.216 496.06C206.608 496.06 206.06 495.924 205.572 495.652C205.092 495.372 204.712 494.992 204.432 494.512C204.152 494.024 204.012 493.468 204.012 492.844C204.012 492.212 204.152 491.656 204.432 491.176C204.712 490.696 205.092 490.32 205.572 490.048C206.052 489.776 206.6 489.64 207.216 489.64C207.84 489.64 208.392 489.776 208.872 490.048C209.36 490.32 209.74 490.696 210.012 491.176C210.292 491.656 210.432 492.212 210.432 492.844C210.432 493.468 210.292 494.024 210.012 494.512C209.74 494.992 209.36 495.372 208.872 495.652C208.384 495.924 207.832 496.06 207.216 496.06ZM207.216 495.304C207.672 495.304 208.076 495.204 208.428 495.004C208.78 494.796 209.056 494.508 209.256 494.14C209.464 493.764 209.568 493.332 209.568 492.844C209.568 492.348 209.464 491.916 209.256 491.548C209.056 491.18 208.78 490.896 208.428 490.696C208.076 490.488 207.676 490.384 207.228 490.384C206.78 490.384 206.38 490.488 206.028 490.696C205.676 490.896 205.396 491.18 205.188 491.548C204.98 491.916 204.876 492.348 204.876 492.844C204.876 493.332 204.98 493.764 205.188 494.14C205.396 494.508 205.676 494.796 206.028 495.004C206.38 495.204 206.776 495.304 207.216 495.304ZM212.253 496V489.7H215.037C215.749 489.7 216.309 489.836 216.717 490.108C217.133 490.38 217.341 490.78 217.341 491.308C217.341 491.82 217.145 492.216 216.753 492.496C216.361 492.768 215.845 492.904 215.205 492.904L215.373 492.652C216.125 492.652 216.677 492.792 217.029 493.072C217.381 493.352 217.557 493.756 217.557 494.284C217.557 494.828 217.357 495.252 216.957 495.556C216.565 495.852 215.953 496 215.121 496H212.253ZM213.081 495.328H215.085C215.621 495.328 216.025 495.244 216.297 495.076C216.577 494.9 216.717 494.62 216.717 494.236C216.717 493.852 216.593 493.572 216.345 493.396C216.097 493.22 215.705 493.132 215.169 493.132H213.081V495.328ZM213.081 492.496H214.977C215.465 492.496 215.837 492.404 216.093 492.22C216.357 492.036 216.489 491.768 216.489 491.416C216.489 491.064 216.357 490.8 216.093 490.624C215.837 490.448 215.465 490.36 214.977 490.36H213.081V492.496ZM222.254 496.06C221.598 496.06 221.022 495.924 220.526 495.652C220.03 495.372 219.642 494.992 219.362 494.512C219.082 494.024 218.942 493.468 218.942 492.844C218.942 492.22 219.074 491.668 219.338 491.188C219.61 490.708 219.978 490.332 220.442 490.06C220.914 489.78 221.442 489.64 222.026 489.64C222.618 489.64 223.142 489.776 223.598 490.048C224.062 490.312 224.426 490.688 224.69 491.176C224.954 491.656 225.086 492.212 225.086 492.844C225.086 492.884 225.082 492.928 225.074 492.976C225.074 493.016 225.074 493.06 225.074 493.108H219.59V492.472H224.618L224.282 492.724C224.282 492.268 224.182 491.864 223.982 491.512C223.79 491.152 223.526 490.872 223.19 490.672C222.854 490.472 222.466 490.372 222.026 490.372C221.594 490.372 221.206 490.472 220.862 490.672C220.518 490.872 220.25 491.152 220.058 491.512C219.866 491.872 219.77 492.284 219.77 492.748V492.88C219.77 493.36 219.874 493.784 220.082 494.152C220.298 494.512 220.594 494.796 220.97 495.004C221.354 495.204 221.79 495.304 222.278 495.304C222.662 495.304 223.018 495.236 223.346 495.1C223.682 494.964 223.97 494.756 224.21 494.476L224.69 495.028C224.41 495.364 224.058 495.62 223.634 495.796C223.218 495.972 222.758 496.06 222.254 496.06ZM230.224 496.06C229.68 496.06 229.188 495.936 228.748 495.688C228.308 495.432 227.956 495.068 227.692 494.596C227.436 494.116 227.308 493.532 227.308 492.844C227.308 492.156 227.436 491.576 227.692 491.104C227.948 490.624 228.296 490.26 228.736 490.012C229.176 489.764 229.672 489.64 230.224 489.64C230.824 489.64 231.36 489.776 231.832 490.048C232.312 490.312 232.688 490.688 232.96 491.176C233.232 491.656 233.368 492.212 233.368 492.844C233.368 493.484 233.232 494.044 232.96 494.524C232.688 495.004 232.312 495.38 231.832 495.652C231.36 495.924 230.824 496.06 230.224 496.06ZM226.972 498.328V489.7H227.788V491.596L227.704 492.856L227.824 494.128V498.328H226.972ZM230.164 495.304C230.612 495.304 231.012 495.204 231.364 495.004C231.716 494.796 231.996 494.508 232.204 494.14C232.412 493.764 232.516 493.332 232.516 492.844C232.516 492.356 232.412 491.928 232.204 491.56C231.996 491.192 231.716 490.904 231.364 490.696C231.012 490.488 230.612 490.384 230.164 490.384C229.716 490.384 229.312 490.488 228.952 490.696C228.6 490.904 228.32 491.192 228.112 491.56C227.912 491.928 227.812 492.356 227.812 492.844C227.812 493.332 227.912 493.764 228.112 494.14C228.32 494.508 228.6 494.796 228.952 495.004C229.312 495.204 229.716 495.304 230.164 495.304ZM235.198 496V489.7H236.05V494.704L240.262 489.7H241.018V496H240.166V490.984L235.966 496H235.198ZM246.16 496.06C245.504 496.06 244.928 495.924 244.432 495.652C243.936 495.372 243.548 494.992 243.268 494.512C242.988 494.024 242.848 493.468 242.848 492.844C242.848 492.22 242.98 491.668 243.244 491.188C243.516 490.708 243.884 490.332 244.348 490.06C244.82 489.78 245.348 489.64 245.932 489.64C246.524 489.64 247.048 489.776 247.504 490.048C247.968 490.312 248.332 490.688 248.596 491.176C248.86 491.656 248.992 492.212 248.992 492.844C248.992 492.884 248.988 492.928 248.98 492.976C248.98 493.016 248.98 493.06 248.98 493.108H243.496V492.472H248.524L248.188 492.724C248.188 492.268 248.088 491.864 247.888 491.512C247.696 491.152 247.432 490.872 247.096 490.672C246.76 490.472 246.372 490.372 245.932 490.372C245.5 490.372 245.112 490.472 244.768 490.672C244.424 490.872 244.156 491.152 243.964 491.512C243.772 491.872 243.676 492.284 243.676 492.748V492.88C243.676 493.36 243.78 493.784 243.988 494.152C244.204 494.512 244.5 494.796 244.876 495.004C245.26 495.204 245.696 495.304 246.184 495.304C246.568 495.304 246.924 495.236 247.252 495.1C247.588 494.964 247.876 494.756 248.116 494.476L248.596 495.028C248.316 495.364 247.964 495.62 247.54 495.796C247.124 495.972 246.664 496.06 246.16 496.06ZM258.639 496L256.047 492.88L256.755 492.46L259.647 496H258.639ZM254.019 496V489.7H254.871V496H254.019ZM254.607 493.192V492.46H256.635V493.192H254.607ZM256.827 492.94L256.035 492.82L258.543 489.7H259.467L256.827 492.94ZM264.132 496V489.7H269.796V496H268.944V490.216L269.16 490.444H264.768L264.984 490.216V496H264.132ZM276.13 496V494.608L276.094 494.38V492.052C276.094 491.516 275.942 491.104 275.638 490.816C275.342 490.528 274.898 490.384 274.306 490.384C273.898 490.384 273.51 490.452 273.142 490.588C272.774 490.724 272.462 490.904 272.206 491.128L271.822 490.492C272.142 490.22 272.526 490.012 272.974 489.868C273.422 489.716 273.894 489.64 274.39 489.64C275.206 489.64 275.834 489.844 276.274 490.252C276.722 490.652 276.946 491.264 276.946 492.088V496H276.13ZM273.958 496.06C273.486 496.06 273.074 495.984 272.722 495.832C272.378 495.672 272.114 495.456 271.93 495.184C271.746 494.904 271.654 494.584 271.654 494.224C271.654 493.896 271.73 493.6 271.882 493.336C272.042 493.064 272.298 492.848 272.65 492.688C273.01 492.52 273.49 492.436 274.09 492.436H276.262V493.072H274.114C273.506 493.072 273.082 493.18 272.842 493.396C272.61 493.612 272.494 493.88 272.494 494.2C272.494 494.56 272.634 494.848 272.914 495.064C273.194 495.28 273.586 495.388 274.09 495.388C274.57 495.388 274.982 495.28 275.326 495.064C275.678 494.84 275.934 494.52 276.094 494.104L276.286 494.692C276.126 495.108 275.846 495.44 275.446 495.688C275.054 495.936 274.558 496.06 273.958 496.06ZM282.466 496.06C281.922 496.06 281.43 495.936 280.99 495.688C280.55 495.432 280.198 495.068 279.934 494.596C279.678 494.116 279.55 493.532 279.55 492.844C279.55 492.156 279.678 491.576 279.934 491.104C280.19 490.624 280.538 490.26 280.978 490.012C281.418 489.764 281.914 489.64 282.466 489.64C283.066 489.64 283.602 489.776 284.074 490.048C284.554 490.312 284.93 490.688 285.202 491.176C285.474 491.656 285.61 492.212 285.61 492.844C285.61 493.484 285.474 494.044 285.202 494.524C284.93 495.004 284.554 495.38 284.074 495.652C283.602 495.924 283.066 496.06 282.466 496.06ZM279.214 498.328V489.7H280.03V491.596L279.946 492.856L280.066 494.128V498.328H279.214ZM282.406 495.304C282.854 495.304 283.254 495.204 283.606 495.004C283.958 494.796 284.238 494.508 284.446 494.14C284.654 493.764 284.758 493.332 284.758 492.844C284.758 492.356 284.654 491.928 284.446 491.56C284.238 491.192 283.958 490.904 283.606 490.696C283.254 490.488 282.854 490.384 282.406 490.384C281.958 490.384 281.554 490.488 281.194 490.696C280.842 490.904 280.562 491.192 280.354 491.56C280.154 491.928 280.054 492.356 280.054 492.844C280.054 493.332 280.154 493.764 280.354 494.14C280.562 494.508 280.842 494.796 281.194 495.004C281.554 495.204 281.958 495.304 282.406 495.304ZM288.406 496V490.216L288.622 490.444H286.018V489.7H291.646V490.444H289.042L289.258 490.216V496H288.406ZM292.878 496V489.7H293.73V492.484H297.702V489.7H298.554V496H297.702V493.216H293.73V496H292.878ZM303.676 496.06C303.02 496.06 302.444 495.924 301.948 495.652C301.452 495.372 301.064 494.992 300.784 494.512C300.504 494.024 300.364 493.468 300.364 492.844C300.364 492.22 300.496 491.668 300.76 491.188C301.032 490.708 301.4 490.332 301.864 490.06C302.336 489.78 302.864 489.64 303.448 489.64C304.04 489.64 304.564 489.776 305.02 490.048C305.484 490.312 305.848 490.688 306.112 491.176C306.376 491.656 306.508 492.212 306.508 492.844C306.508 492.884 306.504 492.928 306.496 492.976C306.496 493.016 306.496 493.06 306.496 493.108H301.012V492.472H306.04L305.704 492.724C305.704 492.268 305.604 491.864 305.404 491.512C305.212 491.152 304.948 490.872 304.612 490.672C304.276 490.472 303.888 490.372 303.448 490.372C303.016 490.372 302.628 490.472 302.284 490.672C301.94 490.872 301.672 491.152 301.48 491.512C301.288 491.872 301.192 492.284 301.192 492.748V492.88C301.192 493.36 301.296 493.784 301.504 494.152C301.72 494.512 302.016 494.796 302.392 495.004C302.776 495.204 303.212 495.304 303.7 495.304C304.084 495.304 304.44 495.236 304.768 495.1C305.104 494.964 305.392 494.756 305.632 494.476L306.112 495.028C305.832 495.364 305.48 495.62 305.056 495.796C304.64 495.972 304.18 496.06 303.676 496.06ZM311.646 496.06C311.102 496.06 310.61 495.936 310.17 495.688C309.73 495.432 309.378 495.068 309.114 494.596C308.858 494.116 308.73 493.532 308.73 492.844C308.73 492.156 308.858 491.576 309.114 491.104C309.37 490.624 309.718 490.26 310.158 490.012C310.598 489.764 311.094 489.64 311.646 489.64C312.246 489.64 312.782 489.776 313.254 490.048C313.734 490.312 314.11 490.688 314.382 491.176C314.654 491.656 314.79 492.212 314.79 492.844C314.79 493.484 314.654 494.044 314.382 494.524C314.11 495.004 313.734 495.38 313.254 495.652C312.782 495.924 312.246 496.06 311.646 496.06ZM308.394 498.328V489.7H309.21V491.596L309.126 492.856L309.246 494.128V498.328H308.394ZM311.586 495.304C312.034 495.304 312.434 495.204 312.786 495.004C313.138 494.796 313.418 494.508 313.626 494.14C313.834 493.764 313.938 493.332 313.938 492.844C313.938 492.356 313.834 491.928 313.626 491.56C313.418 491.192 313.138 490.904 312.786 490.696C312.434 490.488 312.034 490.384 311.586 490.384C311.138 490.384 310.734 490.488 310.374 490.696C310.022 490.904 309.742 491.192 309.534 491.56C309.334 491.928 309.234 492.356 309.234 492.844C309.234 493.332 309.334 493.764 309.534 494.14C309.742 494.508 310.022 494.796 310.374 495.004C310.734 495.204 311.138 495.304 311.586 495.304ZM320.497 496V494.608L320.461 494.38V492.052C320.461 491.516 320.309 491.104 320.005 490.816C319.709 490.528 319.265 490.384 318.673 490.384C318.265 490.384 317.877 490.452 317.509 490.588C317.141 490.724 316.829 490.904 316.573 491.128L316.189 490.492C316.509 490.22 316.893 490.012 317.341 489.868C317.789 489.716 318.261 489.64 318.757 489.64C319.573 489.64 320.201 489.844 320.641 490.252C321.089 490.652 321.313 491.264 321.313 492.088V496H320.497ZM318.325 496.06C317.853 496.06 317.441 495.984 317.089 495.832C316.745 495.672 316.481 495.456 316.297 495.184C316.113 494.904 316.021 494.584 316.021 494.224C316.021 493.896 316.097 493.6 316.249 493.336C316.409 493.064 316.665 492.848 317.017 492.688C317.377 492.52 317.857 492.436 318.457 492.436H320.629V493.072H318.481C317.873 493.072 317.449 493.18 317.209 493.396C316.977 493.612 316.861 493.88 316.861 494.2C316.861 494.56 317.001 494.848 317.281 495.064C317.561 495.28 317.953 495.388 318.457 495.388C318.937 495.388 319.349 495.28 319.693 495.064C320.045 494.84 320.301 494.52 320.461 494.104L320.653 494.692C320.493 495.108 320.213 495.44 319.813 495.688C319.421 495.936 318.925 496.06 318.325 496.06ZM323.581 496V489.7H324.445L327.301 494.536H326.941L329.845 489.7H330.637V496H329.857V490.672L330.013 490.744L327.301 495.232H326.917L324.181 490.696L324.361 490.66V496H323.581ZM336.202 496V489.7H337.054V494.704L341.266 489.7H342.022V496H341.17V490.984L336.97 496H336.202ZM151.222 512V505.7H156.886V512H156.034V506.216L156.25 506.444H151.858L152.074 506.216V512H151.222ZM162.56 512.06C162.016 512.06 161.524 511.936 161.084 511.688C160.644 511.432 160.292 511.068 160.028 510.596C159.772 510.116 159.644 509.532 159.644 508.844C159.644 508.156 159.772 507.576 160.028 507.104C160.284 506.624 160.632 506.26 161.072 506.012C161.512 505.764 162.008 505.64 162.56 505.64C163.16 505.64 163.696 505.776 164.168 506.048C164.648 506.312 165.024 506.688 165.296 507.176C165.568 507.656 165.704 508.212 165.704 508.844C165.704 509.484 165.568 510.044 165.296 510.524C165.024 511.004 164.648 511.38 164.168 511.652C163.696 511.924 163.16 512.06 162.56 512.06ZM159.308 514.328V505.7H160.124V507.596L160.04 508.856L160.16 510.128V514.328H159.308ZM162.5 511.304C162.948 511.304 163.348 511.204 163.7 511.004C164.052 510.796 164.332 510.508 164.54 510.14C164.748 509.764 164.852 509.332 164.852 508.844C164.852 508.356 164.748 507.928 164.54 507.56C164.332 507.192 164.052 506.904 163.7 506.696C163.348 506.488 162.948 506.384 162.5 506.384C162.052 506.384 161.648 506.488 161.288 506.696C160.936 506.904 160.656 507.192 160.448 507.56C160.248 507.928 160.148 508.356 160.148 508.844C160.148 509.332 160.248 509.764 160.448 510.14C160.656 510.508 160.936 510.796 161.288 511.004C161.648 511.204 162.052 511.304 162.5 511.304ZM170.126 512.06C169.518 512.06 168.97 511.924 168.482 511.652C168.002 511.372 167.622 510.992 167.342 510.512C167.062 510.024 166.922 509.468 166.922 508.844C166.922 508.212 167.062 507.656 167.342 507.176C167.622 506.696 168.002 506.32 168.482 506.048C168.962 505.776 169.51 505.64 170.126 505.64C170.75 505.64 171.302 505.776 171.782 506.048C172.27 506.32 172.65 506.696 172.922 507.176C173.202 507.656 173.342 508.212 173.342 508.844C173.342 509.468 173.202 510.024 172.922 510.512C172.65 510.992 172.27 511.372 171.782 511.652C171.294 511.924 170.742 512.06 170.126 512.06ZM170.126 511.304C170.582 511.304 170.986 511.204 171.338 511.004C171.69 510.796 171.966 510.508 172.166 510.14C172.374 509.764 172.478 509.332 172.478 508.844C172.478 508.348 172.374 507.916 172.166 507.548C171.966 507.18 171.69 506.896 171.338 506.696C170.986 506.488 170.586 506.384 170.138 506.384C169.69 506.384 169.29 506.488 168.938 506.696C168.586 506.896 168.306 507.18 168.098 507.548C167.89 507.916 167.786 508.348 167.786 508.844C167.786 509.332 167.89 509.764 168.098 510.14C168.306 510.508 168.586 510.796 168.938 511.004C169.29 511.204 169.686 511.304 170.126 511.304ZM175.163 512V505.7H177.947C178.659 505.7 179.219 505.836 179.627 506.108C180.043 506.38 180.251 506.78 180.251 507.308C180.251 507.82 180.055 508.216 179.663 508.496C179.271 508.768 178.755 508.904 178.115 508.904L178.283 508.652C179.035 508.652 179.587 508.792 179.939 509.072C180.291 509.352 180.467 509.756 180.467 510.284C180.467 510.828 180.267 511.252 179.867 511.556C179.475 511.852 178.863 512 178.031 512H175.163ZM175.991 511.328H177.995C178.531 511.328 178.935 511.244 179.207 511.076C179.487 510.9 179.627 510.62 179.627 510.236C179.627 509.852 179.503 509.572 179.255 509.396C179.007 509.22 178.615 509.132 178.079 509.132H175.991V511.328ZM175.991 508.496H177.887C178.375 508.496 178.747 508.404 179.003 508.22C179.267 508.036 179.399 507.768 179.399 507.416C179.399 507.064 179.267 506.8 179.003 506.624C178.747 506.448 178.375 506.36 177.887 506.36H175.991V508.496ZM185.056 512.06C184.448 512.06 183.9 511.924 183.412 511.652C182.932 511.372 182.552 510.992 182.272 510.512C181.992 510.024 181.852 509.468 181.852 508.844C181.852 508.212 181.992 507.656 182.272 507.176C182.552 506.696 182.932 506.32 183.412 506.048C183.892 505.776 184.44 505.64 185.056 505.64C185.68 505.64 186.232 505.776 186.712 506.048C187.2 506.32 187.58 506.696 187.852 507.176C188.132 507.656 188.272 508.212 188.272 508.844C188.272 509.468 188.132 510.024 187.852 510.512C187.58 510.992 187.2 511.372 186.712 511.652C186.224 511.924 185.672 512.06 185.056 512.06ZM185.056 511.304C185.512 511.304 185.916 511.204 186.268 511.004C186.62 510.796 186.896 510.508 187.096 510.14C187.304 509.764 187.408 509.332 187.408 508.844C187.408 508.348 187.304 507.916 187.096 507.548C186.896 507.18 186.62 506.896 186.268 506.696C185.916 506.488 185.516 506.384 185.068 506.384C184.62 506.384 184.22 506.488 183.868 506.696C183.516 506.896 183.236 507.18 183.028 507.548C182.82 507.916 182.716 508.348 182.716 508.844C182.716 509.332 182.82 509.764 183.028 510.14C183.236 510.508 183.516 510.796 183.868 511.004C184.22 511.204 184.616 511.304 185.056 511.304ZM194.378 511.592V506.444H191.342L191.27 507.848C191.254 508.272 191.226 508.688 191.186 509.096C191.154 509.504 191.094 509.88 191.006 510.224C190.926 510.56 190.81 510.836 190.658 511.052C190.506 511.26 190.31 511.38 190.07 511.412L189.218 511.256C189.466 511.264 189.67 511.176 189.83 510.992C189.99 510.8 190.114 510.54 190.202 510.212C190.29 509.884 190.354 509.512 190.394 509.096C190.434 508.672 190.466 508.24 190.49 507.8L190.574 505.7H195.23V511.592H194.378ZM188.954 513.524V511.256H196.214V513.524H195.41V512H189.758V513.524H188.954ZM197.874 512V505.7H198.726V510.704L202.938 505.7H203.694V512H202.842V506.984L198.642 512H197.874ZM206.136 512V505.7H207L209.856 510.536H209.496L212.4 505.7H213.192V512H212.412V506.672L212.568 506.744L209.856 511.232H209.472L206.736 506.696L206.916 506.66V512H206.136ZM221.76 512V505.7H222.612V512H221.76ZM218.268 507.92C219.06 507.928 219.664 508.104 220.08 508.448C220.496 508.792 220.704 509.288 220.704 509.936C220.704 510.608 220.48 511.124 220.032 511.484C219.584 511.844 218.944 512.02 218.112 512.012L215.616 512V505.7H216.468V507.896L218.268 507.92ZM218.052 511.364C218.644 511.372 219.088 511.256 219.384 511.016C219.688 510.768 219.84 510.408 219.84 509.936C219.84 509.464 219.692 509.12 219.396 508.904C219.1 508.68 218.652 508.564 218.052 508.556L216.468 508.532V511.34L218.052 511.364ZM225.038 512V505.7H225.902L228.758 510.536H228.398L231.302 505.7H232.094V512H231.314V506.672L231.47 506.744L228.758 511.232H228.374L225.638 506.696L225.818 506.66V512H225.038ZM240.251 512.06C239.643 512.06 239.095 511.924 238.607 511.652C238.127 511.372 237.747 510.992 237.467 510.512C237.187 510.024 237.047 509.468 237.047 508.844C237.047 508.212 237.187 507.656 237.467 507.176C237.747 506.696 238.127 506.32 238.607 506.048C239.087 505.776 239.635 505.64 240.251 505.64C240.875 505.64 241.427 505.776 241.907 506.048C242.395 506.32 242.775 506.696 243.047 507.176C243.327 507.656 243.467 508.212 243.467 508.844C243.467 509.468 243.327 510.024 243.047 510.512C242.775 510.992 242.395 511.372 241.907 511.652C241.419 511.924 240.867 512.06 240.251 512.06ZM240.251 511.304C240.707 511.304 241.111 511.204 241.463 511.004C241.815 510.796 242.091 510.508 242.291 510.14C242.499 509.764 242.603 509.332 242.603 508.844C242.603 508.348 242.499 507.916 242.291 507.548C242.091 507.18 241.815 506.896 241.463 506.696C241.111 506.488 240.711 506.384 240.263 506.384C239.815 506.384 239.415 506.488 239.063 506.696C238.711 506.896 238.431 507.18 238.223 507.548C238.015 507.916 237.911 508.348 237.911 508.844C237.911 509.332 238.015 509.764 238.223 510.14C238.431 510.508 238.711 510.796 239.063 511.004C239.415 511.204 239.811 511.304 240.251 511.304ZM245.288 512V505.7H250.952V512H250.1V506.216L250.316 506.444H245.924L246.14 506.216V512H245.288ZM256.074 512.06C255.418 512.06 254.842 511.924 254.346 511.652C253.85 511.372 253.462 510.992 253.182 510.512C252.902 510.024 252.762 509.468 252.762 508.844C252.762 508.22 252.894 507.668 253.158 507.188C253.43 506.708 253.798 506.332 254.262 506.06C254.734 505.78 255.262 505.64 255.846 505.64C256.438 505.64 256.962 505.776 257.418 506.048C257.882 506.312 258.246 506.688 258.51 507.176C258.774 507.656 258.906 508.212 258.906 508.844C258.906 508.884 258.902 508.928 258.894 508.976C258.894 509.016 258.894 509.06 258.894 509.108H253.41V508.472H258.438L258.102 508.724C258.102 508.268 258.002 507.864 257.802 507.512C257.61 507.152 257.346 506.872 257.01 506.672C256.674 506.472 256.286 506.372 255.846 506.372C255.414 506.372 255.026 506.472 254.682 506.672C254.338 506.872 254.07 507.152 253.878 507.512C253.686 507.872 253.59 508.284 253.59 508.748V508.88C253.59 509.36 253.694 509.784 253.902 510.152C254.118 510.512 254.414 510.796 254.79 511.004C255.174 511.204 255.61 511.304 256.098 511.304C256.482 511.304 256.838 511.236 257.166 511.1C257.502 510.964 257.79 510.756 258.03 510.476L258.51 511.028C258.23 511.364 257.878 511.62 257.454 511.796C257.038 511.972 256.578 512.06 256.074 512.06ZM264.044 512.06C263.5 512.06 263.008 511.936 262.568 511.688C262.128 511.432 261.776 511.068 261.512 510.596C261.256 510.116 261.128 509.532 261.128 508.844C261.128 508.156 261.256 507.576 261.512 507.104C261.768 506.624 262.116 506.26 262.556 506.012C262.996 505.764 263.492 505.64 264.044 505.64C264.644 505.64 265.18 505.776 265.652 506.048C266.132 506.312 266.508 506.688 266.78 507.176C267.052 507.656 267.188 508.212 267.188 508.844C267.188 509.484 267.052 510.044 266.78 510.524C266.508 511.004 266.132 511.38 265.652 511.652C265.18 511.924 264.644 512.06 264.044 512.06ZM260.792 514.328V505.7H261.608V507.596L261.524 508.856L261.644 510.128V514.328H260.792ZM263.984 511.304C264.432 511.304 264.832 511.204 265.184 511.004C265.536 510.796 265.816 510.508 266.024 510.14C266.232 509.764 266.336 509.332 266.336 508.844C266.336 508.356 266.232 507.928 266.024 507.56C265.816 507.192 265.536 506.904 265.184 506.696C264.832 506.488 264.432 506.384 263.984 506.384C263.536 506.384 263.132 506.488 262.772 506.696C262.42 506.904 262.14 507.192 261.932 507.56C261.732 507.928 261.632 508.356 261.632 508.844C261.632 509.332 261.732 509.764 261.932 510.14C262.14 510.508 262.42 510.796 262.772 511.004C263.132 511.204 263.536 511.304 263.984 511.304ZM272.895 512V510.608L272.859 510.38V508.052C272.859 507.516 272.707 507.104 272.403 506.816C272.107 506.528 271.663 506.384 271.071 506.384C270.663 506.384 270.275 506.452 269.907 506.588C269.539 506.724 269.227 506.904 268.971 507.128L268.587 506.492C268.907 506.22 269.291 506.012 269.739 505.868C270.187 505.716 270.659 505.64 271.155 505.64C271.971 505.64 272.599 505.844 273.039 506.252C273.487 506.652 273.711 507.264 273.711 508.088V512H272.895ZM270.723 512.06C270.251 512.06 269.839 511.984 269.487 511.832C269.143 511.672 268.879 511.456 268.695 511.184C268.511 510.904 268.419 510.584 268.419 510.224C268.419 509.896 268.495 509.6 268.647 509.336C268.807 509.064 269.063 508.848 269.415 508.688C269.775 508.52 270.255 508.436 270.855 508.436H273.027V509.072H270.879C270.271 509.072 269.847 509.18 269.607 509.396C269.375 509.612 269.259 509.88 269.259 510.2C269.259 510.56 269.399 510.848 269.679 511.064C269.959 511.28 270.351 511.388 270.855 511.388C271.335 511.388 271.747 511.28 272.091 511.064C272.443 510.84 272.699 510.52 272.859 510.104L273.051 510.692C272.891 511.108 272.611 511.44 272.211 511.688C271.819 511.936 271.323 512.06 270.723 512.06ZM275.98 512V505.7H276.832V511.256H280.684V505.7H281.536V512H275.98ZM281.752 513.524V511.928L281.968 512H280.684V511.256H282.556V513.524H281.752ZM284.183 512V505.7H285.035V510.704L289.247 505.7H290.003V512H289.151V506.984L284.951 512H284.183ZM296.512 512V509.732L296.668 509.912H294.532C293.724 509.912 293.092 509.736 292.636 509.384C292.18 509.032 291.952 508.52 291.952 507.848C291.952 507.128 292.196 506.592 292.684 506.24C293.172 505.88 293.824 505.7 294.64 505.7H297.292V512H296.512ZM291.904 512L293.632 509.576H294.52L292.828 512H291.904ZM296.512 509.48V506.192L296.668 506.444H294.664C294.08 506.444 293.624 506.556 293.296 506.78C292.976 507.004 292.816 507.368 292.816 507.872C292.816 508.808 293.412 509.276 294.604 509.276H296.668L296.512 509.48ZM299.722 512V505.7H300.586L303.442 510.536H303.082L305.986 505.7H306.778V512H305.998V506.672L306.154 506.744L303.442 511.232H303.058L300.322 506.696L300.502 506.66V512H299.722Z" fill="#808594"/>
<path d="M138.736 378.257H133.067V374.155H149.137V378.257H143.468V395H138.736V378.257ZM165.602 395H152.008V374.155H165.602V377.964H156.739V382.637H164.605V386.182H156.739V391.191H165.602V395ZM172.252 395H167.242L173.395 384.292L167.931 374.155H173.453L175.943 379.165L176.456 380.996H176.603L177.145 379.165L179.415 374.155H184.308L178.888 384.292L184.791 395H179.239L176.485 389.873L175.768 387.837H175.606L174.918 389.873L172.252 395ZM203.204 395H198.473V386.27H191.925V395H187.193V374.155H191.925V382.153H198.473V374.155H203.204V395ZM211.026 395.146L207.716 391.851V377.305L211.026 373.994H220.855L224.166 377.305V391.851L220.855 395.146H211.026ZM219.42 390.078V379.077L218.189 377.847H213.692L212.462 379.077V390.078L213.692 391.309H218.189L219.42 390.078ZM228.019 390.415L228.766 389.653L230.392 374.155H243.824V395H239.078V378.257H234.493L232.97 392.422L230.23 395.146H226.568V390.415H228.019ZM251.632 395.146L248.321 391.851V377.305L251.632 373.994H261.461L264.771 377.305V391.851L261.461 395.146H251.632ZM260.025 390.078V379.077L258.795 377.847H254.298L253.067 379.077V390.078L254.298 391.309H258.795L260.025 390.078ZM269.283 374.155H283.141V378.257H274.015V395H269.283V374.155ZM296.632 383.354L291.432 395H286.129V374.155H290.86V387.983H291.021L291.651 385.815L296.837 374.155H302.14V395H297.408V381.172H297.262L296.632 383.354ZM317.462 383.354L312.262 395H306.959V374.155H311.69V387.983H311.852L312.481 385.815L317.667 374.155H322.97V395H318.238V381.172H318.092L317.462 383.354ZM175.176 437.493H182.339L184.316 439.471V444.129L182.339 446.115H178.735L178.015 445.57V450H175.176V437.493ZM181.478 443.25V440.35L180.739 439.611H178.015V443.988H180.739L181.478 443.25ZM195.408 450H192.297L191.594 447.407H188.175L187.472 450H184.756L188.324 437.493H191.611L195.408 450ZM189.836 440.297L189.563 441.773L188.623 445.175H191.163L190.231 441.773L189.977 440.297H189.836ZM195.584 448.198L197.482 446.432L198.915 447.855H201.833L202.483 447.214V445.553L201.71 444.779H199.293V442.547H201.49L202.141 441.896V440.279L201.49 439.629H199.064L197.816 440.877L195.874 439.11L197.535 437.396H203.002L204.988 439.383V442.239L203.705 443.522L205.322 445.14V448.11L203.345 450.088H197.438L195.584 448.198ZM207.766 437.493H214.929L216.906 439.471V444.129L214.929 446.115H211.325L210.604 445.57V450H207.766V437.493ZM214.067 443.25V440.35L213.329 439.611H210.604V443.988H213.329L214.067 443.25ZM227.998 450H224.887L224.184 447.407H220.765L220.062 450H217.346L220.914 437.493H224.201L227.998 450ZM222.426 440.297L222.153 441.773L221.213 445.175H223.753L222.821 441.773L222.566 440.297H222.426ZM238.8 443.936V448.022L236.822 450H229.439V437.493H237.895V439.726H232.278V442.494L232.999 441.958H236.822L238.8 443.936ZM232.278 447.768H235.302L235.952 447.117V444.832L235.302 444.182H232.278V447.768ZM243.036 450.088L241.05 448.11V439.383L243.036 437.396H248.934L250.92 439.383V448.11L248.934 450.088H243.036ZM248.072 447.047V440.446L247.334 439.708H244.636L243.897 440.446V447.047L244.636 447.785H247.334L248.072 447.047ZM255.49 439.954H252.089V437.493H261.73V439.954H258.329V450H255.49V439.954ZM273.438 450H270.203L267.83 444.832H266.292V450H263.453V437.493H266.292V442.529H267.918L270.036 437.493H272.919L270.256 443.391L273.438 450ZM284.266 450H281.154L280.451 447.407H277.032L276.329 450H273.613L277.182 437.493H280.469L284.266 450ZM278.693 440.297L278.421 441.773L277.48 445.175H280.021L279.089 441.773L278.834 440.297H278.693Z" fill="white"/>
<path d="M131.427 408.053H144.229L147.525 411.363V416.036L145.431 418.146L148.287 420.987V425.704L144.977 429H131.427V408.053ZM141.827 415.685V412.857L140.934 411.964H137.125V416.52H140.992L141.827 415.685ZM142.574 424.195V421.075L141.681 420.182H137.125V425.104H141.681L142.574 424.195ZM157.721 424.195H166.393V429H152.022V408.053H157.721V424.195ZM172.237 429.146L168.941 425.851V411.217L172.237 407.906H182.887L186.197 411.217V425.851L182.887 429.146H172.237ZM180.499 423.902V413.165L179.591 412.257H175.548L174.64 413.165V423.902L175.548 424.796H179.591L180.499 423.902ZM204.039 429.146H193.39L190.094 425.851V411.217L193.39 407.906H203.863L206.896 411.026L202.779 414.513L200.567 412.257H196.7L195.792 413.165V423.902L196.7 424.796H200.743L203.351 422.306L207.188 425.997L204.039 429.146ZM227.521 429H221.017L217.413 420.665H215.436V429H209.737V408.053H215.436V416.314H217.589L220.987 408.053H226.656L222.188 417.809L227.521 429ZM242.799 429.146H232.149L228.854 425.851V411.217L232.149 407.906H242.623L245.655 411.026L241.539 414.513L239.327 412.257H235.46L234.552 413.165V423.902L235.46 424.796H239.503L242.11 422.306L245.948 425.997L242.799 429.146ZM265.387 429H259.688V420.606H254.195V429H248.497V408.053H254.195V415.802H259.688V408.053H265.387V429ZM286.378 429H280.079L279.112 425.045H274.015L273.062 429H267.628L273.385 408.053H280.138L286.378 429ZM276.505 413.282L276.021 415.86L274.762 420.782H278.453L277.223 415.86L276.812 413.282H276.505ZM299.459 429H287.872V424.649H290.816V412.403H287.872V408.053H299.459V412.403H296.515V424.649H299.459V429ZM320.143 408.053V429H312.643L308.893 418.321L308.38 415.802H308.102V429H303.224V408.053H310.724L314.474 418.746L314.972 421.266H315.25V408.053H320.143Z" fill="url(#paint2_radial_609_28532)"/>
<defs>
<filter id="filter0_b_609_28532" x="61.457" y="70" width="335.27" height="500" filterUnits="userSpaceOnUse" color-interpolation-filters="sRGB">
<feFlood flood-opacity="0" result="BackgroundImageFix"/>
<feGaussianBlur in="BackgroundImageFix" stdDeviation="4"/>
<feComposite in2="SourceAlpha" operator="in" result="effect1_backgroundBlur_609_28532"/>
<feBlend mode="normal" in="SourceGraphic" in2="effect1_backgroundBlur_609_28532" result="shape"/>
</filter>
<filter id="filter1_f_609_28532" x="0" y="0.586426" width="456.624" height="456.624" filterUnits="userSpaceOnUse" color-interpolation-filters="sRGB">
<feFlood flood-opacity="0" result="BackgroundImageFix"/>
<feBlend mode="normal" in="SourceGraphic" in2="BackgroundImageFix" result="shape"/>
<feGaussianBlur stdDeviation="45" result="effect1_foregroundBlur_609_28532"/>
</filter>
<filter id="filter2_b_609_28532" x="61" y="70" width="335.27" height="500" filterUnits="userSpaceOnUse" color-interpolation-filters="sRGB">
<feFlood flood-opacity="0" result="BackgroundImageFix"/>
<feGaussianBlur in="BackgroundImageFix" stdDeviation="4"/>
<feComposite in2="SourceAlpha" operator="in" result="effect1_backgroundBlur_609_28532"/>
<feBlend mode="normal" in="SourceGraphic" in2="effect1_backgroundBlur_609_28532" result="shape"/>
</filter>
<filter id="filter3_f_609_28532" x="149.43" y="141.569" width="160" height="160" filterUnits="userSpaceOnUse" color-interpolation-filters="sRGB">
<feFlood flood-opacity="0" result="BackgroundImageFix"/>
<feBlend mode="normal" in="SourceGraphic" in2="BackgroundImageFix" result="shape"/>
<feGaussianBlur stdDeviation="2.5" result="effect1_foregroundBlur_609_28532"/>
</filter>
<filter id="filter4_f_609_28532" x="127.699" y="120.3" width="203" height="203" filterUnits="userSpaceOnUse" color-interpolation-filters="sRGB">
<feFlood flood-opacity="0" result="BackgroundImageFix"/>
<feBlend mode="normal" in="SourceGraphic" in2="BackgroundImageFix" result="shape"/>
<feGaussianBlur stdDeviation="2" result="effect1_foregroundBlur_609_28532"/>
</filter>
<filter id="filter5_f_609_28532" x="105" y="99" width="247" height="247" filterUnits="userSpaceOnUse" color-interpolation-filters="sRGB">
<feFlood flood-opacity="0" result="BackgroundImageFix"/>
<feBlend mode="normal" in="SourceGraphic" in2="BackgroundImageFix" result="shape"/>
<feGaussianBlur stdDeviation="3" result="effect1_foregroundBlur_609_28532"/>
</filter>
<radialGradient id="paint0_radial_609_28532" cx="0" cy="0" r="1" gradientUnits="userSpaceOnUse" gradientTransform="translate(228.312 228.898) rotate(90) scale(138.312)">
<stop stop-color="#1BDC77"/>
<stop offset="1" stop-color="#008C93"/>
</radialGradient>
<linearGradient id="paint1_linear_609_28532" x1="228.635" y1="78" x2="228.635" y2="585.803" gradientUnits="userSpaceOnUse">
<stop stop-color="white"/>
<stop offset="1" stop-color="white" stop-opacity="0"/>
</linearGradient>
<radialGradient id="paint2_radial_609_28532" cx="0" cy="0" r="1" gradientUnits="userSpaceOnUse" gradientTransform="translate(217.972 410.104) rotate(-180) scale(198.505 695.059)">
<stop stop-color="#008C93"/>
<stop offset="1" stop-color="#1BDC77"/>
</radialGradient>
</defs>
</svg>
