<svg width="394" height="454" viewBox="0 0 394 454" fill="none" xmlns="http://www.w3.org/2000/svg">
<g filter="url(#filter0_b_609_28617)">
<rect x="74.3518" y="81" width="245.815" height="372.646" rx="50" fill="#0E121E"/>
</g>
<g opacity="0.5" filter="url(#filter1_f_609_28617)">
<circle cx="196.815" cy="197.181" r="106.49" fill="url(#paint0_radial_609_28617)"/>
</g>
<g opacity="0.3" filter="url(#filter2_b_609_28617)">
<rect x="74" y="81" width="245.815" height="372.646" rx="50" fill="black"/>
</g>
<path d="M125.921 381.35V388H125.228V381.958H121.019V388H120.326V381.35H125.921ZM130.065 388.048C129.584 388.048 129.15 387.94 128.764 387.725C128.377 387.503 128.073 387.199 127.852 386.813C127.63 386.427 127.519 385.99 127.519 385.502C127.519 385.014 127.63 384.577 127.852 384.191C128.073 383.805 128.377 383.504 128.764 383.288C129.15 383.073 129.584 382.965 130.065 382.965C130.547 382.965 130.98 383.073 131.367 383.288C131.753 383.504 132.054 383.805 132.269 384.191C132.491 384.577 132.602 385.014 132.602 385.502C132.602 385.99 132.491 386.427 132.269 386.813C132.054 387.199 131.753 387.503 131.367 387.725C130.98 387.94 130.547 388.048 130.065 388.048ZM130.065 387.449C130.42 387.449 130.737 387.37 131.015 387.212C131.3 387.047 131.522 386.816 131.68 386.518C131.839 386.221 131.918 385.882 131.918 385.502C131.918 385.122 131.839 384.783 131.68 384.485C131.522 384.188 131.3 383.96 131.015 383.801C130.737 383.637 130.42 383.554 130.065 383.554C129.711 383.554 129.391 383.637 129.106 383.801C128.827 383.96 128.605 384.188 128.441 384.485C128.282 384.783 128.203 385.122 128.203 385.502C128.203 385.882 128.282 386.221 128.441 386.518C128.605 386.816 128.827 387.047 129.106 387.212C129.391 387.37 129.711 387.449 130.065 387.449ZM138.1 383.003V388H137.426V383.602H135.032L134.965 384.837C134.915 385.876 134.794 386.674 134.604 387.231C134.414 387.788 134.076 388.067 133.588 388.067C133.455 388.067 133.293 388.042 133.103 387.991L133.151 387.411C133.265 387.437 133.344 387.449 133.388 387.449C133.648 387.449 133.844 387.329 133.977 387.088C134.11 386.848 134.199 386.55 134.243 386.195C134.288 385.841 134.326 385.372 134.357 384.789L134.443 383.003H138.1ZM140.018 383.003H140.692V385.217H143.837V383.003H144.511V388H143.837V385.796H140.692V388H140.018V383.003ZM148.49 388.048C148.009 388.048 147.575 387.94 147.188 387.725C146.802 387.503 146.498 387.199 146.276 386.813C146.055 386.427 145.944 385.99 145.944 385.502C145.944 385.014 146.055 384.577 146.276 384.191C146.498 383.805 146.802 383.504 147.188 383.288C147.575 383.073 148.009 382.965 148.49 382.965C148.971 382.965 149.405 383.073 149.791 383.288C150.178 383.504 150.479 383.805 150.694 384.191C150.916 384.577 151.026 385.014 151.026 385.502C151.026 385.99 150.916 386.427 150.694 386.813C150.479 387.199 150.178 387.503 149.791 387.725C149.405 387.94 148.971 388.048 148.49 388.048ZM148.49 387.449C148.845 387.449 149.161 387.37 149.44 387.212C149.725 387.047 149.947 386.816 150.105 386.518C150.263 386.221 150.342 385.882 150.342 385.502C150.342 385.122 150.263 384.783 150.105 384.485C149.947 384.188 149.725 383.96 149.44 383.801C149.161 383.637 148.845 383.554 148.49 383.554C148.135 383.554 147.815 383.637 147.53 383.801C147.252 383.96 147.03 384.188 146.865 384.485C146.707 384.783 146.628 385.122 146.628 385.502C146.628 385.882 146.707 386.221 146.865 386.518C147.03 386.816 147.252 387.047 147.53 387.212C147.815 387.37 148.135 387.449 148.49 387.449ZM157.674 387.411V389.254H157.038V388H152.468V383.003H153.143V387.411H156.192V383.003H156.867V387.411H157.674ZM163.332 385.711H159.152C159.19 386.23 159.39 386.651 159.751 386.974C160.112 387.291 160.568 387.449 161.119 387.449C161.429 387.449 161.714 387.396 161.974 387.288C162.233 387.174 162.458 387.009 162.648 386.794L163.028 387.231C162.807 387.497 162.528 387.7 162.192 387.839C161.863 387.978 161.499 388.048 161.1 388.048C160.587 388.048 160.131 387.94 159.732 387.725C159.339 387.503 159.032 387.199 158.81 386.813C158.589 386.427 158.478 385.99 158.478 385.502C158.478 385.014 158.582 384.577 158.791 384.191C159.007 383.805 159.298 383.504 159.665 383.288C160.039 383.073 160.457 382.965 160.919 382.965C161.382 382.965 161.796 383.073 162.164 383.288C162.531 383.504 162.819 383.805 163.028 384.191C163.237 384.571 163.342 385.008 163.342 385.502L163.332 385.711ZM160.919 383.545C160.438 383.545 160.033 383.7 159.703 384.01C159.38 384.314 159.197 384.713 159.152 385.207H162.696C162.651 384.713 162.465 384.314 162.135 384.01C161.812 383.7 161.407 383.545 160.919 383.545ZM164.835 383.003H165.509V385.217H168.654V383.003H169.328V388H168.654V385.796H165.509V388H164.835V383.003ZM171.245 383.003H171.92V385.217H175.064V383.003H175.739V388H175.064V385.796H171.92V388H171.245V383.003ZM179.756 384.77C180.383 384.777 180.861 384.916 181.19 385.188C181.519 385.461 181.684 385.853 181.684 386.366C181.684 386.898 181.507 387.307 181.152 387.592C180.797 387.877 180.291 388.016 179.632 388.01L177.656 388V383.003H178.331V384.751L179.756 384.77ZM182.52 383.003H183.195V388H182.52V383.003ZM179.594 387.497C180.056 387.503 180.405 387.411 180.639 387.221C180.88 387.025 181 386.74 181 386.366C181 385.999 180.883 385.727 180.649 385.549C180.414 385.372 180.063 385.28 179.594 385.274L178.331 385.255V387.478L179.594 387.497ZM185.115 383.003H185.79V386.974L189.124 383.003H189.723V388H189.048V384.029L185.723 388H185.115V383.003ZM187.386 382.281C186.955 382.281 186.613 382.174 186.36 381.958C186.106 381.743 185.976 381.439 185.97 381.046H186.455C186.461 381.293 186.55 381.493 186.721 381.645C186.892 381.791 187.113 381.863 187.386 381.863C187.658 381.863 187.88 381.791 188.051 381.645C188.228 381.493 188.32 381.293 188.326 381.046H188.811C188.804 381.439 188.671 381.743 188.412 381.958C188.158 382.174 187.816 382.281 187.386 382.281ZM196.099 388.057C195.605 388.057 195.13 387.978 194.674 387.82C194.224 387.662 193.876 387.453 193.629 387.193L193.904 386.651C194.145 386.892 194.465 387.088 194.864 387.24C195.263 387.386 195.675 387.459 196.099 387.459C196.694 387.459 197.141 387.351 197.438 387.136C197.736 386.914 197.885 386.629 197.885 386.281C197.885 386.015 197.803 385.803 197.638 385.644C197.48 385.486 197.283 385.366 197.049 385.283C196.815 385.195 196.488 385.1 196.07 384.998C195.57 384.872 195.171 384.751 194.873 384.637C194.576 384.517 194.319 384.337 194.104 384.096C193.895 383.855 193.79 383.529 193.79 383.117C193.79 382.782 193.879 382.478 194.056 382.205C194.234 381.927 194.506 381.705 194.873 381.54C195.241 381.376 195.697 381.293 196.241 381.293C196.621 381.293 196.992 381.347 197.353 381.455C197.72 381.556 198.037 381.699 198.303 381.882L198.065 382.443C197.787 382.259 197.489 382.123 197.172 382.034C196.856 381.939 196.545 381.892 196.241 381.892C195.659 381.892 195.219 382.006 194.921 382.234C194.63 382.456 194.484 382.744 194.484 383.098C194.484 383.364 194.563 383.58 194.721 383.744C194.886 383.903 195.089 384.026 195.329 384.115C195.576 384.197 195.906 384.289 196.317 384.39C196.805 384.511 197.198 384.631 197.495 384.751C197.799 384.865 198.056 385.043 198.265 385.283C198.474 385.518 198.578 385.838 198.578 386.243C198.578 386.579 198.487 386.886 198.303 387.164C198.126 387.437 197.85 387.655 197.476 387.82C197.103 387.978 196.644 388.057 196.099 388.057ZM204.813 387.392V388H200.11V381.35H204.67V381.958H200.813V384.324H204.252V384.922H200.813V387.392H204.813ZM209.335 388.057C208.676 388.057 208.078 387.912 207.539 387.62C207.007 387.323 206.589 386.917 206.285 386.404C205.988 385.891 205.839 385.315 205.839 384.675C205.839 384.036 205.988 383.459 206.285 382.946C206.589 382.433 207.007 382.031 207.539 381.74C208.078 381.442 208.676 381.293 209.335 381.293C209.994 381.293 210.586 381.439 211.111 381.73C211.643 382.022 212.061 382.427 212.365 382.946C212.669 383.459 212.821 384.036 212.821 384.675C212.821 385.315 212.669 385.895 212.365 386.414C212.061 386.927 211.643 387.329 211.111 387.62C210.586 387.912 209.994 388.057 209.335 388.057ZM209.335 387.43C209.861 387.43 210.336 387.313 210.76 387.079C211.184 386.838 211.517 386.509 211.757 386.091C211.998 385.667 212.118 385.195 212.118 384.675C212.118 384.156 211.998 383.687 211.757 383.269C211.517 382.845 211.184 382.516 210.76 382.281C210.336 382.041 209.861 381.92 209.335 381.92C208.809 381.92 208.331 382.041 207.9 382.281C207.476 382.516 207.14 382.845 206.893 383.269C206.653 383.687 206.532 384.156 206.532 384.675C206.532 385.195 206.653 385.667 206.893 386.091C207.14 386.509 207.476 386.838 207.9 387.079C208.331 387.313 208.809 387.43 209.335 387.43ZM213.958 385.131H216.447V385.72H213.958V385.131ZM219.695 382.965C220.347 382.965 220.848 383.13 221.196 383.459C221.544 383.782 221.718 384.264 221.718 384.903V388H221.072V387.221C220.92 387.481 220.696 387.684 220.398 387.829C220.107 387.975 219.758 388.048 219.353 388.048C218.796 388.048 218.352 387.915 218.023 387.649C217.694 387.383 217.529 387.031 217.529 386.594C217.529 386.17 217.681 385.828 217.985 385.568C218.295 385.309 218.786 385.179 219.457 385.179H221.044V384.875C221.044 384.444 220.924 384.118 220.683 383.896C220.442 383.668 220.091 383.554 219.628 383.554C219.312 383.554 219.008 383.608 218.716 383.716C218.425 383.817 218.175 383.96 217.966 384.143L217.662 383.64C217.915 383.425 218.219 383.26 218.574 383.146C218.929 383.026 219.302 382.965 219.695 382.965ZM219.457 387.516C219.837 387.516 220.164 387.43 220.436 387.259C220.708 387.082 220.911 386.829 221.044 386.499V385.682H219.476C218.621 385.682 218.194 385.98 218.194 386.575C218.194 386.867 218.305 387.098 218.526 387.269C218.748 387.434 219.058 387.516 219.457 387.516ZM227.76 383.003L225.262 388.599C225.059 389.068 224.825 389.4 224.559 389.596C224.293 389.793 223.973 389.891 223.599 389.891C223.359 389.891 223.134 389.853 222.925 389.777C222.716 389.701 222.535 389.587 222.383 389.435L222.697 388.931C222.95 389.185 223.254 389.311 223.609 389.311C223.837 389.311 224.03 389.248 224.188 389.121C224.353 388.995 224.505 388.779 224.644 388.475L224.863 387.991L222.63 383.003H223.333L225.214 387.25L227.095 383.003H227.76ZM233.462 387.411V389.207H232.826V388H228.351V389.207H227.715V387.411H228C228.335 387.392 228.563 387.145 228.684 386.67C228.804 386.195 228.886 385.53 228.931 384.675L228.997 383.003H232.683V387.411H233.462ZM229.548 384.713C229.516 385.423 229.456 386.009 229.368 386.471C229.279 386.927 229.121 387.24 228.893 387.411H232.009V383.602H229.605L229.548 384.713ZM234.777 383.003H235.451V386.974L238.786 383.003H239.384V388H238.71V384.029L235.385 388H234.777V383.003ZM244.832 383.602H242.942V388H242.267V383.602H240.377V383.003H244.832V383.602ZM250.384 388.048C249.89 388.048 249.446 387.94 249.054 387.725C248.667 387.51 248.363 387.209 248.142 386.822C247.92 386.43 247.809 385.99 247.809 385.502C247.809 385.014 247.92 384.577 248.142 384.191C248.363 383.805 248.667 383.504 249.054 383.288C249.446 383.073 249.89 382.965 250.384 382.965C250.814 382.965 251.198 383.051 251.533 383.222C251.875 383.387 252.144 383.63 252.341 383.953L251.837 384.295C251.673 384.048 251.464 383.865 251.21 383.744C250.957 383.618 250.681 383.554 250.384 383.554C250.023 383.554 249.697 383.637 249.405 383.801C249.12 383.96 248.895 384.188 248.731 384.485C248.572 384.783 248.493 385.122 248.493 385.502C248.493 385.888 248.572 386.23 248.731 386.528C248.895 386.819 249.12 387.047 249.405 387.212C249.697 387.37 250.023 387.449 250.384 387.449C250.681 387.449 250.957 387.389 251.21 387.269C251.464 387.149 251.673 386.965 251.837 386.718L252.341 387.06C252.144 387.383 251.875 387.63 251.533 387.801C251.191 387.966 250.808 388.048 250.384 388.048ZM255.366 382.965C256.019 382.965 256.519 383.13 256.867 383.459C257.216 383.782 257.39 384.264 257.39 384.903V388H256.744V387.221C256.592 387.481 256.367 387.684 256.069 387.829C255.778 387.975 255.43 388.048 255.024 388.048C254.467 388.048 254.024 387.915 253.694 387.649C253.365 387.383 253.2 387.031 253.2 386.594C253.2 386.17 253.352 385.828 253.656 385.568C253.967 385.309 254.457 385.179 255.129 385.179H256.715V384.875C256.715 384.444 256.595 384.118 256.354 383.896C256.114 383.668 255.762 383.554 255.3 383.554C254.983 383.554 254.679 383.608 254.388 383.716C254.096 383.817 253.846 383.96 253.637 384.143L253.333 383.64C253.587 383.425 253.891 383.26 254.245 383.146C254.6 383.026 254.974 382.965 255.366 382.965ZM255.129 387.516C255.509 387.516 255.835 387.43 256.107 387.259C256.38 387.082 256.582 386.829 256.715 386.499V385.682H255.148C254.293 385.682 253.865 385.98 253.865 386.575C253.865 386.867 253.976 387.098 254.198 387.269C254.419 387.434 254.73 387.516 255.129 387.516ZM259.185 383.003H259.86V386.974L263.194 383.003H263.793V388H263.118V384.029L259.793 388H259.185V383.003ZM261.456 382.281C261.025 382.281 260.683 382.174 260.43 381.958C260.176 381.743 260.047 381.439 260.04 381.046H260.525C260.531 381.293 260.62 381.493 260.791 381.645C260.962 381.791 261.183 381.863 261.456 381.863C261.728 381.863 261.95 381.791 262.121 381.645C262.298 381.493 262.39 381.293 262.396 381.046H262.881C262.874 381.439 262.741 381.743 262.482 381.958C262.228 382.174 261.886 382.281 261.456 382.281ZM269.241 383.602H267.35V388H266.676V383.602H264.785V383.003H269.241V383.602ZM271.936 382.965C272.588 382.965 273.088 383.13 273.437 383.459C273.785 383.782 273.959 384.264 273.959 384.903V388H273.313V387.221C273.161 387.481 272.936 387.684 272.639 387.829C272.347 387.975 271.999 388.048 271.594 388.048C271.036 388.048 270.593 387.915 270.264 387.649C269.934 387.383 269.77 387.031 269.77 386.594C269.77 386.17 269.922 385.828 270.226 385.568C270.536 385.309 271.027 385.179 271.698 385.179H273.285V384.875C273.285 384.444 273.164 384.118 272.924 383.896C272.683 383.668 272.331 383.554 271.869 383.554C271.552 383.554 271.248 383.608 270.957 383.716C270.666 383.817 270.416 383.96 270.207 384.143L269.903 383.64C270.156 383.425 270.46 383.26 270.815 383.146C271.169 383.026 271.543 382.965 271.936 382.965ZM271.698 387.516C272.078 387.516 272.404 387.43 272.677 387.259C272.949 387.082 273.152 386.829 273.285 386.499V385.682H271.717C270.862 385.682 270.435 385.98 270.435 386.575C270.435 386.867 270.545 387.098 270.767 387.269C270.989 387.434 271.299 387.516 271.698 387.516ZM134.297 395.003V400H133.622V395.602H130.487V400H129.813V395.003H134.297ZM140.584 397.711H136.404C136.442 398.23 136.642 398.651 137.003 398.974C137.364 399.291 137.82 399.449 138.371 399.449C138.681 399.449 138.966 399.396 139.226 399.288C139.485 399.174 139.71 399.009 139.9 398.794L140.28 399.231C140.058 399.497 139.78 399.7 139.444 399.839C139.115 399.978 138.751 400.048 138.352 400.048C137.839 400.048 137.383 399.94 136.984 399.725C136.591 399.503 136.284 399.199 136.062 398.813C135.84 398.427 135.73 397.99 135.73 397.502C135.73 397.014 135.834 396.577 136.043 396.191C136.258 395.805 136.55 395.504 136.917 395.288C137.291 395.073 137.709 394.965 138.171 394.965C138.633 394.965 139.048 395.073 139.416 395.288C139.783 395.504 140.071 395.805 140.28 396.191C140.489 396.571 140.594 397.008 140.594 397.502L140.584 397.711ZM138.171 395.545C137.69 395.545 137.284 395.7 136.955 396.01C136.632 396.314 136.448 396.713 136.404 397.207H139.948C139.903 396.713 139.716 396.314 139.387 396.01C139.064 395.7 138.659 395.545 138.171 395.545ZM144.661 394.965C145.13 394.965 145.554 395.073 145.934 395.288C146.314 395.497 146.612 395.795 146.827 396.181C147.043 396.568 147.15 397.008 147.15 397.502C147.15 398.002 147.043 398.446 146.827 398.832C146.612 399.218 146.314 399.519 145.934 399.734C145.561 399.943 145.136 400.048 144.661 400.048C144.256 400.048 143.889 399.966 143.559 399.801C143.236 399.63 142.97 399.383 142.761 399.06V401.843H142.087V395.003H142.733V395.991C142.935 395.662 143.201 395.409 143.531 395.231C143.866 395.054 144.243 394.965 144.661 394.965ZM144.614 399.449C144.962 399.449 145.279 399.37 145.564 399.212C145.849 399.047 146.07 398.816 146.229 398.518C146.393 398.221 146.476 397.882 146.476 397.502C146.476 397.122 146.393 396.786 146.229 396.495C146.07 396.197 145.849 395.966 145.564 395.801C145.279 395.637 144.962 395.554 144.614 395.554C144.259 395.554 143.939 395.637 143.654 395.801C143.376 395.966 143.154 396.197 142.989 396.495C142.831 396.786 142.752 397.122 142.752 397.502C142.752 397.882 142.831 398.221 142.989 398.518C143.154 398.816 143.376 399.047 143.654 399.212C143.939 399.37 144.259 399.449 144.614 399.449ZM152.969 397.711H148.789C148.827 398.23 149.027 398.651 149.388 398.974C149.749 399.291 150.205 399.449 150.756 399.449C151.066 399.449 151.351 399.396 151.611 399.288C151.871 399.174 152.095 399.009 152.285 398.794L152.665 399.231C152.444 399.497 152.165 399.7 151.829 399.839C151.5 399.978 151.136 400.048 150.737 400.048C150.224 400.048 149.768 399.94 149.369 399.725C148.976 399.503 148.669 399.199 148.447 398.813C148.226 398.427 148.115 397.99 148.115 397.502C148.115 397.014 148.219 396.577 148.428 396.191C148.644 395.805 148.935 395.504 149.302 395.288C149.676 395.073 150.094 394.965 150.556 394.965C151.019 394.965 151.434 395.073 151.801 395.288C152.168 395.504 152.456 395.805 152.665 396.191C152.874 396.571 152.979 397.008 152.979 397.502L152.969 397.711ZM150.556 395.545C150.075 395.545 149.67 395.7 149.34 396.01C149.017 396.314 148.834 396.713 148.789 397.207H152.333C152.289 396.713 152.102 396.314 151.772 396.01C151.449 395.7 151.044 395.545 150.556 395.545ZM159.243 399.411V401.207H158.607V400H154.132V401.207H153.496V399.411H153.781C154.117 399.392 154.345 399.145 154.465 398.67C154.585 398.195 154.668 397.53 154.712 396.675L154.778 395.003H158.464V399.411H159.243ZM155.329 396.713C155.298 397.423 155.238 398.009 155.149 398.471C155.06 398.927 154.902 399.24 154.674 399.411H157.79V395.602H155.386L155.329 396.713ZM163.044 395.003H163.719V397.217H166.863V395.003H167.538V400H166.863V397.796H163.719V400H163.044V395.003ZM171.174 394.965C171.827 394.965 172.327 395.13 172.675 395.459C173.024 395.782 173.198 396.264 173.198 396.903V400H172.552V399.221C172.4 399.481 172.175 399.684 171.877 399.829C171.586 399.975 171.238 400.048 170.832 400.048C170.275 400.048 169.832 399.915 169.502 399.649C169.173 399.383 169.008 399.031 169.008 398.594C169.008 398.17 169.16 397.828 169.464 397.568C169.775 397.309 170.266 397.179 170.937 397.179H172.523V396.875C172.523 396.444 172.403 396.118 172.162 395.896C171.922 395.668 171.57 395.554 171.108 395.554C170.791 395.554 170.487 395.608 170.196 395.716C169.905 395.817 169.654 395.96 169.445 396.143L169.141 395.64C169.395 395.425 169.699 395.26 170.053 395.146C170.408 395.026 170.782 394.965 171.174 394.965ZM170.937 399.516C171.317 399.516 171.643 399.43 171.915 399.259C172.188 399.082 172.39 398.829 172.523 398.499V397.682H170.956C170.101 397.682 169.673 397.98 169.673 398.575C169.673 398.867 169.784 399.098 170.006 399.269C170.228 399.434 170.538 399.516 170.937 399.516ZM178.765 395.003V400H178.09V397.92C177.514 398.173 176.947 398.3 176.39 398.3C175.788 398.3 175.32 398.164 174.984 397.891C174.648 397.613 174.48 397.198 174.48 396.647V395.003H175.155V396.609C175.155 396.983 175.275 397.268 175.516 397.464C175.757 397.654 176.089 397.749 176.513 397.749C176.982 397.749 177.508 397.625 178.09 397.378V395.003H178.765ZM182.4 394.965C183.052 394.965 183.553 395.13 183.901 395.459C184.249 395.782 184.423 396.264 184.423 396.903V400H183.777V399.221C183.625 399.481 183.401 399.684 183.103 399.829C182.812 399.975 182.463 400.048 182.058 400.048C181.501 400.048 181.057 399.915 180.728 399.649C180.399 399.383 180.234 399.031 180.234 398.594C180.234 398.17 180.386 397.828 180.69 397.568C181 397.309 181.491 397.179 182.162 397.179H183.749V396.875C183.749 396.444 183.629 396.118 183.388 395.896C183.147 395.668 182.796 395.554 182.333 395.554C182.017 395.554 181.713 395.608 181.421 395.716C181.13 395.817 180.88 395.96 180.671 396.143L180.367 395.64C180.62 395.425 180.924 395.26 181.279 395.146C181.634 395.026 182.007 394.965 182.4 394.965ZM182.162 399.516C182.542 399.516 182.869 399.43 183.141 399.259C183.413 399.082 183.616 398.829 183.749 398.499V397.682H182.181C181.326 397.682 180.899 397.98 180.899 398.575C180.899 398.867 181.01 399.098 181.231 399.269C181.453 399.434 181.763 399.516 182.162 399.516ZM190.304 395.003V400H189.63V395.602H187.236L187.169 396.837C187.118 397.876 186.998 398.674 186.808 399.231C186.618 399.788 186.279 400.067 185.792 400.067C185.659 400.067 185.497 400.042 185.307 399.991L185.355 399.411C185.469 399.437 185.548 399.449 185.592 399.449C185.852 399.449 186.048 399.329 186.181 399.088C186.314 398.848 186.403 398.55 186.447 398.195C186.491 397.841 186.529 397.372 186.561 396.789L186.647 395.003H190.304ZM194.283 400.048C193.802 400.048 193.368 399.94 192.981 399.725C192.595 399.503 192.291 399.199 192.069 398.813C191.848 398.427 191.737 397.99 191.737 397.502C191.737 397.014 191.848 396.577 192.069 396.191C192.291 395.805 192.595 395.504 192.981 395.288C193.368 395.073 193.802 394.965 194.283 394.965C194.764 394.965 195.198 395.073 195.584 395.288C195.971 395.504 196.272 395.805 196.487 396.191C196.709 396.577 196.819 397.014 196.819 397.502C196.819 397.99 196.709 398.427 196.487 398.813C196.272 399.199 195.971 399.503 195.584 399.725C195.198 399.94 194.764 400.048 194.283 400.048ZM194.283 399.449C194.638 399.449 194.954 399.37 195.233 399.212C195.518 399.047 195.74 398.816 195.898 398.518C196.056 398.221 196.135 397.882 196.135 397.502C196.135 397.122 196.056 396.783 195.898 396.485C195.74 396.188 195.518 395.96 195.233 395.801C194.954 395.637 194.638 395.554 194.283 395.554C193.928 395.554 193.608 395.637 193.323 395.801C193.045 395.96 192.823 396.188 192.658 396.485C192.5 396.783 192.421 397.122 192.421 397.502C192.421 397.882 192.5 398.221 192.658 398.518C192.823 398.816 193.045 399.047 193.323 399.212C193.608 399.37 193.928 399.449 194.283 399.449ZM203.847 395.003V400H203.23V396.048L201.206 399.392H200.902L198.879 396.039V400H198.261V395.003H198.945L201.064 398.604L203.22 395.003H203.847ZM212.737 395.003V400H212.062V395.602H208.927V400H208.253V395.003H212.737ZM216.716 400.048C216.234 400.048 215.8 399.94 215.414 399.725C215.028 399.503 214.724 399.199 214.502 398.813C214.28 398.427 214.17 397.99 214.17 397.502C214.17 397.014 214.28 396.577 214.502 396.191C214.724 395.805 215.028 395.504 215.414 395.288C215.8 395.073 216.234 394.965 216.716 394.965C217.197 394.965 217.631 395.073 218.017 395.288C218.403 395.504 218.704 395.805 218.92 396.191C219.141 396.577 219.252 397.014 219.252 397.502C219.252 397.99 219.141 398.427 218.92 398.813C218.704 399.199 218.403 399.503 218.017 399.725C217.631 399.94 217.197 400.048 216.716 400.048ZM216.716 399.449C217.07 399.449 217.387 399.37 217.666 399.212C217.951 399.047 218.172 398.816 218.331 398.518C218.489 398.221 218.568 397.882 218.568 397.502C218.568 397.122 218.489 396.783 218.331 396.485C218.172 396.188 217.951 395.96 217.666 395.801C217.387 395.637 217.07 395.554 216.716 395.554C216.361 395.554 216.041 395.637 215.756 395.801C215.477 395.96 215.256 396.188 215.091 396.485C214.933 396.783 214.854 397.122 214.854 397.502C214.854 397.882 214.933 398.221 215.091 398.518C215.256 398.816 215.477 399.047 215.756 399.212C216.041 399.37 216.361 399.449 216.716 399.449ZM220.694 395.003H221.368V398.974L224.703 395.003H225.301V400H224.627V396.029L221.302 400H220.694V395.003ZM229.324 400.048C228.83 400.048 228.387 399.94 227.994 399.725C227.608 399.51 227.304 399.209 227.082 398.822C226.86 398.43 226.75 397.99 226.75 397.502C226.75 397.014 226.86 396.577 227.082 396.191C227.304 395.805 227.608 395.504 227.994 395.288C228.387 395.073 228.83 394.965 229.324 394.965C229.755 394.965 230.138 395.051 230.474 395.222C230.816 395.387 231.085 395.63 231.281 395.953L230.778 396.295C230.613 396.048 230.404 395.865 230.151 395.744C229.897 395.618 229.622 395.554 229.324 395.554C228.963 395.554 228.637 395.637 228.346 395.801C228.061 395.96 227.836 396.188 227.671 396.485C227.513 396.783 227.434 397.122 227.434 397.502C227.434 397.888 227.513 398.23 227.671 398.528C227.836 398.819 228.061 399.047 228.346 399.212C228.637 399.37 228.963 399.449 229.324 399.449C229.622 399.449 229.897 399.389 230.151 399.269C230.404 399.149 230.613 398.965 230.778 398.718L231.281 399.06C231.085 399.383 230.816 399.63 230.474 399.801C230.132 399.966 229.748 400.048 229.324 400.048ZM234.402 397.777H233.262V400H232.587V395.003H233.262V397.198H234.411L236.169 395.003H236.9L234.934 397.426L237.043 400H236.245L234.402 397.777ZM239.992 400.048C239.511 400.048 239.077 399.94 238.691 399.725C238.305 399.503 238.001 399.199 237.779 398.813C237.557 398.427 237.446 397.99 237.446 397.502C237.446 397.014 237.557 396.577 237.779 396.191C238.001 395.805 238.305 395.504 238.691 395.288C239.077 395.073 239.511 394.965 239.992 394.965C240.474 394.965 240.908 395.073 241.294 395.288C241.68 395.504 241.981 395.805 242.196 396.191C242.418 396.577 242.529 397.014 242.529 397.502C242.529 397.99 242.418 398.427 242.196 398.813C241.981 399.199 241.68 399.503 241.294 399.725C240.908 399.94 240.474 400.048 239.992 400.048ZM239.992 399.449C240.347 399.449 240.664 399.37 240.942 399.212C241.227 399.047 241.449 398.816 241.607 398.518C241.766 398.221 241.845 397.882 241.845 397.502C241.845 397.122 241.766 396.783 241.607 396.485C241.449 396.188 241.227 395.96 240.942 395.801C240.664 395.637 240.347 395.554 239.992 395.554C239.638 395.554 239.318 395.637 239.033 395.801C238.754 395.96 238.533 396.188 238.368 396.485C238.21 396.783 238.13 397.122 238.13 397.502C238.13 397.882 238.21 398.221 238.368 398.518C238.533 398.816 238.754 399.047 239.033 399.212C239.318 399.37 239.638 399.449 239.992 399.449ZM247.153 397.416C247.831 397.575 248.169 397.983 248.169 398.642C248.169 399.079 248.008 399.415 247.685 399.649C247.362 399.883 246.881 400 246.241 400H243.97V395.003H246.174C246.744 395.003 247.191 395.114 247.514 395.336C247.837 395.558 247.998 395.874 247.998 396.286C247.998 396.558 247.922 396.793 247.77 396.989C247.625 397.179 247.419 397.321 247.153 397.416ZM244.626 397.226H246.127C246.513 397.226 246.808 397.154 247.01 397.008C247.219 396.862 247.324 396.65 247.324 396.371C247.324 396.093 247.219 395.884 247.01 395.744C246.808 395.605 246.513 395.535 246.127 395.535H244.626V397.226ZM246.212 399.468C246.643 399.468 246.966 399.399 247.181 399.259C247.397 399.12 247.504 398.902 247.504 398.604C247.504 398.306 247.406 398.088 247.21 397.948C247.014 397.803 246.703 397.73 246.279 397.73H244.626V399.468H246.212ZM251.812 400.048C251.33 400.048 250.897 399.94 250.51 399.725C250.124 399.503 249.82 399.199 249.598 398.813C249.377 398.427 249.266 397.99 249.266 397.502C249.266 397.014 249.377 396.577 249.598 396.191C249.82 395.805 250.124 395.504 250.51 395.288C250.897 395.073 251.33 394.965 251.812 394.965C252.293 394.965 252.727 395.073 253.113 395.288C253.5 395.504 253.8 395.805 254.016 396.191C254.237 396.577 254.348 397.014 254.348 397.502C254.348 397.99 254.237 398.427 254.016 398.813C253.8 399.199 253.5 399.503 253.113 399.725C252.727 399.94 252.293 400.048 251.812 400.048ZM251.812 399.449C252.166 399.449 252.483 399.37 252.762 399.212C253.047 399.047 253.268 398.816 253.427 398.518C253.585 398.221 253.664 397.882 253.664 397.502C253.664 397.122 253.585 396.783 253.427 396.485C253.268 396.188 253.047 395.96 252.762 395.801C252.483 395.637 252.166 395.554 251.812 395.554C251.457 395.554 251.137 395.637 250.852 395.801C250.574 395.96 250.352 396.188 250.187 396.485C250.029 396.783 249.95 397.122 249.95 397.502C249.95 397.882 250.029 398.221 250.187 398.518C250.352 398.816 250.574 399.047 250.852 399.212C251.137 399.37 251.457 399.449 251.812 399.449ZM259.324 395.602H256.464V400H255.79V395.003H259.324V395.602ZM262.128 400.048C261.647 400.048 261.213 399.94 260.827 399.725C260.44 399.503 260.136 399.199 259.915 398.813C259.693 398.427 259.582 397.99 259.582 397.502C259.582 397.014 259.693 396.577 259.915 396.191C260.136 395.805 260.44 395.504 260.827 395.288C261.213 395.073 261.647 394.965 262.128 394.965C262.61 394.965 263.043 395.073 263.43 395.288C263.816 395.504 264.117 395.805 264.332 396.191C264.554 396.577 264.665 397.014 264.665 397.502C264.665 397.99 264.554 398.427 264.332 398.813C264.117 399.199 263.816 399.503 263.43 399.725C263.043 399.94 262.61 400.048 262.128 400.048ZM262.128 399.449C262.483 399.449 262.8 399.37 263.078 399.212C263.363 399.047 263.585 398.816 263.743 398.518C263.902 398.221 263.981 397.882 263.981 397.502C263.981 397.122 263.902 396.783 263.743 396.485C263.585 396.188 263.363 395.96 263.078 395.801C262.8 395.637 262.483 395.554 262.128 395.554C261.774 395.554 261.454 395.637 261.169 395.801C260.89 395.96 260.668 396.188 260.504 396.485C260.345 396.783 260.266 397.122 260.266 397.502C260.266 397.882 260.345 398.221 260.504 398.518C260.668 398.816 260.89 399.047 261.169 399.212C261.454 399.37 261.774 399.449 262.128 399.449ZM167.598 407.003V412H166.923V407.602H163.788V412H163.114V407.003H167.598ZM172.09 406.965C172.558 406.965 172.983 407.073 173.363 407.288C173.743 407.497 174.04 407.795 174.256 408.181C174.471 408.568 174.579 409.008 174.579 409.502C174.579 410.002 174.471 410.446 174.256 410.832C174.04 411.218 173.743 411.519 173.363 411.734C172.989 411.943 172.565 412.048 172.09 412.048C171.684 412.048 171.317 411.966 170.988 411.801C170.665 411.63 170.399 411.383 170.19 411.06V413.843H169.515V407.003H170.161V407.991C170.364 407.662 170.63 407.409 170.959 407.231C171.295 407.054 171.672 406.965 172.09 406.965ZM172.042 411.449C172.39 411.449 172.707 411.37 172.992 411.212C173.277 411.047 173.499 410.816 173.657 410.518C173.822 410.221 173.904 409.882 173.904 409.502C173.904 409.122 173.822 408.786 173.657 408.495C173.499 408.197 173.277 407.966 172.992 407.801C172.707 407.637 172.39 407.554 172.042 407.554C171.687 407.554 171.368 407.637 171.083 407.801C170.804 407.966 170.582 408.197 170.418 408.495C170.259 408.786 170.18 409.122 170.18 409.502C170.18 409.882 170.259 410.221 170.418 410.518C170.582 410.816 170.804 411.047 171.083 411.212C171.368 411.37 171.687 411.449 172.042 411.449ZM178.089 412.048C177.608 412.048 177.174 411.94 176.788 411.725C176.402 411.503 176.098 411.199 175.876 410.813C175.654 410.427 175.543 409.99 175.543 409.502C175.543 409.014 175.654 408.577 175.876 408.191C176.098 407.805 176.402 407.504 176.788 407.288C177.174 407.073 177.608 406.965 178.089 406.965C178.571 406.965 179.005 407.073 179.391 407.288C179.777 407.504 180.078 407.805 180.293 408.191C180.515 408.577 180.626 409.014 180.626 409.502C180.626 409.99 180.515 410.427 180.293 410.813C180.078 411.199 179.777 411.503 179.391 411.725C179.005 411.94 178.571 412.048 178.089 412.048ZM178.089 411.449C178.444 411.449 178.761 411.37 179.039 411.212C179.324 411.047 179.546 410.816 179.704 410.518C179.863 410.221 179.942 409.882 179.942 409.502C179.942 409.122 179.863 408.783 179.704 408.485C179.546 408.188 179.324 407.96 179.039 407.801C178.761 407.637 178.444 407.554 178.089 407.554C177.735 407.554 177.415 407.637 177.13 407.801C176.851 407.96 176.63 408.188 176.465 408.485C176.307 408.783 176.227 409.122 176.227 409.502C176.227 409.882 176.307 410.221 176.465 410.518C176.63 410.816 176.851 411.047 177.13 411.212C177.415 411.37 177.735 411.449 178.089 411.449ZM186.913 411.411V413.207H186.277V412H181.802V413.207H181.166V411.411H181.451C181.786 411.392 182.014 411.145 182.135 410.67C182.255 410.195 182.337 409.53 182.382 408.675L182.448 407.003H186.134V411.411H186.913ZM182.999 408.713C182.967 409.423 182.907 410.009 182.819 410.471C182.73 410.927 182.572 411.24 182.344 411.411H185.46V407.602H183.056L182.999 408.713ZM191.41 409.416C192.088 409.575 192.427 409.983 192.427 410.642C192.427 411.079 192.265 411.415 191.942 411.649C191.619 411.883 191.138 412 190.498 412H188.228V407.003H190.432C191.002 407.003 191.448 407.114 191.771 407.336C192.094 407.558 192.256 407.874 192.256 408.286C192.256 408.558 192.18 408.793 192.028 408.989C191.882 409.179 191.676 409.321 191.41 409.416ZM188.883 409.226H190.384C190.77 409.226 191.065 409.154 191.268 409.008C191.477 408.862 191.581 408.65 191.581 408.371C191.581 408.093 191.477 407.884 191.268 407.744C191.065 407.605 190.77 407.535 190.384 407.535H188.883V409.226ZM190.47 411.468C190.9 411.468 191.223 411.399 191.439 411.259C191.654 411.12 191.762 410.902 191.762 410.604C191.762 410.306 191.663 410.088 191.467 409.948C191.271 409.803 190.96 409.73 190.536 409.73H188.883V411.468H190.47ZM194.007 407.003H194.682V410.974L198.016 407.003H198.615V412H197.94V408.029L194.615 412H194.007V407.003ZM204.927 409.777H203.844V412H203.17V409.777H202.087L200.557 412H199.75L201.545 409.426L199.892 407.003H200.624L202.087 409.198H203.17V407.003H203.844V409.198H204.927L206.4 407.003H207.131L205.478 409.435L207.274 412H206.466L204.927 409.777ZM212.59 409.711H208.41C208.448 410.23 208.648 410.651 209.009 410.974C209.37 411.291 209.826 411.449 210.377 411.449C210.687 411.449 210.972 411.396 211.232 411.288C211.491 411.174 211.716 411.009 211.906 410.794L212.286 411.231C212.065 411.497 211.786 411.7 211.45 411.839C211.121 411.978 210.757 412.048 210.358 412.048C209.845 412.048 209.389 411.94 208.99 411.725C208.597 411.503 208.29 411.199 208.068 410.813C207.847 410.427 207.736 409.99 207.736 409.502C207.736 409.014 207.84 408.577 208.049 408.191C208.265 407.805 208.556 407.504 208.923 407.288C209.297 407.073 209.715 406.965 210.177 406.965C210.64 406.965 211.054 407.073 211.422 407.288C211.789 407.504 212.077 407.805 212.286 408.191C212.495 408.571 212.6 409.008 212.6 409.502L212.59 409.711ZM210.177 407.545C209.696 407.545 209.291 407.7 208.961 408.01C208.638 408.314 208.455 408.713 208.41 409.207H211.954C211.909 408.713 211.723 408.314 211.393 408.01C211.07 407.7 210.665 407.545 210.177 407.545ZM214.093 407.003H214.767V409.217H217.912V407.003H218.586V412H217.912V409.796H214.767V412H214.093V407.003ZM220.503 407.003H221.178V410.974L224.512 407.003H225.111V412H224.436V408.029L221.111 412H220.503V407.003ZM230.882 407.003V412H230.264V410.347H228.697H228.507L227.348 412H226.616L227.861 410.252C227.475 410.145 227.177 409.961 226.968 409.701C226.759 409.442 226.654 409.112 226.654 408.713C226.654 408.156 226.844 407.732 227.224 407.44C227.604 407.149 228.124 407.003 228.782 407.003H230.882ZM227.338 408.732C227.338 409.473 227.81 409.844 228.754 409.844H230.264V407.602H228.801C227.826 407.602 227.338 407.979 227.338 408.732Z" fill="#808594"/>
<path d="M181.429 309.785L180 308.324H176.788L175.993 309.119V311.192L176.788 311.977H181.74L184.157 314.404V318.69L181.74 321.107H174.167L172.126 319.023L174.414 316.864L175.95 318.379H179.893L180.677 317.595V315.5L179.893 314.705H174.94L172.523 312.288V308.023L174.94 305.596H181.869L183.803 307.626L181.429 309.785ZM196.661 321H186.692V305.714H196.661V308.507H190.162V311.934H195.931V314.533H190.162V318.207H196.661V321ZM201.828 321.107L199.4 318.69V308.023L201.828 305.596H209.036L211.464 308.023V318.69L209.036 321.107H201.828ZM207.983 317.391V309.323L207.081 308.421H203.783L202.881 309.323V317.391L203.783 318.293H207.081L207.983 317.391ZM220.992 316.714H213.666V313.921H220.992V316.714ZM122.852 348H118.673V336.162H115.021V348H110.842V332.639H122.852V348ZM126.16 332.639H135.549L137.966 335.066V341.007L135.549 343.424H131.22L130.339 342.769V348H126.16V332.639ZM133.787 339.9V336.162L133.132 335.507H130.339V340.566H133.132L133.787 339.9ZM142.811 348.107L140.394 345.69V334.959L142.811 332.531H150.62L153.048 334.959V345.69L150.62 348.107H142.811ZM148.869 344.262V336.388L148.203 335.722H145.238L144.572 336.388V344.262L145.238 344.917H148.203L148.869 344.262ZM158.655 350.686H154.477V344.81H155.551L156.238 344.111L157.441 332.639H167.722V344.81H169.193V350.686H165.015V348H158.655V350.686ZM160.965 335.829L160.105 343.972L159.16 344.81H163.543V335.829H160.965ZM171.514 332.639H180.902L183.319 335.066V338.493L181.783 340.04L183.878 342.124V345.583L181.45 348H171.514V332.639ZM179.141 338.235V336.162L178.485 335.507H175.692V338.848H178.528L179.141 338.235ZM179.688 344.477V342.188L179.033 341.533H175.692V345.143H179.033L179.688 344.477ZM194.33 340.362L191.193 348H186.617V332.639H190.796V341.823H190.925L191.344 340.276L194.491 332.639H199.067V348H194.889V338.826H194.749L194.33 340.362ZM208.918 341.888H208.037L205.48 348H200.711L204.557 339.793L201.323 332.639H205.48L207.908 338.697H208.918V332.639H213.097V338.697H214.106L216.534 332.639H220.691L217.458 339.793L221.304 348H216.534L213.978 341.888H213.097V348H208.918V341.888ZM233.324 348H222.947V332.639H233.324V335.829H227.126V338.74H232.604V341.684H227.126V344.81H233.324V348ZM248.567 348H244.389V341.845H240.36V348H236.182V332.639H240.36V338.321H244.389V332.639H248.567V348ZM259.578 340.362L256.441 348H251.865V332.639H256.044V341.823H256.173L256.592 340.276L259.739 332.639H264.315V348H260.137V338.826H259.997L259.578 340.362ZM277.99 348H267.613V332.639H277.99V335.829H271.792V338.74H277.271V341.684H271.792V344.81H277.99V348ZM182.432 365.068H177.845L176.3 363.53V356.742L177.845 355.197H182.35L183.642 356.53L182.069 357.959L181.105 356.995H179.089L178.515 357.569V362.703L179.089 363.277H181.229L182.35 362.17L183.874 363.599L182.432 365.068ZM192.303 365H189.883L189.336 362.983H186.677L186.13 365H184.018L186.793 355.272H189.35L192.303 365ZM187.969 357.453L187.757 358.602L187.025 361.247H189.001L188.276 358.602L188.078 357.453H187.969ZM195.003 353.618V352.388H196.268V352.859L196.473 353.071H198.004L198.209 352.859V352.388H199.474V353.618L198.811 354.274H195.666L195.003 353.618ZM198.325 359.565L195.898 365H193.424V355.272H195.632V361.726H195.707L196.001 360.714L198.421 355.272H200.896V365H198.688V358.547H198.619L198.325 359.565ZM204.881 357.187H202.235V355.272H209.734V357.187H207.089V365H204.881V357.187ZM217.678 365H215.258L214.711 362.983H212.052L211.505 365H209.393L212.168 355.272H214.725L217.678 365ZM213.344 357.453L213.132 358.602L212.4 361.247H214.376L213.651 358.602L213.453 357.453H213.344Z" fill="white"/>
<g opacity="0.7" filter="url(#filter3_f_609_28617)">
<circle cx="57.5" cy="57.5" r="54" transform="matrix(-1 0 0 1 256 134)" stroke="#1BDC77" stroke-width="7"/>
</g>
<g opacity="0.4" filter="url(#filter4_f_609_28617)">
<circle cx="75" cy="75" r="72.5" transform="matrix(-1 0 0 1 273 117)" stroke="#1BDC77" stroke-width="5"/>
</g>
<g opacity="0.2" filter="url(#filter5_f_609_28617)">
<circle cx="90" cy="90" r="88.5" transform="matrix(-1 0 0 1 288 102)" stroke="#1BDC77" stroke-width="3"/>
</g>
<g clip-path="url(#clip0_609_28617)">
<circle cx="198.5" cy="191.5" r="40.5" fill="#181F35"/>
<path d="M175.518 174.239V178.418H221.482L221.461 174.254C221.465 173.147 221.029 172.083 220.25 171.297C219.47 170.511 218.41 170.066 217.303 170.061H179.696C178.588 170.061 177.526 170.502 176.742 171.285C175.959 172.069 175.518 173.131 175.518 174.239ZM181.785 176.328C181.372 176.328 180.968 176.206 180.625 175.976C180.281 175.747 180.013 175.42 179.855 175.039C179.697 174.657 179.656 174.237 179.736 173.832C179.817 173.426 180.016 173.054 180.308 172.762C180.6 172.47 180.973 172.271 181.378 172.19C181.783 172.109 182.203 172.151 182.585 172.309C182.967 172.467 183.293 172.735 183.523 173.078C183.752 173.422 183.875 173.826 183.875 174.239C183.875 174.793 183.655 175.325 183.263 175.716C182.871 176.108 182.34 176.328 181.785 176.328ZM188.053 176.328C187.64 176.328 187.236 176.206 186.893 175.976C186.549 175.747 186.281 175.42 186.123 175.039C185.965 174.657 185.924 174.237 186.004 173.832C186.085 173.426 186.284 173.054 186.576 172.762C186.868 172.47 187.24 172.271 187.646 172.19C188.051 172.109 188.471 172.151 188.853 172.309C189.235 172.467 189.561 172.735 189.79 173.078C190.02 173.422 190.143 173.826 190.143 174.239C190.14 174.793 189.92 175.323 189.528 175.714C189.137 176.105 188.607 176.326 188.053 176.328Z" fill="white"/>
<path d="M175.518 180.507V209.757C175.518 210.865 175.958 211.928 176.741 212.712C177.525 213.495 178.588 213.935 179.696 213.935H217.303C218.412 213.935 219.474 213.495 220.258 212.712C221.042 211.928 221.482 210.865 221.482 209.757V180.507H175.518ZM217.303 209.757H179.696V184.685H217.303V209.757Z" fill="white"/>
<rect x="171.885" y="198.057" width="13.1143" height="16.2" fill="#181F35"/>
<path d="M177.286 209.815L190.168 196.801L197.128 203.467L205.637 194.971L210.377 199.592" stroke="white" stroke-width="4" stroke-linecap="round" stroke-linejoin="round"/>
</g>
<defs>
<filter id="filter0_b_609_28617" x="66.3518" y="73" width="261.815" height="388.646" filterUnits="userSpaceOnUse" color-interpolation-filters="sRGB">
<feFlood flood-opacity="0" result="BackgroundImageFix"/>
<feGaussianBlur in="BackgroundImageFix" stdDeviation="4"/>
<feComposite in2="SourceAlpha" operator="in" result="effect1_backgroundBlur_609_28617"/>
<feBlend mode="normal" in="SourceGraphic" in2="effect1_backgroundBlur_609_28617" result="shape"/>
</filter>
<filter id="filter1_f_609_28617" x="0.324219" y="0.69043" width="392.981" height="392.981" filterUnits="userSpaceOnUse" color-interpolation-filters="sRGB">
<feFlood flood-opacity="0" result="BackgroundImageFix"/>
<feBlend mode="normal" in="SourceGraphic" in2="BackgroundImageFix" result="shape"/>
<feGaussianBlur stdDeviation="45" result="effect1_foregroundBlur_609_28617"/>
</filter>
<filter id="filter2_b_609_28617" x="66" y="73" width="261.815" height="388.646" filterUnits="userSpaceOnUse" color-interpolation-filters="sRGB">
<feFlood flood-opacity="0" result="BackgroundImageFix"/>
<feGaussianBlur in="BackgroundImageFix" stdDeviation="4"/>
<feComposite in2="SourceAlpha" operator="in" result="effect1_backgroundBlur_609_28617"/>
<feBlend mode="normal" in="SourceGraphic" in2="effect1_backgroundBlur_609_28617" result="shape"/>
</filter>
<filter id="filter3_f_609_28617" x="136" y="129" width="125" height="125" filterUnits="userSpaceOnUse" color-interpolation-filters="sRGB">
<feFlood flood-opacity="0" result="BackgroundImageFix"/>
<feBlend mode="normal" in="SourceGraphic" in2="BackgroundImageFix" result="shape"/>
<feGaussianBlur stdDeviation="2.5" result="effect1_foregroundBlur_609_28617"/>
</filter>
<filter id="filter4_f_609_28617" x="119" y="113" width="158" height="158" filterUnits="userSpaceOnUse" color-interpolation-filters="sRGB">
<feFlood flood-opacity="0" result="BackgroundImageFix"/>
<feBlend mode="normal" in="SourceGraphic" in2="BackgroundImageFix" result="shape"/>
<feGaussianBlur stdDeviation="2" result="effect1_foregroundBlur_609_28617"/>
</filter>
<filter id="filter5_f_609_28617" x="102" y="96" width="192" height="192" filterUnits="userSpaceOnUse" color-interpolation-filters="sRGB">
<feFlood flood-opacity="0" result="BackgroundImageFix"/>
<feBlend mode="normal" in="SourceGraphic" in2="BackgroundImageFix" result="shape"/>
<feGaussianBlur stdDeviation="3" result="effect1_foregroundBlur_609_28617"/>
</filter>
<radialGradient id="paint0_radial_609_28617" cx="0" cy="0" r="1" gradientUnits="userSpaceOnUse" gradientTransform="translate(196.815 197.181) rotate(90) scale(106.49)">
<stop stop-color="#1BDC77"/>
<stop offset="1" stop-color="#008C93"/>
</radialGradient>
<clipPath id="clip0_609_28617">
<rect width="81" height="81" fill="white" transform="translate(158 151)"/>
</clipPath>
</defs>
</svg>
