<svg width="756" height="754" viewBox="0 0 756 754" fill="none" xmlns="http://www.w3.org/2000/svg">
<g clip-path="url(#clip0_611_13228)">
<g style="mix-blend-mode:screen" filter="url(#filter0_f_611_13228)">
<g style="mix-blend-mode:screen">
<path d="M413.989 569.71C537.142 569.71 636.977 483.366 636.977 376.855C636.977 270.344 537.142 184 413.989 184C290.835 184 191 270.344 191 376.855C191 483.366 290.835 569.71 413.989 569.71Z" fill="#1BDC77" fill-opacity="0.3"/>
</g>
</g>
<path d="M613.881 717.092L620.046 719.979C634.617 719.979 657.725 703.458 658.457 687.82L663.458 569.071L666.368 500.144L682.492 117.468C682.513 99.5035 660.527 80.4407 640.351 85.5888L625.974 512.4L624.616 552.83L619.011 718.902L613.881 717.092Z" fill="#202E58"/>
<path d="M635.5 705.073L660.742 99.6112C660.853 96.8947 660.25 94.1965 658.993 91.7855C657.736 89.3746 655.868 87.3351 653.576 85.8706C651.283 84.406 648.647 83.5676 645.929 83.4387C643.212 83.3099 640.508 83.8953 638.087 85.1364L244.034 287.611C241.659 288.83 239.639 290.64 238.167 292.866C236.695 295.091 235.82 297.658 235.627 300.319L214.18 597.267C213.92 600.862 214.92 604.436 217.008 607.376C219.096 610.316 222.143 612.438 225.626 613.378L615.777 719.462C618.041 720.087 620.416 720.193 622.726 719.771C625.036 719.35 627.221 718.413 629.118 717.029C631.014 715.646 632.573 713.852 633.679 711.781C634.784 709.711 635.407 707.418 635.5 705.073Z" fill="#101420"/>
<path d="M605.539 696.716L222.393 594.488L244.12 296.98L637.656 100.451L605.539 696.716Z" fill="#2B3661"/>
<path d="M605.539 696.715L229.83 597.611L251.536 300.082L637.269 107.473L605.539 696.715Z" fill="#161B2E"/>
<path d="M622.913 135.432L406.174 245.199L387.248 622.468L592.045 676.469L622.913 135.432Z" fill="#21305C"/>
<path d="M390.265 252.952L260.394 315.009L252.376 423.375L381.126 410.775L390.265 252.952Z" fill="#21305C"/>
<path d="M369.228 616.803L241.168 589.426L251.191 432.164L381.126 419.843L369.228 616.803Z" fill="#21305C"/>
<path d="M637.269 107.473L635.221 145.491L250.113 319.554L251.536 300.082L637.269 107.473Z" fill="url(#paint0_linear_611_13228)"/>
<g style="mix-blend-mode:multiply" opacity="0.88">
<g style="mix-blend-mode:multiply" opacity="0.88">
<path d="M379.962 249.14L250.07 311.218L242.676 416.074L370.801 406.962L379.962 249.14Z" fill="#21305C"/>
</g>
</g>
<path d="M338.812 229.841L208.92 291.918L200.988 404.292L329.651 387.663L338.812 229.841Z" fill="url(#paint1_linear_611_13228)"/>
<path d="M333.553 235.721L332.433 258.553L210.516 308.762L211.96 292.93L333.553 235.721Z" fill="#101420"/>
<path d="M338.813 229.841L340.408 231.176L333.553 387.469L329.652 387.663L338.813 229.841Z" fill="#2B3661"/>
<g style="mix-blend-mode:color-dodge">
<path style="mix-blend-mode:color-dodge" d="M310.101 198.026L179.368 272.231L171.673 381.265L300.962 355.848L310.101 198.026Z" fill="url(#paint2_linear_611_13228)" fill-opacity="0.5"/>
</g>
<g style="mix-blend-mode:soft-light" opacity="0.5">
<g style="mix-blend-mode:soft-light" opacity="0.5">
<path d="M304.863 203.907L303.72 226.718L180.962 286.275L182.234 272.231L304.863 203.907Z" fill="#58FFFE"/>
</g>
</g>
<path d="M310.101 198.026L311.868 199.189L304.863 357.959L300.961 355.848L310.101 198.026Z" fill="#1BDC77"/>
<path d="M171.672 381.265L300.961 355.849L304.863 357.959L172.685 382.084L171.672 381.265Z" fill="#1BDC77"/>
<path d="M181.826 277.444L304.411 212.695L304.605 208.775L182.02 274.622L181.826 277.444Z" fill="#1BDC77"/>
<path d="M178.743 323.259L301.005 276.496L301.22 272.576L178.937 320.437L178.743 323.259Z" fill="#1BDC77"/>
<path d="M180.619 295.429L303.074 237.745L303.268 233.825L180.813 292.629L180.619 295.429Z" fill="#1BDC77"/>
<path d="M268.844 243.518L303.678 226.2L303.893 222.279L269.038 239.921L268.844 243.518Z" fill="#1BDC77"/>
<path d="M291.672 270.701L301.523 266.717L301.738 262.796L291.866 266.889L291.672 270.701Z" fill="#1BDC77"/>
<path d="M217.607 301.029L227.48 297.044L227.674 293.813L217.801 297.884L217.607 301.029Z" fill="#1BDC77"/>
<path d="M213.059 271.282L267.723 244.078L267.939 240.502L213.253 268.181L213.059 271.282Z" fill="#1BDC77"/>
<path d="M216.012 294.395L270.612 271.176L270.828 267.535L216.206 291.251L216.012 294.395Z" fill="#1BDC77"/>
<path d="M232.911 294.503L287.489 272.403L287.705 268.612L233.105 291.208L232.911 294.503Z" fill="#1BDC77"/>
<path d="M180.187 301.676L234.83 277.034L235.024 273.739L180.381 298.876L180.187 301.676Z" fill="#1BDC77"/>
<path d="M178.204 331.035L300.422 287.33L300.638 283.432L178.398 328.234L178.204 331.035Z" fill="#1BDC77"/>
<path d="M175.1 376.85L297.039 351.131L297.254 347.233L175.294 374.05L175.1 376.85Z" fill="#1BDC77"/>
<path d="M176.997 349.042L299.087 312.403L299.302 308.482L177.191 346.22L176.997 349.042Z" fill="#1BDC77"/>
<path d="M264.965 312.187L299.712 300.835L299.927 296.937L265.18 308.59L264.965 312.187Z" fill="#1BDC77"/>
<path d="M287.727 343.657L297.556 341.374L297.772 337.453L287.921 339.844L287.727 343.657Z" fill="#1BDC77"/>
<path d="M213.878 361.254L223.707 358.971L223.901 355.719L214.072 358.088L213.878 361.254Z" fill="#1BDC77"/>
<path d="M209.33 330.366L263.865 312.553L264.059 308.977L209.524 327.264L209.33 330.366Z" fill="#1BDC77"/>
<path d="M212.261 354.254L266.732 340.425L266.926 336.785L212.455 351.109L212.261 354.254Z" fill="#1BDC77"/>
<path d="M229.118 357.335L283.567 344.626L283.761 340.857L229.312 354.039L229.118 357.335Z" fill="#1BDC77"/>
<path d="M176.566 355.288L231.058 340.037L231.252 336.72L176.76 352.487L176.566 355.288Z" fill="#1BDC77"/>
<path d="M301.005 595.543L163.137 566.077L171.543 416.074L312.903 398.583L301.005 595.543Z" fill="#21305C"/>
<path d="M312.903 398.583L315.059 401.707L304.863 593.195L301.005 595.543L312.903 398.583Z" fill="#161B2E"/>
<path d="M414.105 433.198L582.194 422.169L582.388 419.412L414.234 431.087L414.105 433.198Z" fill="white"/>
<path d="M412.187 467.575L579.177 467.252L579.371 464.495L412.317 465.464L412.187 467.575Z" fill="white"/>
<path d="M413.351 446.703L581.008 439.875L581.202 437.118L413.48 444.592L413.351 446.703Z" fill="white"/>
<path d="M533.824 434.21L581.569 431.711L581.741 428.954L533.996 431.625L533.824 434.21Z" fill="white"/>
<path d="M566.157 460.51L579.629 460.337L579.823 457.58L566.351 457.796L566.157 460.51Z" fill="#58FFFE"/>
<path d="M464.976 461.953L478.448 461.803L478.599 459.433L465.106 459.627L464.976 461.953Z" fill="white"/>
<path d="M457.368 438.195L532.294 434.275L532.466 431.711L457.518 435.912L457.368 438.195Z" fill="white"/>
<path d="M462.476 456.482L537.144 454.953L537.316 452.347L462.606 454.199L462.476 456.482Z" fill="white"/>
<path d="M485.863 461.436L560.466 460.574L560.639 457.882L486.014 459.045L485.863 461.436Z" fill="#58FFFE"/>
<path d="M413.093 451.399L487.868 448.986L487.998 446.595L413.201 449.288L413.093 451.399Z" fill="white"/>
<path d="M411.864 473.412L578.659 474.92L578.853 472.163L411.972 471.301L411.864 473.412Z" fill="white"/>
<path d="M409.945 507.79L575.641 520.003L575.814 517.224L410.053 505.679L409.945 507.79Z" fill="white"/>
<path d="M411.11 486.917L577.474 492.625L577.646 489.847L411.218 484.806L411.11 486.917Z" fill="white"/>
<path d="M530.655 483.385L578.013 484.462L578.207 481.705L530.806 480.822L530.655 483.385Z" fill="#58FFFE"/>
<path d="M562.73 512.227L576.095 513.089L576.289 510.332L562.903 509.535L562.73 512.227Z" fill="white"/>
<path d="M462.325 506.11L475.689 506.95L475.84 504.602L462.454 503.783L462.325 506.11Z" fill="white"/>
<path d="M454.78 481.662L529.125 483.342L529.297 480.779L454.931 479.4L454.78 481.662Z" fill="white"/>
<path d="M459.825 500.423L533.932 504.473L534.104 501.888L459.976 498.119L459.825 500.423Z" fill="white"/>
<path d="M483.04 507.165L557.061 511.882L557.255 509.19L483.191 504.774L483.04 507.165Z" fill="white"/>
<path d="M410.851 491.614L485.023 494.801L485.174 492.411L410.958 489.503L410.851 491.614Z" fill="white"/>
<path d="M239.766 504.085L299.367 507.79L303.268 443.085L243.582 445.626L239.766 504.085Z" fill="url(#paint3_linear_611_13228)"/>
<path d="M171.198 499.841L230.799 503.546L234.593 446.013L174.906 448.555L171.198 499.841Z" fill="#2B4697"/>
<path d="M235.153 574.606L294.624 585.806L298.547 521.101L238.968 516.125L235.153 574.606Z" fill="#2B4697"/>
<path d="M166.737 561.704L226.208 572.905L230.002 515.393L170.444 510.418L166.737 561.704Z" fill="url(#paint4_linear_611_13228)"/>
<path d="M190.275 561.554L221.961 567.262L222.478 559.443L190.792 554.208L190.275 561.554Z" fill="#2B4697"/>
<path d="M255.458 500.617L287.209 502.341L287.748 493.638L255.997 492.368L255.458 500.617Z" fill="#2B4697"/>
<path d="M174.216 558.688L186.654 560.907L187.171 553.605L174.733 551.537L174.216 558.688Z" fill="#58FFFE"/>
<path d="M178.355 460.553L229.118 459.627L229.743 450.494L178.958 452.26L178.355 460.553Z" fill="url(#paint5_linear_611_13228)"/>
<path d="M252.937 540.164L281.67 543.697L282.446 531.074L253.691 528.123L252.937 540.164Z" fill="url(#paint6_linear_611_13228)"/>
<g style="mix-blend-mode:color-dodge" opacity="0.8" filter="url(#filter1_f_611_13228)">
<g style="mix-blend-mode:color-dodge" opacity="0.8">
<path d="M586.102 310.206C534.582 294.426 505.617 239.9 521.408 188.417C537.199 136.934 591.765 107.99 643.285 123.77C694.805 139.549 723.769 194.076 707.979 245.558C692.188 297.041 637.622 325.985 586.102 310.206Z" fill="#2D3D79"/>
</g>
</g>
<g style="mix-blend-mode:color-dodge" opacity="0.5" filter="url(#filter2_f_611_13228)">
<g style="mix-blend-mode:color-dodge" opacity="0.5">
<path d="M362.81 634.878C311.29 619.099 282.326 564.573 298.116 513.09C313.907 461.607 368.473 432.663 419.993 448.442C471.513 464.222 500.477 518.748 484.687 570.231C468.896 621.714 414.33 650.658 362.81 634.878Z" fill="#404E84"/>
</g>
</g>
<path d="M202.48 420.988L183.347 423.371L182.943 429.17L202.424 427.106L202.48 420.988Z" fill="white"/>
<path d="M607.802 176.896L416.713 260.492L409.945 409.741L595.17 390.075L607.802 176.896Z" fill="#161B2E"/>
<path d="M607.574 402.21L607.751 404.141L397.391 423.419L397.214 421.489L607.574 402.21Z" fill="#197DE5"/>
<path d="M518.045 535.597L451.784 529.394C449.812 529.211 447.823 529.428 445.937 530.032C444.051 530.635 442.306 531.612 440.807 532.906C439.307 534.199 438.084 535.781 437.211 537.557C436.338 539.334 435.833 541.268 435.725 543.244C435.539 546.828 436.67 550.356 438.905 553.164C441.14 555.973 444.325 557.868 447.861 558.494L513.691 570.083C515.713 570.444 517.789 570.377 519.784 569.888C521.779 569.398 523.649 568.496 525.274 567.24C526.899 565.984 528.242 564.401 529.217 562.594C530.192 560.787 530.778 558.796 530.935 556.749L531.345 551.364C531.639 547.519 530.41 543.712 527.922 540.763C525.435 537.814 521.888 535.959 518.045 535.597Z" fill="#008C93"/>
<g style="mix-blend-mode:multiply" opacity="0.88">
<g style="mix-blend-mode:multiply" opacity="0.88">
<path d="M502.763 530.644L438.355 524.591C436.26 524.396 434.147 524.626 432.142 525.267C430.138 525.908 428.283 526.946 426.689 528.319C425.095 529.693 423.795 531.373 422.866 533.26C421.938 535.148 421.399 537.203 421.284 539.303C421.083 543.164 422.324 546.962 424.764 549.963C427.205 552.963 430.673 554.951 434.497 555.544L498.603 565.452C500.728 565.778 502.898 565.663 504.976 565.114C507.055 564.564 508.998 563.591 510.683 562.257C512.369 560.923 513.76 559.255 514.771 557.359C515.782 555.462 516.39 553.378 516.558 551.236L516.86 547.38C517.184 543.299 515.886 539.254 513.247 536.122C510.609 532.99 506.842 531.021 502.763 530.644Z" fill="#008C93"/>
</g>
</g>
<path d="M491.619 522.61L426.78 518.302C424.739 518.171 422.693 518.445 420.759 519.111C418.825 519.776 417.043 520.817 415.515 522.176C413.988 523.534 412.745 525.182 411.859 527.024C410.973 528.866 410.462 530.865 410.355 532.906C410.149 536.788 411.418 540.605 413.908 543.593C416.398 546.58 419.925 548.518 423.784 549.017L488.299 557.396C490.377 557.666 492.488 557.51 494.504 556.938C496.52 556.367 498.399 555.391 500.026 554.072C501.653 552.752 502.995 551.116 503.969 549.262C504.943 547.408 505.53 545.375 505.694 543.288L506.017 539.131C506.164 537.1 505.907 535.06 505.262 533.129C504.616 531.197 503.595 529.413 502.257 527.877C500.919 526.342 499.29 525.086 497.464 524.182C495.638 523.278 493.652 522.743 491.619 522.61Z" fill="white"/>
<path d="M485.325 522.179L424.495 518.495C422.533 518.484 420.588 518.864 418.774 519.614C416.961 520.365 415.316 521.47 413.937 522.864C412.557 524.259 411.47 525.916 410.74 527.736C410.011 529.557 409.652 531.505 409.687 533.466C409.468 537.222 410.662 540.924 413.035 543.846C415.408 546.767 418.789 548.696 422.512 549.254L482.328 556.147C490.455 557.095 497.633 550.46 498.042 541.629L498.236 537.472C498.624 528.899 493.279 522.545 485.325 522.179Z" fill="#D4BDF0"/>
<path style="mix-blend-mode:color-dodge" d="M440.804 565.455C411.703 562.173 389.686 545.578 391.627 528.39C393.569 511.203 418.733 499.93 447.834 503.212C476.935 506.495 498.952 523.089 497.01 540.277C495.069 557.465 469.904 568.737 440.804 565.455Z" fill="url(#paint7_radial_611_13228)"/>
<path d="M135.503 572.237L157.77 580.917L159.494 550.288L137.788 546.54L135.503 572.237Z" fill="#A92FE5"/>
<path d="M140.633 568.446C141.172 569.372 142.142 569.717 142.789 569.2L154.364 558.624C154.687 558.21 154.876 557.709 154.907 557.186C154.938 556.663 154.808 556.142 154.537 555.694C153.998 554.768 153.028 554.553 152.381 555.22L140.806 565.796C140.485 566.155 140.294 566.611 140.263 567.091C140.231 567.572 140.362 568.048 140.633 568.446Z" fill="white"/>
<path d="M141.883 552.916C141.561 553.268 141.365 553.718 141.326 554.193C141.287 554.669 141.407 555.144 141.668 555.544L151.303 572.13C151.863 573.12 152.833 573.465 153.459 572.883C153.79 572.475 153.987 571.974 154.022 571.449C154.056 570.925 153.927 570.402 153.653 569.954L144.017 553.39C143.928 553.199 143.796 553.031 143.631 552.899C143.466 552.767 143.273 552.674 143.067 552.628C142.861 552.582 142.647 552.585 142.442 552.635C142.236 552.684 142.045 552.781 141.883 552.916Z" fill="white"/>
<g style="mix-blend-mode:soft-light">
<g style="mix-blend-mode:soft-light" opacity="0.5">
<g style="mix-blend-mode:soft-light" opacity="0.5">
<path d="M609.374 176.646L609.267 178.197L415.786 261.276L415.851 260.177L609.374 176.646Z" fill="#1BDC77"/>
</g>
</g>
<g style="mix-blend-mode:multiply" opacity="0.5">
<g style="mix-blend-mode:multiply" opacity="0.5">
<path d="M608.9 183.345L415.635 264.873L415.678 263.796L609.008 181.816L608.9 183.345Z" fill="#1BDC77"/>
</g>
</g>
<g style="mix-blend-mode:multiply" opacity="0.5">
<g style="mix-blend-mode:multiply" opacity="0.5">
<path d="M608.534 188.514L415.463 268.492L415.527 267.415L608.642 186.964L608.534 188.514Z" fill="#1BDC77"/>
</g>
</g>
<g style="mix-blend-mode:multiply" opacity="0.5">
<g style="mix-blend-mode:multiply" opacity="0.5">
<path d="M608.168 193.662L415.312 272.11L415.355 271.012L608.275 192.111L608.168 193.662Z" fill="#1BDC77"/>
</g>
</g>
<g style="mix-blend-mode:multiply" opacity="0.5">
<g style="mix-blend-mode:multiply" opacity="0.5">
<path d="M607.801 198.811L415.14 275.708L415.183 274.631L607.909 197.281L607.801 198.811Z" fill="#1BDC77"/>
</g>
</g>
<g style="mix-blend-mode:soft-light" opacity="0.5">
<g style="mix-blend-mode:soft-light" opacity="0.5">
<path d="M607.435 203.98L414.967 279.326L415.032 278.249L607.543 202.429L607.435 203.98Z" fill="#1BDC77"/>
</g>
</g>
<g style="mix-blend-mode:multiply" opacity="0.5">
<g style="mix-blend-mode:multiply" opacity="0.5">
<path d="M607.069 209.128L414.816 282.924L414.86 281.847L607.176 207.578L607.069 209.128Z" fill="#1BDC77"/>
</g>
</g>
<g style="mix-blend-mode:multiply" opacity="0.5">
<g style="mix-blend-mode:multiply" opacity="0.5">
<path d="M606.701 214.297L414.643 286.542L414.708 285.465L606.809 212.746L606.701 214.297Z" fill="#1BDC77"/>
</g>
</g>
<g style="mix-blend-mode:soft-light" opacity="0.5">
<g style="mix-blend-mode:soft-light" opacity="0.5">
<path d="M606.335 219.446L414.493 290.161L414.536 289.084L606.465 217.895L606.335 219.446Z" fill="#1BDC77"/>
</g>
</g>
<g style="mix-blend-mode:multiply" opacity="0.5">
<g style="mix-blend-mode:multiply" opacity="0.5">
<path d="M605.991 224.593L414.321 293.758L414.364 292.681L606.098 223.064L605.991 224.593Z" fill="#1BDC77"/>
</g>
</g>
<g style="mix-blend-mode:multiply" opacity="0.5">
<g style="mix-blend-mode:multiply" opacity="0.5">
<path d="M605.623 229.764L414.147 297.377L414.212 296.3L605.731 228.213L605.623 229.764Z" fill="#1BDC77"/>
</g>
</g>
<g style="mix-blend-mode:multiply" opacity="0.5">
<g style="mix-blend-mode:multiply" opacity="0.5">
<path d="M605.257 234.911L413.996 300.995L414.039 299.897L605.365 233.36L605.257 234.911Z" fill="#1BDC77"/>
</g>
</g>
<g style="mix-blend-mode:multiply" opacity="0.5">
<g style="mix-blend-mode:multiply" opacity="0.5">
<path d="M604.891 240.081L413.824 304.593L413.889 303.516L604.998 238.53L604.891 240.081Z" fill="#1BDC77"/>
</g>
</g>
<g style="mix-blend-mode:multiply" opacity="0.5">
<g style="mix-blend-mode:multiply" opacity="0.5">
<path d="M604.524 245.229L413.673 308.211L413.716 307.134L604.632 243.678L604.524 245.229Z" fill="#1BDC77"/>
</g>
</g>
<g style="mix-blend-mode:multiply" opacity="0.5">
<g style="mix-blend-mode:multiply" opacity="0.5">
<path d="M604.158 250.376L413.501 311.829L413.544 310.731L604.266 248.826L604.158 250.376Z" fill="#1BDC77"/>
</g>
</g>
<g style="mix-blend-mode:multiply" opacity="0.5">
<g style="mix-blend-mode:multiply" opacity="0.5">
<path d="M603.792 255.546L413.35 315.427L413.393 314.35L603.899 253.996L603.792 255.546Z" fill="#1BDC77"/>
</g>
</g>
<g style="mix-blend-mode:multiply" opacity="0.5">
<g style="mix-blend-mode:multiply" opacity="0.5">
<path d="M603.425 260.694L413.178 319.045L413.221 317.968L603.533 259.143L603.425 260.694Z" fill="#1BDC77"/>
</g>
</g>
<g style="mix-blend-mode:multiply" opacity="0.5">
<g style="mix-blend-mode:multiply" opacity="0.5">
<path d="M603.059 265.843L413.005 322.665L413.07 321.566L603.167 264.313L603.059 265.843Z" fill="#1BDC77"/>
</g>
</g>
<g style="mix-blend-mode:multiply" opacity="0.5">
<g style="mix-blend-mode:multiply" opacity="0.5">
<path d="M602.692 271.012L412.855 326.261L412.898 325.184L602.8 269.461L602.692 271.012Z" fill="#1BDC77"/>
</g>
</g>
<g style="mix-blend-mode:multiply">
<g style="mix-blend-mode:multiply">
<path d="M602.326 276.16L412.682 329.881L412.725 328.804L602.455 274.609L602.326 276.16Z" fill="#1BDC77"/>
</g>
</g>
<g style="mix-blend-mode:multiply" opacity="0.5">
<g style="mix-blend-mode:multiply" opacity="0.5">
<path d="M601.981 281.308L412.531 333.477L412.574 332.4L602.089 279.778L601.981 281.308Z" fill="#1BDC77"/>
</g>
</g>
<g style="mix-blend-mode:multiply" opacity="0.5">
<g style="mix-blend-mode:multiply" opacity="0.5">
<path d="M601.701 285.077L601.593 286.628L412.359 337.203L412.402 336.126L601.701 285.077Z" fill="#1BDC77"/>
</g>
</g>
<g style="mix-blend-mode:multiply" opacity="0.5">
<g style="mix-blend-mode:multiply" opacity="0.5">
<path d="M601.226 291.798L412.186 340.823L412.229 339.746L601.334 290.247L601.226 291.798Z" fill="#1BDC77"/>
</g>
</g>
<g style="mix-blend-mode:multiply" opacity="0.5">
<g style="mix-blend-mode:multiply" opacity="0.5">
<path d="M600.86 296.946L412.013 344.441L412.078 343.342L600.967 295.395L600.86 296.946Z" fill="#1BDC77"/>
</g>
</g>
<g style="mix-blend-mode:multiply" opacity="0.5">
<g style="mix-blend-mode:multiply" opacity="0.5">
<path d="M600.515 302.094L411.862 348.038L411.906 346.961L600.601 300.565L600.515 302.094Z" fill="#1BDC77"/>
</g>
</g>
<g style="mix-blend-mode:multiply" opacity="0.5">
<g style="mix-blend-mode:multiply" opacity="0.5">
<path d="M600.148 307.263L411.69 351.657L411.733 350.58L600.256 305.712L600.148 307.263Z" fill="#1BDC77"/>
</g>
</g>
<g style="mix-blend-mode:multiply" opacity="0.5">
<g style="mix-blend-mode:multiply" opacity="0.5">
<path d="M599.782 312.411L411.539 355.253L411.582 354.177L599.89 310.86L599.782 312.411Z" fill="#1BDC77"/>
</g>
</g>
<g style="mix-blend-mode:soft-light">
<g style="mix-blend-mode:soft-light">
<path d="M599.416 317.559L411.367 358.873L411.41 357.796L599.523 316.03L599.416 317.559Z" fill="#1BDC77"/>
</g>
</g>
<g style="mix-blend-mode:multiply" opacity="0.5">
<g style="mix-blend-mode:multiply" opacity="0.5">
<path d="M599.049 322.728L411.194 362.491L411.259 361.392L599.157 321.178L599.049 322.728Z" fill="#1BDC77"/>
</g>
</g>
<g style="mix-blend-mode:multiply" opacity="0.5">
<g style="mix-blend-mode:multiply" opacity="0.5">
<path d="M598.683 327.877L411.044 366.089L411.087 365.012L598.791 326.326L598.683 327.877Z" fill="#1BDC77"/>
</g>
</g>
<g style="mix-blend-mode:multiply" opacity="0.5">
<g style="mix-blend-mode:multiply" opacity="0.5">
<path d="M598.317 333.046L410.871 369.707L410.914 368.63L598.424 331.495L598.317 333.046Z" fill="#1BDC77"/>
</g>
</g>
<g style="mix-blend-mode:multiply" opacity="0.5">
<g style="mix-blend-mode:multiply" opacity="0.5">
<path d="M597.95 338.195L410.72 373.326L410.764 372.228L598.058 336.644L597.95 338.195Z" fill="#1BDC77"/>
</g>
</g>
<g style="mix-blend-mode:multiply" opacity="0.5">
<g style="mix-blend-mode:multiply" opacity="0.5">
<path d="M597.584 343.342L410.548 376.923L410.591 375.846L597.692 341.792L597.584 343.342Z" fill="#1BDC77"/>
</g>
</g>
<g style="mix-blend-mode:multiply">
<g style="mix-blend-mode:multiply">
<path d="M597.217 348.512L410.376 380.542L410.44 379.465L597.325 346.962L597.217 348.512Z" fill="#1BDC77"/>
</g>
</g>
<g style="mix-blend-mode:multiply" opacity="0.5">
<g style="mix-blend-mode:multiply" opacity="0.5">
<path d="M596.851 353.66L410.225 384.16L410.268 383.062L596.959 352.109L596.851 353.66Z" fill="#1BDC77"/>
</g>
</g>
<g style="mix-blend-mode:multiply" opacity="0.5">
<g style="mix-blend-mode:multiply" opacity="0.5">
<path d="M596.506 358.83L410.052 387.758L410.117 386.681L596.614 357.279L596.506 358.83Z" fill="#1BDC77"/>
</g>
</g>
<g style="mix-blend-mode:multiply" opacity="0.5">
<g style="mix-blend-mode:multiply" opacity="0.5">
<path d="M596.14 363.978L409.901 391.376L409.945 390.299L596.247 362.427L596.14 363.978Z" fill="#1BDC77"/>
</g>
</g>
<g style="mix-blend-mode:multiply" opacity="0.5">
<g style="mix-blend-mode:multiply" opacity="0.5">
<path d="M595.773 369.125L409.729 394.973L409.772 393.896L595.881 367.574L595.773 369.125Z" fill="#1BDC77"/>
</g>
</g>
<g style="mix-blend-mode:multiply" opacity="0.5">
<g style="mix-blend-mode:multiply" opacity="0.5">
<path d="M595.407 374.295L409.557 398.592L409.621 397.515L595.515 372.744L595.407 374.295Z" fill="#1BDC77"/>
</g>
</g>
<g style="mix-blend-mode:multiply" opacity="0.5">
<g style="mix-blend-mode:multiply" opacity="0.5">
<path d="M595.041 379.443L409.406 402.21L409.449 401.112L595.148 377.892L595.041 379.443Z" fill="#1BDC77"/>
</g>
</g>
<g style="mix-blend-mode:multiply" opacity="0.5">
<g style="mix-blend-mode:multiply" opacity="0.5">
<path d="M594.674 384.591L409.234 405.808L409.298 404.731L594.782 383.062L594.674 384.591Z" fill="#1BDC77"/>
</g>
</g>
<g style="mix-blend-mode:multiply" opacity="0.5">
<g style="mix-blend-mode:multiply" opacity="0.5">
<path d="M594.307 389.76L409.082 409.426L409.125 408.349L594.415 388.21L594.307 389.76Z" fill="#1BDC77"/>
</g>
</g>
</g>
<path d="M391.235 699.043V670.459L314.089 645.624V667.465L391.235 699.043ZM389.317 671.859V696.156L316.029 666.151V648.252L389.317 671.859Z" fill="white"/>
<path style="mix-blend-mode:color-dodge" d="M315.748 667.982C313.032 676.318 324.478 687.54 341.335 693.011C358.191 698.483 374.034 696.199 376.75 687.863C379.466 679.527 368.02 668.327 351.185 662.834C334.351 657.341 318.464 659.646 315.748 667.982Z" fill="url(#paint8_radial_611_13228)"/>
<path d="M327.216 668.155C327.406 668.21 327.608 668.21 327.798 668.155C328.005 668.008 328.145 667.786 328.189 667.536C328.234 667.286 328.178 667.029 328.035 666.82L322.021 658.204L328.488 655.145C328.617 655.101 328.735 655.03 328.835 654.938C328.934 654.845 329.013 654.732 329.066 654.607C329.12 654.481 329.146 654.346 329.143 654.21C329.141 654.074 329.109 653.94 329.052 653.817C328.994 653.693 328.911 653.584 328.807 653.495C328.704 653.406 328.584 653.339 328.453 653.3C328.323 653.261 328.185 653.25 328.05 653.267C327.915 653.284 327.785 653.33 327.669 653.401L319.047 657.428L326.375 668.005C326.493 668.095 326.631 668.156 326.777 668.182C326.924 668.209 327.074 668.199 327.216 668.155Z" fill="white"/>
<path d="M336.054 672.463C336.238 672.466 336.418 672.414 336.571 672.312C336.788 672.175 336.942 671.957 336.998 671.707C337.055 671.456 337.01 671.194 336.873 670.977L331.096 661.995L337.326 659.173C337.443 659.124 337.55 659.052 337.638 658.96C337.727 658.869 337.795 658.76 337.84 658.641C337.884 658.521 337.904 658.394 337.897 658.267C337.89 658.14 337.857 658.016 337.8 657.902C337.752 657.771 337.676 657.651 337.578 657.552C337.479 657.452 337.36 657.375 337.229 657.326C337.098 657.277 336.958 657.257 336.818 657.267C336.679 657.277 336.543 657.318 336.42 657.385L328.165 661.111L335.127 671.881C335.202 672.062 335.332 672.215 335.498 672.319C335.664 672.423 335.858 672.474 336.054 672.463Z" fill="white"/>
<path d="M365.498 606.68L368.085 565.905L332.561 562.286L329.436 599.787L365.498 606.68ZM366.037 567.628L363.709 604.375L331.505 598.215L334.307 564.397L366.037 567.628Z" fill="white"/>
<path d="M353.816 571.418L351.876 596.943L338.684 582.662L353.816 571.418Z" fill="white"/>
<path style="mix-blend-mode:color-dodge" d="M348.187 580.326C330.483 579.727 316.371 572.138 316.668 563.375C316.965 554.613 331.558 547.995 349.262 548.595C366.966 549.194 381.077 556.783 380.78 565.545C380.483 574.308 365.891 580.925 348.187 580.326Z" fill="url(#paint9_radial_611_13228)"/>
<path d="M523.801 133.579L558.289 115.206L558.893 75.0769L524.749 97.5214L523.801 133.579ZM556.5 114.042L525.827 130.305L526.754 98.5768L556.931 78.6741L556.5 114.042Z" fill="white"/>
<path style="mix-blend-mode:color-dodge" d="M539.354 130.615C521.65 130.016 507.728 116.856 508.258 101.221C508.788 85.5869 523.569 73.3985 541.273 73.9977C558.977 74.597 572.9 87.757 572.37 103.391C571.84 119.026 557.058 131.214 539.354 130.615Z" fill="url(#paint10_radial_611_13228)"/>
<path d="M529.017 125.351L552.857 111.867L553.633 85.3083L529.017 101.076V125.351ZM550.96 110.725L530.935 122.034V102.066L551.585 88.8408L550.96 110.725Z" fill="white"/>
<path d="M538.372 110.554L553.418 87.5706L551.801 86.5151L537.984 107.603L530.612 100.839L529.319 102.261L538.372 110.554Z" fill="white"/>
<path d="M396.296 253.493L398.233 253.606L375.944 635.245L374.007 635.132L396.296 253.493Z" fill="#161B2E"/>
<path d="M301.932 596.706L313.981 397.484L170.681 415.211L162.124 566.916L301.932 596.706ZM311.912 399.681L300.143 594.358L164.193 565.301L172.513 416.913L311.912 399.681Z" fill="white"/>
<path d="M173.656 382.149L180.295 272.813L310.575 198.845L309.627 197.186L178.441 271.671L171.737 382.019L173.656 382.149Z" fill="#1BDC77"/>
<path d="M169.56 292.413L190.232 281.449L191.762 253.512L170.401 270.335L169.56 292.413Z" fill="#10141F"/>
<path d="M174.108 285.219C174.647 285.52 175.552 285.003 176.156 284.012L186.934 265.273C187.559 264.131 187.623 262.946 187.084 262.645C186.546 262.343 185.597 263.033 184.929 264.174L174.151 282.914C173.612 283.905 173.569 284.917 174.108 285.219Z" fill="white"/>
<path d="M174.755 271.692C174.152 272.748 174.109 273.846 174.755 273.975L184.304 279.339C184.843 279.727 185.749 279.188 186.46 278.133C187.063 277.077 187.107 275.979 186.589 275.505L177.019 270.141C176.221 269.926 175.294 270.615 174.755 271.692Z" fill="white"/>
<path d="M327.582 379.929L332.346 278.542L328.186 281.148L323.508 380.856L327.582 379.929Z" fill="white"/>
<path d="M239.098 394.34L239.314 382.816L206.614 388.395L205.731 398.583L239.098 394.34Z" fill="#1B2138"/>
<path d="M287.318 410.99C292.793 410.99 297.233 417.344 297.233 425.185C297.233 433.025 292.793 439.358 287.318 439.358C281.843 439.358 277.381 433.004 277.381 425.185C277.381 417.366 281.821 410.99 287.318 410.99ZM287.318 434.684C291.004 434.684 294 430.376 294 425.142C294 419.907 291.004 415.578 287.318 415.578C283.632 415.578 280.614 419.886 280.614 425.142C280.614 430.397 283.61 434.727 287.318 434.727V434.684Z" fill="white"/>
<path d="M280.777 429.129L280.95 429.501C281.51 430.71 280.983 432.144 279.773 432.704L272.615 436.017C271.405 436.577 269.97 436.051 269.409 434.842L269.237 434.47C268.677 433.261 269.204 431.827 270.413 431.267L277.572 427.954C278.782 427.394 280.217 427.92 280.777 429.129Z" fill="white"/>
<path d="M345.495 228.612L390.309 203.992L391.387 155.916L389.231 155.872L388.196 202.7L344.461 226.717L345.495 228.612Z" fill="white"/>
<path d="M376.298 196.411H378.453V209.528H376.298V196.411Z" fill="white"/>
<path d="M365.154 197.66H367.309V216.055H365.154V197.66Z" fill="white"/>
<path d="M356.38 196.411H358.536V220.815H356.38V196.411Z" fill="white"/>
<path d="M370.176 193.955C374.956 193.972 379.718 193.356 384.337 192.125L383.712 189.971C383.432 189.971 356.488 198.005 342.154 179.33L340.451 180.644C348.685 191.478 360.777 193.955 370.176 193.955Z" fill="white"/>
<path d="M341.206 186.782L341.766 180.04L348.772 181.656L349.267 179.545L339.805 177.391L339.072 186.61L341.206 186.782Z" fill="white"/>
<g style="mix-blend-mode:multiply" opacity="0.88">
<g style="mix-blend-mode:multiply" opacity="0.88">
<path fill-rule="evenodd" clip-rule="evenodd" d="M418.892 526.853C418.892 604.224 457.26 667.098 504.962 668.8H506.579H506.945C509.535 668.79 512.121 668.596 514.683 668.218C517.383 668.597 520.105 668.792 522.831 668.8C568.529 668.8 606.531 618.699 614.506 552.593L624.573 552.765L654.491 553.304C656.453 560.326 659.6 565.905 663.458 569.028L666.368 500.1C662.445 502.254 659.018 506.799 656.518 512.852L625.931 512.314L615.153 500.811C610.346 429.278 571.158 384.755 522.918 384.755C520.17 384.764 517.426 384.958 514.705 385.336C512.163 384.97 509.599 384.776 507.031 384.755H506.665H505.048H505.178C457.325 386.5 418.892 449.417 418.892 526.853Z" fill="#21305C"/>
</g>
</g>
<path d="M425.767 319.402C477.263 319.402 519.016 382.988 519.016 461.414C519.015 470.053 518.496 478.685 517.464 487.262C515.055 508.859 508.806 529.852 499.012 549.253C481.94 582.209 455.47 603.383 425.724 603.383C374.207 603.383 332.454 539.798 332.454 461.371C332.454 382.945 374.25 319.402 425.767 319.402ZM420.486 575.532C459.588 575.532 491.274 524.44 491.274 461.371C491.274 398.303 459.588 347.21 420.486 347.21C381.385 347.21 349.72 398.324 349.72 461.371C349.72 524.418 381.471 575.532 420.486 575.532Z" fill="#101420"/>
<path d="M418.848 575.532H417.102C378.022 575.532 346.336 524.44 346.336 461.371C346.336 398.303 378.022 347.21 417.102 347.21H418.848C380.566 348.718 349.871 399.207 349.871 461.371C349.871 523.535 380.566 573.981 418.848 575.532Z" fill="#1BDC77"/>
<path d="M495.563 549.297C505.367 529.869 511.616 508.846 514.015 487.22C515.047 478.642 515.566 470.011 515.567 461.372C515.567 383.829 474.741 320.846 424.064 319.425C424.646 319.425 425.207 319.425 425.789 319.425C477.284 319.425 519.037 383.01 519.037 461.437C519.036 470.076 518.518 478.707 517.485 487.284C515.076 508.881 508.827 529.874 499.034 549.276C481.962 582.232 455.492 603.405 425.745 603.405H424.474C453.336 602.35 478.923 581.435 495.563 549.297Z" fill="#1BDC77"/>
<g style="mix-blend-mode:screen" filter="url(#filter3_i_611_13228)">
<path style="mix-blend-mode:screen" d="M349.785 461.371C349.785 524.418 381.471 575.532 420.551 575.532C459.631 575.532 491.339 524.44 491.339 461.371C491.339 398.303 459.652 347.21 420.551 347.21C381.45 347.21 349.785 398.389 349.785 461.371Z" fill="url(#paint11_linear_611_13228)" fill-opacity="0.5"/>
</g>
<g style="mix-blend-mode:multiply" opacity="0.5">
<g style="mix-blend-mode:multiply" opacity="0.5">
<path fill-rule="evenodd" clip-rule="evenodd" d="M466.291 544.558L499.012 549.297C508.823 529.87 515.08 508.847 517.485 487.219L501.254 467.08L466.291 544.558Z" fill="#197DE5"/>
</g>
</g>
<path d="M409.881 319.402C458.51 319.402 497.934 382.988 497.934 461.414C497.934 539.841 458.51 603.534 409.881 603.534C361.252 603.534 321.827 539.948 321.827 461.522C321.827 383.096 361.252 319.402 409.881 319.402ZM409.881 579.603C450.362 579.603 483.169 526.68 483.169 461.414C483.169 396.149 450.362 343.225 409.881 343.225C369.4 343.225 336.593 396.149 336.593 461.414C336.593 526.68 369.421 579.603 409.881 579.603Z" fill="url(#paint12_linear_611_13228)"/>
<path d="M407.919 579.539H406.303C365.822 579.539 333.015 526.615 333.015 461.35C333.015 396.084 365.822 343.161 406.303 343.161H407.919C368.193 344.561 336.248 396.881 336.248 461.285C336.248 525.689 368.193 578.139 407.919 579.539Z" fill="#1BDC77"/>
<path d="M494.831 461.522C494.831 383.979 456.268 320.975 408.394 319.575H410.011C458.639 319.575 498.064 383.139 498.064 461.587C498.064 540.035 458.639 603.534 410.011 603.534C409.472 603.534 408.933 603.534 408.394 603.534C456.268 602.069 494.831 539.065 494.831 461.522Z" fill="#1BDC77"/>
<path d="M501.232 467.165C501.534 479.314 506.88 489.028 513.152 488.856C519.425 488.684 524.232 478.711 523.93 466.562C523.628 454.414 518.261 444.699 512.01 444.872C505.759 445.044 500.909 455.017 501.232 467.165Z" fill="#446D90"/>
<path d="M512.094 445.011L595.026 446.501L594.268 488.605L511.337 487.115L512.094 445.011Z" fill="#446D90"/>
<path d="M501.763 468.945C502.065 481.094 507.411 490.808 513.683 490.636C519.956 490.463 524.763 480.49 524.461 468.342C524.159 456.194 518.792 446.479 512.541 446.651C506.29 446.824 501.44 456.797 501.763 468.945Z" fill="#161B2E"/>
<path d="M511.113 446.738L594.058 448.396L593.215 490.506L510.27 488.849L511.113 446.738Z" fill="#161B2E"/>
<path d="M574.714 433.37L738.535 425.336L733.987 523.837L573.4 506.368C562.988 506.174 554.84 489.653 555.207 469.449C555.573 449.245 564.303 433.133 574.714 433.37Z" fill="url(#paint13_linear_611_13228)"/>
<path opacity="0.5" d="M574.866 433.37L738.686 425.336L577.366 435.524C566.933 435.352 558.203 451.571 557.837 471.754C557.578 485.712 561.415 497.925 567.235 504.064C560.036 498.872 555.056 485.324 555.358 469.471C555.725 449.395 564.455 433.176 574.866 433.37Z" fill="#65B1DB"/>
<path d="M712.259 473.994C711.763 501.156 722.714 523.385 736.725 523.535C750.735 523.686 762.591 501.996 762.979 474.834C763.367 447.672 752.525 425.443 738.514 425.292C724.503 425.142 712.733 446.854 712.259 473.994Z" fill="#101420"/>
<path d="M112.611 596.771C112.611 647.583 130.89 690.168 160.744 690.168C190.598 690.168 220.668 647.583 220.668 596.771C220.668 545.959 191.159 503.935 161.326 503.935C131.494 503.935 112.611 545.98 112.611 596.771Z" fill="#1BDC77"/>
<path d="M159.171 688.315C129.326 688.315 105.131 647.127 105.131 596.318C105.131 545.51 129.326 504.322 159.171 504.322C189.016 504.322 213.21 545.51 213.21 596.318C213.21 647.127 189.016 688.315 159.171 688.315Z" fill="#090F1E"/>
<path d="M153.998 666.107C130.843 666.107 112.073 634.157 112.073 594.746C112.073 555.334 130.843 523.384 153.998 523.384C177.153 523.384 195.923 555.334 195.923 594.746C195.923 634.157 177.153 666.107 153.998 666.107Z" fill="url(#paint14_linear_611_13228)"/>
<path d="M146.259 639.183C130.699 639.183 118.086 617.707 118.086 591.214C118.086 564.721 130.699 543.245 146.259 543.245C161.818 543.245 174.432 564.721 174.432 591.214C174.432 617.707 161.818 639.183 146.259 639.183Z" fill="#090F1E"/>
<path d="M127.678 590.374C127.678 603.018 133.692 613.249 141.107 613.249C148.522 613.249 154.558 603.018 154.558 590.374C154.558 577.73 148.544 567.477 141.107 567.477C133.671 567.477 127.678 577.687 127.678 590.374Z" fill="#1BDC77"/>
<g style="mix-blend-mode:multiply" opacity="0.88">
<g style="mix-blend-mode:multiply" opacity="0.88">
<path d="M144.987 592.829L118.086 656.522L115.499 650.491L143.198 591.472L144.987 592.829Z" fill="#21305C"/>
</g>
</g>
<path d="M145.073 589.21L61.2874 536.266L59.7139 539.001L144.987 592.829L145.073 589.21Z" fill="#21305C"/>
<path d="M57.9683 519.292L85.3221 539.518L92.8449 556.19L61.2878 536.266L57.9683 519.292Z" fill="#2B4697"/>
<path d="M91.077 558.796L75.4063 558.537L44.0002 542.102L59.714 539.001L91.077 558.796Z" fill="#21305C"/>
</g>
<defs>
<filter id="filter0_f_611_13228" x="7" y="0" width="813.977" height="753.71" filterUnits="userSpaceOnUse" color-interpolation-filters="sRGB">
<feFlood flood-opacity="0" result="BackgroundImageFix"/>
<feBlend mode="normal" in="SourceGraphic" in2="BackgroundImageFix" result="shape"/>
<feGaussianBlur stdDeviation="92" result="effect1_foregroundBlur_611_13228"/>
</filter>
<filter id="filter1_f_611_13228" x="427.099" y="29.4636" width="375.189" height="375.048" filterUnits="userSpaceOnUse" color-interpolation-filters="sRGB">
<feFlood flood-opacity="0" result="BackgroundImageFix"/>
<feBlend mode="normal" in="SourceGraphic" in2="BackgroundImageFix" result="shape"/>
<feGaussianBlur stdDeviation="45" result="effect1_foregroundBlur_611_13228"/>
</filter>
<filter id="filter2_f_611_13228" x="203.807" y="354.136" width="375.189" height="375.048" filterUnits="userSpaceOnUse" color-interpolation-filters="sRGB">
<feFlood flood-opacity="0" result="BackgroundImageFix"/>
<feBlend mode="normal" in="SourceGraphic" in2="BackgroundImageFix" result="shape"/>
<feGaussianBlur stdDeviation="45" result="effect1_foregroundBlur_611_13228"/>
</filter>
<filter id="filter3_i_611_13228" x="349.785" y="347.21" width="141.554" height="232.322" filterUnits="userSpaceOnUse" color-interpolation-filters="sRGB">
<feFlood flood-opacity="0" result="BackgroundImageFix"/>
<feBlend mode="normal" in="SourceGraphic" in2="BackgroundImageFix" result="shape"/>
<feColorMatrix in="SourceAlpha" type="matrix" values="0 0 0 0 0 0 0 0 0 0 0 0 0 0 0 0 0 0 127 0" result="hardAlpha"/>
<feOffset dy="4"/>
<feGaussianBlur stdDeviation="2"/>
<feComposite in2="hardAlpha" operator="arithmetic" k2="-1" k3="1"/>
<feColorMatrix type="matrix" values="0 0 0 0 0 0 0 0 0 0 0 0 0 0 0 0 0 0 0.25 0"/>
<feBlend mode="normal" in2="shape" result="effect1_innerShadow_611_13228"/>
</filter>
<linearGradient id="paint0_linear_611_13228" x1="637.166" y1="213.457" x2="250.113" y2="213.457" gradientUnits="userSpaceOnUse">
<stop stop-color="#161B2E"/>
<stop offset="0.96" stop-color="#232A45"/>
</linearGradient>
<linearGradient id="paint1_linear_611_13228" x1="338.776" y1="317.02" x2="200.988" y2="317.02" gradientUnits="userSpaceOnUse">
<stop stop-color="#161B2E"/>
<stop offset="0.96" stop-color="#232A45"/>
</linearGradient>
<linearGradient id="paint2_linear_611_13228" x1="315.858" y1="167.162" x2="239.769" y2="353.11" gradientUnits="userSpaceOnUse">
<stop stop-color="white" stop-opacity="0"/>
<stop offset="0.1875" stop-color="#F7F4FC" stop-opacity="0"/>
<stop offset="0.28" stop-color="#F3EFFA" stop-opacity="0"/>
<stop offset="0.3" stop-color="#F3F0FA" stop-opacity="0"/>
<stop offset="0.38" stop-color="#1BDC77" stop-opacity="0.04"/>
<stop offset="0.5" stop-color="#1BDC77" stop-opacity="0.13"/>
<stop offset="0.57" stop-color="#1BDC77" stop-opacity="0.21"/>
<stop offset="0.64" stop-color="#1BDC77" stop-opacity="0.29"/>
<stop offset="0.833333" stop-color="#1BDC77" stop-opacity="0.69"/>
<stop offset="1" stop-color="#1BDC77"/>
</linearGradient>
<linearGradient id="paint3_linear_611_13228" x1="303.252" y1="475.42" x2="239.766" y2="475.42" gradientUnits="userSpaceOnUse">
<stop stop-color="#161B2E"/>
<stop offset="0.96" stop-color="#232A45"/>
</linearGradient>
<linearGradient id="paint4_linear_611_13228" x1="229.985" y1="541.645" x2="166.737" y2="541.645" gradientUnits="userSpaceOnUse">
<stop stop-color="#161B2E"/>
<stop offset="0.96" stop-color="#232A45"/>
</linearGradient>
<linearGradient id="paint5_linear_611_13228" x1="229.729" y1="455.521" x2="178.355" y2="455.521" gradientUnits="userSpaceOnUse">
<stop stop-color="#161B2E"/>
<stop offset="0.96" stop-color="#232A45"/>
</linearGradient>
<linearGradient id="paint6_linear_611_13228" x1="282.438" y1="535.906" x2="252.937" y2="535.906" gradientUnits="userSpaceOnUse">
<stop stop-color="#161B2E"/>
<stop offset="0.96" stop-color="#232A45"/>
</linearGradient>
<radialGradient id="paint7_radial_611_13228" cx="0" cy="0" r="1" gradientUnits="userSpaceOnUse" gradientTransform="translate(442.267 532.743) rotate(-173.565) scale(53.1515 31.1535)">
<stop stop-color="#F94081"/>
<stop offset="1"/>
</radialGradient>
<radialGradient id="paint8_radial_611_13228" cx="0" cy="0" r="1" gradientUnits="userSpaceOnUse" gradientTransform="translate(-29469.3 -1174.32) rotate(-162.056) scale(916.232 267.184)">
<stop stop-color="#02689B"/>
<stop offset="1"/>
</radialGradient>
<radialGradient id="paint9_radial_611_13228" cx="0" cy="0" r="1" gradientUnits="userSpaceOnUse" gradientTransform="translate(-30784 4422.72) rotate(-178.061) scale(955.07 232.205)">
<stop stop-color="#02689B"/>
<stop offset="1"/>
</radialGradient>
<radialGradient id="paint10_radial_611_13228" cx="0" cy="0" r="1" gradientUnits="userSpaceOnUse" gradientTransform="translate(-24966.4 -7013.76) rotate(-178.061) scale(955.071 747.244)">
<stop stop-color="#02689B"/>
<stop offset="1"/>
</radialGradient>
<linearGradient id="paint11_linear_611_13228" x1="420.247" y1="170.51" x2="384.706" y2="585.949" gradientUnits="userSpaceOnUse">
<stop stop-color="white" stop-opacity="0"/>
<stop offset="0.1875" stop-color="#F7F4FC" stop-opacity="0"/>
<stop offset="0.28" stop-color="#F3EFFA" stop-opacity="0"/>
<stop offset="0.3" stop-color="#F3F0FA" stop-opacity="0"/>
<stop offset="0.38" stop-color="#1BDC77" stop-opacity="0.04"/>
<stop offset="0.5" stop-color="#1BDC77" stop-opacity="0.13"/>
<stop offset="0.57" stop-color="#1BDC77" stop-opacity="0.21"/>
<stop offset="0.64" stop-color="#1BDC77" stop-opacity="0.29"/>
<stop offset="0.833333" stop-color="#1BDC77" stop-opacity="0.69"/>
<stop offset="1" stop-color="#1BDC77"/>
</linearGradient>
<linearGradient id="paint12_linear_611_13228" x1="497.888" y1="461.393" x2="321.827" y2="461.393" gradientUnits="userSpaceOnUse">
<stop stop-color="#161B2E"/>
<stop offset="0.96" stop-color="#232A45"/>
</linearGradient>
<linearGradient id="paint13_linear_611_13228" x1="738.487" y1="474.56" x2="555.195" y2="474.56" gradientUnits="userSpaceOnUse">
<stop stop-color="#161B2E"/>
<stop offset="0.96" stop-color="#232A45"/>
</linearGradient>
<linearGradient id="paint14_linear_611_13228" x1="195.901" y1="594.708" x2="112.073" y2="594.708" gradientUnits="userSpaceOnUse">
<stop stop-color="#161B2E"/>
<stop offset="0.96" stop-color="#232A45"/>
</linearGradient>
<clipPath id="clip0_611_13228">
<rect width="755.721" height="754" fill="white" transform="translate(0.279297)"/>
</clipPath>
</defs>
</svg>
