<svg width="25" height="26" viewBox="0 0 25 26" fill="none" xmlns="http://www.w3.org/2000/svg">
<path d="M4.0838 22.3692C4.25228 22.5486 4.48956 22.65 4.73722 22.65H20.2608H20.2608H20.2608H20.2608H20.2609H20.2609H20.2609H20.2609H20.2609H20.2609H20.261H20.261H20.261H20.261H20.261H20.261H20.2611H20.2611H20.2611H20.2611H20.2611H20.2611H20.2612H20.2612H20.2612H20.2612H20.2612H20.2612H20.2612H20.2613H20.2613H20.2613H20.2613H20.2613H20.2613H20.2614H20.2614H20.2614H20.2614H20.2614H20.2614H20.2614H20.2615H20.2615H20.2615H20.2615H20.2615H20.2615H20.2616H20.2616H20.2616H20.2616H20.2616H20.2616H20.2617H20.2617H20.2617H20.2617H20.2617H20.2617H20.2617H20.2618H20.2618H20.2618H20.2618H20.2618H20.2618H20.2619H20.2619H20.2619H20.2619H20.2619H20.2619H20.262H20.262H20.262H20.262H20.262H20.262H20.2621H20.2621H20.2621H20.2621H20.2621H20.2621H20.2621H20.2622H20.2622H20.2622H20.2622H20.2622H20.2622H20.2623H20.2623H20.2623H20.2623H20.2623H20.2623H20.2624H20.2624H20.2624H20.2624H20.2624H20.2624H20.2625H20.2625H20.2625H20.2625H20.2625H20.2625H20.2625H20.2626H20.2626H20.2626H20.2626H20.2626H20.2626H20.2627H20.2627H20.2627H20.2627H20.2627H20.2627H20.2627C20.749 22.65 21.15 22.2651 21.15 21.7821L21.15 21.7816C21.1498 21.7358 21.1462 21.6902 21.1389 21.6454L19.8896 8.09759C19.848 7.64705 19.4617 7.30774 19.0059 7.30774H16.5785V6.32581C16.5785 4.12969 14.7451 2.35 12.4997 2.35C10.2544 2.35 8.42117 4.1297 8.42117 6.32581V7.30774H5.99197C5.53618 7.30774 5.14986 7.64705 5.10833 8.09759C5.10833 8.0976 5.10833 8.0976 5.10833 8.0976L3.85358 21.7042L3.85358 21.7043C3.83111 21.9483 3.91512 22.1896 4.0838 22.3692ZM4.0838 22.3692L4.19315 22.2665L4.08382 22.3692C4.08381 22.3692 4.0838 22.3692 4.0838 22.3692ZM10.1956 6.32581C10.1956 5.09448 11.2256 4.08572 12.4998 4.08572C13.7741 4.08572 14.8041 5.09449 14.8041 6.32581V7.30774H10.1956V6.32581ZM18.1952 9.04345L19.2899 20.9144H5.70811L6.80279 9.04345H8.42117V10.1771C8.42117 10.6602 8.82209 11.045 9.30837 11.045C9.7947 11.045 10.1956 10.6602 10.1956 10.1771V9.04345H14.8041V10.1771C14.8041 10.6602 15.205 11.045 15.6914 11.045C16.1777 11.045 16.5786 10.6602 16.5786 10.1771V9.04345H18.1952Z" fill="white" stroke="white" stroke-width="0.3"/>
</svg>
