<svg width="25" height="26" viewBox="0 0 25 26" fill="none" xmlns="http://www.w3.org/2000/svg">
<path d="M4.48166 12.5584L4.3832 12.6716L4.48166 12.5584C4.38146 12.4712 4.26462 12.4052 4.13821 12.3643C4.0118 12.3234 3.8784 12.3085 3.74607 12.3205C3.61374 12.3324 3.48518 12.371 3.36816 12.4339C3.25113 12.4967 3.14805 12.5826 3.06513 12.6864C2.98221 12.7901 2.92117 12.9095 2.8857 13.0375C2.85052 13.1643 2.84122 13.297 2.85834 13.4275C3.07204 15.7525 4.08215 17.9329 5.7184 19.6012C7.35535 21.2702 9.5188 22.3244 11.8438 22.5861C14.1687 22.8478 16.513 22.3009 18.4811 21.0378C20.4492 19.7746 21.9207 17.8724 22.6473 15.652C23.3739 13.4316 23.3112 11.029 22.4696 8.84941C21.6281 6.66985 20.0593 4.8468 18.0279 3.68776C15.9966 2.52872 13.6269 2.10459 11.3188 2.4869C9.13857 2.84802 7.13918 3.90779 5.61997 5.50058V4.16909C5.61997 3.90821 5.51615 3.65807 5.33145 3.47368C5.14675 3.2893 4.8963 3.18576 4.63521 3.18576C4.37412 3.18576 4.12367 3.2893 3.93897 3.47368C3.75426 3.65807 3.65045 3.90821 3.65045 4.16909V8.33575C3.65045 8.59663 3.75426 8.84677 3.93897 9.03116C4.12367 9.21554 4.37412 9.31908 4.63521 9.31908H4.78546H8.809C9.07009 9.31908 9.32054 9.21554 9.50524 9.03116C9.68994 8.84677 9.79376 8.59663 9.79376 8.33575C9.79376 8.07487 9.68994 7.82473 9.50524 7.64034C9.32054 7.45596 9.07009 7.35242 8.809 7.35242H6.61221C7.74961 5.95093 9.32134 4.96138 11.0848 4.54267C12.9473 4.10044 14.9061 4.3229 16.6215 5.17145C18.3369 6.02 19.7006 7.4411 20.4762 9.18825C21.2519 10.9354 21.3905 12.8984 20.8682 14.7369C20.3458 16.5754 19.1953 18.1735 17.6162 19.2539C16.0371 20.3343 14.1289 20.829 12.2227 20.6521C10.3164 20.4751 8.53236 19.6377 7.17989 18.2851C5.82817 16.9333 4.99276 15.1522 4.81826 13.2502C4.81162 13.1188 4.77864 12.9901 4.72126 12.8716L4.58626 12.937L4.72126 12.8716C4.66337 12.7521 4.58187 12.6456 4.48166 12.5584ZM12.8443 7.64034C12.6596 7.45596 12.4091 7.35242 12.148 7.35242C11.8869 7.35242 11.6365 7.45596 11.4518 7.64034C11.2671 7.82473 11.1633 8.07487 11.1633 8.33575V13.3357C11.1633 13.5966 11.2671 13.8468 11.4518 14.0312C11.6365 14.2155 11.8869 14.3191 12.148 14.3191H15.4871C15.7482 14.3191 15.9986 14.2155 16.1833 14.0312C16.368 13.8468 16.4718 13.5966 16.4718 13.3357C16.4718 13.0749 16.368 12.8247 16.1833 12.6403C15.9986 12.4559 15.7482 12.3524 15.4871 12.3524H13.1328V8.33575C13.1328 8.07487 13.029 7.82473 12.8443 7.64034Z" fill="white" stroke="white" stroke-width="0.3"/>
</svg>
