<svg width="25" height="26" viewBox="0 0 25 26" fill="none" xmlns="http://www.w3.org/2000/svg">
<path d="M13 2.5C12.5398 2.5 12.1667 2.8731 12.1667 3.33333V11.6667C12.1667 12.1269 12.5398 12.5 13 12.5C13.4602 12.5 13.8333 12.1269 13.8333 11.6667V3.33333C13.8333 2.8731 13.4602 2.5 13 2.5ZM9.66667 4.30273C9.66667 3.70311 9.07238 3.28654 8.53637 3.55528C5.25916 5.19836 3 8.58939 3 12.5C3 18.0142 7.48583 22.5 13 22.5C18.5142 22.5 23 18.0142 23 12.5C23 8.58959 20.7411 5.1987 17.4641 3.55492C16.9279 3.28595 16.3333 3.70266 16.3333 4.30254C16.3333 4.6473 16.5393 4.95578 16.8449 5.11539C19.5089 6.50667 21.3333 9.29308 21.3333 12.5C21.3333 17.0967 17.5967 20.8333 13 20.8333C8.40333 20.8333 4.66667 17.0967 4.66667 12.5C4.66667 9.29301 6.49121 6.50656 9.15522 5.1153C9.46072 4.95576 9.66667 4.64737 9.66667 4.30273Z" fill="white"/>
<path d="M13 2.35C12.4569 2.35 12.0167 2.79025 12.0167 3.33333V11.6667C12.0167 12.2097 12.4569 12.65 13 12.65C13.5431 12.65 13.9833 12.2097 13.9833 11.6667V3.33333C13.9833 2.79025 13.5431 2.35 13 2.35ZM9.81667 4.30273C9.81667 3.60722 9.11857 3.09558 8.46914 3.42119C5.14343 5.08858 2.85 8.53017 2.85 12.5C2.85 18.097 7.40299 22.65 13 22.65C18.597 22.65 23.15 18.097 23.15 12.5C23.15 8.53037 20.8568 5.08894 17.5314 3.42084C16.8818 3.09498 16.1833 3.60676 16.1833 4.30254C16.1833 4.70879 16.4256 5.06559 16.7755 5.24834C19.3922 6.61494 21.1833 9.35143 21.1833 12.5C21.1833 17.0138 17.5138 20.6833 13 20.6833C8.48618 20.6833 4.81667 17.0138 4.81667 12.5C4.81667 9.35136 6.60792 6.61483 9.22466 5.24826C9.57448 5.06557 9.81667 4.70886 9.81667 4.30273Z" stroke="white" stroke-width="0.3"/>
</svg>
