<svg width="25" height="26" viewBox="0 0 25 26" fill="none" xmlns="http://www.w3.org/2000/svg">
<path d="M13 22.5C7.477 22.5 3 18.023 3 12.5C3 6.977 7.477 2.5 13 2.5C18.523 2.5 23 6.977 23 12.5C23 18.023 18.523 22.5 13 22.5ZM8.013 18.756C9.42855 19.8877 11.1877 20.5029 13 20.5C14.8923 20.5027 16.7239 19.8321 18.167 18.608C17.5157 17.9397 16.7371 17.4089 15.877 17.0468C15.017 16.6847 14.0931 16.4988 13.16 16.5C12.1926 16.4989 11.2355 16.6988 10.3495 17.0872C9.46343 17.4756 8.66778 18.0439 8.013 18.756ZM6.616 17.32C7.45645 16.4281 8.47067 15.7177 9.59614 15.2327C10.7216 14.7477 11.9345 14.4984 13.16 14.5C14.3417 14.4985 15.512 14.7304 16.6037 15.1824C17.6955 15.6344 18.6873 16.2976 19.522 17.134C20.3781 15.9291 20.8836 14.5106 20.9826 13.0359C21.0815 11.5612 20.77 10.0879 20.0825 8.77945C19.395 7.47102 18.3585 6.37862 17.088 5.62344C15.8174 4.86827 14.3625 4.47984 12.8846 4.50125C11.4067 4.52267 9.96366 4.95308 8.71552 5.74476C7.46738 6.53643 6.46296 7.6584 5.81369 8.9862C5.16442 10.314 4.89569 11.7957 5.03732 13.2669C5.17894 14.7382 5.72537 16.1414 6.616 17.321V17.32ZM13 13.5C11.9391 13.5 10.9217 13.0786 10.1716 12.3284C9.42143 11.5783 9 10.5609 9 9.5C9 8.43913 9.42143 7.42172 10.1716 6.67157C10.9217 5.92143 11.9391 5.5 13 5.5C14.0609 5.5 15.0783 5.92143 15.8284 6.67157C16.5786 7.42172 17 8.43913 17 9.5C17 10.5609 16.5786 11.5783 15.8284 12.3284C15.0783 13.0786 14.0609 13.5 13 13.5ZM13 11.5C13.5304 11.5 14.0391 11.2893 14.4142 10.9142C14.7893 10.5391 15 10.0304 15 9.5C15 8.96957 14.7893 8.46086 14.4142 8.08579C14.0391 7.71071 13.5304 7.5 13 7.5C12.4696 7.5 11.9609 7.71071 11.5858 8.08579C11.2107 8.46086 11 8.96957 11 9.5C11 10.0304 11.2107 10.5391 11.5858 10.9142C11.9609 11.2893 12.4696 11.5 13 11.5Z" fill="white"/>
</svg>
