<svg width="30" height="30" viewBox="0 0 30 30" fill="none" xmlns="http://www.w3.org/2000/svg">
<g id="avatar">
<path id="Vector" d="M20.0326 9.5651C20.0326 10.7758 19.5516 11.937 18.6955 12.7931C17.8393 13.6492 16.6782 14.1302 15.4674 14.1302C14.2567 14.1302 13.0956 13.6492 12.2394 12.7931C11.3833 11.937 10.9023 10.7758 10.9023 9.5651C10.9023 8.35436 11.3833 7.19321 12.2394 6.33709C13.0956 5.48097 14.2567 5 15.4674 5C16.6782 5 17.8393 5.48097 18.6955 6.33709C19.5516 7.19321 20.0326 8.35436 20.0326 9.5651Z" fill="white"/>
<path id="Ellipse 53" d="M24.9367 22.1816C24.9367 23.7382 19.4909 25 15.4684 25C11.4459 25 6 23.7382 6 22.1816C6 22.1203 6 22.0554 6.00058 21.9873C6.07125 13.6415 24.9367 13.8355 24.9367 22.1816Z" fill="white"/>
</g>
</svg>
