<?xml version="1.0" encoding="utf-8"?>
<!-- Generator: Adobe Illustrator 26.3.1, SVG Export Plug-In . SVG Version: 6.00 Build 0)  -->
<svg version="1.1" id="Layer_1" xmlns="http://www.w3.org/2000/svg" xmlns:xlink="http://www.w3.org/1999/xlink" x="0px" y="0px"
	 viewBox="0 0 30 30" style="enable-background:new 0 0 30 30;" xml:space="preserve">
<style type="text/css">
	.st0{fill:none;stroke:#FFFFFF;stroke-miterlimit:10;}
</style>
<path class="st0" d="M4.9,25.5L4.9,25.5L6.3,9.1l0,0c0-0.5,0.5-0.9,1-0.9h2.9V7c0-2.6,2.1-4.7,4.8-4.7c2.6,0,4.8,2.1,4.8,4.7v1.2
	h2.9c0.5,0,1,0.4,1,0.9l1.5,16.3c0,0.1,0,0.1,0,0.2v0c0,0.6-0.5,1-1,1h0l0,0l0,0l0,0l0,0h0l0,0l0,0l0,0l0,0l0,0h0l0,0l0,0l0,0l0,0h0
	l0,0l0,0l0,0l0,0l0,0h0l0,0l0,0l0,0l0,0l0,0h0l0,0l0,0l0,0l0,0l0,0h0l0,0l0,0l0,0l0,0h0l0,0l0,0l0,0l0,0l0,0h0l0,0l0,0l0,0l0,0h0
	l0,0l0,0l0,0l0,0l0,0h0l0,0l0,0l0,0l0,0h0l0,0l0,0l0,0l0,0l0,0h0l0,0l0,0l0,0l0,0h0l0,0l0,0l0,0l0,0l0,0h0l0,0l0,0l0,0l0,0l0,0h0
	l0,0l0,0l0,0l0,0l0,0h0l0,0l0,0l0,0l0,0h0l0,0l0,0l0,0l0,0l0,0h0l0,0l0,0l0,0l0,0l0,0h0l0,0l0,0l0,0l0,0h0l0,0l0,0l0,0l0,0l0,0h0
	l0,0l0,0l0,0l0,0l0,0h0l0,0l0,0l0,0l0,0l0,0l0,0h0H5.9c-0.3,0-0.6-0.1-0.8-0.3L4.9,25.5z M4.9,25.5c0,0.3,0.1,0.8,0.1,0.7L4.9,25.5z
	 M12.3,7c0-1.5,1.2-2.7,2.7-2.7c1.5,0,2.7,1.2,2.7,2.7v1.2h-5.5V7z M21.5,9.8l1.3,14.3h-16L8,9.8h2v1.4c0,0.6,0.5,1,1,1
	c0.6,0,1-0.5,1-1V9.8h5.5v1.4c0,0.6,0.5,1,1,1c0.6,0,1-0.5,1-1V9.8H21.5z"/>
</svg>
