<svg width="30" height="30" viewBox="0 0 30 30" fill="none" xmlns="http://www.w3.org/2000/svg">
<path d="M11.3542 19.1538C11.6367 19.3713 11.9964 19.4707 12.3544 19.4303C12.7123 19.3899 13.0391 19.2129 13.2628 18.9382L18.3234 12.7249C18.5471 12.4502 18.6494 12.1004 18.6078 11.7525C18.5663 11.4045 18.3842 11.0868 18.1017 10.8693C17.8192 10.6518 17.4594 10.5524 17.1015 10.5928C16.7436 10.6332 16.4168 10.8102 16.1931 11.0849L11.1325 17.2982C10.9088 17.5729 10.8065 17.9227 10.848 18.2706C10.8896 18.6186 11.0717 18.9363 11.3542 19.1538ZM16.2365 19.5427L13.7062 22.6494C13.0351 23.4733 12.0548 24.0044 10.981 24.1256C9.90724 24.2469 8.82788 23.9485 7.98039 23.296C7.13291 22.6436 6.58672 21.6906 6.46199 20.6466C6.33726 19.6026 6.64419 18.5533 7.31528 17.7293L9.8456 14.6226C10.0693 14.348 10.1716 13.9982 10.13 13.6502C10.0885 13.3022 9.90639 12.9845 9.6239 12.7671C9.3414 12.5496 8.98162 12.4501 8.62369 12.4905C8.26576 12.531 7.939 12.708 7.71531 12.9826L5.18498 16.0893C4.06651 17.4625 3.55495 19.2115 3.76284 20.9514C3.97073 22.6914 4.88104 24.2798 6.29351 25.3672C7.70598 26.4546 9.50492 26.9519 11.2946 26.7498C13.0842 26.5477 14.718 25.6627 15.8365 24.2894L18.3668 21.1827C18.5905 20.9081 18.6928 20.5583 18.6512 20.2103C18.6096 19.8623 18.4276 19.5446 18.1451 19.3272C17.8626 19.1097 17.5028 19.0102 17.1449 19.0506C16.7869 19.0911 16.4602 19.2681 16.2365 19.5427ZM13.6194 5.73368L11.0891 8.84036C10.8654 9.11501 10.7631 9.4648 10.8046 9.81279C10.8462 10.1608 11.0283 10.4785 11.3108 10.6959C11.5933 10.9134 11.9531 11.0129 12.311 10.9725C12.6689 10.932 12.9957 10.755 13.2194 10.4804L15.7497 7.37371C16.4208 6.54977 17.401 6.01875 18.4748 5.89748C19.5486 5.77621 20.628 6.07463 21.4755 6.72707C22.3229 7.37951 22.8691 8.33254 22.9939 9.3765C23.1186 10.4205 22.8117 11.4698 22.1406 12.2938L19.6103 15.4005C19.3866 15.6751 19.2842 16.0249 19.3258 16.3729C19.3674 16.7209 19.5495 17.0386 19.832 17.256C20.1145 17.4735 20.4742 17.573 20.8322 17.5326C21.1901 17.4921 21.5169 17.3151 21.7406 17.0405L24.2709 13.9338C25.3894 12.5606 25.9009 10.8116 25.693 9.07167C25.4851 7.33174 24.5748 5.74335 23.1623 4.65595C21.7499 3.56854 19.9509 3.07119 18.1613 3.27331C16.3716 3.47542 14.7379 4.36044 13.6194 5.73368Z" fill="white"/>
</svg>
