<svg width="212" height="56" viewBox="0 0 212 56" fill="none" xmlns="http://www.w3.org/2000/svg">
<path d="M67.2134 15.4395H70.7202L71.9595 22.9629L72.1792 24.7646H72.355L72.5923 22.9629L73.9019 15.4395H76.4067L73.9985 27.9463H70.1226L69.0679 21.1611L68.8833 19.2891H68.7075L68.5054 21.1611L67.2661 27.9463H63.3901L60.9819 15.4395H64.0405L65.2798 22.9629L65.4995 24.7646H65.6753L65.9126 22.9629L67.2134 15.4395ZM86.3735 27.9463H78.2173V15.4395H86.3735V17.7246H81.0562V20.5283H85.7759V22.6553H81.0562V25.6611H86.3735V27.9463ZM88.7993 15.4395H95.9624L97.9399 17.417V20.0801L96.6655 21.3545L98.3706 23.0684V25.9688L96.3931 27.9463H88.7993V15.4395ZM95.1011 19.8604V18.2959L94.3628 17.5576H91.6382V20.5459H94.4155L95.1011 19.8604ZM95.5317 25.0811V23.3057L94.7935 22.5674H91.6382V25.8193H94.7935L95.5317 25.0811ZM105.806 24.4395H99.812V22.1543H105.806V24.4395ZM115.483 28.0342H109.585L107.599 26.0566V17.3291L109.585 15.3428H115.377L117.039 17.0566L115.017 18.8936L113.778 17.6543H111.185L110.447 18.3926V24.9932L111.185 25.7314H113.936L115.377 24.3076L117.337 26.1445L115.483 28.0342ZM120.827 17.9004H117.425V15.4395H127.067V17.9004H123.666V27.9463H120.827V17.9004ZM133.808 27.9463H129.545V25.7139H132.674L133.325 25.0811L133.562 23.7715H129.422L127.708 15.4395H130.732L131.813 21.5391H133.896L134.854 15.4395H137.605L135.794 25.9688L133.808 27.9463ZM140.444 30.1787H137.596V25.6436H138.458L139.073 25.0283L140.136 15.4395H148.002V25.6436H149.259V30.1787H146.42V27.9463H140.444V30.1787ZM142.562 17.7422L141.736 24.9756L140.91 25.6436H145.155V17.7422H142.562ZM157.539 20.959L154.418 27.9463H151.237V15.4395H154.076V23.7363H154.172L154.55 22.4355L157.662 15.4395H160.843V27.9463H158.004V19.6494H157.917L157.539 20.959ZM169.694 23.4639H168.252L165.95 27.9463H162.926L165.554 23.1562L163.55 21.249V17.417L165.537 15.4395H172.533V27.9463H169.694V23.4639ZM169.694 17.5576H167.136L166.398 18.2959V20.5986L167.136 21.3369H169.694V17.5576ZM181.005 28.0342L179.019 26.0566V17.3291L181.005 15.3428H186.903L188.889 17.3291V26.0566L186.903 28.0342H181.005ZM186.042 24.9932V18.3926L185.303 17.6543H182.605L181.867 18.3926V24.9932L182.605 25.7314H185.303L186.042 24.9932ZM193.398 28.0342L191.412 26.0566V17.3291L193.398 15.3428H199.295L201.282 17.3291V26.0566L199.295 28.0342H193.398ZM198.434 24.9932V18.3926L197.696 17.6543H194.998L194.259 18.3926V24.9932L194.998 25.7314H197.696L198.434 24.9932ZM207.118 27.9463H203.083V25.4766H205.483L206.256 24.7031V17.7422H204.094V15.4395H209.095V25.9688L207.118 27.9463Z" fill="white"/>
<path d="M62.9996 34.3569H63.9717V37.2949L64.815 36.5H66.335L67.2911 37.4561V40.9902L66.335 41.9463H64.815L63.9717 41.1567H63.9234L63.7139 41.9463H62.9996V34.3569ZM65.7711 41.1084L66.3135 40.5713V37.875L65.7711 37.3379H65.046L63.9717 38.2617V40.1846L65.046 41.1084H65.7711ZM73.1829 43.144L72.2215 44.1001H69.7401L68.9237 43.2891L69.5951 42.6284L70.2342 43.2676H71.6737L72.2108 42.7251V41.6724L71.8617 41.9463H69.9603L68.9989 40.9902V36.5H69.971V40.5713L70.5081 41.1084H72.2108V36.5H73.1829V43.144ZM82.3725 41.9463H81.2821L80.7021 40.0879H78.1615L77.5976 41.9463H76.5878L78.8974 34.3569H79.9877L82.3725 41.9463ZM79.3808 35.6782L79.2411 36.5L78.4462 39.1426H80.4066L79.5795 36.5L79.4345 35.6782H79.3808ZM84.2897 37.2949H84.3381L85.1706 36.5H86.2824V37.3916H85.3801L84.3381 38.2832V41.9463H83.3659V36.5H84.0803L84.2897 37.2949ZM87.5014 37.3379H86.83V36.5H87.5014V35.5977L88.4145 35.0713H88.4682V36.5H89.5586V37.3379H88.4682V40.5176L89.0053 41.0547H89.9668V41.9463H88.4575L87.5014 40.9902V37.3379ZM95.4128 43.144L94.4514 44.1001H91.97L91.1536 43.2891L91.8249 42.6284L92.4641 43.2676H93.9036L94.4407 42.7251V41.6724L94.0915 41.9463H92.1902L91.2287 40.9902V36.5H92.2009V40.5713L92.738 41.1084H94.4407V36.5H95.4128V43.144ZM100.542 36.5L101.498 37.4561V40.9902L100.542 41.9463H98.0659L97.1099 40.9902V37.4561L98.0659 36.5H100.542ZM98.6192 37.3379L98.0767 37.875V40.5713L98.6192 41.1084H99.9942L100.531 40.5713V37.875L99.9942 37.3379H98.6192ZM107.653 37.3379L107.111 37.875V41.9463H106.144V37.875L105.607 37.3379H104.715L104.178 37.875V41.9463H103.206V36.5H103.92L104.13 36.9512H104.178L104.629 36.5H105.967L106.67 37.2036L107.379 36.5H109.093L110.049 37.4561V41.9463H109.082V37.875L108.545 37.3379H107.653ZM119.738 41.9463H118.551L116.848 38.9868H115.43V41.9463H114.393V34.3569H118.014L119.222 35.5654V37.7139L118.003 38.9331L119.738 41.9463ZM118.191 35.9951L117.498 35.3022H115.43V38.0415H117.498L118.191 37.3486V35.9951ZM124.169 36.5L125.125 37.4561V41.9463H124.41L124.201 41.1567H124.158L123.309 41.9463H121.795L120.833 40.9902V39.6367L121.795 38.6807H124.158V37.875L123.621 37.3379H122.31L121.671 37.9287L121.01 37.2358L121.795 36.5H124.169ZM122.342 39.5132L121.805 40.0557V40.5713L122.342 41.1084H123.078L124.158 40.1846V39.5132H122.342ZM130.302 41.0332L131.151 41.8818V43.2461L130.302 44.0894H127.343L126.499 43.2461V41.8818L127.343 41.0332H128.347V40.1523H127.729L126.773 39.1963V37.4561L127.729 36.5H129.921L130.426 37.0049L130.931 36.5H131.382V37.6763H130.877V39.1963L129.921 40.1523H129.314V41.0332H130.302ZM128.277 37.3379L127.74 37.875V38.7773L128.277 39.3198H129.368L129.91 38.7773V37.875L129.368 37.3379H128.277ZM127.896 41.8711L127.466 42.3008V42.8271L127.896 43.2568H129.754L130.184 42.8271V42.3008L129.754 41.8711H127.896ZM136.183 36.5L137.139 37.4561V40.9902L136.183 41.9463H133.707L132.751 40.9902V37.4561L133.707 36.5H136.183ZM134.26 37.3379L133.718 37.875V40.5713L134.26 41.1084H135.635L136.173 40.5713V37.875L135.635 37.3379H134.26ZM138.707 41.9463L138.407 41.4629L141.205 37.3379H138.541V36.5H142.279L142.58 36.9834L139.782 41.1084H142.591V41.9463H138.707ZM143.912 36.5H144.884V41.9463H143.912V36.5ZM144.884 35.3022H143.912V34.3569H144.884V35.3022ZM150.873 41.9463H149.906V37.875L149.363 37.3379H148.681L147.607 38.2617V41.9463H146.635V36.5H147.349L147.559 37.2949H147.607L148.45 36.5H149.917L150.873 37.4561V41.9463ZM155.233 44.0894H154.288L157.72 33.6963H158.666L155.233 44.0894ZM163.655 34.3569H164.778L163.172 38.0308L165.095 41.9463H163.929L162.259 38.5356H160.862V41.9463H159.826V34.3569H160.862V37.5903H162.291L163.655 34.3569ZM169.456 36.5L170.412 37.4561V40.9902L169.456 41.9463H166.98L166.024 40.9902V37.4561L166.98 36.5H169.456ZM167.533 37.3379L166.99 37.875V40.5713L167.533 41.1084H168.908L169.445 40.5713V37.875L168.908 37.3379H167.533ZM174.386 41.9463H173.156L171.459 36.5H172.496L173.785 40.8882H173.806L175.111 36.5H176.083L174.386 41.9463ZM180.3 36.5L181.256 37.4561V41.9463H180.541L180.332 41.1567H180.289L179.44 41.9463H177.926L176.964 40.9902V39.6367L177.926 38.6807H180.289V37.875L179.752 37.3379H178.441L177.802 37.9287L177.141 37.2358L177.926 36.5H180.3ZM178.473 39.5132L177.936 40.0557V40.5713L178.473 41.1084H179.209L180.289 40.1846V39.5132H178.473ZM183.012 34.3569H183.984V41.9463H183.012V34.3569ZM189.806 40.9902L188.85 41.9463H186.186L185.407 41.1782L186.046 40.5176L186.68 41.1084H188.302L188.839 40.5713V40.1201L188.302 39.583H186.428L185.471 38.627V37.4561L186.428 36.5H188.807L189.586 37.2627L188.925 37.9287L188.313 37.3379H186.981L186.438 37.875V38.208L186.981 38.7451H188.85L189.806 39.7012V40.9902ZM194.189 36.5H195.182L193.947 39.0513L195.488 41.9463H194.387L193.098 39.4702H192.212V41.9463H191.24V34.3569H192.212V38.6377H193.168L194.189 36.5ZM196.584 36.5H197.556V41.9463H196.584V36.5ZM197.556 35.3022H196.584V34.3569H197.556V35.3022ZM203.491 43.144L202.529 44.1001H200.048L199.232 43.2891L199.903 42.6284L200.542 43.2676H201.982L202.519 42.7251V41.6724L202.17 41.9463H200.268L199.307 40.9902V36.5H200.279V40.5713L200.816 41.1084H202.519V36.5H203.491V43.144ZM205.419 44.0894H204.474L207.906 33.6963H208.851L205.419 44.0894Z" fill="#1BDC77"/>
<path d="M19.7672 33.5923C17.7133 30.1053 14.8451 27.1372 11.3916 24.9249C11.0427 24.7016 10.616 24.6223 10.2051 24.7045C9.79423 24.7866 9.43278 25.0234 9.2001 25.3629C8.96742 25.7024 8.88255 26.1169 8.9641 26.5153C9.04566 26.9137 9.28698 27.2635 9.63509 27.4879C12.6814 29.44 15.2113 32.0587 17.023 35.1351C18.0811 36.9283 19.5442 38.4641 21.3032 39.6278C23.0621 40.7915 25.0715 41.5532 27.1813 41.856C27.5958 41.9165 28.0191 41.8146 28.3579 41.5727C28.6968 41.3308 28.9236 40.9687 28.9884 40.5661C29.0532 40.1635 28.9506 39.7534 28.7034 39.4259C28.4561 39.0984 28.0843 38.8804 27.6699 38.8199C26.0286 38.5846 24.4654 37.9922 23.097 37.087C21.7286 36.1818 20.5904 34.9872 19.7672 33.5923ZM30.1587 29.5198C29.7948 29.7243 29.3629 29.7807 28.958 29.6765C28.5531 29.5723 28.2084 29.316 27.9997 28.964C24.9355 23.7933 20.5644 19.4696 15.2961 16.3981C15.1182 16.2949 14.9632 16.1585 14.8399 15.9969C14.7167 15.8352 14.6277 15.6513 14.5779 15.4558C14.5281 15.2603 14.5185 15.057 14.5498 14.8575C14.581 14.6579 14.6524 14.4661 14.7599 14.2929C14.8674 14.1197 15.0089 13.9686 15.1763 13.8481C15.3437 13.7277 15.5337 13.6403 15.7355 13.591C15.9372 13.5416 16.1468 13.5313 16.3522 13.5606C16.5577 13.5899 16.7549 13.6582 16.9326 13.7616C22.6602 17.1004 27.4123 21.8003 30.7439 27.4212C30.9525 27.7732 31.0081 28.192 30.8984 28.5856C30.7886 28.9791 30.5225 29.3152 30.1587 29.5198ZM33.3061 34.8282C31.4861 35.8488 29.3274 36.1294 27.3037 35.6085C25.28 35.0876 23.5565 33.8077 22.5114 32.0496C22.3027 31.6976 22.2471 31.2788 22.3568 30.8852C22.4666 30.4917 22.7327 30.1556 23.0966 29.9511C23.4605 29.7465 23.8924 29.6901 24.2973 29.7943C24.7021 29.8985 25.0468 30.1548 25.2555 30.5068C25.8816 31.5627 26.9157 32.3316 28.1303 32.6442C29.345 32.9569 30.6407 32.7878 31.7324 32.174C32.8241 31.5602 33.6224 30.5522 33.9516 29.3715C34.2809 28.1909 34.1141 26.9344 33.4881 25.8785C30.3735 20.594 26.0807 16.0562 20.9218 12.5951C20.7515 12.4806 20.6063 12.3346 20.4945 12.1654C20.3826 11.9961 20.3064 11.807 20.2701 11.6087C20.2337 11.4104 20.238 11.2069 20.2827 11.0098C20.3274 10.8127 20.4117 10.6259 20.5306 10.4599C20.6495 10.294 20.8008 10.1522 20.9759 10.0427C21.1509 9.93318 21.3463 9.85808 21.5508 9.82167C21.7553 9.78526 21.9649 9.78825 22.1678 9.83049C22.3706 9.87273 22.5627 9.95337 22.733 10.0678C28.2748 13.7854 32.8863 18.6594 36.2322 24.3357C37.2732 26.0961 37.5498 28.1895 37.0012 30.1565C36.4527 32.1236 35.1238 33.8037 33.3061 34.8282ZM39.6011 45.4454C34.869 48.0989 29.2564 48.8285 23.9948 47.4741C18.7332 46.1197 14.2521 42.7919 11.5348 38.2208C10.5543 36.562 9.28817 35.0795 7.79097 33.8373C7.47335 33.5735 7.27738 33.1975 7.24613 32.7919C7.21489 32.3863 7.35091 31.9843 7.62432 31.6743C7.89774 31.3643 8.28616 31.1716 8.70423 31.1386C9.12231 31.1055 9.53583 31.2348 9.85393 31.4981C11.6234 32.9661 13.1199 34.7179 14.2789 36.6781C16.5745 40.5498 20.3662 43.369 24.8199 44.5154C29.2736 45.6618 34.0245 45.0416 38.0274 42.7912C42.0303 40.5407 44.9573 36.8444 46.1646 32.5154C47.3718 28.1864 46.7604 23.5793 44.4648 19.7075C42.6676 16.6748 40.57 13.8203 38.2017 11.1844C38.0653 11.033 37.9611 10.8568 37.8952 10.666C37.8292 10.4751 37.8027 10.2733 37.8172 10.0721C37.8317 9.87085 37.8869 9.67412 37.9796 9.49314C38.0724 9.31216 38.2008 9.15049 38.3577 9.01735C38.5145 8.88421 38.6967 8.78223 38.8938 8.71721C39.0909 8.6522 39.299 8.62544 39.5063 8.63846C39.7135 8.65148 39.9159 8.70403 40.1018 8.79309C40.2877 8.88216 40.4534 9.006 40.5896 9.15755C43.0927 11.9431 45.3096 14.9597 47.209 18.1648C49.9157 22.7418 50.6348 28.1846 49.2085 33.2989C47.7822 38.4133 44.3271 42.7816 39.6011 45.4454ZM21.2312 27.4256C20.9158 27.6956 20.5038 27.8338 20.0853 27.81C19.6669 27.7861 19.2762 27.6021 18.9991 27.2983C16.8718 24.9605 14.366 22.9751 11.5792 21.4195C11.3996 21.3192 11.2422 21.1855 11.1162 21.0258C10.9901 20.8662 10.8979 20.6839 10.8447 20.4893C10.7915 20.2946 10.7784 20.0915 10.8061 19.8915C10.8339 19.6915 10.9019 19.4985 11.0064 19.3236C11.1109 19.1487 11.2497 18.9952 11.415 18.8721C11.5803 18.7489 11.7688 18.6584 11.9697 18.6058C12.1706 18.5531 12.38 18.5394 12.5859 18.5653C12.7918 18.5911 12.9902 18.6562 13.1698 18.7567C16.2518 20.4771 19.023 22.6729 21.3754 25.2586C21.6522 25.5628 21.7926 25.9621 21.7655 26.3685C21.7385 26.7748 21.5463 27.1551 21.2312 27.4256ZM36.4536 40.1367C35.938 40.4265 35.4047 40.6852 34.8567 40.9114C34.6651 40.9903 34.4596 41.0319 34.2519 41.0338C34.0442 41.0358 33.8383 40.998 33.6461 40.9226C33.4539 40.8473 33.2791 40.7359 33.1317 40.5947C32.9843 40.4535 32.8671 40.2854 32.7869 40.0999C32.6249 39.7253 32.6232 39.3027 32.7823 38.9251C32.8611 38.7381 32.9769 38.5678 33.1233 38.4239C33.2696 38.28 33.4435 38.1653 33.6351 38.0864C34.0623 37.9102 34.478 37.7085 34.8798 37.4825C37.4246 36.0481 39.2851 33.696 40.0531 30.9421C40.8211 28.1882 40.4339 25.2575 38.9764 22.7929C37.9569 21.0733 36.8283 19.4171 35.5973 17.8339C35.3452 17.5099 35.2366 17.1013 35.2954 16.6979C35.3541 16.2945 35.5755 15.9293 35.9108 15.6827C36.2461 15.4361 36.6678 15.3283 37.0831 15.3831C37.4985 15.4378 37.8735 15.6505 38.1256 15.9744C39.4352 17.6588 40.6358 19.4207 41.7206 21.2501C43.5944 24.4189 44.0923 28.187 43.1049 31.7277C42.1174 35.2684 39.7254 38.2926 36.4536 40.1367ZM33.7745 13.2752C33.6259 13.4169 33.4501 13.5289 33.2572 13.6049C33.0643 13.6808 32.8581 13.7192 32.6503 13.7178C32.4426 13.7164 32.2374 13.6752 32.0465 13.5967C31.8557 13.5182 31.6828 13.4038 31.538 13.2601C30.7272 12.4577 29.8768 11.6746 29.0102 10.9325C28.8549 10.7995 28.7283 10.638 28.6376 10.4571C28.5469 10.2763 28.4939 10.0797 28.4816 9.87854C28.4694 9.67738 28.498 9.47562 28.566 9.28477C28.634 9.09391 28.74 8.91771 28.878 8.76621C29.0159 8.61472 29.1831 8.4909 29.3699 8.40183C29.5568 8.31275 29.7597 8.26017 29.967 8.24708C30.1744 8.23399 30.3821 8.26064 30.5784 8.32552C30.7746 8.39041 30.9556 8.49225 31.1109 8.62523C32.034 9.41567 32.9399 10.2497 33.8031 11.1045C33.9481 11.248 34.0624 11.418 34.1394 11.6048C34.2165 11.7915 34.2547 11.9914 34.2521 12.193C34.2494 12.3945 34.2059 12.5939 34.124 12.7795C34.042 12.9652 33.9233 13.1336 33.7745 13.2752Z" fill="white"/>
</svg>
