<svg width="246" height="56" viewBox="0 0 246 56" fill="none" xmlns="http://www.w3.org/2000/svg">
  <path d="M37.4001 22.7914C39.454 26.2784 42.3222 29.2465 45.7757 31.4588C46.1246 31.6821 46.5513 31.7614 46.9622 31.6792C47.373 31.5971 47.7345 31.3603 47.9672 31.0208C48.1998 30.6813 48.2847 30.2668 48.2032 29.8684C48.1216 29.47 47.8803 29.1202 47.5322 28.8958C44.4859 26.9437 41.956 24.325 40.1443 21.2486C39.0862 19.4554 37.6231 17.9196 35.8641 16.7559C34.1052 15.5922 32.0958 14.8305 29.986 14.5277C29.5715 14.4672 29.1482 14.5691 28.8094 14.811C28.4705 15.0529 28.2437 15.415 28.1789 15.8176C28.1141 16.2202 28.2167 16.6303 28.4639 16.9578C28.7112 17.2853 29.083 17.5033 29.4974 17.5638C31.1387 17.7991 32.7019 18.3915 34.0703 19.2967C35.4387 20.2019 36.5769 21.3965 37.4001 22.7914ZM27.0086 26.8639C27.3725 26.6594 27.8044 26.603 28.2093 26.7072C28.6142 26.8114 28.9589 27.0677 29.1676 27.4197C32.2318 32.5904 36.6029 36.9141 41.8712 39.9856C42.0491 40.0888 42.2041 40.2252 42.3274 40.3868C42.4506 40.5485 42.5396 40.7324 42.5894 40.9279C42.6392 41.1234 42.6488 41.3267 42.6175 41.5262C42.5863 41.7258 42.5149 41.9176 42.4074 42.0908C42.2999 42.264 42.1584 42.4151 41.991 42.5356C41.8236 42.656 41.6336 42.7434 41.4318 42.7927C41.2301 42.8421 41.0205 42.8524 40.8151 42.8231C40.6096 42.7938 40.4124 42.7255 40.2347 42.6221C34.5071 39.2833 29.755 34.5834 26.4234 28.9625C26.2148 28.6105 26.1592 28.1917 26.2689 27.7981C26.3787 27.4046 26.6448 27.0685 27.0086 26.8639ZM23.8612 21.5555C25.6812 20.5349 27.8399 20.2543 29.8636 20.7752C31.8873 21.2961 33.6108 22.576 34.6559 24.3341C34.8646 24.6861 34.9202 25.1049 34.8105 25.4985C34.7007 25.892 34.4346 26.2281 34.0707 26.4326C33.7068 26.6372 33.2749 26.6936 32.87 26.5894C32.4652 26.4852 32.1205 26.2289 31.9118 25.8769C31.2857 24.821 30.2516 24.0521 29.037 23.7395C27.8223 23.4268 26.5266 23.5959 25.4349 24.2097C24.3432 24.8235 23.5449 25.8315 23.2157 27.0122C22.8864 28.1928 23.0532 29.4493 23.6792 30.5052C26.7938 35.7897 31.0866 40.3275 36.2455 43.7886C36.4158 43.9031 36.561 44.0491 36.6728 44.2183C36.7847 44.3876 36.8609 44.5767 36.8972 44.775C36.9336 44.9733 36.9293 45.1768 36.8846 45.3739C36.8399 45.571 36.7556 45.7578 36.6367 45.9238C36.5178 46.0897 36.3665 46.2315 36.1914 46.341C36.0164 46.4506 35.821 46.5257 35.6165 46.5621C35.412 46.5985 35.2024 46.5955 34.9995 46.5532C34.7967 46.511 34.6046 46.4304 34.4343 46.3159C28.8925 42.5983 24.281 37.7243 20.9351 32.048C19.8941 30.2876 19.6175 28.1942 20.1661 26.2272C20.7146 24.2601 22.0435 22.58 23.8612 21.5555ZM17.5662 10.9383C22.2983 8.28487 27.9109 7.55527 33.1725 8.90967C38.4341 10.264 42.9152 13.5918 45.6325 18.1629C46.613 19.8217 47.8791 21.3042 49.3763 22.5464C49.6939 22.8102 49.8899 23.1862 49.9211 23.5918C49.9524 23.9974 49.8164 24.3994 49.5429 24.7094C49.2695 25.0194 48.8811 25.2121 48.463 25.2451C48.045 25.2782 47.6314 25.1489 47.3133 24.8856C45.5439 23.4176 44.0474 21.6658 42.8884 19.7056C40.5928 15.8339 36.8011 13.0147 32.3474 11.8683C27.8937 10.7219 23.1428 11.3421 19.1399 13.5925C15.137 15.843 12.21 19.5393 11.0027 23.8683C9.79548 28.1973 10.4069 32.8044 12.7025 36.6762C14.4997 39.7089 16.5973 42.5634 18.9656 45.1993C19.102 45.3507 19.2062 45.5269 19.2721 45.7177C19.3381 45.9086 19.3646 46.1104 19.3501 46.3116C19.3356 46.5129 19.2804 46.7096 19.1877 46.8906C19.0949 47.0716 18.9665 47.2332 18.8096 47.3664C18.6528 47.4995 18.4706 47.6015 18.2735 47.6665C18.0764 47.7315 17.8683 47.7583 17.661 47.7453C17.4538 47.7323 17.2514 47.6797 17.0655 47.5906C16.8796 47.5016 16.7139 47.3777 16.5777 47.2262C14.0746 44.4406 11.8577 41.424 9.95828 38.2189C7.25158 33.6419 6.53248 28.1991 7.95878 23.0848C9.38508 17.9704 12.8402 13.6021 17.5662 10.9383ZM35.9361 28.9581C36.2515 28.6881 36.6635 28.5499 37.082 28.5737C37.5004 28.5976 37.8911 28.7816 38.1682 29.0854C40.2955 31.4232 42.8013 33.4086 45.5881 34.9642C45.7677 35.0645 45.9251 35.1982 46.0511 35.3579C46.1772 35.5175 46.2694 35.6998 46.3226 35.8944C46.3758 36.0891 46.3889 36.2922 46.3612 36.4922C46.3334 36.6922 46.2654 36.8852 46.1609 37.0601C46.0564 37.235 45.9176 37.3885 45.7523 37.5116C45.587 37.6348 45.3985 37.7253 45.1976 37.7779C44.9967 37.8306 44.7873 37.8443 44.5814 37.8184C44.3755 37.7926 44.1771 37.7275 43.9975 37.627C40.9155 35.9066 38.1443 33.7108 35.7919 31.1251C35.5151 30.8209 35.3747 30.4216 35.4018 30.0152C35.4288 29.6089 35.621 29.2286 35.9361 28.9581ZM20.7137 16.247C21.2293 15.9572 21.7626 15.6985 22.3106 15.4723C22.5022 15.3934 22.7077 15.3518 22.9154 15.3499C23.1231 15.3479 23.329 15.3857 23.5212 15.4611C23.7134 15.5364 23.8882 15.6478 24.0356 15.789C24.183 15.9302 24.3002 16.0983 24.3804 16.2838C24.5424 16.6584 24.5441 17.081 24.385 17.4586C24.3062 17.6456 24.1904 17.8159 24.044 17.9598C23.8977 18.1037 23.7238 18.2184 23.5322 18.2973C23.105 18.4735 22.6893 18.6752 22.2875 18.9012C19.7427 20.3356 17.8822 22.6877 17.1142 25.4416C16.3462 28.1955 16.7334 31.1262 18.1909 33.5908C19.2104 35.3104 20.339 36.9666 21.57 38.5498C21.8221 38.8738 21.9307 39.2824 21.8719 39.6858C21.8132 40.0892 21.5918 40.4544 21.2565 40.701C20.9212 40.9476 20.4995 41.0554 20.0842 41.0006C19.6688 40.9459 19.2938 40.7332 19.0417 40.4093C17.7321 38.7249 16.5315 36.963 15.4467 35.1336C13.5729 31.9648 13.075 28.1967 14.0624 24.656C15.0499 21.1153 17.4419 18.0911 20.7137 16.247ZM23.3928 43.1085C23.5414 42.9668 23.7172 42.8548 23.9101 42.7788C24.103 42.7029 24.3092 42.6645 24.517 42.6659C24.7247 42.6673 24.9299 42.7085 25.1208 42.787C25.3116 42.8655 25.4845 42.9799 25.6293 43.1236C26.4401 43.926 27.2905 44.7091 28.1571 45.4512C28.3124 45.5842 28.439 45.7457 28.5297 45.9266C28.6204 46.1074 28.6734 46.304 28.6857 46.5052C28.6979 46.7064 28.6693 46.9081 28.6013 47.099C28.5333 47.2898 28.4273 47.466 28.2893 47.6175C28.1514 47.769 27.9842 47.8928 27.7974 47.9819C27.6105 48.071 27.4076 48.1236 27.2003 48.1367C26.9929 48.1497 26.7852 48.1231 26.5889 48.0582C26.3927 47.9933 26.2117 47.8915 26.0564 47.7585C25.1333 46.9681 24.2274 46.134 23.3642 45.2792C23.2192 45.1357 23.1049 44.9657 23.0279 44.7789C22.9508 44.5922 22.9126 44.3923 22.9152 44.1907C22.9179 43.9892 22.9614 43.7898 23.0433 43.6042C23.1253 43.4185 23.244 43.2501 23.3928 43.1085Z" fill="white" />
  <path d="M64.996 28L61.207 15.04H63.484L66.067 24.4L68.641 15.058L70.918 15.04L73.501 24.4L76.075 15.04H78.352L74.572 28H72.43L69.775 18.784L67.138 28H64.996ZM79.8205 28V15.04H88.1905V17.074H81.9895V20.269H87.1105V22.303H81.9895V25.966H88.1905V28H79.8205ZM90.3498 28V15.04H95.4888C96.3648 15.04 97.0818 15.217 97.6398 15.571C98.2038 15.919 98.6208 16.366 98.8908 16.912C99.1668 17.458 99.3048 18.022 99.3048 18.604C99.3048 19.318 99.1338 19.924 98.7918 20.422C98.4558 20.92 97.9968 21.256 97.4148 21.43V20.98C98.2308 21.166 98.8488 21.553 99.2688 22.141C99.6948 22.729 99.9078 23.398 99.9078 24.148C99.9078 24.916 99.7608 25.588 99.4668 26.164C99.1728 26.74 98.7348 27.19 98.1528 27.514C97.5768 27.838 96.8628 28 96.0108 28H90.3498ZM92.5458 25.957H95.7408C96.1188 25.957 96.4578 25.882 96.7578 25.732C97.0578 25.576 97.2918 25.36 97.4598 25.084C97.6338 24.802 97.7208 24.469 97.7208 24.085C97.7208 23.737 97.6458 23.425 97.4958 23.149C97.3458 22.873 97.1268 22.654 96.8388 22.492C96.5508 22.324 96.2058 22.24 95.8038 22.24H92.5458V25.957ZM92.5458 20.215H95.4618C95.7738 20.215 96.0528 20.155 96.2988 20.035C96.5448 19.915 96.7398 19.738 96.8838 19.504C97.0278 19.27 97.0998 18.982 97.0998 18.64C97.0998 18.19 96.9558 17.815 96.6678 17.515C96.3798 17.215 95.9778 17.065 95.4618 17.065H92.5458V20.215ZM101.525 22.366V20.665H106.925V22.366H101.525ZM114.061 28.27C113.113 28.27 112.258 28.105 111.496 27.775C110.74 27.445 110.116 26.974 109.624 26.362C109.138 25.744 108.829 25.012 108.697 24.166L110.947 23.824C111.139 24.592 111.532 25.186 112.126 25.606C112.726 26.026 113.416 26.236 114.196 26.236C114.658 26.236 115.093 26.164 115.501 26.02C115.909 25.876 116.239 25.666 116.491 25.39C116.749 25.114 116.878 24.775 116.878 24.373C116.878 24.193 116.848 24.028 116.788 23.878C116.728 23.722 116.638 23.584 116.518 23.464C116.404 23.344 116.254 23.236 116.068 23.14C115.888 23.038 115.678 22.951 115.438 22.879L112.09 21.889C111.802 21.805 111.49 21.694 111.154 21.556C110.824 21.412 110.509 21.217 110.209 20.971C109.915 20.719 109.672 20.401 109.48 20.017C109.294 19.627 109.201 19.147 109.201 18.577C109.201 17.743 109.411 17.044 109.831 16.48C110.257 15.91 110.827 15.484 111.541 15.202C112.261 14.92 113.059 14.782 113.935 14.788C114.823 14.794 115.615 14.947 116.311 15.247C117.007 15.541 117.589 15.97 118.057 16.534C118.525 17.098 118.855 17.779 119.047 18.577L116.716 18.982C116.62 18.526 116.434 18.139 116.158 17.821C115.888 17.497 115.555 17.251 115.159 17.083C114.769 16.915 114.352 16.825 113.908 16.813C113.476 16.807 113.074 16.873 112.702 17.011C112.336 17.143 112.039 17.335 111.811 17.587C111.589 17.839 111.478 18.133 111.478 18.469C111.478 18.787 111.574 19.048 111.766 19.252C111.958 19.45 112.195 19.609 112.477 19.729C112.765 19.843 113.056 19.939 113.35 20.017L115.672 20.665C115.99 20.749 116.347 20.863 116.743 21.007C117.139 21.151 117.52 21.352 117.886 21.61C118.252 21.868 118.552 22.207 118.786 22.627C119.026 23.047 119.146 23.581 119.146 24.229C119.146 24.901 119.005 25.492 118.723 26.002C118.447 26.506 118.072 26.926 117.598 27.262C117.124 27.598 116.581 27.85 115.969 28.018C115.363 28.186 114.727 28.27 114.061 28.27ZM124.208 28V17.074H120.014V15.04H130.571V17.074H126.377V28H124.208ZM137.23 28.27C136.198 28.27 135.289 28.06 134.503 27.64C133.723 27.22 133.111 26.629 132.667 25.867C132.229 25.105 132.01 24.211 132.01 23.185V15.058L134.206 15.04V23.131C134.206 23.617 134.287 24.052 134.449 24.436C134.617 24.82 134.842 25.147 135.124 25.417C135.406 25.681 135.73 25.882 136.096 26.02C136.462 26.158 136.84 26.227 137.23 26.227C137.632 26.227 138.013 26.158 138.373 26.02C138.739 25.876 139.063 25.672 139.345 25.408C139.627 25.138 139.849 24.811 140.011 24.427C140.173 24.043 140.254 23.611 140.254 23.131V15.04H142.45V23.185C142.45 24.211 142.228 25.105 141.784 25.867C141.346 26.629 140.734 27.22 139.948 27.64C139.168 28.06 138.262 28.27 137.23 28.27ZM144.965 28V15.04H149.096C149.204 15.04 149.417 15.043 149.735 15.049C150.059 15.055 150.371 15.076 150.671 15.112C151.697 15.244 152.564 15.61 153.272 16.21C153.986 16.804 154.526 17.563 154.892 18.487C155.258 19.411 155.441 20.422 155.441 21.52C155.441 22.618 155.258 23.629 154.892 24.553C154.526 25.477 153.986 26.239 153.272 26.839C152.564 27.433 151.697 27.796 150.671 27.928C150.377 27.964 150.068 27.985 149.744 27.991C149.42 27.997 149.204 28 149.096 28H144.965ZM147.17 25.957H149.096C149.276 25.957 149.504 25.951 149.78 25.939C150.062 25.927 150.311 25.9 150.527 25.858C151.139 25.744 151.637 25.471 152.021 25.039C152.405 24.607 152.687 24.082 152.867 23.464C153.053 22.846 153.146 22.198 153.146 21.52C153.146 20.818 153.053 20.158 152.867 19.54C152.681 18.922 152.393 18.403 152.003 17.983C151.619 17.563 151.127 17.296 150.527 17.182C150.311 17.134 150.062 17.107 149.78 17.101C149.504 17.089 149.276 17.083 149.096 17.083H147.17V25.957ZM157.749 28V15.04H159.918V28H157.749ZM168.095 28.27C166.799 28.27 165.689 27.988 164.765 27.424C163.841 26.854 163.13 26.062 162.632 25.048C162.14 24.034 161.894 22.858 161.894 21.52C161.894 20.182 162.14 19.006 162.632 17.992C163.13 16.978 163.841 16.189 164.765 15.625C165.689 15.055 166.799 14.77 168.095 14.77C169.391 14.77 170.501 15.055 171.425 15.625C172.355 16.189 173.066 16.978 173.558 17.992C174.056 19.006 174.305 20.182 174.305 21.52C174.305 22.858 174.056 24.034 173.558 25.048C173.066 26.062 172.355 26.854 171.425 27.424C170.501 27.988 169.391 28.27 168.095 28.27ZM168.095 26.227C168.965 26.233 169.688 26.041 170.264 25.651C170.846 25.261 171.281 24.712 171.569 24.004C171.863 23.296 172.01 22.468 172.01 21.52C172.01 20.572 171.863 19.75 171.569 19.054C171.281 18.352 170.846 17.806 170.264 17.416C169.688 17.026 168.965 16.825 168.095 16.813C167.225 16.807 166.502 16.999 165.926 17.389C165.35 17.779 164.915 18.328 164.621 19.036C164.333 19.744 164.189 20.572 164.189 21.52C164.189 22.468 164.333 23.293 164.621 23.995C164.909 24.691 165.341 25.234 165.917 25.624C166.499 26.014 167.225 26.215 168.095 26.227Z" fill="white" />
  <path d="M179.699 28V15.04H184.838C185.714 15.04 186.431 15.217 186.989 15.571C187.553 15.919 187.97 16.366 188.24 16.912C188.516 17.458 188.654 18.022 188.654 18.604C188.654 19.318 188.483 19.924 188.141 20.422C187.805 20.92 187.346 21.256 186.764 21.43V20.98C187.58 21.166 188.198 21.553 188.618 22.141C189.044 22.729 189.257 23.398 189.257 24.148C189.257 24.916 189.11 25.588 188.816 26.164C188.522 26.74 188.084 27.19 187.502 27.514C186.926 27.838 186.212 28 185.36 28H179.699ZM181.895 25.957H185.09C185.468 25.957 185.807 25.882 186.107 25.732C186.407 25.576 186.641 25.36 186.809 25.084C186.983 24.802 187.07 24.469 187.07 24.085C187.07 23.737 186.995 23.425 186.845 23.149C186.695 22.873 186.476 22.654 186.188 22.492C185.9 22.324 185.555 22.24 185.153 22.24H181.895V25.957ZM181.895 20.215H184.811C185.123 20.215 185.402 20.155 185.648 20.035C185.894 19.915 186.089 19.738 186.233 19.504C186.377 19.27 186.449 18.982 186.449 18.64C186.449 18.19 186.305 17.815 186.017 17.515C185.729 17.215 185.327 17.065 184.811 17.065H181.895V20.215ZM191.235 28V15.04H193.404V25.966H199.128V28H191.235ZM199.753 28L203.839 15.04H207.016L211.102 28H208.87L205.162 16.372H205.648L201.985 28H199.753ZM202.03 25.192V23.167H208.834V25.192H202.03ZM212.369 28V27.703L218.759 17.074H212.819V15.04H222.512V15.346L216.158 25.957H222.359V28H212.369ZM224.664 28V15.04H233.034V17.074H226.833V20.269H231.954V22.303H226.833V25.966H233.034V28H224.664ZM235.194 28V15.04H240.549C240.675 15.04 240.837 15.046 241.035 15.058C241.233 15.064 241.416 15.082 241.584 15.112C242.334 15.226 242.952 15.475 243.438 15.859C243.93 16.243 244.293 16.729 244.527 17.317C244.767 17.899 244.887 18.547 244.887 19.261C244.887 20.317 244.62 21.226 244.086 21.988C243.552 22.744 242.733 23.212 241.629 23.392L240.702 23.473H237.363V28H235.194ZM242.637 28L240.081 22.726L242.286 22.24L245.094 28H242.637ZM237.363 21.448H240.459C240.579 21.448 240.714 21.442 240.864 21.43C241.014 21.418 241.152 21.394 241.278 21.358C241.638 21.268 241.92 21.109 242.124 20.881C242.334 20.653 242.481 20.395 242.565 20.107C242.655 19.819 242.7 19.537 242.7 19.261C242.7 18.985 242.655 18.703 242.565 18.415C242.481 18.121 242.334 17.86 242.124 17.632C241.92 17.404 241.638 17.245 241.278 17.155C241.152 17.119 241.014 17.098 240.864 17.092C240.714 17.08 240.579 17.074 240.459 17.074H237.363V21.448Z" fill="#1BDC77" />
  <path d="M65.6129 44.21C64.8756 44.21 64.2572 44.035 63.7579 43.685C63.2586 43.335 62.8829 42.859 62.6309 42.257C62.3789 41.6503 62.2529 40.9713 62.2529 40.22C62.2529 39.4593 62.3789 38.778 62.6309 38.176C62.8829 37.574 63.2516 37.1003 63.7369 36.755C64.2269 36.405 64.8312 36.23 65.5499 36.23C66.2639 36.23 66.8822 36.405 67.4049 36.755C67.9322 37.1003 68.3406 37.574 68.6299 38.176C68.9192 38.7733 69.0639 39.4547 69.0639 40.22C69.0639 40.976 68.9216 41.655 68.6369 42.257C68.3522 42.859 67.9509 43.335 67.4329 43.685C66.9149 44.035 66.3082 44.21 65.6129 44.21ZM61.9659 44V33.92H63.6669V38.694H63.4569V44H61.9659ZM65.3539 42.698C65.7926 42.698 66.1542 42.5883 66.4389 42.369C66.7236 42.1497 66.9336 41.8533 67.0689 41.48C67.2089 41.102 67.2789 40.682 67.2789 40.22C67.2789 39.7627 67.2089 39.3473 67.0689 38.974C66.9289 38.596 66.7119 38.2973 66.4179 38.078C66.1239 37.854 65.7506 37.742 65.2979 37.742C64.8686 37.742 64.5186 37.847 64.2479 38.057C63.9772 38.2623 63.7766 38.5517 63.6459 38.925C63.5199 39.2937 63.4569 39.7253 63.4569 40.22C63.4569 40.71 63.5199 41.1417 63.6459 41.515C63.7766 41.8883 63.9796 42.18 64.2549 42.39C64.5349 42.5953 64.9012 42.698 65.3539 42.698ZM71.095 47.36L72.551 43.363L72.579 44.539L69.282 36.44H71.039L73.377 42.432H72.929L75.204 36.44H76.891L72.677 47.36H71.095ZM80.7377 44V33.92H84.7347C85.416 33.92 85.9737 34.0577 86.4077 34.333C86.8464 34.6037 87.1707 34.9513 87.3807 35.376C87.5954 35.8007 87.7027 36.2393 87.7027 36.692C87.7027 37.2473 87.5697 37.7187 87.3037 38.106C87.0424 38.4933 86.6854 38.7547 86.2327 38.89V38.54C86.8674 38.6847 87.348 38.9857 87.6747 39.443C88.006 39.9003 88.1717 40.4207 88.1717 41.004C88.1717 41.6013 88.0574 42.124 87.8287 42.572C87.6 43.02 87.2594 43.37 86.8067 43.622C86.3587 43.874 85.8034 44 85.1407 44H80.7377ZM82.4457 42.411H84.9307C85.2247 42.411 85.4884 42.3527 85.7217 42.236C85.955 42.1147 86.137 41.9467 86.2677 41.732C86.403 41.5127 86.4707 41.2537 86.4707 40.955C86.4707 40.6843 86.4124 40.4417 86.2957 40.227C86.179 40.0123 86.0087 39.842 85.7847 39.716C85.5607 39.5853 85.2924 39.52 84.9797 39.52H82.4457V42.411ZM82.4457 37.945H84.7137C84.9564 37.945 85.1734 37.8983 85.3647 37.805C85.556 37.7117 85.7077 37.574 85.8197 37.392C85.9317 37.21 85.9877 36.986 85.9877 36.72C85.9877 36.37 85.8757 36.0783 85.6517 35.845C85.4277 35.6117 85.115 35.495 84.7137 35.495H82.4457V37.945ZM89.7097 44V33.71H91.3967V44H89.7097ZM95.6076 44.21C95.0616 44.21 94.5996 44.1073 94.2216 43.902C93.8436 43.692 93.5566 43.4143 93.3606 43.069C93.1692 42.7237 93.0736 42.3433 93.0736 41.928C93.0736 41.564 93.1342 41.2373 93.2556 40.948C93.3769 40.654 93.5636 40.402 93.8156 40.192C94.0676 39.9773 94.3942 39.8023 94.7956 39.667C95.0989 39.569 95.4536 39.4803 95.8596 39.401C96.2702 39.3217 96.7136 39.2493 97.1896 39.184C97.6702 39.114 98.1719 39.0393 98.6946 38.96L98.0926 39.303C98.0972 38.7803 97.9806 38.3953 97.7426 38.148C97.5046 37.9007 97.1032 37.777 96.5386 37.777C96.1979 37.777 95.8689 37.8563 95.5516 38.015C95.2342 38.1737 95.0126 38.4467 94.8866 38.834L93.3466 38.351C93.5332 37.7117 93.8879 37.1983 94.4106 36.811C94.9379 36.4237 95.6472 36.23 96.5386 36.23C97.2106 36.23 97.8009 36.3397 98.3096 36.559C98.8229 36.7783 99.2032 37.1377 99.4506 37.637C99.5859 37.903 99.6676 38.176 99.6956 38.456C99.7236 38.7313 99.7376 39.0323 99.7376 39.359V44H98.2606V42.362L98.5056 42.628C98.1649 43.174 97.7659 43.5753 97.3086 43.832C96.8559 44.084 96.2889 44.21 95.6076 44.21ZM95.9436 42.866C96.3262 42.866 96.6529 42.7983 96.9236 42.663C97.1942 42.5277 97.4089 42.362 97.5676 42.166C97.7309 41.97 97.8406 41.7857 97.8966 41.613C97.9852 41.3983 98.0342 41.1533 98.0436 40.878C98.0576 40.598 98.0646 40.3717 98.0646 40.199L98.5826 40.353C98.0739 40.4323 97.6376 40.5023 97.2736 40.563C96.9096 40.6237 96.5969 40.682 96.3356 40.738C96.0742 40.7893 95.8432 40.8477 95.6426 40.913C95.4466 40.983 95.2809 41.0647 95.1456 41.158C95.0102 41.2513 94.9052 41.3587 94.8306 41.48C94.7606 41.6013 94.7256 41.7437 94.7256 41.907C94.7256 42.0937 94.7722 42.2593 94.8656 42.404C94.9589 42.544 95.0942 42.656 95.2716 42.74C95.4536 42.824 95.6776 42.866 95.9436 42.866ZM100.86 44V43.769L104.864 37.917H101.266V36.44H107.489V36.678L103.499 42.523H107.321V44H100.86ZM111.901 44.21C111.136 44.21 110.464 44.0443 109.885 43.713C109.307 43.3817 108.854 42.922 108.527 42.334C108.205 41.746 108.044 41.0693 108.044 40.304C108.044 39.478 108.203 38.7617 108.52 38.155C108.838 37.5437 109.279 37.07 109.843 36.734C110.408 36.398 111.061 36.23 111.803 36.23C112.587 36.23 113.252 36.4143 113.798 36.783C114.349 37.147 114.757 37.6627 115.023 38.33C115.289 38.9973 115.39 39.7837 115.324 40.689H113.651V40.073C113.647 39.2517 113.502 38.652 113.217 38.274C112.933 37.896 112.485 37.707 111.873 37.707C111.183 37.707 110.669 37.9217 110.333 38.351C109.997 38.7757 109.829 39.3987 109.829 40.22C109.829 40.9853 109.997 41.578 110.333 41.998C110.669 42.418 111.159 42.628 111.803 42.628C112.219 42.628 112.576 42.537 112.874 42.355C113.178 42.1683 113.411 41.9 113.574 41.55L115.24 42.054C114.951 42.7353 114.503 43.265 113.896 43.643C113.294 44.021 112.629 44.21 111.901 44.21ZM109.297 40.689V39.415H114.498V40.689H109.297ZM116.886 44V36.44H118.377V38.281L118.195 38.043C118.289 37.791 118.412 37.5623 118.566 37.357C118.725 37.147 118.914 36.9743 119.133 36.839C119.32 36.713 119.525 36.615 119.749 36.545C119.978 36.4703 120.211 36.426 120.449 36.412C120.687 36.3933 120.918 36.4027 121.142 36.44V38.015C120.918 37.9497 120.659 37.9287 120.365 37.952C120.076 37.9753 119.815 38.057 119.581 38.197C119.348 38.323 119.157 38.484 119.007 38.68C118.863 38.876 118.755 39.1 118.685 39.352C118.615 39.5993 118.58 39.8677 118.58 40.157V44H116.886ZM121.638 44L125.054 38.904L121.736 33.92H123.801L126.097 37.469L128.372 33.92H130.451L127.133 38.904L130.535 44H128.47L126.097 40.339L123.717 44H121.638ZM130.812 44L134.228 38.904L130.91 33.92H132.975L135.271 37.469L137.546 33.92H139.625L136.307 38.904L139.709 44H137.644L135.271 40.339L132.891 44H130.812ZM140.966 44V33.92H142.653V44H140.966Z" fill="#1BDC77" />
</svg>