<svg width="43" height="41" viewBox="0 0 43 41" fill="none" xmlns="http://www.w3.org/2000/svg">
<path d="M12.7672 25.5923C10.7133 22.1053 7.8451 19.1372 4.39158 16.9249C4.04271 16.7016 3.61599 16.6223 3.20511 16.7045C2.79423 16.7866 2.43278 17.0234 2.2001 17.3629C1.96742 17.7024 1.88255 18.1169 1.9641 18.5153C2.04566 18.9137 2.28698 19.2635 2.63509 19.4879C5.68142 21.44 8.21134 24.0587 10.023 27.1351C11.0811 28.9283 12.5442 30.4641 14.3032 31.6278C16.0621 32.7915 18.0715 33.5532 20.1813 33.856C20.5958 33.9165 21.0191 33.8146 21.3579 33.5727C21.6968 33.3308 21.9236 32.9687 21.9884 32.5661C22.0532 32.1635 21.9506 31.7534 21.7034 31.4259C21.4561 31.0984 21.0843 30.8804 20.6699 30.8199C19.0286 30.5846 17.4654 29.9922 16.097 29.087C14.7286 28.1818 13.5904 26.9872 12.7672 25.5923ZM23.1587 21.5198C22.7948 21.7243 22.3629 21.7807 21.958 21.6765C21.5531 21.5723 21.2084 21.316 20.9997 20.964C17.9355 15.7933 13.5644 11.4696 8.29606 8.39809C8.11817 8.29488 7.96317 8.15854 7.83994 7.99686C7.71671 7.83519 7.62765 7.65135 7.57786 7.45584C7.52807 7.26034 7.51852 7.057 7.54976 6.85746C7.58099 6.65791 7.6524 6.46606 7.75991 6.29288C7.86741 6.11969 8.0089 5.96857 8.17629 5.84813C8.34369 5.7277 8.5337 5.64031 8.73547 5.59098C8.93725 5.54165 9.14683 5.53133 9.35225 5.56061C9.55766 5.58989 9.75488 5.6582 9.93264 5.76164C15.6602 9.10036 20.4123 13.8003 23.7439 19.4212C23.9525 19.7732 24.0081 20.192 23.8984 20.5856C23.7886 20.9791 23.5225 21.3152 23.1587 21.5198ZM26.3061 26.8282C24.4861 27.8488 22.3274 28.1294 20.3037 27.6085C18.28 27.0876 16.5565 25.8077 15.5114 24.0496C15.3027 23.6976 15.2471 23.2788 15.3568 22.8852C15.4666 22.4917 15.7327 22.1556 16.0966 21.9511C16.4605 21.7465 16.8924 21.6901 17.2973 21.7943C17.7021 21.8985 18.0468 22.1548 18.2555 22.5068C18.8816 23.5627 19.9157 24.3316 21.1303 24.6442C22.345 24.9569 23.6407 24.7878 24.7324 24.174C25.8241 23.5602 26.6224 22.5522 26.9516 21.3715C27.2809 20.1909 27.1141 18.9344 26.4881 17.8785C23.3735 12.594 19.0807 8.0562 13.9218 4.59507C13.7515 4.48062 13.6063 4.33461 13.4945 4.16536C13.3826 3.99613 13.3064 3.80697 13.2701 3.60871C13.2337 3.41044 13.238 3.20694 13.2827 3.00983C13.3274 2.81272 13.4117 2.62586 13.5306 2.45992C13.6495 2.29398 13.8008 2.1522 13.9759 2.04269C14.1509 1.93318 14.3463 1.85808 14.5508 1.82167C14.7553 1.78526 14.9649 1.78825 15.1678 1.83049C15.3706 1.87273 15.5627 1.95337 15.733 2.06782C21.2748 5.7854 25.8863 10.6594 29.2322 16.3357C30.2732 18.0961 30.5498 20.1895 30.0012 22.1565C29.4527 24.1236 28.1238 25.8037 26.3061 26.8282ZM32.6011 37.4454C27.869 40.0989 22.2564 40.8285 16.9948 39.4741C11.7332 38.1197 7.25213 34.7919 4.53476 30.2208C3.5543 28.562 2.28817 27.0795 0.79097 25.8373C0.473348 25.5735 0.277381 25.1975 0.246133 24.7919C0.214885 24.3863 0.350913 23.9843 0.624324 23.6743C0.897736 23.3643 1.28616 23.1716 1.70423 23.1386C2.12231 23.1055 2.53583 23.2348 2.85393 23.4981C4.62339 24.9661 6.11989 26.7179 7.27893 28.6781C9.57451 32.5498 13.3662 35.369 17.8199 36.5154C22.2736 37.6618 27.0245 37.0416 31.0274 34.7912C35.0303 32.5407 37.9573 28.8444 39.1646 24.5154C40.3718 20.1864 39.7604 15.5793 37.4648 11.7075C35.6676 8.67476 33.57 5.8203 31.2017 3.18436C31.0653 3.03298 30.9611 2.85684 30.8952 2.666C30.8292 2.47515 30.8027 2.27334 30.8172 2.07209C30.8317 1.87085 30.8869 1.67412 30.9796 1.49314C31.0724 1.31216 31.2008 1.15049 31.3577 1.01735C31.5145 0.884214 31.6967 0.782226 31.8938 0.717213C32.0909 0.652204 32.299 0.625436 32.5063 0.638457C32.7135 0.651478 32.9159 0.704026 33.1018 0.793093C33.2877 0.882159 33.4534 1.006 33.5896 1.15755C36.0927 3.94312 38.3096 6.95968 40.209 10.1648C42.9157 14.7418 43.6348 20.1846 42.2085 25.2989C40.7822 30.4133 37.3271 34.7816 32.6011 37.4454ZM14.2312 19.4256C13.9158 19.6956 13.5038 19.8338 13.0853 19.81C12.6669 19.7861 12.2762 19.6021 11.9991 19.2983C9.87183 16.9605 7.36604 14.9751 4.57924 13.4195C4.39956 13.3192 4.2422 13.1855 4.11616 13.0258C3.99011 12.8662 3.89786 12.6839 3.84466 12.4893C3.79147 12.2946 3.77837 12.0915 3.80613 11.8915C3.83388 11.6915 3.90194 11.4985 4.00642 11.3236C4.1109 11.1487 4.24974 10.9952 4.41502 10.8721C4.5803 10.7489 4.76878 10.6584 4.96969 10.6058C5.17059 10.5531 5.37998 10.5394 5.5859 10.5653C5.79182 10.5911 5.99024 10.6562 6.1698 10.7567C9.2518 12.4771 12.023 14.6729 14.3754 17.2586C14.6522 17.5628 14.7926 17.9621 14.7655 18.3685C14.7385 18.7748 14.5463 19.1551 14.2312 19.4256ZM29.4536 32.1367C28.938 32.4265 28.4047 32.6852 27.8567 32.9114C27.6651 32.9903 27.4596 33.0319 27.2519 33.0338C27.0442 33.0358 26.8383 32.998 26.6461 32.9226C26.4539 32.8473 26.2791 32.7359 26.1317 32.5947C25.9843 32.4535 25.8671 32.2854 25.7869 32.0999C25.6249 31.7253 25.6232 31.3027 25.7823 30.9251C25.8611 30.7381 25.9769 30.5678 26.1233 30.4239C26.2696 30.28 26.4435 30.1653 26.6351 30.0864C27.0623 29.9102 27.478 29.7085 27.8798 29.4825C30.4246 28.0481 32.2851 25.696 33.0531 22.9421C33.8211 20.1882 33.4339 17.2575 31.9764 14.7929C30.9569 13.0733 29.8283 11.4171 28.5973 9.83389C28.3452 9.50994 28.2366 9.10131 28.2954 8.69789C28.3541 8.29447 28.5755 7.9293 28.9108 7.68272C29.2461 7.43614 29.6678 7.32835 30.0831 7.38306C30.4985 7.43776 30.8735 7.65049 31.1256 7.97443C32.4352 9.65879 33.6358 11.4207 34.7206 13.2501C36.5944 16.4189 37.0923 20.187 36.1049 23.7277C35.1174 27.2684 32.7254 30.2926 29.4536 32.1367ZM26.7745 5.27518C26.6259 5.41688 26.4501 5.52891 26.2572 5.60486C26.0643 5.68081 25.8581 5.71918 25.6503 5.71778C25.4426 5.71638 25.2374 5.67523 25.0465 5.5967C24.8557 5.51817 24.6828 5.40379 24.538 5.2601C23.7272 4.45769 22.8768 3.67456 22.0102 2.93246C21.8549 2.79948 21.7283 2.63796 21.6376 2.45713C21.5469 2.2763 21.4939 2.07969 21.4816 1.87854C21.4694 1.67738 21.498 1.47562 21.566 1.28477C21.634 1.09391 21.74 0.917707 21.878 0.766214C22.0159 0.614717 22.1831 0.4909 22.3699 0.401827C22.5568 0.312751 22.7597 0.260168 22.967 0.247075C23.1744 0.233985 23.3821 0.260639 23.5784 0.325523C23.7746 0.390406 23.9556 0.49225 24.1109 0.62523C25.034 1.41567 25.9399 2.24971 26.8031 3.10448C26.9481 3.248 27.0624 3.41799 27.1394 3.60475C27.2165 3.79151 27.2547 3.99138 27.2521 4.19296C27.2494 4.39453 27.2059 4.59385 27.124 4.77954C27.042 4.96523 26.9233 5.13365 26.7745 5.27518Z" fill="white"/>
</svg>
